<svg xmlns="http://www.w3.org/2000/svg" width="661.2000122070312" height="422.26666259765625" style="
        width:661.2000122070312px;
        height:422.26666259765625px;
        background: transparent;
        fill: none;
">
        <svg xmlns="http://www.w3.org/2000/svg" class="role-diagram-draw-area"><g class="shapes-region" style="stroke: black; fill: none;"><g class="composite-shape"><path class="real" d=" M40,60 C40,43.43 53.43,30 70,30 C86.57,30 100,43.43 100,60 C100,76.57 86.57,90 70,90 C53.43,90 40,76.57 40,60 Z" style="stroke-width: 1px; stroke: rgb(0, 0, 0); fill: none;"/></g><g class="arrow-line"><path class="connection real" stroke-dasharray="" d="  M70,300 L70,387" style="stroke: rgb(0, 0, 0); stroke-width: 1px; fill: none;"/><g stroke="none" fill="#000" transform="matrix(-1.8369701987210297e-16,-1,1,-1.8369701987210297e-16,70,390)" style="stroke: none; fill: rgb(0, 0, 0); stroke-width: 1px;"><path d=" M10.72,-5.15 L0,0 L10.72,5.15 L7.12,0 Z"/></g></g><g class="composite-shape"><path class="real" d=" M300,58.5 C300,41.93 313.43,28.5 330,28.5 C346.57,28.5 360,41.93 360,58.5 C360,75.07 346.57,88.5 330,88.5 C313.43,88.5 300,75.07 300,58.5 Z" style="stroke-width: 1px; stroke: rgb(0, 0, 0); fill: none;"/></g><g class="arrow-line"><path class="connection real" stroke-dasharray="" d="  M80,120 L197,118.54" style="stroke: rgb(0, 0, 0); stroke-width: 1px; fill: none;"/><g stroke="none" fill="rgba(0,0,0,1)" transform="matrix(-0.9999210442038161,0.01256603988335397,-0.01256603988335397,-0.9999210442038161,200,118.5)" style="stroke: none; fill: rgb(0, 0, 0); stroke-width: 1px;"><path d=" M8.93,-4.29 L0,0 L8.93,4.29 Z"/></g></g><g class="arrow-line"><path class="connection real" stroke-dasharray="" d="  M330,300 L330,385.5" style="stroke: rgb(0, 0, 0); stroke-width: 1px; fill: none;"/><g stroke="none" fill="#000" transform="matrix(-1.8369701987210297e-16,-1,1,-1.8369701987210297e-16,330,388.49999999999994)" style="stroke: none; fill: rgb(0, 0, 0); stroke-width: 1px;"><path d=" M10.72,-5.15 L0,0 L10.72,5.15 L7.12,0 Z"/></g></g><g class="composite-shape"><path class="real" d=" M420,60 C420,43.43 433.43,30 450,30 C466.57,30 480,43.43 480,60 C480,76.57 466.57,90 450,90 C433.43,90 420,76.57 420,60 Z" style="stroke-width: 1px; stroke: rgb(0, 0, 0); fill: none;"/></g><g class="arrow-line"><path class="connection real" stroke-dasharray="" d="  M570,300 L570,385.5" style="stroke: rgb(0, 0, 0); stroke-width: 1px; fill: none;"/><g stroke="none" fill="#000" transform="matrix(-1.8369701987210297e-16,-1,1,-1.8369701987210297e-16,570,388.5)" style="stroke: none; fill: rgb(0, 0, 0); stroke-width: 1px;"><path d=" M10.72,-5.15 L0,0 L10.72,5.15 L7.12,0 Z"/></g></g><g class="composite-shape"><path class="real" d=" M540,60 C540,43.43 553.43,30 570,30 C586.57,30 600,43.43 600,60 C600,76.57 586.57,90 570,90 C553.43,90 540,76.57 540,60 Z" style="stroke-width: 1px; stroke: rgb(0, 0, 0); fill: none;"/></g><g class="arrow-line"><path class="connection real" stroke-dasharray="" d="  M450,100 L450,128.5" style="stroke: rgb(0, 0, 0); stroke-width: 1px; fill: none;"/></g><g class="arrow-line"><path class="connection real" stroke-dasharray="" d="  M450,320 L450,385.5" style="stroke: rgb(0, 0, 0); stroke-width: 1px; fill: none;"/><g stroke="none" fill="#000" transform="matrix(-1.8369701987210297e-16,-1,1,-1.8369701987210297e-16,450,388.49999999999994)" style="stroke: none; fill: rgb(0, 0, 0); stroke-width: 1px;"><path d=" M10.72,-5.15 L0,0 L10.72,5.15 L7.12,0 Z"/></g></g><g class="arrow-line"><path class="connection real" stroke-dasharray="1.125 3.35" d="  M450,135.1 L450,220" style="stroke: rgb(0, 0, 0); stroke-width: 1px; fill: none;"/><g stroke="#000" transform="matrix(6.123233995736766e-17,1,-1,6.123233995736766e-17,449.99999999999994,135.10000000000002)" style="stroke: rgb(0, 0, 0); stroke-width: 1px;"><path d=" M0,5.59 L0,-5.59 M-5.03,5.59 L-5.03,-5.59"/></g></g><g class="composite-shape"><path class="real" d=" M180,56.5 C180,39.93 193.43,26.5 210,26.5 C226.57,26.5 240,39.93 240,56.5 C240,73.07 226.57,86.5 210,86.5 C193.43,86.5 180,73.07 180,56.5 Z" style="stroke-width: 1px; stroke: rgb(0, 0, 0); fill: none;"/></g><g class="arrow-line"><path class="connection real" stroke-dasharray="" d="  M210,300 L210,383.5" style="stroke: rgb(0, 0, 0); stroke-width: 1px; fill: none;"/><g stroke="none" fill="#000" transform="matrix(-1.8369701987210297e-16,-1,1,-1.8369701987210297e-16,210,386.49999999999994)" style="stroke: none; fill: rgb(0, 0, 0); stroke-width: 1px;"><path d=" M10.72,-5.15 L0,0 L10.72,5.15 L7.12,0 Z"/></g></g><g class="arrow-line"><path class="connection real" stroke-dasharray="" d="  M220,119.5 L317,119.5" style="stroke: rgb(0, 0, 0); stroke-width: 1px; fill: none;"/><g stroke="none" fill="rgba(0,0,0,1)" transform="matrix(-1,1.2246467991473532e-16,-1.2246467991473532e-16,-1,320,119.49999999999999)" style="stroke: none; fill: rgb(0, 0, 0); stroke-width: 1px;"><path d=" M8.93,-4.29 L0,0 L8.93,4.29 Z"/></g></g><g class="arrow-line"><path class="connection real" stroke-dasharray="" d="  M220,141 L437,140.01" style="stroke: rgb(0, 0, 0); stroke-width: 1px; fill: none;"/><g stroke="none" fill="rgba(0,0,0,1)" transform="matrix(-0.9999897039488793,0.004537840481175345,-0.004537840481175345,-0.9999897039488793,440,140)" style="stroke: none; fill: rgb(0, 0, 0); stroke-width: 1px;"><path d=" M8.93,-4.29 L0,0 L8.93,4.29 Z"/></g></g><g class="arrow-line"><path class="connection real" stroke-dasharray="" d="  M220,160 L557,160" style="stroke: rgb(0, 0, 0); stroke-width: 1px; fill: none;"/><g stroke="none" fill="rgba(0,0,0,1)" transform="matrix(-1,1.2246467991473532e-16,-1.2246467991473532e-16,-1,560,160)" style="stroke: none; fill: rgb(0, 0, 0); stroke-width: 1px;"><path d=" M8.93,-4.29 L0,0 L8.93,4.29 Z"/></g></g><g class="arrow-line"><path class="connection real" stroke-dasharray="" d="  M330,190 L223,190" style="stroke: rgb(0, 0, 0); stroke-width: 1px; fill: none;"/><g stroke="none" fill="rgba(0,0,0,1)" transform="matrix(1,-2.4492935982947064e-16,2.4492935982947064e-16,1,220,190)" style="stroke: none; fill: rgb(0, 0, 0); stroke-width: 1px;"><path d=" M8.93,-4.29 L0,0 L8.93,4.29 Z"/></g></g><g class="arrow-line"><path class="connection real" stroke-dasharray="" d="  M570,200 L223,200" style="stroke: rgb(0, 0, 0); stroke-width: 1px; fill: none;"/><g stroke="none" fill="rgba(0,0,0,1)" transform="matrix(1,-2.4492935982947064e-16,2.4492935982947064e-16,1,220,200)" style="stroke: none; fill: rgb(0, 0, 0); stroke-width: 1px;"><path d=" M8.93,-4.29 L0,0 L8.93,4.29 Z"/></g></g><g class="arrow-line"><path class="connection real" stroke-dasharray="" d="  M200,200 L83,200" style="stroke: rgb(0, 0, 0); stroke-width: 1px; fill: none;"/><g stroke="none" fill="rgba(0,0,0,1)" transform="matrix(1,-2.4492935982947064e-16,2.4492935982947064e-16,1,80,200)" style="stroke: none; fill: rgb(0, 0, 0); stroke-width: 1px;"><path d=" M8.93,-4.29 L0,0 L8.93,4.29 Z"/></g></g><g class="arrow-line"><path class="connection real" stroke-dasharray="" d="  M220,260 C248.94,258.95 251.69,269.27 222.77,269.96" style="stroke: rgb(0, 0, 0); stroke-width: 1px; fill: none;"/><g stroke="none" transform="matrix(0.9999965730559848,-0.0026179908874171876,0.0026179908874171876,0.9999965730559848,220,270)" style="stroke: none; stroke-width: 1px; fill: rgb(0, 0, 0);" fill="#000"><path d=" M8.93,-4.29 L0,0 L8.93,4.29 Z"/></g></g><g class="arrow-line"><path class="connection real" stroke-dasharray="" d="  M220,360 L437,360" style="stroke: rgb(0, 0, 0); stroke-width: 1px; fill: none;"/><g stroke="none" fill="rgba(0,0,0,1)" transform="matrix(-1,1.2246467991473532e-16,-1.2246467991473532e-16,-1,439.99999999999994,360.00000000000006)" style="stroke: none; fill: rgb(0, 0, 0); stroke-width: 1px;"><path d=" M8.93,-4.29 L0,0 L8.93,4.29 Z"/></g></g><g class="grouped-shape"><g class="arrow-line"><path class="connection real" stroke-dasharray="" d="  M60,220 Q62.5,217.5 65,220 Q67.5,222.5 70,220 Q72.5,217.5 75,220 Q77.5,222.5 80,220 L80,220" style="stroke: rgb(0, 0, 0); stroke-width: 3px; fill: none;"/></g><g class="arrow-line"><path class="connection real" stroke-dasharray="" d="  M60,230 Q62.5,227.5 65,230 Q67.5,232.5 70,230 Q72.5,227.5 75,230 Q77.5,232.5 80,230 L80,230" style="stroke: rgb(0, 0, 0); stroke-width: 3px; fill: none;"/></g></g><g class="arrow-line"><path class="connection real" stroke-dasharray="" d="  M70,100 L70,220" style="stroke: rgb(0, 0, 0); stroke-width: 1px; fill: none;"/></g><g class="arrow-line"><path class="connection real" stroke-dasharray="" d="  M200,220 Q202.5,217.5 205,220 Q207.5,222.5 210,220 Q212.5,217.5 215,220 Q217.5,222.5 220,220 L220,220" style="stroke: rgb(0, 0, 0); stroke-width: 3px; fill: none;"/></g><g class="arrow-line"><path class="connection real" stroke-dasharray="" d="  M200,230 Q202.5,227.5 205,230 Q207.5,232.5 210,230 Q212.5,227.5 215,230 Q217.5,232.5 220,230 L220,230" style="stroke: rgb(0, 0, 0); stroke-width: 3px; fill: none;"/></g><g class="grouped-shape"><g class="arrow-line"><path class="connection real" stroke-dasharray="" d="  M320,220 Q322.5,217.5 325,220 Q327.5,222.5 330,220 Q332.5,217.5 335,220 Q337.5,222.5 340,220 L340,220" style="stroke: rgb(0, 0, 0); stroke-width: 3px; fill: none;"/></g><g class="arrow-line"><path class="connection real" stroke-dasharray="" d="  M320,230 Q322.5,227.5 325,230 Q327.5,232.5 330,230 Q332.5,227.5 335,230 Q337.5,232.5 340,230 L340,230" style="stroke: rgb(0, 0, 0); stroke-width: 3px; fill: none;"/></g></g><g class="arrow-line"><path class="connection real" stroke-dasharray="" d="  M440,220 Q442.5,217.5 445,220 Q447.5,222.5 450,220 Q452.5,217.5 455,220 Q457.5,222.5 460,220 L460,220" style="stroke: rgb(0, 0, 0); stroke-width: 3px; fill: none;"/></g><g class="arrow-line"><path class="connection real" stroke-dasharray="" d="  M440,230 Q442.5,227.5 445,230 Q447.5,232.5 450,230 Q452.5,227.5 455,230 Q457.5,232.5 460,230 L460,230" style="stroke: rgb(0, 0, 0); stroke-width: 3px; fill: none;"/></g><g class="arrow-line"><path class="connection real" stroke-dasharray="" d="  M560,220 Q562.5,217.5 565,220 Q567.5,222.5 570,220 Q572.5,217.5 575,220 Q577.5,222.5 580,220 L580,220" style="stroke: rgb(0, 0, 0); stroke-width: 3px; fill: none;"/></g><g class="arrow-line"><path class="connection real" stroke-dasharray="" d="  M560,230 Q562.5,227.5 565,230 Q567.5,232.5 570,230 Q572.5,227.5 575,230 Q577.5,232.5 580,230 L580,230" style="stroke: rgb(0, 0, 0); stroke-width: 3px; fill: none;"/></g><g class="arrow-line"><path class="connection real" stroke-dasharray="" d="  M210,100 L210,220" style="stroke: rgb(0, 0, 0); stroke-width: 1px; fill: none;"/></g><g class="arrow-line"><path class="connection real" stroke-dasharray="" d="  M330,100 L330,220" style="stroke: rgb(0, 0, 0); stroke-width: 1px; fill: none;"/></g><g class="arrow-line"><path class="connection real" stroke-dasharray="" d="  M570,100 L570,220" style="stroke: rgb(0, 0, 0); stroke-width: 1px; fill: none;"/></g><g class="arrow-line"><path class="connection real" stroke-dasharray="1.125 3.35" d="  M450,315 L450,300" style="stroke: rgb(0, 0, 0); stroke-width: 1px; fill: none;"/><g stroke="#000" transform="matrix(-1.8369701987210297e-16,-1,1,-1.8369701987210297e-16,450,314.99999999999994)" style="stroke: rgb(0, 0, 0); stroke-width: 1px;"><path d=" M0,5.59 L0,-5.59 M-5.03,5.59 L-5.03,-5.59"/></g></g><g class="arrow-line"><path class="connection real" stroke-dasharray="" d="  M440,330 L223,330" style="stroke: rgb(0, 0, 0); stroke-width: 1px; fill: none;"/><g stroke="none" fill="rgba(0,0,0,1)" transform="matrix(1,-2.4492935982947064e-16,2.4492935982947064e-16,1,220,330)" style="stroke: none; fill: rgb(0, 0, 0); stroke-width: 1px;"><path d=" M8.93,-4.29 L0,0 L8.93,4.29 Z"/></g></g><g class="grouped-shape"><g class="arrow-line"><path class="connection real" stroke-dasharray="" d="  M60,290 Q62.5,287.5 65,290 Q67.5,292.5 70,290 Q72.5,287.5 75,290 Q77.5,292.5 80,290 L80,290" style="stroke: rgb(0, 0, 0); stroke-width: 3px; fill: none;"/></g><g class="arrow-line"><path class="connection real" stroke-dasharray="" d="  M60,300 Q62.5,297.5 65,300 Q67.5,302.5 70,300 Q72.5,297.5 75,300 Q77.5,302.5 80,300 L80,300" style="stroke: rgb(0, 0, 0); stroke-width: 3px; fill: none;"/></g></g><g class="arrow-line"><path class="connection real" stroke-dasharray="" d="  M70,230 L70,290" style="stroke: rgb(0, 0, 0); stroke-width: 1px; fill: none;"/></g><g class="grouped-shape"><g class="arrow-line"><path class="connection real" stroke-dasharray="" d="  M200,290 Q202.5,287.5 205,290 Q207.5,292.5 210,290 Q212.5,287.5 215,290 Q217.5,292.5 220,290 L220,290" style="stroke: rgb(0, 0, 0); stroke-width: 3px; fill: none;"/></g><g class="arrow-line"><path class="connection real" stroke-dasharray="" d="  M200,300 Q202.5,297.5 205,300 Q207.5,302.5 210,300 Q212.5,297.5 215,300 Q217.5,302.5 220,300 L220,300" style="stroke: rgb(0, 0, 0); stroke-width: 3px; fill: none;"/></g></g><g class="grouped-shape"><g class="arrow-line"><path class="connection real" stroke-dasharray="" d="  M320,290 Q322.5,287.5 325,290 Q327.5,292.5 330,290 Q332.5,287.5 335,290 Q337.5,292.5 340,290 L340,290" style="stroke: rgb(0, 0, 0); stroke-width: 3px; fill: none;"/></g><g class="arrow-line"><path class="connection real" stroke-dasharray="" d="  M320,300 Q322.5,297.5 325,300 Q327.5,302.5 330,300 Q332.5,297.5 335,300 Q337.5,302.5 340,300 L340,300" style="stroke: rgb(0, 0, 0); stroke-width: 3px; fill: none;"/></g></g><g class="arrow-line"><path class="connection real" stroke-dasharray="" d="  M210,230 L210,290" style="stroke: rgb(0, 0, 0); stroke-width: 1px; fill: none;"/></g><g class="arrow-line"><path class="connection real" stroke-dasharray="" d="  M330,230 L330,290" style="stroke: rgb(0, 0, 0); stroke-width: 1px; fill: none;"/></g><g class="grouped-shape"><g class="arrow-line"><path class="connection real" stroke-dasharray="" d="  M440,290 Q442.5,287.5 445,290 Q447.5,292.5 450,290 Q452.5,287.5 455,290 Q457.5,292.5 460,290 L460,290" style="stroke: rgb(0, 0, 0); stroke-width: 3px; fill: none;"/></g><g class="arrow-line"><path class="connection real" stroke-dasharray="" d="  M440,300 Q442.5,297.5 445,300 Q447.5,302.5 450,300 Q452.5,297.5 455,300 Q457.5,302.5 460,300 L460,300" style="stroke: rgb(0, 0, 0); stroke-width: 3px; fill: none;"/></g></g><g class="arrow-line"><path class="connection real" stroke-dasharray="1.125 3.35" d="  M450,230 L450,290" style="stroke: rgb(0, 0, 0); stroke-width: 1px; fill: none;"/></g><g class="grouped-shape"><g class="arrow-line"><path class="connection real" stroke-dasharray="" d="  M560,290 Q562.5,287.5 565,290 Q567.5,292.5 570,290 Q572.5,287.5 575,290 Q577.5,292.5 580,290 L580,290" style="stroke: rgb(0, 0, 0); stroke-width: 3px; fill: none;"/></g><g class="arrow-line"><path class="connection real" stroke-dasharray="" d="  M560,300 Q562.5,297.5 565,300 Q567.5,302.5 570,300 Q572.5,297.5 575,300 Q577.5,302.5 580,300 L580,300" style="stroke: rgb(0, 0, 0); stroke-width: 3px; fill: none;"/></g></g><g class="arrow-line"><path class="connection real" stroke-dasharray="" d="  M570,230 L570,290" style="stroke: rgb(0, 0, 0); stroke-width: 1px; fill: none;"/></g><g/></g><g/><g/><g/></svg>
        <svg xmlns="http://www.w3.org/2000/svg" width="660" height="421.066650390625" style="width:660px;height:421.066650390625px;font-family:Asana-Math, Asana;background:transparent;"><g><g><g style="transform:matrix(1,0,0,1,47.266693115234375,65.81666564941406);"><path d="M342 330L365 330C373 395 380 432 389 458C365 473 330 482 293 482C248 483 175 463 118 400C64 352 25 241 25 136C25 40 67 -11 147 -11C201 -11 249 9 304 54L354 95L346 115L331 105C259 57 221 40 186 40C130 40 101 80 101 159C101 267 136 371 185 409C206 425 230 433 261 433C306 433 342 414 342 390ZM657 722L645 733C593 707 557 698 485 691L481 670L529 670C553 670 563 663 563 648C563 645 563 640 560 622C549 567 476 182 461 132C448 82 442 52 442 31C442 6 453 -9 472 -9C498 -9 534 12 632 85L622 103L596 86C567 67 545 56 535 56C528 56 522 66 522 76C522 82 523 89 526 104ZM717 388L724 368L756 389C793 412 796 414 803 414C813 414 821 404 821 391C821 384 817 361 813 347L747 107C739 76 734 49 734 30C734 6 745 -9 764 -9C790 -9 826 12 924 85L914 103L888 86C859 67 836 56 827 56C820 56 814 66 814 76C814 86 816 95 821 116L898 420C902 437 904 448 904 456C904 473 895 482 879 482C857 482 820 461 745 408ZM911 712C882 712 853 679 853 645C853 620 868 604 892 604C923 604 947 633 947 671C947 695 932 712 911 712ZM1288 111L1264 94C1211 56 1163 36 1127 36C1080 36 1051 73 1051 133C1051 158 1054 185 1059 214C1076 218 1185 248 1210 259C1295 296 1334 342 1334 404C1334 451 1300 482 1250 482C1182 496 1072 423 1035 349C1005 299 975 180 975 113C975 35 1019 -11 1091 -11C1148 -11 1204 17 1296 92ZM1073 274C1090 343 1110 386 1139 412C1157 428 1188 440 1212 440C1241 440 1260 420 1260 388C1260 344 1225 297 1173 272C1145 258 1109 247 1064 237ZM1372 388L1379 368L1411 389C1448 412 1451 414 1458 414C1469 414 1476 404 1476 389C1476 338 1435 145 1394 2L1401 -9C1426 -2 1449 4 1471 8C1490 134 1511 199 1557 268C1611 352 1686 414 1731 414C1742 414 1748 405 1748 390C1748 372 1745 351 1737 319L1685 107C1676 70 1672 47 1672 31C1672 6 1683 -9 1702 -9C1728 -9 1764 12 1862 85L1852 103L1826 86C1797 67 1775 56 1765 56C1758 56 1752 65 1752 76C1752 81 1753 92 1754 96L1820 372C1827 401 1831 429 1831 446C1831 469 1820 482 1800 482C1758 482 1689 444 1630 389C1592 354 1564 320 1512 247L1550 408C1554 426 1556 438 1556 449C1556 470 1548 482 1533 482C1512 482 1473 460 1400 408ZM2028 390L1972 107C1971 99 1959 61 1959 31C1959 6 1970 -9 1989 -9C2024 -9 2059 11 2137 74L2168 99L2158 117L2113 86C2084 66 2064 56 2053 56C2044 56 2039 64 2039 76C2039 102 2053 183 2082 328L2095 390L2202 390L2213 440C2175 436 2141 434 2103 434C2119 528 2130 577 2148 631L2137 646C2117 634 2090 622 2059 610L2034 440C1990 419 1964 408 1946 403L1944 390Z" stroke="rgb(0, 0, 0)" stroke-width="8" fill="rgb(0, 0, 0)" style="transform:matrix(0.017,0,0,-0.017,0,0);"></path></g><g><g><g><g style="transform:matrix(1,0,0,1,85.80001831054688,68.81665649414063);"><path d="M418 -3L418 27L366 30C311 33 301 44 301 96L301 700L60 598L67 548L217 614L217 96C217 44 206 33 152 30L96 27L96 -3C250 0 250 0 261 0C292 0 402 -3 418 -3Z" stroke="rgb(0, 0, 0)" stroke-width="8" fill="rgb(0, 0, 0)" style="transform:matrix(0.0119,0,0,-0.0119,0,0);"></path></g></g></g></g></g></g><g><g><g style="transform:matrix(1,0,0,1,303.5000305175781,64.31666564941406);"><path d="M368 365C371 403 376 435 384 476C373 481 369 482 364 482C333 482 302 458 266 407C227 351 188 291 172 256L204 408C208 425 210 438 210 450C210 470 202 482 187 482C166 482 128 461 54 408L26 388L33 368L65 389C93 407 104 412 113 412C123 412 130 403 130 390C130 332 87 126 47 -2L57 -9C72 -4 88 -1 111 4L124 6L150 126C168 209 191 262 235 319C269 363 296 384 318 384C333 384 343 379 354 365ZM716 111L692 94C639 56 591 36 555 36C508 36 479 73 479 133C479 158 482 185 487 214C504 218 613 248 638 259C723 296 762 342 762 404C762 451 728 482 678 482C610 496 500 423 463 349C433 299 403 180 403 113C403 35 447 -11 519 -11C576 -11 632 17 724 92ZM501 274C518 343 538 386 567 412C585 428 616 440 640 440C669 440 688 420 688 388C688 344 653 297 601 272C573 258 537 247 492 237ZM952 -11C1008 -11 1123 62 1166 125C1207 186 1241 296 1241 371C1241 438 1218 482 1182 482C1140 482 1087 456 1035 409C994 374 974 348 938 289L962 408C965 425 967 440 967 452C967 471 959 482 945 482C924 482 886 461 812 408L784 388L791 368L823 389C851 407 862 412 871 412C881 412 888 403 888 389C888 381 886 361 884 351L826 8C816 -52 797 -143 777 -233L769 -270L776 -276C797 -269 817 -264 849 -259L891 3C912 -4 934 -11 952 -11ZM919 165C941 293 1048 424 1131 424C1157 424 1169 402 1169 356C1169 275 1129 156 1076 80C1056 51 1024 36 983 36C952 36 927 43 901 59ZM1526 722L1514 733C1462 707 1426 698 1354 691L1350 670L1398 670C1422 670 1432 663 1432 648C1432 645 1432 640 1429 622C1418 567 1345 182 1330 132C1317 82 1311 52 1311 31C1311 6 1322 -9 1341 -9C1367 -9 1403 12 1501 85L1491 103L1465 86C1436 67 1414 56 1404 56C1397 56 1391 66 1391 76C1391 82 1392 89 1395 104ZM1586 388L1593 368L1625 389C1662 412 1665 414 1672 414C1682 414 1690 404 1690 391C1690 384 1686 361 1682 347L1616 107C1608 76 1603 49 1603 30C1603 6 1614 -9 1633 -9C1659 -9 1695 12 1793 85L1783 103L1757 86C1728 67 1705 56 1696 56C1689 56 1683 66 1683 76C1683 86 1685 95 1690 116L1767 420C1771 437 1773 448 1773 456C1773 473 1764 482 1748 482C1726 482 1689 461 1614 408ZM1780 712C1751 712 1722 679 1722 645C1722 620 1737 604 1761 604C1792 604 1816 633 1816 671C1816 695 1801 712 1780 712ZM2171 330L2194 330C2202 395 2209 432 2218 458C2194 473 2159 482 2122 482C2077 483 2004 463 1947 400C1893 352 1854 241 1854 136C1854 40 1896 -11 1976 -11C2030 -11 2078 9 2133 54L2183 95L2175 115L2160 105C2088 57 2050 40 2015 40C1959 40 1930 80 1930 159C1930 267 1965 371 2014 409C2035 425 2059 433 2090 433C2135 433 2171 414 2171 390ZM2506 204L2477 77C2473 60 2471 42 2471 26C2471 4 2480 -9 2495 -9C2518 -9 2559 17 2641 85L2634 106C2610 86 2581 59 2559 59C2550 59 2544 68 2544 82C2544 87 2544 90 2545 93L2637 472L2627 481L2594 463C2553 478 2536 482 2509 482C2481 482 2461 477 2434 464C2372 433 2339 403 2314 354C2270 265 2239 145 2239 67C2239 23 2254 -11 2273 -11C2310 -11 2390 41 2506 204ZM2554 414C2532 305 2513 253 2479 201C2422 117 2361 59 2329 59C2317 59 2311 72 2311 99C2311 163 2339 280 2374 360C2398 415 2421 433 2469 433C2492 433 2510 429 2554 414Z" stroke="rgb(0, 0, 0)" stroke-width="8" fill="rgb(0, 0, 0)" style="transform:matrix(0.017,0,0,-0.017,0,0);"></path></g><g><g><g><g style="transform:matrix(1,0,0,1,349.5666809082031,67.31665649414063);"><path d="M418 -3L418 27L366 30C311 33 301 44 301 96L301 700L60 598L67 548L217 614L217 96C217 44 206 33 152 30L96 27L96 -3C250 0 250 0 261 0C292 0 402 -3 418 -3Z" stroke="rgb(0, 0, 0)" stroke-width="8" fill="rgb(0, 0, 0)" style="transform:matrix(0.0119,0,0,-0.0119,0,0);"></path></g></g></g></g></g></g><g><g><g style="transform:matrix(1,0,0,1,423.5000305175781,65.81666564941406);"><path d="M368 365C371 403 376 435 384 476C373 481 369 482 364 482C333 482 302 458 266 407C227 351 188 291 172 256L204 408C208 425 210 438 210 450C210 470 202 482 187 482C166 482 128 461 54 408L26 388L33 368L65 389C93 407 104 412 113 412C123 412 130 403 130 390C130 332 87 126 47 -2L57 -9C72 -4 88 -1 111 4L124 6L150 126C168 209 191 262 235 319C269 363 296 384 318 384C333 384 343 379 354 365ZM716 111L692 94C639 56 591 36 555 36C508 36 479 73 479 133C479 158 482 185 487 214C504 218 613 248 638 259C723 296 762 342 762 404C762 451 728 482 678 482C610 496 500 423 463 349C433 299 403 180 403 113C403 35 447 -11 519 -11C576 -11 632 17 724 92ZM501 274C518 343 538 386 567 412C585 428 616 440 640 440C669 440 688 420 688 388C688 344 653 297 601 272C573 258 537 247 492 237ZM952 -11C1008 -11 1123 62 1166 125C1207 186 1241 296 1241 371C1241 438 1218 482 1182 482C1140 482 1087 456 1035 409C994 374 974 348 938 289L962 408C965 425 967 440 967 452C967 471 959 482 945 482C924 482 886 461 812 408L784 388L791 368L823 389C851 407 862 412 871 412C881 412 888 403 888 389C888 381 886 361 884 351L826 8C816 -52 797 -143 777 -233L769 -270L776 -276C797 -269 817 -264 849 -259L891 3C912 -4 934 -11 952 -11ZM919 165C941 293 1048 424 1131 424C1157 424 1169 402 1169 356C1169 275 1129 156 1076 80C1056 51 1024 36 983 36C952 36 927 43 901 59ZM1526 722L1514 733C1462 707 1426 698 1354 691L1350 670L1398 670C1422 670 1432 663 1432 648C1432 645 1432 640 1429 622C1418 567 1345 182 1330 132C1317 82 1311 52 1311 31C1311 6 1322 -9 1341 -9C1367 -9 1403 12 1501 85L1491 103L1465 86C1436 67 1414 56 1404 56C1397 56 1391 66 1391 76C1391 82 1392 89 1395 104ZM1586 388L1593 368L1625 389C1662 412 1665 414 1672 414C1682 414 1690 404 1690 391C1690 384 1686 361 1682 347L1616 107C1608 76 1603 49 1603 30C1603 6 1614 -9 1633 -9C1659 -9 1695 12 1793 85L1783 103L1757 86C1728 67 1705 56 1696 56C1689 56 1683 66 1683 76C1683 86 1685 95 1690 116L1767 420C1771 437 1773 448 1773 456C1773 473 1764 482 1748 482C1726 482 1689 461 1614 408ZM1780 712C1751 712 1722 679 1722 645C1722 620 1737 604 1761 604C1792 604 1816 633 1816 671C1816 695 1801 712 1780 712ZM2171 330L2194 330C2202 395 2209 432 2218 458C2194 473 2159 482 2122 482C2077 483 2004 463 1947 400C1893 352 1854 241 1854 136C1854 40 1896 -11 1976 -11C2030 -11 2078 9 2133 54L2183 95L2175 115L2160 105C2088 57 2050 40 2015 40C1959 40 1930 80 1930 159C1930 267 1965 371 2014 409C2035 425 2059 433 2090 433C2135 433 2171 414 2171 390ZM2506 204L2477 77C2473 60 2471 42 2471 26C2471 4 2480 -9 2495 -9C2518 -9 2559 17 2641 85L2634 106C2610 86 2581 59 2559 59C2550 59 2544 68 2544 82C2544 87 2544 90 2545 93L2637 472L2627 481L2594 463C2553 478 2536 482 2509 482C2481 482 2461 477 2434 464C2372 433 2339 403 2314 354C2270 265 2239 145 2239 67C2239 23 2254 -11 2273 -11C2310 -11 2390 41 2506 204ZM2554 414C2532 305 2513 253 2479 201C2422 117 2361 59 2329 59C2317 59 2311 72 2311 99C2311 163 2339 280 2374 360C2398 415 2421 433 2469 433C2492 433 2510 429 2554 414Z" stroke="rgb(0, 0, 0)" stroke-width="8" fill="rgb(0, 0, 0)" style="transform:matrix(0.017,0,0,-0.017,0,0);"></path></g><g><g><g><g style="transform:matrix(1,0,0,1,469.5666809082031,68.81665649414063);"><path d="M16 23L16 -3C203 -3 203 0 239 0C275 0 275 -3 468 -3L468 82C353 77 307 81 122 77L304 270C401 373 431 428 431 503C431 618 353 689 226 689C154 689 105 669 56 619L39 483L68 483L81 529C97 587 133 612 200 612C286 612 341 558 341 473C341 398 299 324 186 204Z" stroke="rgb(0, 0, 0)" stroke-width="8" fill="rgb(0, 0, 0)" style="transform:matrix(0.0119,0,0,-0.0119,0,0);"></path></g></g></g></g></g></g><g><g><g style="transform:matrix(1,0,0,1,543.5000305175781,65.81666564941406);"><path d="M368 365C371 403 376 435 384 476C373 481 369 482 364 482C333 482 302 458 266 407C227 351 188 291 172 256L204 408C208 425 210 438 210 450C210 470 202 482 187 482C166 482 128 461 54 408L26 388L33 368L65 389C93 407 104 412 113 412C123 412 130 403 130 390C130 332 87 126 47 -2L57 -9C72 -4 88 -1 111 4L124 6L150 126C168 209 191 262 235 319C269 363 296 384 318 384C333 384 343 379 354 365ZM716 111L692 94C639 56 591 36 555 36C508 36 479 73 479 133C479 158 482 185 487 214C504 218 613 248 638 259C723 296 762 342 762 404C762 451 728 482 678 482C610 496 500 423 463 349C433 299 403 180 403 113C403 35 447 -11 519 -11C576 -11 632 17 724 92ZM501 274C518 343 538 386 567 412C585 428 616 440 640 440C669 440 688 420 688 388C688 344 653 297 601 272C573 258 537 247 492 237ZM952 -11C1008 -11 1123 62 1166 125C1207 186 1241 296 1241 371C1241 438 1218 482 1182 482C1140 482 1087 456 1035 409C994 374 974 348 938 289L962 408C965 425 967 440 967 452C967 471 959 482 945 482C924 482 886 461 812 408L784 388L791 368L823 389C851 407 862 412 871 412C881 412 888 403 888 389C888 381 886 361 884 351L826 8C816 -52 797 -143 777 -233L769 -270L776 -276C797 -269 817 -264 849 -259L891 3C912 -4 934 -11 952 -11ZM919 165C941 293 1048 424 1131 424C1157 424 1169 402 1169 356C1169 275 1129 156 1076 80C1056 51 1024 36 983 36C952 36 927 43 901 59ZM1526 722L1514 733C1462 707 1426 698 1354 691L1350 670L1398 670C1422 670 1432 663 1432 648C1432 645 1432 640 1429 622C1418 567 1345 182 1330 132C1317 82 1311 52 1311 31C1311 6 1322 -9 1341 -9C1367 -9 1403 12 1501 85L1491 103L1465 86C1436 67 1414 56 1404 56C1397 56 1391 66 1391 76C1391 82 1392 89 1395 104ZM1586 388L1593 368L1625 389C1662 412 1665 414 1672 414C1682 414 1690 404 1690 391C1690 384 1686 361 1682 347L1616 107C1608 76 1603 49 1603 30C1603 6 1614 -9 1633 -9C1659 -9 1695 12 1793 85L1783 103L1757 86C1728 67 1705 56 1696 56C1689 56 1683 66 1683 76C1683 86 1685 95 1690 116L1767 420C1771 437 1773 448 1773 456C1773 473 1764 482 1748 482C1726 482 1689 461 1614 408ZM1780 712C1751 712 1722 679 1722 645C1722 620 1737 604 1761 604C1792 604 1816 633 1816 671C1816 695 1801 712 1780 712ZM2171 330L2194 330C2202 395 2209 432 2218 458C2194 473 2159 482 2122 482C2077 483 2004 463 1947 400C1893 352 1854 241 1854 136C1854 40 1896 -11 1976 -11C2030 -11 2078 9 2133 54L2183 95L2175 115L2160 105C2088 57 2050 40 2015 40C1959 40 1930 80 1930 159C1930 267 1965 371 2014 409C2035 425 2059 433 2090 433C2135 433 2171 414 2171 390ZM2506 204L2477 77C2473 60 2471 42 2471 26C2471 4 2480 -9 2495 -9C2518 -9 2559 17 2641 85L2634 106C2610 86 2581 59 2559 59C2550 59 2544 68 2544 82C2544 87 2544 90 2545 93L2637 472L2627 481L2594 463C2553 478 2536 482 2509 482C2481 482 2461 477 2434 464C2372 433 2339 403 2314 354C2270 265 2239 145 2239 67C2239 23 2254 -11 2273 -11C2310 -11 2390 41 2506 204ZM2554 414C2532 305 2513 253 2479 201C2422 117 2361 59 2329 59C2317 59 2311 72 2311 99C2311 163 2339 280 2374 360C2398 415 2421 433 2469 433C2492 433 2510 429 2554 414Z" stroke="rgb(0, 0, 0)" stroke-width="8" fill="rgb(0, 0, 0)" style="transform:matrix(0.017,0,0,-0.017,0,0);"></path></g><g><g><g><g style="transform:matrix(1,0,0,1,589.5666809082031,68.81665649414063);"><path d="M462 224C462 345 355 366 308 374C388 436 418 482 418 541C418 630 344 689 233 689C165 689 120 670 72 622L43 498L74 498L92 554C103 588 166 622 218 622C283 622 336 569 336 506C336 431 277 368 206 368C198 368 187 369 174 370L159 371L147 318L154 312C192 329 211 334 238 334C321 334 369 281 369 190C369 88 308 21 215 21C169 21 128 36 98 64C74 86 61 109 42 163L15 153C36 92 44 56 50 6C103 -12 147 -20 184 -20C307 -20 462 87 462 224Z" stroke="rgb(0, 0, 0)" stroke-width="8" fill="rgb(0, 0, 0)" style="transform:matrix(0.0119,0,0,-0.0119,0,0);"></path></g></g></g></g></g></g><g><g><g><g><g><g style="transform:matrix(1,0,0,1,461.8333435058594,134.81666564941406);"><path d="M157 214C157 314 229 386 327 388L327 455C238 454 183 405 152 359L152 450L82 450L82 0L157 0ZM754 219C754 421 647 461 576 461C465 461 375 355 375 226C375 94 471 -11 591 -11C654 -11 711 13 750 41L744 106C681 54 615 50 592 50C512 50 448 121 445 219ZM450 274C466 350 519 400 576 400C628 400 684 366 697 274ZM1143 128C1143 183 1106 217 1104 220C1065 255 1038 261 988 270C933 281 887 291 887 340C887 402 959 402 972 402C1004 402 1057 398 1114 364L1126 429C1074 453 1033 461 982 461C957 461 816 461 816 330C816 281 845 249 870 230C901 208 923 204 978 193C1014 186 1072 174 1072 121C1072 52 993 52 978 52C897 52 841 89 823 101L811 33C843 17 898 -11 979 -11C1117 -11 1143 75 1143 128ZM1340 386L1481 386L1481 444L1340 444L1340 571L1271 571L1271 444L1184 444L1184 386L1268 386L1268 119C1268 59 1282 -11 1351 -11C1421 -11 1472 14 1497 27L1481 86C1455 65 1423 53 1391 53C1354 53 1340 83 1340 136ZM1924 289C1924 391 1851 461 1759 461C1694 461 1649 445 1602 418L1608 352C1660 389 1710 402 1759 402C1806 402 1846 362 1846 288L1846 245C1696 243 1569 201 1569 113C1569 70 1596 -11 1683 -11C1697 -11 1791 -9 1849 36L1849 0L1924 0ZM1846 132C1846 113 1846 88 1812 69C1783 51 1745 50 1734 50C1686 50 1641 73 1641 115C1641 185 1803 192 1846 194ZM2161 214C2161 314 2233 386 2331 388L2331 455C2242 454 2187 405 2156 359L2156 450L2086 450L2086 0L2161 0ZM2519 386L2660 386L2660 444L2519 444L2519 571L2450 571L2450 444L2363 444L2363 386L2447 386L2447 119C2447 59 2461 -11 2530 -11C2600 -11 2651 14 2676 27L2660 86C2634 65 2602 53 2570 53C2533 53 2519 83 2519 136Z" stroke="rgb(0, 0, 0)" stroke-width="8" fill="rgb(0, 0, 0)" style="transform:matrix(0.017,0,0,-0.017,0,0);"></path></g><g style="transform:matrix(1,0,0,1,507.8166809082031,134.81666564941406);"><path d="M146 266C146 526 243 632 301 700L282 726C225 675 60 542 60 266C60 159 85 58 133 -32C168 -99 200 -138 282 -215L301 -194C255 -137 146 -15 146 266Z" stroke="rgb(0, 0, 0)" stroke-width="8" fill="rgb(0, 0, 0)" style="transform:matrix(0.017,0,0,-0.017,0,0);"></path></g><g style="transform:matrix(1,0,0,1,513.4667053222656,134.81666564941406);"><path d="M368 365C371 403 376 435 384 476C373 481 369 482 364 482C333 482 302 458 266 407C227 351 188 291 172 256L204 408C208 425 210 438 210 450C210 470 202 482 187 482C166 482 128 461 54 408L26 388L33 368L65 389C93 407 104 412 113 412C123 412 130 403 130 390C130 332 87 126 47 -2L57 -9C72 -4 88 -1 111 4L124 6L150 126C168 209 191 262 235 319C269 363 296 384 318 384C333 384 343 379 354 365Z" stroke="rgb(0, 0, 0)" stroke-width="8" fill="rgb(0, 0, 0)" style="transform:matrix(0.017,0,0,-0.017,0,0);"></path></g><g><g><g><g style="transform:matrix(1,0,0,1,520.5833435058594,137.81665649414063);"><path d="M16 23L16 -3C203 -3 203 0 239 0C275 0 275 -3 468 -3L468 82C353 77 307 81 122 77L304 270C401 373 431 428 431 503C431 618 353 689 226 689C154 689 105 669 56 619L39 483L68 483L81 529C97 587 133 612 200 612C286 612 341 558 341 473C341 398 299 324 186 204Z" stroke="rgb(0, 0, 0)" stroke-width="8" fill="rgb(0, 0, 0)" style="transform:matrix(0.0119,0,0,-0.0119,0,0);"></path></g></g></g></g><g style="transform:matrix(1,0,0,1,527.5333557128906,134.81666564941406);"><path d="M51 726L32 700C87 636 187 526 187 266C187 -10 83 -131 32 -194L51 -215C104 -165 273 -23 273 265C273 542 108 675 51 726Z" stroke="rgb(0, 0, 0)" stroke-width="8" fill="rgb(0, 0, 0)" style="transform:matrix(0.017,0,0,-0.017,0,0);"></path></g></g></g></g></g></g><g><g><g style="transform:matrix(1,0,0,1,191.48330688476562,63.29998779296875);"><path d="M342 330L365 330C373 395 380 432 389 458C365 473 330 482 293 482C248 483 175 463 118 400C64 352 25 241 25 136C25 40 67 -11 147 -11C201 -11 249 9 304 54L354 95L346 115L331 105C259 57 221 40 186 40C130 40 101 80 101 159C101 267 136 371 185 409C206 425 230 433 261 433C306 433 342 414 342 390ZM423 152C423 46 468 -11 551 -11C606 -11 666 15 711 57C773 116 817 230 817 331C817 425 767 482 684 482C580 482 423 382 423 152ZM647 444C708 444 741 399 741 315C741 219 710 113 666 60C648 39 622 27 591 27C533 27 499 72 499 151C499 264 538 387 587 427C600 438 623 444 647 444ZM866 152C866 46 911 -11 994 -11C1049 -11 1109 15 1154 57C1216 116 1260 230 1260 331C1260 425 1210 482 1127 482C1023 482 866 382 866 152ZM1090 444C1151 444 1184 399 1184 315C1184 219 1153 113 1109 60C1091 39 1065 27 1034 27C976 27 942 72 942 151C942 264 981 387 1030 427C1043 438 1066 444 1090 444ZM1660 365C1663 403 1668 435 1676 476C1665 481 1661 482 1656 482C1625 482 1594 458 1558 407C1519 351 1480 291 1464 256L1496 408C1500 425 1502 438 1502 450C1502 470 1494 482 1479 482C1458 482 1420 461 1346 408L1318 388L1325 368L1357 389C1385 407 1396 412 1405 412C1415 412 1422 403 1422 390C1422 332 1379 126 1339 -2L1349 -9C1364 -4 1380 -1 1403 4L1416 6L1442 126C1460 209 1483 262 1527 319C1561 363 1588 384 1610 384C1625 384 1635 379 1646 365ZM2163 722L2151 733C2099 707 2063 698 1991 691L1987 670L2035 670C2059 670 2069 663 2069 646C2069 638 2068 629 2067 622L2039 468C2009 477 1982 482 1957 482C1888 482 1794 410 1748 323C1717 265 1697 170 1697 86C1697 21 1712 -11 1741 -11C1768 -11 1805 6 1839 33C1893 77 1926 116 1993 217L1970 126C1959 82 1954 50 1954 24C1954 3 1963 -9 1980 -9C1997 -9 2021 3 2055 28L2136 88L2126 107L2082 76C2068 66 2052 59 2043 59C2035 59 2029 68 2029 82C2029 90 2030 99 2037 128ZM1794 59C1778 59 1769 73 1769 98C1769 224 1815 380 1864 418C1877 428 1896 433 1923 433C1967 433 1996 427 2029 410L2017 351C1980 171 1839 59 1794 59Z" stroke="rgb(0, 0, 0)" stroke-width="8" fill="rgb(0, 0, 0)" style="transform:matrix(0.017,0,0,-0.017,0,0);"></path></g></g></g><g><g><g><g><g><g style="transform:matrix(1,0,0,1,79.63333129882812,386.40000915527344);"><path d="M125 390L69 107C68 99 56 61 56 31C56 6 67 -9 86 -9C121 -9 156 11 234 74L265 99L255 117L210 86C181 66 161 56 150 56C141 56 136 64 136 76C136 102 150 183 179 328L192 390L299 390L310 440C272 436 238 434 200 434C216 528 227 577 245 631L234 646C214 634 187 622 156 610L131 440C87 419 61 408 43 403L41 390Z" stroke="rgb(0, 0, 0)" stroke-width="8" fill="rgb(0, 0, 0)" style="transform:matrix(0.017,0,0,-0.017,0,0);"></path></g></g></g></g></g></g><g><g><g><g><g><g style="transform:matrix(1,0,0,1,231.00003051757812,115.31666564941406);"><path d="M260 229L443 444L361 444L227 279L89 444L6 444L194 229L0 0L82 0L227 188L377 0L460 0Z" stroke="rgb(0, 0, 0)" stroke-width="8" fill="rgb(0, 0, 0)" style="transform:matrix(0.017,0,0,-0.017,0,0);"></path></g><g><g style="transform:matrix(1,0,0,1,246.44998168945312,115.31666564941406);"><path d="M949 241L949 300L179 300L304 452L272 486L65 269L272 55L304 89L179 241Z" stroke="rgb(0, 0, 0)" stroke-width="8" fill="rgb(0, 0, 0)" style="transform:matrix(0.017,0,0,-0.017,0,0);"></path></g></g><g style="transform:matrix(1,0,0,1,267.0666809082031,115.31666564941406);"><path d="M299 689L279 689C220 627 137 624 89 622L89 563C122 564 170 566 220 587L220 59L95 59L95 0L424 0L424 59L299 59Z" stroke="rgb(0, 0, 0)" stroke-width="8" fill="rgb(0, 0, 0)" style="transform:matrix(0.017,0,0,-0.017,0,0);"></path></g><g style="transform:matrix(1,0,0,1,275.5500183105469,115.31666564941406);"><path d="M204 123C177 114 159 108 106 93C99 17 74 -48 16 -144L30 -155L71 -136C152 -31 190 32 218 109Z" stroke="rgb(0, 0, 0)" stroke-width="8" fill="rgb(0, 0, 0)" style="transform:matrix(0.017,0,0,-0.017,0,0);"></path></g><g style="transform:matrix(1,0,0,1,283.1833190917969,115.31666564941406);"><path d="M424 386L565 386L565 444L424 444L424 571L355 571L355 444L268 444L268 386L352 386L352 119C352 59 366 -11 435 -11C505 -11 556 14 581 27L565 86C539 65 507 53 475 53C438 53 424 83 424 136Z" stroke="rgb(0, 0, 0)" stroke-width="8" fill="rgb(0, 0, 0)" style="transform:matrix(0.017,0,0,-0.017,0,0);"></path></g><g><g><g><g style="transform:matrix(1,0,0,1,294.0500183105469,118.31665649414063);"><path d="M457 331C457 412 453 506 411 588C370 665 301 689 250 689C191 689 121 662 80 571C47 497 42 413 42 331C42 251 46 177 76 103C116 5 192 -22 249 -22C322 -22 385 19 417 89C447 155 457 223 457 331ZM250 40C198 40 157 78 137 151C121 209 120 264 120 343C120 407 120 468 137 524C143 544 168 627 249 627C327 627 353 550 360 531C379 475 379 406 379 343C379 276 379 212 361 148C335 56 282 40 250 40Z" stroke="rgb(0, 0, 0)" stroke-width="8" fill="rgb(0, 0, 0)" style="transform:matrix(0.0119,0,0,-0.0119,0,0);"></path></g></g></g></g></g></g></g></g></g><g><g><g><g><g><g style="transform:matrix(1,0,0,1,250.25003051757812,184.81666564941406);"><path d="M399 289C399 391 326 461 234 461C169 461 124 445 77 418L83 352C135 389 185 402 234 402C281 402 321 362 321 288L321 245C171 243 44 201 44 113C44 70 71 -11 158 -11C172 -11 266 -9 324 36L324 0L399 0ZM321 132C321 113 321 88 287 69C258 51 220 50 209 50C161 50 116 73 116 115C116 185 278 192 321 194ZM889 418C830 452 796 461 735 461C596 461 515 340 515 222C515 98 606 -11 731 -11C785 -11 840 3 894 40L888 107C837 67 783 53 732 53C649 53 593 125 593 223C593 301 630 397 736 397C788 397 822 389 877 353ZM1203 272L1371 444L1281 444L1078 236L1078 694L1006 694L1006 0L1075 0L1075 141L1155 224L1311 0L1393 0Z" stroke="rgb(0, 0, 0)" stroke-width="8" fill="rgb(0, 0, 0)" style="transform:matrix(0.017,0,0,-0.017,0,0);"></path></g><g style="transform:matrix(1,0,0,1,274.2167053222656,184.81666564941406);"><path d="M146 266C146 526 243 632 301 700L282 726C225 675 60 542 60 266C60 159 85 58 133 -32C168 -99 200 -138 282 -215L301 -194C255 -137 146 -15 146 266Z" stroke="rgb(0, 0, 0)" stroke-width="8" fill="rgb(0, 0, 0)" style="transform:matrix(0.017,0,0,-0.017,0,0);"></path></g><g style="transform:matrix(1,0,0,1,279.8666687011719,184.81666564941406);"><path d="M157 214C157 314 229 386 327 388L327 455C238 454 183 405 152 359L152 450L82 450L82 0L157 0Z" stroke="rgb(0, 0, 0)" stroke-width="8" fill="rgb(0, 0, 0)" style="transform:matrix(0.017,0,0,-0.017,0,0);"></path></g><g><g><g><g style="transform:matrix(1,0,0,1,286.1666564941406,187.81665649414063);"><path d="M299 689L279 689C220 627 137 624 89 622L89 563C122 564 170 566 220 587L220 59L95 59L95 0L424 0L424 59L299 59Z" stroke="rgb(0, 0, 0)" stroke-width="8" fill="rgb(0, 0, 0)" style="transform:matrix(0.0119,0,0,-0.0119,0,0);"></path></g></g></g></g><g style="transform:matrix(1,0,0,1,293.1166687011719,184.81666564941406);"><path d="M51 726L32 700C87 636 187 526 187 266C187 -10 83 -131 32 -194L51 -215C104 -165 273 -23 273 265C273 542 108 675 51 726Z" stroke="rgb(0, 0, 0)" stroke-width="8" fill="rgb(0, 0, 0)" style="transform:matrix(0.017,0,0,-0.017,0,0);"></path></g></g></g></g></g></g><g><g><g><g><g><g style="transform:matrix(1,0,0,1,479.7500305175781,194.81666564941406);"><path d="M399 289C399 391 326 461 234 461C169 461 124 445 77 418L83 352C135 389 185 402 234 402C281 402 321 362 321 288L321 245C171 243 44 201 44 113C44 70 71 -11 158 -11C172 -11 266 -9 324 36L324 0L399 0ZM321 132C321 113 321 88 287 69C258 51 220 50 209 50C161 50 116 73 116 115C116 185 278 192 321 194ZM889 418C830 452 796 461 735 461C596 461 515 340 515 222C515 98 606 -11 731 -11C785 -11 840 3 894 40L888 107C837 67 783 53 732 53C649 53 593 125 593 223C593 301 630 397 736 397C788 397 822 389 877 353ZM1203 272L1371 444L1281 444L1078 236L1078 694L1006 694L1006 0L1075 0L1075 141L1155 224L1311 0L1393 0Z" stroke="rgb(0, 0, 0)" stroke-width="8" fill="rgb(0, 0, 0)" style="transform:matrix(0.017,0,0,-0.017,0,0);"></path></g><g style="transform:matrix(1,0,0,1,503.7167053222656,194.81666564941406);"><path d="M146 266C146 526 243 632 301 700L282 726C225 675 60 542 60 266C60 159 85 58 133 -32C168 -99 200 -138 282 -215L301 -194C255 -137 146 -15 146 266Z" stroke="rgb(0, 0, 0)" stroke-width="8" fill="rgb(0, 0, 0)" style="transform:matrix(0.017,0,0,-0.017,0,0);"></path></g><g style="transform:matrix(1,0,0,1,509.3666687011719,194.81666564941406);"><path d="M157 214C157 314 229 386 327 388L327 455C238 454 183 405 152 359L152 450L82 450L82 0L157 0Z" stroke="rgb(0, 0, 0)" stroke-width="8" fill="rgb(0, 0, 0)" style="transform:matrix(0.017,0,0,-0.017,0,0);"></path></g><g><g><g><g style="transform:matrix(1,0,0,1,515.6666564941406,197.8166717529297);"><path d="M92 522C121 593 186 630 247 630C299 630 348 600 348 535C348 473 307 413 246 398C240 397 238 397 167 391L167 329L238 329C346 329 368 235 368 184C368 105 322 40 245 40C176 40 97 75 53 144L42 83C115 -12 207 -22 247 -22C369 -22 457 76 457 183C457 275 387 338 319 360C395 401 430 471 430 535C430 622 347 689 248 689C171 689 98 648 56 577Z" stroke="rgb(0, 0, 0)" stroke-width="8" fill="rgb(0, 0, 0)" style="transform:matrix(0.0119,0,0,-0.0119,0,0);"></path></g></g></g></g><g style="transform:matrix(1,0,0,1,522.6166687011719,194.81666564941406);"><path d="M51 726L32 700C87 636 187 526 187 266C187 -10 83 -131 32 -194L51 -215C104 -165 273 -23 273 265C273 542 108 675 51 726Z" stroke="rgb(0, 0, 0)" stroke-width="8" fill="rgb(0, 0, 0)" style="transform:matrix(0.017,0,0,-0.017,0,0);"></path></g></g></g></g></g></g><g><g><g><g><g><g style="transform:matrix(1,0,0,1,81.03335571289062,182.5);"><path d="M399 289C399 391 326 461 234 461C169 461 124 445 77 418L83 352C135 389 185 402 234 402C281 402 321 362 321 288L321 245C171 243 44 201 44 113C44 70 71 -11 158 -11C172 -11 266 -9 324 36L324 0L399 0ZM321 132C321 113 321 88 287 69C258 51 220 50 209 50C161 50 116 73 116 115C116 185 278 192 321 194ZM889 418C830 452 796 461 735 461C596 461 515 340 515 222C515 98 606 -11 731 -11C785 -11 840 3 894 40L888 107C837 67 783 53 732 53C649 53 593 125 593 223C593 301 630 397 736 397C788 397 822 389 877 353ZM1203 272L1371 444L1281 444L1078 236L1078 694L1006 694L1006 0L1075 0L1075 141L1155 224L1311 0L1393 0Z" stroke="rgb(0, 0, 0)" stroke-width="8" fill="rgb(0, 0, 0)" style="transform:matrix(0.017,0,0,-0.017,0,0);"></path></g><g><g><g><g style="transform:matrix(1,0,0,1,105.51669311523438,185.44998779296876);"><path d="M434 455L359 455L359 387C349 400 300 455 222 455C122 455 36 356 36 221C36 94 109 -11 205 -11C261 -11 314 12 356 50L356 -194L434 -194ZM359 140C359 122 359 120 349 107C323 67 286 50 250 50C174 50 114 128 114 221C114 323 186 391 259 391C328 391 359 320 359 280ZM950 444L872 444L872 154C872 79 816 44 752 44C681 44 674 70 674 113L674 444L596 444L596 109C596 37 619 -11 702 -11C755 -11 826 5 875 48L875 0L950 0ZM1499 220C1499 354 1399 461 1280 461C1157 461 1060 351 1060 220C1060 88 1162 -11 1279 -11C1399 -11 1499 90 1499 220ZM1279 53C1210 53 1138 109 1138 230C1138 351 1214 400 1279 400C1349 400 1421 348 1421 230C1421 112 1353 53 1279 53ZM1686 214C1686 314 1758 386 1856 388L1856 455C1767 454 1712 405 1681 359L1681 450L1611 450L1611 0L1686 0ZM2304 444L2226 444L2226 154C2226 79 2170 44 2106 44C2035 44 2028 70 2028 113L2028 444L1950 444L1950 109C1950 37 1973 -11 2056 -11C2109 -11 2180 5 2229 48L2229 0L2304 0ZM3097 298C3097 365 3081 455 2960 455C2900 455 2848 427 2811 373C2785 449 2715 455 2683 455C2611 455 2564 414 2537 378L2537 450L2465 450L2465 0L2543 0L2543 245C2543 313 2570 394 2644 394C2737 394 2742 329 2742 291L2742 0L2820 0L2820 245C2820 313 2847 394 2921 394C3014 394 3019 329 3019 291L3019 0L3097 0Z" stroke="rgb(0, 0, 0)" stroke-width="8" fill="rgb(0, 0, 0)" style="transform:matrix(0.0119,0,0,-0.0119,0,0);"></path></g></g></g></g><g><svg x="145.88333129882812" style="overflow:visible;" y="164.5" height="24" width="8.5"><path d=" M 6.61 1.70 q 0.00 -0.08 -0.08 -0.08 q -0.03 0.00 -0.08 0.02 q -1.01 0.55 -1.75 1.30 t -1.37 1.87 t -0.95 2.78 t -0.33 3.79 v 0.62 h 1.68 v -0.62 q 0.00 -1.20 0.04 -2.08 t 0.22 -2.04 t 0.50 -2.03 t 0.91 -1.74 t 1.43 -1.49 q 0.12 -0.09 0.12 -0.29 z   M 0.90 12.00 v 0.00 h 1.68 v 0.00 z" style="fill:rgb(0, 0, 0);stroke-width:1px;stroke:none;"></path><path d=" M 6.61 22.30 q 0.00 0.08 -0.08 0.08 q -0.03 0.00 -0.08 -0.02 q -1.01 -0.55 -1.75 -1.30 t -1.37 -1.87 t -0.95 -2.78 t -0.33 -3.79 v -0.62 h 1.68 v 0.62 q 0.00 1.20 0.04 2.08 t 0.22 2.04 t 0.50 2.03 t 0.91 1.74 t 1.43 1.49 q 0.12 0.09 0.12 0.29 z" style="fill:rgb(0, 0, 0);stroke-width:1px;stroke:none;"></path></svg></g><g style="transform:matrix(1,0,0,1,152.68331909179688,182.5);"><path d="M260 229L443 444L361 444L227 279L89 444L6 444L194 229L0 0L82 0L227 188L377 0L460 0Z" stroke="rgb(0, 0, 0)" stroke-width="8" fill="rgb(0, 0, 0)" style="transform:matrix(0.017,0,0,-0.017,0,0);"></path></g><g><g style="transform:matrix(1,0,0,1,163.89999389648438,182.5);"><path d="M949 241L949 300L179 300L304 452L272 486L65 269L272 55L304 89L179 241Z" stroke="rgb(0, 0, 0)" stroke-width="8" fill="rgb(0, 0, 0)" style="transform:matrix(0.017,0,0,-0.017,0,0);"></path></g></g><g style="transform:matrix(1,0,0,1,184.51669311523438,182.5);"><path d="M299 689L279 689C220 627 137 624 89 622L89 563C122 564 170 566 220 587L220 59L95 59L95 0L424 0L424 59L299 59Z" stroke="rgb(0, 0, 0)" stroke-width="8" fill="rgb(0, 0, 0)" style="transform:matrix(0.017,0,0,-0.017,0,0);"></path></g><g><svg x="191.30001831054688" style="overflow:visible;" y="164.5" height="24" width="8.5"><path d=" M 1.69 1.70 q 0.00 -0.08 0.08 -0.08 q 0.03 0.00 0.08 0.02 q 1.01 0.55 1.75 1.30 t 1.37 1.87 t 0.95 2.78 t 0.33 3.79 v 0.62 h -1.68 v -0.62 q 0.00 -1.20 -0.04 -2.08 t -0.22 -2.04 t -0.50 -2.03 t -0.91 -1.74 t -1.43 -1.49 q -0.12 -0.09 -0.12 -0.29 z  M 7.40 12.00 v 0.00 h -1.68 v 0.00 z" style="fill:rgb(0, 0, 0);stroke-width:1px;stroke:none;"></path><path d=" M 1.69 22.30 q 0.00 0.08 0.08 0.08 q 0.03 0.00 0.08 -0.02 q 1.01 -0.55 1.75 -1.30 t 1.37 -1.87 t 0.95 -2.78 t 0.33 -3.79 v -0.62 h -1.68 v 0.62 q 0.00 1.20 -0.04 2.08 t -0.22 2.04 t -0.50 2.03 t -0.91 1.74 t -1.43 1.49 q -0.12 0.09 -0.12 0.29 z" style="fill:rgb(0, 0, 0);stroke-width:1px;stroke:none;"></path></svg></g></g></g></g></g></g><g><g><g><g><g><g style="transform:matrix(1,0,0,1,35.45001220703125,116.81666564941406);"><path d="M125 390L69 107C68 99 56 61 56 31C56 6 67 -9 86 -9C121 -9 156 11 234 74L265 99L255 117L210 86C181 66 161 56 150 56C141 56 136 64 136 76C136 102 150 183 179 328L192 390L299 390L310 440C272 436 238 434 200 434C216 528 227 577 245 631L234 646C214 634 187 622 156 610L131 440C87 419 61 408 43 403L41 390Z" stroke="rgb(0, 0, 0)" stroke-width="8" fill="rgb(0, 0, 0)" style="transform:matrix(0.017,0,0,-0.017,0,0);"></path></g><g><g><g><g style="transform:matrix(1,0,0,1,41.616668701171875,119.81665649414063);"><path d="M263 689C108 689 29 566 29 324C29 207 50 106 85 57C120 8 176 -20 238 -20C389 -20 465 110 465 366C465 585 400 689 263 689ZM245 654C342 654 381 556 381 316C381 103 343 15 251 15C154 15 113 116 113 360C113 571 150 654 245 654Z" stroke="rgb(0, 0, 0)" stroke-width="8" fill="rgb(0, 0, 0)" style="transform:matrix(0.0119,0,0,-0.0119,0,0);"></path></g></g></g></g></g></g></g></g></g><g><g><g><g><g><g style="transform:matrix(1,0,0,1,35.45001220703125,206.81666564941406);"><path d="M125 390L69 107C68 99 56 61 56 31C56 6 67 -9 86 -9C121 -9 156 11 234 74L265 99L255 117L210 86C181 66 161 56 150 56C141 56 136 64 136 76C136 102 150 183 179 328L192 390L299 390L310 440C272 436 238 434 200 434C216 528 227 577 245 631L234 646C214 634 187 622 156 610L131 440C87 419 61 408 43 403L41 390Z" stroke="rgb(0, 0, 0)" stroke-width="8" fill="rgb(0, 0, 0)" style="transform:matrix(0.017,0,0,-0.017,0,0);"></path></g><g><g><g><g style="transform:matrix(1,0,0,1,41.616668701171875,209.8166717529297);"><path d="M418 -3L418 27L366 30C311 33 301 44 301 96L301 700L60 598L67 548L217 614L217 96C217 44 206 33 152 30L96 27L96 -3C250 0 250 0 261 0C292 0 402 -3 418 -3Z" stroke="rgb(0, 0, 0)" stroke-width="8" fill="rgb(0, 0, 0)" style="transform:matrix(0.0119,0,0,-0.0119,0,0);"></path></g></g></g></g></g></g></g></g></g><g><g><g><g><g><g style="transform:matrix(1,0,0,1,35.45001220703125,256.81666564941406);"><path d="M125 390L69 107C68 99 56 61 56 31C56 6 67 -9 86 -9C121 -9 156 11 234 74L265 99L255 117L210 86C181 66 161 56 150 56C141 56 136 64 136 76C136 102 150 183 179 328L192 390L299 390L310 440C272 436 238 434 200 434C216 528 227 577 245 631L234 646C214 634 187 622 156 610L131 440C87 419 61 408 43 403L41 390Z" stroke="rgb(0, 0, 0)" stroke-width="8" fill="rgb(0, 0, 0)" style="transform:matrix(0.017,0,0,-0.017,0,0);"></path></g><g><g><g><g style="transform:matrix(1,0,0,1,41.616668701171875,259.81667175292966);"><path d="M16 23L16 -3C203 -3 203 0 239 0C275 0 275 -3 468 -3L468 82C353 77 307 81 122 77L304 270C401 373 431 428 431 503C431 618 353 689 226 689C154 689 105 669 56 619L39 483L68 483L81 529C97 587 133 612 200 612C286 612 341 558 341 473C341 398 299 324 186 204Z" stroke="rgb(0, 0, 0)" stroke-width="8" fill="rgb(0, 0, 0)" style="transform:matrix(0.0119,0,0,-0.0119,0,0);"></path></g></g></g></g></g></g></g></g></g><g><g><g><g><g><g style="transform:matrix(1,0,0,1,35.45001220703125,336.81666564941406);"><path d="M125 390L69 107C68 99 56 61 56 31C56 6 67 -9 86 -9C121 -9 156 11 234 74L265 99L255 117L210 86C181 66 161 56 150 56C141 56 136 64 136 76C136 102 150 183 179 328L192 390L299 390L310 440C272 436 238 434 200 434C216 528 227 577 245 631L234 646C214 634 187 622 156 610L131 440C87 419 61 408 43 403L41 390Z" stroke="rgb(0, 0, 0)" stroke-width="8" fill="rgb(0, 0, 0)" style="transform:matrix(0.017,0,0,-0.017,0,0);"></path></g><g><g><g><g style="transform:matrix(1,0,0,1,41.616668701171875,339.81667175292966);"><path d="M462 224C462 345 355 366 308 374C388 436 418 482 418 541C418 630 344 689 233 689C165 689 120 670 72 622L43 498L74 498L92 554C103 588 166 622 218 622C283 622 336 569 336 506C336 431 277 368 206 368C198 368 187 369 174 370L159 371L147 318L154 312C192 329 211 334 238 334C321 334 369 281 369 190C369 88 308 21 215 21C169 21 128 36 98 64C74 86 61 109 42 163L15 153C36 92 44 56 50 6C103 -12 147 -20 184 -20C307 -20 462 87 462 224Z" stroke="rgb(0, 0, 0)" stroke-width="8" fill="rgb(0, 0, 0)" style="transform:matrix(0.0119,0,0,-0.0119,0,0);"></path></g></g></g></g></g></g></g></g></g><g><g><g><g><g><g style="transform:matrix(1,0,0,1,217.80001831054688,249.49998474121094);"><path d="M435 298C435 364 420 455 298 455C236 455 188 424 156 383L156 694L81 694L81 0L159 0L159 245C159 311 184 394 260 394C356 394 357 323 357 291L357 0L435 0ZM678 680L589 680L589 591L678 591ZM671 444L596 444L596 0L671 0ZM1187 298C1187 364 1172 455 1050 455C960 455 911 387 905 379L905 450L833 450L833 0L911 0L911 245C911 311 936 394 1012 394C1108 394 1109 323 1109 291L1109 0L1187 0ZM1442 386L1583 386L1583 444L1442 444L1442 571L1373 571L1373 444L1286 444L1286 386L1370 386L1370 119C1370 59 1384 -11 1453 -11C1523 -11 1574 14 1599 27L1583 86C1557 65 1525 53 1493 53C1456 53 1442 83 1442 136Z" stroke="rgb(0, 0, 0)" stroke-width="8" fill="rgb(0, 0, 0)" style="transform:matrix(0.017,0,0,-0.017,0,0);"></path></g><g><svg x="246.98330688476562" style="overflow:visible;" y="231.49998474121094" height="26" width="8.5"><path d=" M 6.61 1.70 q 0.00 -0.09 -0.08 -0.09 q -0.03 0.00 -0.08 0.03 q -1.01 0.61 -1.75 1.42 t -1.37 2.06 t -0.95 3.05 t -0.33 4.16 v 0.68 h 1.68 v -0.68 q 0.00 -1.31 0.04 -2.28 t 0.22 -2.24 t 0.50 -2.23 t 0.91 -1.91 t 1.43 -1.63 q 0.12 -0.10 0.12 -0.32 z   M 0.90 13.00 v 0.00 h 1.68 v 0.00 z" style="fill:rgb(0, 0, 0);stroke-width:1px;stroke:none;"></path><path d=" M 6.61 24.30 q 0.00 0.09 -0.08 0.09 q -0.03 0.00 -0.08 -0.03 q -1.01 -0.61 -1.75 -1.42 t -1.37 -2.06 t -0.95 -3.05 t -0.33 -4.16 v -0.68 h 1.68 v 0.68 q 0.00 1.31 0.04 2.28 t 0.22 2.24 t 0.50 2.23 t 0.91 1.91 t 1.43 1.63 q 0.12 0.10 0.12 0.32 z" style="fill:rgb(0, 0, 0);stroke-width:1px;stroke:none;"></path></svg></g><g style="transform:matrix(1,0,0,1,253.78335571289062,249.49998474121094);"><path d="M157 214C157 314 229 386 327 388L327 455C238 454 183 405 152 359L152 450L82 450L82 0L157 0Z" stroke="rgb(0, 0, 0)" stroke-width="8" fill="rgb(0, 0, 0)" style="transform:matrix(0.017,0,0,-0.017,0,0);"></path></g><g><g><g><g style="transform:matrix(1,0,0,1,260.0833435058594,252.49999084472657);"><path d="M83 466C103 545 131 624 222 624C316 624 367 548 367 468C367 382 310 324 251 263L174 191L50 65L50 0L449 0L449 72L267 72C255 72 243 71 231 71L122 71C154 100 230 176 261 205C333 274 449 347 449 471C449 587 368 689 236 689C122 689 66 610 42 522C66 487 59 501 83 466Z" stroke="rgb(0, 0, 0)" stroke-width="8" fill="rgb(0, 0, 0)" style="transform:matrix(0.0119,0,0,-0.0119,0,0);"></path></g></g></g></g><g style="transform:matrix(1,0,0,1,267.0333557128906,249.49998474121094);"><path d="M204 123C177 114 159 108 106 93C99 17 74 -48 16 -144L30 -155L71 -136C152 -31 190 32 218 109Z" stroke="rgb(0, 0, 0)" stroke-width="8" fill="rgb(0, 0, 0)" style="transform:matrix(0.017,0,0,-0.017,0,0);"></path></g><g style="transform:matrix(1,0,0,1,274.6666564941406,249.49998474121094);"><path d="M509 229L692 444L610 444L476 279L338 444L255 444L443 229L249 0L331 0L476 188L626 0L709 0Z" stroke="rgb(0, 0, 0)" stroke-width="8" fill="rgb(0, 0, 0)" style="transform:matrix(0.017,0,0,-0.017,0,0);"></path></g><g><g style="transform:matrix(1,0,0,1,290.1166687011719,249.49998474121094);"><path d="M949 241L949 300L179 300L304 452L272 486L65 269L272 55L304 89L179 241Z" stroke="rgb(0, 0, 0)" stroke-width="8" fill="rgb(0, 0, 0)" style="transform:matrix(0.017,0,0,-0.017,0,0);"></path></g></g><g style="transform:matrix(1,0,0,1,310.7333068847656,249.49998474121094);"><path d="M299 689L279 689C220 627 137 624 89 622L89 563C122 564 170 566 220 587L220 59L95 59L95 0L424 0L424 59L299 59Z" stroke="rgb(0, 0, 0)" stroke-width="8" fill="rgb(0, 0, 0)" style="transform:matrix(0.017,0,0,-0.017,0,0);"></path></g><g><svg x="317.5166931152344" style="overflow:visible;" y="231.49998474121094" height="26" width="8.5"><path d=" M 1.69 1.70 q 0.00 -0.09 0.08 -0.09 q 0.03 0.00 0.08 0.03 q 1.01 0.61 1.75 1.42 t 1.37 2.06 t 0.95 3.05 t 0.33 4.16 v 0.68 h -1.68 v -0.68 q 0.00 -1.31 -0.04 -2.28 t -0.22 -2.24 t -0.50 -2.23 t -0.91 -1.91 t -1.43 -1.63 q -0.12 -0.10 -0.12 -0.32 z  M 7.40 13.00 v 0.00 h -1.68 v 0.00 z" style="fill:rgb(0, 0, 0);stroke-width:1px;stroke:none;"></path><path d=" M 1.69 24.30 q 0.00 0.09 0.08 0.09 q 0.03 0.00 0.08 -0.03 q 1.01 -0.61 1.75 -1.42 t 1.37 -2.06 t 0.95 -3.05 t 0.33 -4.16 v -0.68 h -1.68 v 0.68 q 0.00 1.31 -0.04 2.28 t -0.22 2.24 t -0.50 2.23 t -0.91 1.91 t -1.43 1.63 q -0.12 0.10 -0.12 0.32 z" style="fill:rgb(0, 0, 0);stroke-width:1px;stroke:none;"></path></svg></g></g></g></g></g></g><g><g><g><g><g><g style="transform:matrix(1,0,0,1,351.9499816894531,316.81666564941406);"><path d="M399 289C399 391 326 461 234 461C169 461 124 445 77 418L83 352C135 389 185 402 234 402C281 402 321 362 321 288L321 245C171 243 44 201 44 113C44 70 71 -11 158 -11C172 -11 266 -9 324 36L324 0L399 0ZM321 132C321 113 321 88 287 69C258 51 220 50 209 50C161 50 116 73 116 115C116 185 278 192 321 194ZM635 694L560 694L560 0L635 0ZM879 680L790 680L790 591L879 591ZM872 444L797 444L797 0L872 0ZM1399 444L1324 444C1272 299 1181 47 1185 53L1184 53L1045 444L967 444L1139 0L1227 0ZM1827 219C1827 421 1720 461 1649 461C1538 461 1448 355 1448 226C1448 94 1544 -11 1664 -11C1727 -11 1784 13 1823 41L1817 106C1754 54 1688 50 1665 50C1585 50 1521 121 1518 219ZM1523 274C1539 350 1592 400 1649 400C1701 400 1757 366 1770 274Z" stroke="rgb(0, 0, 0)" stroke-width="8" fill="rgb(0, 0, 0)" style="transform:matrix(0.017,0,0,-0.017,0,0);"></path></g><g style="transform:matrix(1,0,0,1,383.5166931152344,316.81666564941406);"><path d="M146 266C146 526 243 632 301 700L282 726C225 675 60 542 60 266C60 159 85 58 133 -32C168 -99 200 -138 282 -215L301 -194C255 -137 146 -15 146 266Z" stroke="rgb(0, 0, 0)" stroke-width="8" fill="rgb(0, 0, 0)" style="transform:matrix(0.017,0,0,-0.017,0,0);"></path></g><g style="transform:matrix(1,0,0,1,389.1666564941406,316.81666564941406);"><path d="M157 214C157 314 229 386 327 388L327 455C238 454 183 405 152 359L152 450L82 450L82 0L157 0Z" stroke="rgb(0, 0, 0)" stroke-width="8" fill="rgb(0, 0, 0)" style="transform:matrix(0.017,0,0,-0.017,0,0);"></path></g><g><g><g><g style="transform:matrix(1,0,0,1,395.4667053222656,319.81667175292966);"><path d="M83 466C103 545 131 624 222 624C316 624 367 548 367 468C367 382 310 324 251 263L174 191L50 65L50 0L449 0L449 72L267 72C255 72 243 71 231 71L122 71C154 100 230 176 261 205C333 274 449 347 449 471C449 587 368 689 236 689C122 689 66 610 42 522C66 487 59 501 83 466Z" stroke="rgb(0, 0, 0)" stroke-width="8" fill="rgb(0, 0, 0)" style="transform:matrix(0.0119,0,0,-0.0119,0,0);"></path></g></g></g></g><g style="transform:matrix(1,0,0,1,402.4166564941406,316.81666564941406);"><path d="M51 726L32 700C87 636 187 526 187 266C187 -10 83 -131 32 -194L51 -215C104 -165 273 -23 273 265C273 542 108 675 51 726Z" stroke="rgb(0, 0, 0)" stroke-width="8" fill="rgb(0, 0, 0)" style="transform:matrix(0.017,0,0,-0.017,0,0);"></path></g></g></g></g></g></g><g><g><g><g><g><g style="transform:matrix(1,0,0,1,35.45001220703125,366.81666564941406);"><path d="M125 390L69 107C68 99 56 61 56 31C56 6 67 -9 86 -9C121 -9 156 11 234 74L265 99L255 117L210 86C181 66 161 56 150 56C141 56 136 64 136 76C136 102 150 183 179 328L192 390L299 390L310 440C272 436 238 434 200 434C216 528 227 577 245 631L234 646C214 634 187 622 156 610L131 440C87 419 61 408 43 403L41 390Z" stroke="rgb(0, 0, 0)" stroke-width="8" fill="rgb(0, 0, 0)" style="transform:matrix(0.017,0,0,-0.017,0,0);"></path></g><g><g><g><g style="transform:matrix(1,0,0,1,41.616668701171875,369.81667175292966);"><path d="M280 181L280 106C280 46 269 32 220 30L158 27L158 -3C291 0 291 0 315 0C339 0 339 0 472 -3L472 27L424 30C375 33 364 46 364 106L364 181C423 181 444 180 472 177L472 248L364 245L365 697L285 667L2 204L2 181ZM280 245L65 245L280 597Z" stroke="rgb(0, 0, 0)" stroke-width="8" fill="rgb(0, 0, 0)" style="transform:matrix(0.0119,0,0,-0.0119,0,0);"></path></g></g></g></g></g></g></g></g></g><g><g><g><g><g><g style="transform:matrix(1,0,0,1,231.50003051757812,134.81666564941406);"><path d="M260 229L443 444L361 444L227 279L89 444L6 444L194 229L0 0L82 0L227 188L377 0L460 0Z" stroke="rgb(0, 0, 0)" stroke-width="8" fill="rgb(0, 0, 0)" style="transform:matrix(0.017,0,0,-0.017,0,0);"></path></g><g><g style="transform:matrix(1,0,0,1,246.94998168945312,134.81666564941406);"><path d="M949 241L949 300L179 300L304 452L272 486L65 269L272 55L304 89L179 241Z" stroke="rgb(0, 0, 0)" stroke-width="8" fill="rgb(0, 0, 0)" style="transform:matrix(0.017,0,0,-0.017,0,0);"></path></g></g><g style="transform:matrix(1,0,0,1,267.5666809082031,134.81666564941406);"><path d="M299 689L279 689C220 627 137 624 89 622L89 563C122 564 170 566 220 587L220 59L95 59L95 0L424 0L424 59L299 59Z" stroke="rgb(0, 0, 0)" stroke-width="8" fill="rgb(0, 0, 0)" style="transform:matrix(0.017,0,0,-0.017,0,0);"></path></g><g style="transform:matrix(1,0,0,1,276.0500183105469,134.81666564941406);"><path d="M204 123C177 114 159 108 106 93C99 17 74 -48 16 -144L30 -155L71 -136C152 -31 190 32 218 109Z" stroke="rgb(0, 0, 0)" stroke-width="8" fill="rgb(0, 0, 0)" style="transform:matrix(0.017,0,0,-0.017,0,0);"></path></g><g style="transform:matrix(1,0,0,1,283.6833190917969,134.81666564941406);"><path d="M424 386L565 386L565 444L424 444L424 571L355 571L355 444L268 444L268 386L352 386L352 119C352 59 366 -11 435 -11C505 -11 556 14 581 27L565 86C539 65 507 53 475 53C438 53 424 83 424 136Z" stroke="rgb(0, 0, 0)" stroke-width="8" fill="rgb(0, 0, 0)" style="transform:matrix(0.017,0,0,-0.017,0,0);"></path></g><g><g><g><g style="transform:matrix(1,0,0,1,294.5500183105469,137.81665649414063);"><path d="M457 331C457 412 453 506 411 588C370 665 301 689 250 689C191 689 121 662 80 571C47 497 42 413 42 331C42 251 46 177 76 103C116 5 192 -22 249 -22C322 -22 385 19 417 89C447 155 457 223 457 331ZM250 40C198 40 157 78 137 151C121 209 120 264 120 343C120 407 120 468 137 524C143 544 168 627 249 627C327 627 353 550 360 531C379 475 379 406 379 343C379 276 379 212 361 148C335 56 282 40 250 40Z" stroke="rgb(0, 0, 0)" stroke-width="8" fill="rgb(0, 0, 0)" style="transform:matrix(0.0119,0,0,-0.0119,0,0);"></path></g></g></g></g></g></g></g></g></g><g><g><g><g><g><g style="transform:matrix(1,0,0,1,231.50003051757812,156.81666564941406);"><path d="M260 229L443 444L361 444L227 279L89 444L6 444L194 229L0 0L82 0L227 188L377 0L460 0Z" stroke="rgb(0, 0, 0)" stroke-width="8" fill="rgb(0, 0, 0)" style="transform:matrix(0.017,0,0,-0.017,0,0);"></path></g><g><g style="transform:matrix(1,0,0,1,246.94998168945312,156.81666564941406);"><path d="M949 241L949 300L179 300L304 452L272 486L65 269L272 55L304 89L179 241Z" stroke="rgb(0, 0, 0)" stroke-width="8" fill="rgb(0, 0, 0)" style="transform:matrix(0.017,0,0,-0.017,0,0);"></path></g></g><g style="transform:matrix(1,0,0,1,267.5666809082031,156.81666564941406);"><path d="M299 689L279 689C220 627 137 624 89 622L89 563C122 564 170 566 220 587L220 59L95 59L95 0L424 0L424 59L299 59Z" stroke="rgb(0, 0, 0)" stroke-width="8" fill="rgb(0, 0, 0)" style="transform:matrix(0.017,0,0,-0.017,0,0);"></path></g><g style="transform:matrix(1,0,0,1,276.0500183105469,156.81666564941406);"><path d="M204 123C177 114 159 108 106 93C99 17 74 -48 16 -144L30 -155L71 -136C152 -31 190 32 218 109Z" stroke="rgb(0, 0, 0)" stroke-width="8" fill="rgb(0, 0, 0)" style="transform:matrix(0.017,0,0,-0.017,0,0);"></path></g><g style="transform:matrix(1,0,0,1,283.6833190917969,156.81666564941406);"><path d="M424 386L565 386L565 444L424 444L424 571L355 571L355 444L268 444L268 386L352 386L352 119C352 59 366 -11 435 -11C505 -11 556 14 581 27L565 86C539 65 507 53 475 53C438 53 424 83 424 136Z" stroke="rgb(0, 0, 0)" stroke-width="8" fill="rgb(0, 0, 0)" style="transform:matrix(0.017,0,0,-0.017,0,0);"></path></g><g><g><g><g style="transform:matrix(1,0,0,1,294.5500183105469,159.81665649414063);"><path d="M457 331C457 412 453 506 411 588C370 665 301 689 250 689C191 689 121 662 80 571C47 497 42 413 42 331C42 251 46 177 76 103C116 5 192 -22 249 -22C322 -22 385 19 417 89C447 155 457 223 457 331ZM250 40C198 40 157 78 137 151C121 209 120 264 120 343C120 407 120 468 137 524C143 544 168 627 249 627C327 627 353 550 360 531C379 475 379 406 379 343C379 276 379 212 361 148C335 56 282 40 250 40Z" stroke="rgb(0, 0, 0)" stroke-width="8" fill="rgb(0, 0, 0)" style="transform:matrix(0.0119,0,0,-0.0119,0,0);"></path></g></g></g></g></g></g></g></g></g><g><g><g><g><g><g style="transform:matrix(1,0,0,1,101.5,114.81666564941406);"><path d="M260 229L443 444L361 444L227 279L89 444L6 444L194 229L0 0L82 0L227 188L377 0L460 0Z" stroke="rgb(0, 0, 0)" stroke-width="8" fill="rgb(0, 0, 0)" style="transform:matrix(0.017,0,0,-0.017,0,0);"></path></g><g><g style="transform:matrix(1,0,0,1,116.95001220703125,114.81666564941406);"><path d="M949 241L949 300L179 300L304 452L272 486L65 269L272 55L304 89L179 241Z" stroke="rgb(0, 0, 0)" stroke-width="8" fill="rgb(0, 0, 0)" style="transform:matrix(0.017,0,0,-0.017,0,0);"></path></g></g><g style="transform:matrix(1,0,0,1,137.56668090820312,114.81666564941406);"><path d="M299 689L279 689C220 627 137 624 89 622L89 563C122 564 170 566 220 587L220 59L95 59L95 0L424 0L424 59L299 59Z" stroke="rgb(0, 0, 0)" stroke-width="8" fill="rgb(0, 0, 0)" style="transform:matrix(0.017,0,0,-0.017,0,0);"></path></g><g style="transform:matrix(1,0,0,1,146.05001831054688,114.81666564941406);"><path d="M204 123C177 114 159 108 106 93C99 17 74 -48 16 -144L30 -155L71 -136C152 -31 190 32 218 109Z" stroke="rgb(0, 0, 0)" stroke-width="8" fill="rgb(0, 0, 0)" style="transform:matrix(0.017,0,0,-0.017,0,0);"></path></g><g style="transform:matrix(1,0,0,1,153.68331909179688,114.81666564941406);"><path d="M424 386L565 386L565 444L424 444L424 571L355 571L355 444L268 444L268 386L352 386L352 119C352 59 366 -11 435 -11C505 -11 556 14 581 27L565 86C539 65 507 53 475 53C438 53 424 83 424 136Z" stroke="rgb(0, 0, 0)" stroke-width="8" fill="rgb(0, 0, 0)" style="transform:matrix(0.017,0,0,-0.017,0,0);"></path></g><g><g><g><g style="transform:matrix(1,0,0,1,164.55001831054688,117.81665649414063);"><path d="M457 331C457 412 453 506 411 588C370 665 301 689 250 689C191 689 121 662 80 571C47 497 42 413 42 331C42 251 46 177 76 103C116 5 192 -22 249 -22C322 -22 385 19 417 89C447 155 457 223 457 331ZM250 40C198 40 157 78 137 151C121 209 120 264 120 343C120 407 120 468 137 524C143 544 168 627 249 627C327 627 353 550 360 531C379 475 379 406 379 343C379 276 379 212 361 148C335 56 282 40 250 40Z" stroke="rgb(0, 0, 0)" stroke-width="8" fill="rgb(0, 0, 0)" style="transform:matrix(0.0119,0,0,-0.0119,0,0);"></path></g></g></g></g></g></g></g></g></g><g><g><g><g><g><g style="transform:matrix(1,0,0,1,231.50003051757812,354.81666564941406);"><path d="M260 229L443 444L361 444L227 279L89 444L6 444L194 229L0 0L82 0L227 188L377 0L460 0Z" stroke="rgb(0, 0, 0)" stroke-width="8" fill="rgb(0, 0, 0)" style="transform:matrix(0.017,0,0,-0.017,0,0);"></path></g><g><g style="transform:matrix(1,0,0,1,246.94998168945312,354.81666564941406);"><path d="M949 241L949 300L179 300L304 452L272 486L65 269L272 55L304 89L179 241Z" stroke="rgb(0, 0, 0)" stroke-width="8" fill="rgb(0, 0, 0)" style="transform:matrix(0.017,0,0,-0.017,0,0);"></path></g></g><g style="transform:matrix(1,0,0,1,267.5666809082031,354.81666564941406);"><path d="M299 689L279 689C220 627 137 624 89 622L89 563C122 564 170 566 220 587L220 59L95 59L95 0L424 0L424 59L299 59Z" stroke="rgb(0, 0, 0)" stroke-width="8" fill="rgb(0, 0, 0)" style="transform:matrix(0.017,0,0,-0.017,0,0);"></path></g><g style="transform:matrix(1,0,0,1,276.0500183105469,354.81666564941406);"><path d="M204 123C177 114 159 108 106 93C99 17 74 -48 16 -144L30 -155L71 -136C152 -31 190 32 218 109Z" stroke="rgb(0, 0, 0)" stroke-width="8" fill="rgb(0, 0, 0)" style="transform:matrix(0.017,0,0,-0.017,0,0);"></path></g><g style="transform:matrix(1,0,0,1,283.6833190917969,354.81666564941406);"><path d="M424 386L565 386L565 444L424 444L424 571L355 571L355 444L268 444L268 386L352 386L352 119C352 59 366 -11 435 -11C505 -11 556 14 581 27L565 86C539 65 507 53 475 53C438 53 424 83 424 136Z" stroke="rgb(0, 0, 0)" stroke-width="8" fill="rgb(0, 0, 0)" style="transform:matrix(0.017,0,0,-0.017,0,0);"></path></g><g><g><g><g style="transform:matrix(1,0,0,1,294.5500183105469,357.81667175292966);"><path d="M457 331C457 412 453 506 411 588C370 665 301 689 250 689C191 689 121 662 80 571C47 497 42 413 42 331C42 251 46 177 76 103C116 5 192 -22 249 -22C322 -22 385 19 417 89C447 155 457 223 457 331ZM250 40C198 40 157 78 137 151C121 209 120 264 120 343C120 407 120 468 137 524C143 544 168 627 249 627C327 627 353 550 360 531C379 475 379 406 379 343C379 276 379 212 361 148C335 56 282 40 250 40Z" stroke="rgb(0, 0, 0)" stroke-width="8" fill="rgb(0, 0, 0)" style="transform:matrix(0.0119,0,0,-0.0119,0,0);"></path></g></g></g></g></g></g></g></g></g><g><g><g><g><g><g style="transform:matrix(1,0,0,1,219.63333129882812,386.40000915527344);"><path d="M125 390L69 107C68 99 56 61 56 31C56 6 67 -9 86 -9C121 -9 156 11 234 74L265 99L255 117L210 86C181 66 161 56 150 56C141 56 136 64 136 76C136 102 150 183 179 328L192 390L299 390L310 440C272 436 238 434 200 434C216 528 227 577 245 631L234 646C214 634 187 622 156 610L131 440C87 419 61 408 43 403L41 390Z" stroke="rgb(0, 0, 0)" stroke-width="8" fill="rgb(0, 0, 0)" style="transform:matrix(0.017,0,0,-0.017,0,0);"></path></g></g></g></g></g></g><g><g><g><g><g><g style="transform:matrix(1,0,0,1,339.6166687011719,386.40000915527344);"><path d="M125 390L69 107C68 99 56 61 56 31C56 6 67 -9 86 -9C121 -9 156 11 234 74L265 99L255 117L210 86C181 66 161 56 150 56C141 56 136 64 136 76C136 102 150 183 179 328L192 390L299 390L310 440C272 436 238 434 200 434C216 528 227 577 245 631L234 646C214 634 187 622 156 610L131 440C87 419 61 408 43 403L41 390Z" stroke="rgb(0, 0, 0)" stroke-width="8" fill="rgb(0, 0, 0)" style="transform:matrix(0.017,0,0,-0.017,0,0);"></path></g></g></g></g></g></g><g><g><g><g><g><g style="transform:matrix(1,0,0,1,459.6166687011719,386.40000915527344);"><path d="M125 390L69 107C68 99 56 61 56 31C56 6 67 -9 86 -9C121 -9 156 11 234 74L265 99L255 117L210 86C181 66 161 56 150 56C141 56 136 64 136 76C136 102 150 183 179 328L192 390L299 390L310 440C272 436 238 434 200 434C216 528 227 577 245 631L234 646C214 634 187 622 156 610L131 440C87 419 61 408 43 403L41 390Z" stroke="rgb(0, 0, 0)" stroke-width="8" fill="rgb(0, 0, 0)" style="transform:matrix(0.017,0,0,-0.017,0,0);"></path></g></g></g></g></g></g><g><g><g><g><g><g style="transform:matrix(1,0,0,1,579.6166687011719,386.40000915527344);"><path d="M125 390L69 107C68 99 56 61 56 31C56 6 67 -9 86 -9C121 -9 156 11 234 74L265 99L255 117L210 86C181 66 161 56 150 56C141 56 136 64 136 76C136 102 150 183 179 328L192 390L299 390L310 440C272 436 238 434 200 434C216 528 227 577 245 631L234 646C214 634 187 622 156 610L131 440C87 419 61 408 43 403L41 390Z" stroke="rgb(0, 0, 0)" stroke-width="8" fill="rgb(0, 0, 0)" style="transform:matrix(0.017,0,0,-0.017,0,0);"></path></g></g></g></g></g></g></svg>
</svg>
