<?xml version="1.0" encoding="UTF-8" standalone="no"?>
<!DOCTYPE svg PUBLIC "-//W3C//DTD SVG 1.1//EN"
        "http://www.w3.org/Graphics/SVG/1.1/DTD/svg11.dtd">
<!---
 Licensed to the Apache Software Foundation (ASF) under one
 or more contributor license agreements.  See the NOTICE file
 distributed with this work for additional information
 regarding copyright ownership.  The ASF licenses this file
 to you under the Apache License, Version 2.0 (the
 "License"); you may not use this file except in compliance
 with the License.  You may obtain a copy of the License at

     http://www.apache.org/licenses/LICENSE-2.0

 Unless required by applicable law or agreed to in writing, software
 distributed under the License is distributed on an "AS IS" BASIS,
 WITHOUT WARRANTIES OR CONDITIONS OF ANY KIND, either express or implied.
 See the License for the specific language governing permissions and
 limitations under the License.
-->

<!-- Generated by graphviz version 2.40.1 (20161225.0304)
digraph G {
    { rank=same root -> start [style=invis] }
    newrank = true
    start [label="start/end"]

    tractor [label = "contentArray[0]"]
    tracto [label = "0x01B"]
    tract [label = "0x01A"]
    trac [label = "0x019"]
    tra [label = "Chain\n0x018"]

    tree [label = "contentArray[1]"; color = "lightgrey"; fontcolor = lightgray]
    tre [label = "Chain\n0x03B"]
    trie [label = "contentArray[2]"]
    tri [label = "Chain\n0x05B"]

    tr [label = "Sparse\n0x07E"]

    t [label = "0x09B"]
    root [label = "Chain\n0x9A"]

    root -> t [label = " t"]
    t -> tr [label = " r"]
    tr -> tra [label = " a"]
    tra -> trac [label = " c"]
    trac -> tract [label = " t"]
    tract -> tracto [label = " o"]
    tracto -> tractor [label = " r"]

    tr -> tre [label = " e"]
    tre -> tree [label = " e"; color = "lightgrey"; fontcolor = lightgray]

    tr -> tri [label = " i"]
    tri -> trie [label = " e"]

    {
        ranksep = 0.1
        tree2 [label = "Chain\n0x0BB"]
        tree2p [label = "Prefix\n0x0BF\ncontentArray[1]"]
        tree2p -> tree2 [label = " &epsilon;"]
    }

    tre -> tree2p [label = " e"]
    tree2 -> trees [label = " s"]

    {rank=same tra -> tre -> tri [style=invis]}
    {rank=same trac -> tree -> tree2p -> trie [style=invis]}

    subgraph path {
        edge [color = "lightblue"; fontcolor="blue"; arrowhead="vee"]
        node [color = "lightblue"; fontcolor="blue"]

        start -> root

        root -> t [label = " t"]
        t -> tr [label = " r"]
        tr -> tre [label = " e"]
        tre -> tree [label = " e"]
        tree -> trees [label = " s"]

        trees [label = "contentArray[3]"; constraint = false]
    }


    subgraph back {
        edge [color = "pink"; fontcolor="red"; arrowhead="vee"; constraint="false"]

        trees -> tree2 [label = " ~3"]
        tree2 -> tree2p [label = "0x0BB"]
        tree2p -> tre [label = "0x0BF"]
        tre -> tr [label = "0x03B"]
        tr -> t [label = "0x07E"]
        t -> root [label = "0x09B"]
        root -> start [label = "0x09A"]
    }
}
 -->
<!-- Title: G Pages: 1 -->
<svg width="666pt" height="678pt"
     viewBox="0.00 0.00 666.47 677.52" xmlns="http://www.w3.org/2000/svg" xmlns:xlink="http://www.w3.org/1999/xlink">
    <g id="graph0" class="graph" transform="scale(1 1) rotate(0) translate(4 673.5152)">
        <title>G</title>
        <polygon fill="#ffffff" stroke="transparent" points="-4,4 -4,-673.5152 662.4738,-673.5152 662.4738,4 -4,4"/>
        <!-- root -->
        <g id="node1" class="node">
            <title>root</title>
            <ellipse fill="none" stroke="#000000" cx="264.2369" cy="-640.0996" rx="33.1337" ry="29.3315"/>
            <text text-anchor="middle" x="264.2369" y="-644.2996" font-family="Times,serif" font-size="14.00" fill="#000000">Chain</text>
            <text text-anchor="middle" x="264.2369" y="-627.4996" font-family="Times,serif" font-size="14.00" fill="#000000">0x9A</text>
        </g>
        <!-- start -->
        <g id="node2" class="node">
            <title>start</title>
            <ellipse fill="none" stroke="#000000" cx="397.2369" cy="-640.0996" rx="44.0775" ry="18"/>
            <text text-anchor="middle" x="397.2369" y="-635.8996" font-family="Times,serif" font-size="14.00" fill="#000000">start/end</text>
        </g>
        <!-- root&#45;&gt;start -->
        <!-- root&#45;&gt;start -->
        <g id="edge33" class="edge">
            <title>root&#45;&gt;start</title>
            <path fill="none" stroke="#ffc0cb" d="M297.7984,-640.0996C311.3037,-640.0996 327.2339,-640.0996 342.3398,-640.0996"/>
            <polygon fill="#ffc0cb" stroke="#ffc0cb" points="352.6261,-640.0996 342.6262,-644.5997 347.6261,-640.0996 342.6261,-640.0997 342.6261,-640.0997 342.6261,-640.0997 347.6261,-640.0996 342.6261,-635.5997 352.6261,-640.0996 352.6261,-640.0996"/>
            <text text-anchor="middle" x="325.2509" y="-647.2996" font-family="Times,serif" font-size="14.00" fill="#ff0000">0x09A</text>
        </g>
        <!-- t -->
        <g id="node13" class="node">
            <title>t</title>
            <ellipse fill="none" stroke="#000000" cx="264.2369" cy="-557.8839" rx="36.5824" ry="18"/>
            <text text-anchor="middle" x="264.2369" y="-553.6839" font-family="Times,serif" font-size="14.00" fill="#000000">0x09B</text>
        </g>
        <!-- root&#45;&gt;t -->
        <g id="edge2" class="edge">
            <title>root&#45;&gt;t</title>
            <path fill="none" stroke="#000000" d="M253.1918,-612.3067C251.4263,-605.2505 250.368,-597.5734 252.6036,-585.3125"/>
            <polygon fill="#000000" stroke="#000000" points="256.0259,-586.0473 254.8506,-575.5179 249.2031,-584.4821 256.0259,-586.0473"/>
            <text text-anchor="middle" x="255.9322" y="-589.0839" font-family="Times,serif" font-size="14.00" fill="#000000"> t</text>
        </g>
        <!-- root&#45;&gt;t -->
        <g id="edge22" class="edge">
            <title>root&#45;&gt;t</title>
            <path fill="none" stroke="#add8e6" d="M264.2369,-610.4178C264.2369,-602.5756 264.2369,-594.1307 264.2369,-586.3542"/>
            <polygon fill="#add8e6" stroke="#add8e6" points="264.2369,-576.2835 268.737,-586.2835 264.2369,-581.2835 264.237,-586.2835 264.237,-586.2835 264.237,-586.2835 264.2369,-581.2835 259.737,-586.2836 264.2369,-576.2835 264.2369,-576.2835"/>
            <text text-anchor="middle" x="267.9322" y="-589.0839" font-family="Times,serif" font-size="14.00" fill="#0000ff"> t</text>
        </g>
        <!-- start&#45;&gt;root -->
        <g id="edge21" class="edge">
            <title>start&#45;&gt;root</title>
            <path fill="none" stroke="#add8e6" d="M353.4042,-637.4233C341.2938,-636.9719 328.1479,-636.7485 316.0184,-637.0996 313.3264,-637.1775 310.5568,-637.2781 307.7643,-637.3951"/>
            <polygon fill="#add8e6" stroke="#add8e6" points="297.6504,-637.8791 307.4239,-632.9062 302.6447,-637.6401 307.639,-637.401 307.639,-637.401 307.639,-637.401 302.6447,-637.6401 307.8541,-641.8959 297.6504,-637.8791 297.6504,-637.8791"/>
        </g>
        <!-- tractor -->
        <g id="node3" class="node">
            <title>tractor</title>
            <ellipse fill="none" stroke="#000000" cx="73.2369" cy="-18" rx="73.4745" ry="18"/>
            <text text-anchor="middle" x="73.2369" y="-13.8" font-family="Times,serif" font-size="14.00" fill="#000000">contentArray[0]</text>
        </g>
        <!-- tracto -->
        <g id="node4" class="node">
            <title>tracto</title>
            <ellipse fill="none" stroke="#000000" cx="73.2369" cy="-88.8" rx="36.5824" ry="18"/>
            <text text-anchor="middle" x="73.2369" y="-84.6" font-family="Times,serif" font-size="14.00" fill="#000000">0x01B</text>
        </g>
        <!-- tracto&#45;&gt;tractor -->
        <g id="edge8" class="edge">
            <title>tracto&#45;&gt;tractor</title>
            <path fill="none" stroke="#000000" d="M73.2369,-70.5672C73.2369,-63.2743 73.2369,-54.6987 73.2369,-46.6137"/>
            <polygon fill="#000000" stroke="#000000" points="76.737,-46.417 73.2369,-36.417 69.737,-46.4171 76.737,-46.417"/>
            <text text-anchor="middle" x="77.3172" y="-49.2" font-family="Times,serif" font-size="14.00" fill="#000000"> r</text>
        </g>
        <!-- tract -->
        <g id="node5" class="node">
            <title>tract</title>
            <ellipse fill="none" stroke="#000000" cx="73.2369" cy="-171.0156" rx="37.1443" ry="18"/>
            <text text-anchor="middle" x="73.2369" y="-166.8156" font-family="Times,serif" font-size="14.00" fill="#000000">0x01A</text>
        </g>
        <!-- tract&#45;&gt;tracto -->
        <g id="edge7" class="edge">
            <title>tract&#45;&gt;tracto</title>
            <path fill="none" stroke="#000000" d="M73.2369,-152.7693C73.2369,-142.338 73.2369,-129.027 73.2369,-117.2514"/>
            <polygon fill="#000000" stroke="#000000" points="76.737,-116.9953 73.2369,-106.9953 69.737,-116.9953 76.737,-116.9953"/>
            <text text-anchor="middle" x="78.4869" y="-120" font-family="Times,serif" font-size="14.00" fill="#000000"> o</text>
        </g>
        <!-- trac -->
        <g id="node6" class="node">
            <title>trac</title>
            <ellipse fill="none" stroke="#000000" cx="73.2369" cy="-276.5263" rx="35.3587" ry="18"/>
            <text text-anchor="middle" x="73.2369" y="-272.3263" font-family="Times,serif" font-size="14.00" fill="#000000">0x019</text>
        </g>
        <!-- trac&#45;&gt;tract -->
        <g id="edge6" class="edge">
            <title>trac&#45;&gt;tract</title>
            <path fill="none" stroke="#000000" d="M73.2369,-258.1478C73.2369,-241.8835 73.2369,-217.8982 73.2369,-199.2081"/>
            <polygon fill="#000000" stroke="#000000" points="76.737,-199.1836 73.2369,-189.1836 69.737,-199.1836 76.737,-199.1836"/>
            <text text-anchor="middle" x="76.9322" y="-213.6313" font-family="Times,serif" font-size="14.00" fill="#000000"> t</text>
        </g>
        <!-- tree -->
        <g id="node8" class="node">
            <title>tree</title>
            <ellipse fill="none" stroke="#d3d3d3" cx="217.2369" cy="-276.5263" rx="73.4745" ry="18"/>
            <text text-anchor="middle" x="217.2369" y="-272.3263" font-family="Times,serif" font-size="14.00" fill="#d3d3d3">contentArray[1]</text>
        </g>
        <!-- trac&#45;&gt;tree -->
        <!-- tra -->
        <g id="node7" class="node">
            <title>tra</title>
            <ellipse fill="none" stroke="#000000" cx="141.2369" cy="-382.037" rx="36.125" ry="29.3315"/>
            <text text-anchor="middle" x="141.2369" y="-386.237" font-family="Times,serif" font-size="14.00" fill="#000000">Chain</text>
            <text text-anchor="middle" x="141.2369" y="-369.437" font-family="Times,serif" font-size="14.00" fill="#000000">0x018</text>
        </g>
        <!-- tra&#45;&gt;trac -->
        <g id="edge5" class="edge">
            <title>tra&#45;&gt;trac</title>
            <path fill="none" stroke="#000000" d="M124.4279,-355.9557C113.8753,-339.582 100.3244,-318.5561 89.8158,-302.2506"/>
            <polygon fill="#000000" stroke="#000000" points="92.6883,-300.2467 84.329,-293.7372 86.8044,-304.0388 92.6883,-300.2467"/>
            <text text-anchor="middle" x="121.0942" y="-331.0214" font-family="Times,serif" font-size="14.00" fill="#000000"> c</text>
        </g>
        <!-- tre -->
        <g id="node9" class="node">
            <title>tre</title>
            <ellipse fill="none" stroke="#000000" cx="250.2369" cy="-382.037" rx="37.9306" ry="29.3315"/>
            <text text-anchor="middle" x="250.2369" y="-386.237" font-family="Times,serif" font-size="14.00" fill="#000000">Chain</text>
            <text text-anchor="middle" x="250.2369" y="-369.437" font-family="Times,serif" font-size="14.00" fill="#000000">0x03B</text>
        </g>
        <!-- tra&#45;&gt;tre -->
        <!-- tree2p -->
        <g id="node15" class="node">
            <title>tree2p</title>
            <ellipse fill="none" stroke="#000000" cx="401.2369" cy="-276.5263" rx="75.1528" ry="41.0911"/>
            <text text-anchor="middle" x="401.2369" y="-289.1263" font-family="Times,serif" font-size="14.00" fill="#000000">Prefix</text>
            <text text-anchor="middle" x="401.2369" y="-272.3263" font-family="Times,serif" font-size="14.00" fill="#000000">0x0BF</text>
            <text text-anchor="middle" x="401.2369" y="-255.5263" font-family="Times,serif" font-size="14.00" fill="#000000">contentArray[1]</text>
        </g>
        <!-- tree&#45;&gt;tree2p -->
        <!-- trees -->
        <g id="node16" class="node">
            <title>trees</title>
            <ellipse fill="none" stroke="#000000" cx="295.2369" cy="-88.8" rx="73.4745" ry="18"/>
            <text text-anchor="middle" x="295.2369" y="-84.6" font-family="Times,serif" font-size="14.00" fill="#000000">contentArray[3]</text>
        </g>
        <!-- tree&#45;&gt;trees -->
        <g id="edge26" class="edge">
            <title>tree&#45;&gt;trees</title>
            <path fill="none" stroke="#add8e6" d="M224.7159,-258.5263C238.4018,-225.5876 267.5561,-155.4207 283.7655,-116.4088"/>
            <polygon fill="#add8e6" stroke="#add8e6" points="287.7806,-106.7455 288.0991,-117.7068 285.8621,-111.3628 283.9435,-115.9801 283.9435,-115.9801 283.9435,-115.9801 285.8621,-111.3628 279.788,-114.2534 287.7806,-106.7455 287.7806,-106.7455"/>
            <text text-anchor="middle" x="277.7092" y="-166.8156" font-family="Times,serif" font-size="14.00" fill="#0000ff"> s</text>
        </g>
        <!-- tre&#45;&gt;tree -->
        <g id="edge10" class="edge">
            <title>tre&#45;&gt;tree</title>
            <path fill="none" stroke="#d3d3d3" d="M227.0349,-358.8106C223.5725,-354.1203 220.5044,-348.9742 218.5223,-343.6214 214.0163,-331.453 213.1878,-317.1731 213.6897,-304.9221"/>
            <polygon fill="#d3d3d3" stroke="#d3d3d3" points="217.1925,-305.0065 214.4144,-294.7824 210.2104,-304.5074 217.1925,-305.0065"/>
            <text text-anchor="middle" x="224.0942" y="-331.0214" font-family="Times,serif" font-size="14.00" fill="#d3d3d3"> e</text>
        </g>
        <!-- tre&#45;&gt;tree -->
        <g id="edge25" class="edge">
            <title>tre&#45;&gt;tree</title>
            <path fill="none" stroke="#add8e6" d="M241.2195,-353.2057C236.4749,-338.0358 230.683,-319.5176 225.9798,-304.4799"/>
            <polygon fill="#add8e6" stroke="#add8e6" points="222.9239,-294.7093 230.2038,-302.9101 224.4164,-299.4813 225.909,-304.2534 225.909,-304.2534 225.909,-304.2534 224.4164,-299.4813 221.6142,-305.5967 222.9239,-294.7093 222.9239,-294.7093"/>
            <text text-anchor="middle" x="243.0942" y="-331.0214" font-family="Times,serif" font-size="14.00" fill="#0000ff"> e</text>
        </g>
        <!-- tri -->
        <g id="node11" class="node">
            <title>tri</title>
            <ellipse fill="none" stroke="#000000" cx="361.2369" cy="-382.037" rx="37.9306" ry="29.3315"/>
            <text text-anchor="middle" x="361.2369" y="-386.237" font-family="Times,serif" font-size="14.00" fill="#000000">Chain</text>
            <text text-anchor="middle" x="361.2369" y="-369.437" font-family="Times,serif" font-size="14.00" fill="#000000">0x05B</text>
        </g>
        <!-- tre&#45;&gt;tri -->
        <!-- tr -->
        <g id="node12" class="node">
            <title>tr</title>
            <ellipse fill="none" stroke="#000000" cx="264.2369" cy="-475.6683" rx="37.9027" ry="29.3315"/>
            <text text-anchor="middle" x="264.2369" y="-479.8683" font-family="Times,serif" font-size="14.00" fill="#000000">Sparse</text>
            <text text-anchor="middle" x="264.2369" y="-463.0683" font-family="Times,serif" font-size="14.00" fill="#000000">0x07E</text>
        </g>
        <!-- tre&#45;&gt;tr -->
        <g id="edge30" class="edge">
            <title>tre&#45;&gt;tr</title>
            <path fill="none" stroke="#ffc0cb" d="M220.1451,-399.8185C206.9606,-410.0222 196.0135,-423.5087 203.5777,-437.2526 207.8544,-445.0234 214.4401,-451.4422 221.7208,-456.6604"/>
            <polygon fill="#ffc0cb" stroke="#ffc0cb" points="230.4902,-462.2435 219.638,-460.6689 226.2725,-459.5582 222.0547,-456.8729 222.0547,-456.8729 222.0547,-456.8729 226.2725,-459.5582 224.4715,-453.0769 230.4902,-462.2435 230.4902,-462.2435"/>
            <text text-anchor="middle" x="224.0665" y="-424.6526" font-family="Times,serif" font-size="14.00" fill="#ff0000">0x03B</text>
        </g>
        <!-- tre&#45;&gt;tree2p -->
        <g id="edge14" class="edge">
            <title>tre&#45;&gt;tree2p</title>
            <path fill="none" stroke="#000000" d="M281.9441,-365.9135C292.0842,-361.18 303.4736,-356.2938 314.2369,-352.6214 331.0728,-346.877 338.4386,-353.4933 353.2369,-343.6214 360.9367,-338.4848 367.8078,-331.6659 373.7781,-324.3413"/>
            <polygon fill="#000000" stroke="#000000" points="376.657,-326.3371 379.8994,-316.2506 371.0746,-322.1136 376.657,-326.3371"/>
            <text text-anchor="middle" x="377.0942" y="-331.0214" font-family="Times,serif" font-size="14.00" fill="#000000"> e</text>
        </g>
        <!-- trie -->
        <g id="node10" class="node">
            <title>trie</title>
            <ellipse fill="none" stroke="#000000" cx="585.2369" cy="-276.5263" rx="73.4745" ry="18"/>
            <text text-anchor="middle" x="585.2369" y="-272.3263" font-family="Times,serif" font-size="14.00" fill="#000000">contentArray[2]</text>
        </g>
        <!-- tri&#45;&gt;trie -->
        <g id="edge12" class="edge">
            <title>tri&#45;&gt;trie</title>
            <path fill="none" stroke="#000000" d="M393.8084,-366.6948C432.9219,-348.2712 498.6628,-317.3053 541.999,-296.8927"/>
            <polygon fill="#000000" stroke="#000000" points="543.6019,-300.0065 551.1571,-292.5789 540.619,-293.6739 543.6019,-300.0065"/>
            <text text-anchor="middle" x="478.0942" y="-331.0214" font-family="Times,serif" font-size="14.00" fill="#000000"> e</text>
        </g>
        <!-- tr&#45;&gt;tra -->
        <g id="edge4" class="edge">
            <title>tr&#45;&gt;tra</title>
            <path fill="none" stroke="#000000" d="M230.3862,-462.3473C216.3498,-455.9318 200.378,-447.4106 187.5223,-437.2526 179.7381,-431.102 172.3346,-423.4626 165.8229,-415.8473"/>
            <polygon fill="#000000" stroke="#000000" points="168.1714,-413.1902 159.1314,-407.6649 162.7526,-417.6217 168.1714,-413.1902"/>
            <text text-anchor="middle" x="193.0942" y="-424.6526" font-family="Times,serif" font-size="14.00" fill="#000000"> a</text>
        </g>
        <!-- tr&#45;&gt;tre -->
        <g id="edge9" class="edge">
            <title>tr&#45;&gt;tre</title>
            <path fill="none" stroke="#000000" d="M262.3234,-446.0575C261.7354,-439.4979 260.9854,-432.4951 259.2059,-421.283"/>
            <polygon fill="#000000" stroke="#000000" points="262.641,-420.6036 257.5414,-411.3168 255.7366,-421.7567 262.641,-420.6036"/>
            <text text-anchor="middle" x="267.0942" y="-424.6526" font-family="Times,serif" font-size="14.00" fill="#000000"> e</text>
        </g>
        <!-- tr&#45;&gt;tre -->
        <g id="edge24" class="edge">
            <title>tr&#45;&gt;tre</title>
            <path fill="none" stroke="#add8e6" d="M251.4368,-447.9439C250.2405,-444.4076 249.2174,-440.7879 248.5223,-437.2526 247.53,-432.2063 247.0287,-426.8513 246.8562,-421.5383"/>
            <polygon fill="#add8e6" stroke="#add8e6" points="246.8871,-411.4654 251.3563,-421.4792 246.8717,-416.4654 246.8563,-421.4654 246.8563,-421.4654 246.8563,-421.4654 246.8717,-416.4654 242.3563,-421.4516 246.8871,-411.4654 246.8871,-411.4654"/>
            <text text-anchor="middle" x="254.0942" y="-424.6526" font-family="Times,serif" font-size="14.00" fill="#0000ff"> e</text>
        </g>
        <!-- tr&#45;&gt;tri -->
        <g id="edge11" class="edge">
            <title>tr&#45;&gt;tri</title>
            <path fill="none" stroke="#000000" d="M288.2144,-452.5235C300.8059,-440.3693 316.39,-425.3264 329.9234,-412.263"/>
            <polygon fill="#000000" stroke="#000000" points="332.4349,-414.7033 337.199,-405.2401 327.5733,-409.6669 332.4349,-414.7033"/>
            <text text-anchor="middle" x="325.9322" y="-424.6526" font-family="Times,serif" font-size="14.00" fill="#000000"> i</text>
        </g>
        <!-- tr&#45;&gt;t -->
        <g id="edge31" class="edge">
            <title>tr&#45;&gt;t</title>
            <path fill="none" stroke="#ffc0cb" d="M264.2369,-505.1649C264.2369,-513.0799 264.2369,-521.6204 264.2369,-529.4751"/>
            <polygon fill="#ffc0cb" stroke="#ffc0cb" points="264.2369,-539.6376 259.737,-529.6376 264.2369,-534.6376 264.237,-529.6376 264.237,-529.6376 264.237,-529.6376 264.2369,-534.6376 268.737,-529.6377 264.2369,-539.6376 264.2369,-539.6376"/>
            <text text-anchor="middle" x="282.5132" y="-518.2839" font-family="Times,serif" font-size="14.00" fill="#ff0000">0x07E</text>
        </g>
        <!-- t&#45;&gt;root -->
        <g id="edge32" class="edge">
            <title>t&#45;&gt;root</title>
            <path fill="none" stroke="#ffc0cb" d="M272.5745,-575.5942C273.6774,-578.6326 274.6336,-581.8043 275.2369,-584.8839 276.3056,-590.3394 276.3564,-596.0962 275.789,-601.7512"/>
            <polygon fill="#ffc0cb" stroke="#ffc0cb" points="274.1862,-611.733 271.3286,-601.146 274.9789,-606.7962 275.7717,-601.8595 275.7717,-601.8595 275.7717,-601.8595 274.9789,-606.7962 280.2148,-602.573 274.1862,-611.733 274.1862,-611.733"/>
            <text text-anchor="middle" x="294.9052" y="-589.0839" font-family="Times,serif" font-size="14.00" fill="#ff0000">0x09B</text>
        </g>
        <!-- t&#45;&gt;tr -->
        <g id="edge3" class="edge">
            <title>t&#45;&gt;tr</title>
            <path fill="none" stroke="#000000" d="M254.2705,-540.2954C252.9499,-537.2423 251.8032,-534.0343 251.0763,-530.8839 249.8023,-525.3626 249.7646,-519.536 250.472,-513.8197"/>
            <polygon fill="#000000" stroke="#000000" points="253.9589,-514.2255 252.4441,-503.7395 247.0891,-512.8814 253.9589,-514.2255"/>
            <text text-anchor="middle" x="255.3172" y="-518.2839" font-family="Times,serif" font-size="14.00" fill="#000000"> r</text>
        </g>
        <!-- t&#45;&gt;tr -->
        <g id="edge23" class="edge">
            <title>t&#45;&gt;tr</title>
            <path fill="none" stroke="#add8e6" d="M296.3684,-548.8052C304.9495,-544.7547 313.2223,-538.9976 318.2369,-530.8839 325.8698,-518.5336 317.3847,-506.7525 305.051,-497.2687"/>
            <polygon fill="#add8e6" stroke="#add8e6" points="296.521,-491.3854 307.3079,-493.3588 300.6369,-494.2243 304.7529,-497.0631 304.7529,-497.0631 304.7529,-497.0631 300.6369,-494.2243 302.1979,-500.7675 296.521,-491.3854 296.521,-491.3854"/>
            <text text-anchor="middle" x="325.3172" y="-518.2839" font-family="Times,serif" font-size="14.00" fill="#0000ff"> r</text>
        </g>
        <!-- tree2 -->
        <g id="node14" class="node">
            <title>tree2</title>
            <ellipse fill="none" stroke="#000000" cx="354.2369" cy="-171.0156" rx="39.2342" ry="29.3315"/>
            <text text-anchor="middle" x="354.2369" y="-175.2156" font-family="Times,serif" font-size="14.00" fill="#000000">Chain</text>
            <text text-anchor="middle" x="354.2369" y="-158.4156" font-family="Times,serif" font-size="14.00" fill="#000000">0x0BB</text>
        </g>
        <!-- tree2&#45;&gt;tree2p -->
        <g id="edge28" class="edge">
            <title>tree2&#45;&gt;tree2p</title>
            <path fill="none" stroke="#ffc0cb" d="M332.5998,-195.7225C326.8044,-205.3439 323.4112,-216.3994 328.5637,-226.2313 331.3469,-231.5422 334.9738,-236.4037 339.122,-240.8292"/>
            <polygon fill="#ffc0cb" stroke="#ffc0cb" points="346.5383,-247.8677 336.1871,-244.2478 342.9116,-244.4257 339.2849,-240.9838 339.2849,-240.9838 339.2849,-240.9838 342.9116,-244.4257 342.3827,-237.7197 346.5383,-247.8677 346.5383,-247.8677"/>
            <text text-anchor="middle" x="349.0735" y="-213.6313" font-family="Times,serif" font-size="14.00" fill="#ff0000">0x0BB</text>
        </g>
        <!-- tree2&#45;&gt;trees -->
        <g id="edge15" class="edge">
            <title>tree2&#45;&gt;trees</title>
            <path fill="none" stroke="#000000" d="M335.5689,-145.0021C328.6935,-135.4213 320.9064,-124.5701 314.0208,-114.9751"/>
            <polygon fill="#000000" stroke="#000000" points="316.6766,-112.6728 308.0027,-106.5889 310.9895,-116.7541 316.6766,-112.6728"/>
            <text text-anchor="middle" x="331.7092" y="-120" font-family="Times,serif" font-size="14.00" fill="#000000"> s</text>
        </g>
        <!-- tree2p&#45;&gt;tre -->
        <g id="edge29" class="edge">
            <title>tree2p&#45;&gt;tre</title>
            <path fill="none" stroke="#ffc0cb" d="M346.159,-304.6442C334.2868,-311.4197 322.0324,-318.9824 311.1177,-326.8214 300.7955,-334.2347 290.2869,-343.1729 280.9708,-351.6776"/>
            <polygon fill="#ffc0cb" stroke="#ffc0cb" points="273.4561,-358.6766 277.7068,-348.5681 277.1149,-355.2689 280.7738,-351.8611 280.7738,-351.8611 280.7738,-351.8611 277.1149,-355.2689 283.8408,-355.1541 273.4561,-358.6766 273.4561,-358.6766"/>
            <text text-anchor="middle" x="330.2965" y="-331.0214" font-family="Times,serif" font-size="14.00" fill="#ff0000">0x0BF</text>
        </g>
        <!-- tree2p&#45;&gt;trie -->
        <!-- tree2p&#45;&gt;tree2 -->
        <g id="edge13" class="edge">
            <title>tree2p&#45;&gt;tree2</title>
            <path fill="none" stroke="#000000" d="M383.3341,-236.3363C379.2138,-227.0866 374.8498,-217.2898 370.7898,-208.1754"/>
            <polygon fill="#000000" stroke="#000000" points="373.9581,-206.6863 366.6918,-198.9757 367.5638,-209.5346 373.9581,-206.6863"/>
            <text text-anchor="middle" x="383.0672" y="-213.6313" font-family="Times,serif" font-size="14.00" fill="#000000"> ε</text>
        </g>
        <!-- trees&#45;&gt;tree2 -->
        <g id="edge27" class="edge">
            <title>trees&#45;&gt;tree2</title>
            <path fill="none" stroke="#ffc0cb" d="M290.8236,-106.8267C289.7499,-115.1419 289.9269,-124.8606 294.1643,-132.6 298.1354,-139.8531 304.124,-145.9366 310.807,-150.9671"/>
            <polygon fill="#ffc0cb" stroke="#ffc0cb" points="319.5438,-156.7845 308.7261,-154.9878 315.382,-154.0133 311.2202,-151.2421 311.2202,-151.2421 311.2202,-151.2421 315.382,-154.0133 313.7143,-147.4965 319.5438,-156.7845 319.5438,-156.7845"/>
            <text text-anchor="middle" x="303.2732" y="-120" font-family="Times,serif" font-size="14.00" fill="#ff0000"> ~3</text>
        </g>
    </g>
</svg>
