<?xml version="1.0" encoding="UTF-8" standalone="no"?>
<!DOCTYPE svg PUBLIC "-//W3C//DTD SVG 1.1//EN"
        "http://www.w3.org/Graphics/SVG/1.1/DTD/svg11.dtd">
<!---
 Licensed to the Apache Software Foundation (ASF) under one
 or more contributor license agreements.  See the NOTICE file
 distributed with this work for additional information
 regarding copyright ownership.  The ASF licenses this file
 to you under the Apache License, Version 2.0 (the
 "License"); you may not use this file except in compliance
 with the License.  You may obtain a copy of the License at

     http://www.apache.org/licenses/LICENSE-2.0

 Unless required by applicable law or agreed to in writing, software
 distributed under the License is distributed on an "AS IS" BASIS,
 WITHOUT WARRANTIES OR CONDITIONS OF ANY KIND, either express or implied.
 See the License for the specific language governing permissions and
 limitations under the License.
-->

<!-- Generated by graphviz version 2.40.1 (20161225.0304)
```plantuml
digraph G {
    { rank=same root -> start [style=invis] }
    start [label="start/end"]

    tractor [label = "contentArray[0]"]
    tracto [label = "0x01B"]
    tract [label = "0x01A"]
    trac [label = "0x019"]
    tra [label = "Chain\n0x018"]

    tree [label = "contentArray[1]"]
    tre [label = "Chain\n0x03B"]
    trie [label = "contentArray[2]"]
    tri [label = "Chain\n0x05B"]

    tr [label = "Sparse\n0x07E"]

    t [label = "0x09B"]
    root [label = "Chain\n0x9A"]

    // {rank=same tra -> tre -> tri [style=invis]}
    {rank=same trac -> tree -> trie [style=invis]}

    subgraph path {
        edge [color = "lightblue"; fontcolor="blue"; arrowhead="vee"]

        start -> root

    root -> t [label = " t"]
    t -> tr [label = " r"]
    tr -> tra [label = " a"]
    tra -> trac [label = " c"]
    trac -> tract [label = " t"]
    tract -> tracto [label = " o"]
    tracto -> tractor [label = " r"]

    tr -> tre [label = " e"]
    tre -> tree [label = " e"]

    tr -> tri [label = " i"]
    tri -> trie [label = " e"]
    }

    subgraph back {
        edge [color = "pink"; fontcolor="blue"; constraint="false"; arrowhead="vee"]

        tractor -> tracto -> tract -> trac -> tra -> tr
        tree -> tre -> tr
        trie -> tri -> tr -> t -> root -> start
    }
}

```
 -->
<!-- Title: G Pages: 1 -->
<svg width="480pt" height="734pt"
     viewBox="0.00 0.00 480.47 734.09" xmlns="http://www.w3.org/2000/svg" xmlns:xlink="http://www.w3.org/1999/xlink">
    <g id="graph0" class="graph" transform="scale(1 1) rotate(0) translate(4 730.0939)">
        <title>G</title>
        <polygon fill="#ffffff" stroke="transparent" points="-4,4 -4,-730.0939 476.4738,-730.0939 476.4738,4 -4,4"/>
        <!-- root -->
        <g id="node1" class="node">
            <title>root</title>
            <ellipse fill="none" stroke="#000000" cx="217.2369" cy="-696.6782" rx="33.1337" ry="29.3315"/>
            <text text-anchor="middle" x="217.2369" y="-700.8782" font-family="Times,serif" font-size="14.00" fill="#000000">Chain</text>
            <text text-anchor="middle" x="217.2369" y="-684.0782" font-family="Times,serif" font-size="14.00" fill="#000000">0x9A</text>
        </g>
        <!-- start -->
        <g id="node2" class="node">
            <title>start</title>
            <ellipse fill="none" stroke="#000000" cx="330.2369" cy="-696.6782" rx="44.0775" ry="18"/>
            <text text-anchor="middle" x="330.2369" y="-692.4782" font-family="Times,serif" font-size="14.00" fill="#000000">start/end</text>
        </g>
        <!-- root&#45;&gt;start -->
        <!-- root&#45;&gt;start -->
        <g id="edge27" class="edge">
            <title>root&#45;&gt;start</title>
            <path fill="none" stroke="#ffc0cb" d="M245.0455,-713.0508C262.0796,-719.8061 279.1137,-720.5455 296.1478,-715.2689"/>
            <polygon fill="#ffc0cb" stroke="#ffc0cb" points="305.6112,-711.7185 297.8292,-719.4444 300.9299,-713.4748 296.2485,-715.2312 296.2485,-715.2312 296.2485,-715.2312 300.9299,-713.4748 294.6678,-711.0179 305.6112,-711.7185 305.6112,-711.7185"/>
        </g>
        <!-- t -->
        <g id="node13" class="node">
            <title>t</title>
            <ellipse fill="none" stroke="#000000" cx="217.2369" cy="-596.4626" rx="36.5824" ry="18"/>
            <text text-anchor="middle" x="217.2369" y="-592.2626" font-family="Times,serif" font-size="14.00" fill="#000000">0x09B</text>
        </g>
        <!-- root&#45;&gt;t -->
        <g id="edge5" class="edge">
            <title>root&#45;&gt;t</title>
            <path fill="none" stroke="#add8e6" d="M217.2369,-667.1522C217.2369,-653.6671 217.2369,-637.7749 217.2369,-624.4779"/>
            <polygon fill="#add8e6" stroke="#add8e6" points="217.2369,-614.4659 221.737,-624.4659 217.2369,-619.4659 217.237,-624.4659 217.237,-624.4659 217.237,-624.4659 217.2369,-619.4659 212.737,-624.4659 217.2369,-614.4659 217.2369,-614.4659"/>
            <text text-anchor="middle" x="220.9322" y="-636.6626" font-family="Times,serif" font-size="14.00" fill="#0000ff"> t</text>
        </g>
        <!-- start&#45;&gt;root -->
        <g id="edge4" class="edge">
            <title>start&#45;&gt;root</title>
            <path fill="none" stroke="#add8e6" d="M285.8549,-696.6782C277.5437,-696.6782 269.2326,-696.6782 260.9215,-696.6782"/>
            <polygon fill="#add8e6" stroke="#add8e6" points="250.7838,-696.6782 260.7838,-692.1783 255.7838,-696.6783 260.7838,-696.6783 260.7838,-696.6783 260.7838,-696.6783 255.7838,-696.6783 260.7837,-701.1783 250.7838,-696.6782 250.7838,-696.6782"/>
        </g>
        <!-- tractor -->
        <g id="node3" class="node">
            <title>tractor</title>
            <ellipse fill="none" stroke="#000000" cx="73.2369" cy="-18" rx="73.4745" ry="18"/>
            <text text-anchor="middle" x="73.2369" y="-13.8" font-family="Times,serif" font-size="14.00" fill="#000000">contentArray[0]</text>
        </g>
        <!-- tracto -->
        <g id="node4" class="node">
            <title>tracto</title>
            <ellipse fill="none" stroke="#000000" cx="73.2369" cy="-106.8" rx="36.5824" ry="18"/>
            <text text-anchor="middle" x="73.2369" y="-102.6" font-family="Times,serif" font-size="14.00" fill="#000000">0x01B</text>
        </g>
        <!-- tractor&#45;&gt;tracto -->
        <g id="edge16" class="edge">
            <title>tractor&#45;&gt;tracto</title>
            <path fill="none" stroke="#ffc0cb" d="M78.6937,-36.1509C80.1467,-41.8136 81.5127,-48.1174 82.2369,-54 83.1492,-61.4107 83.1492,-63.3893 82.2369,-70.8 81.9201,-73.3736 81.4804,-76.0279 80.9643,-78.6738"/>
            <polygon fill="#ffc0cb" stroke="#ffc0cb" points="78.6937,-88.6491 76.5255,-77.8997 79.8035,-83.7738 80.9132,-78.8985 80.9132,-78.8985 80.9132,-78.8985 79.8035,-83.7738 85.301,-79.8973 78.6937,-88.6491 78.6937,-88.6491"/>
        </g>
        <!-- tracto&#45;&gt;tractor -->
        <g id="edge11" class="edge">
            <title>tracto&#45;&gt;tractor</title>
            <path fill="none" stroke="#add8e6" d="M73.2369,-88.4006C73.2369,-76.2949 73.2369,-60.2076 73.2369,-46.4674"/>
            <polygon fill="#add8e6" stroke="#add8e6" points="73.2369,-36.072 77.737,-46.072 73.2369,-41.072 73.237,-46.072 73.237,-46.072 73.237,-46.072 73.2369,-41.072 68.737,-46.0721 73.2369,-36.072 73.2369,-36.072"/>
            <text text-anchor="middle" x="77.3172" y="-58.2" font-family="Times,serif" font-size="14.00" fill="#0000ff"> r</text>
        </g>
        <!-- tract -->
        <g id="node5" class="node">
            <title>tract</title>
            <ellipse fill="none" stroke="#000000" cx="73.2369" cy="-195.6" rx="37.1443" ry="18"/>
            <text text-anchor="middle" x="73.2369" y="-191.4" font-family="Times,serif" font-size="14.00" fill="#000000">0x01A</text>
        </g>
        <!-- tracto&#45;&gt;tract -->
        <g id="edge17" class="edge">
            <title>tracto&#45;&gt;tract</title>
            <path fill="none" stroke="#ffc0cb" d="M80.3796,-124.4595C82.3635,-130.2097 84.2449,-136.6872 85.2369,-142.8 86.4329,-150.1703 86.4329,-152.2297 85.2369,-159.6 84.797,-162.3109 84.1821,-165.0936 83.461,-167.8527"/>
            <polygon fill="#ffc0cb" stroke="#ffc0cb" points="80.5061,-177.5725 79.1093,-166.6959 81.9604,-172.7886 83.4148,-168.0048 83.4148,-168.0048 83.4148,-168.0048 81.9604,-172.7886 87.7202,-169.3137 80.5061,-177.5725 80.5061,-177.5725"/>
        </g>
        <!-- tract&#45;&gt;tracto -->
        <g id="edge10" class="edge">
            <title>tract&#45;&gt;tracto</title>
            <path fill="none" stroke="#add8e6" d="M73.2369,-177.2006C73.2369,-165.0949 73.2369,-149.0076 73.2369,-135.2674"/>
            <polygon fill="#add8e6" stroke="#add8e6" points="73.2369,-124.872 77.737,-134.872 73.2369,-129.872 73.237,-134.872 73.237,-134.872 73.237,-134.872 73.2369,-129.872 68.737,-134.8721 73.2369,-124.872 73.2369,-124.872"/>
            <text text-anchor="middle" x="78.4869" y="-147" font-family="Times,serif" font-size="14.00" fill="#0000ff"> o</text>
        </g>
        <!-- trac -->
        <g id="node6" class="node">
            <title>trac</title>
            <ellipse fill="none" stroke="#000000" cx="73.2369" cy="-284.4" rx="35.3587" ry="18"/>
            <text text-anchor="middle" x="73.2369" y="-280.2" font-family="Times,serif" font-size="14.00" fill="#000000">0x019</text>
        </g>
        <!-- tract&#45;&gt;trac -->
        <g id="edge18" class="edge">
            <title>tract&#45;&gt;trac</title>
            <path fill="none" stroke="#ffc0cb" d="M78.0886,-213.7847C79.3802,-219.4487 80.5942,-225.7449 81.2369,-231.6 82.0516,-239.0221 82.0516,-240.9779 81.2369,-248.4 80.9557,-250.9616 80.5652,-253.6076 80.1066,-256.2482"/>
            <polygon fill="#ffc0cb" stroke="#ffc0cb" points="78.0886,-266.2153 75.6626,-255.5211 79.0808,-261.3147 80.0731,-256.4142 80.0731,-256.4142 80.0731,-256.4142 79.0808,-261.3147 84.4836,-257.3072 78.0886,-266.2153 78.0886,-266.2153"/>
        </g>
        <!-- trac&#45;&gt;tract -->
        <g id="edge9" class="edge">
            <title>trac&#45;&gt;tract</title>
            <path fill="none" stroke="#add8e6" d="M73.2369,-266.0006C73.2369,-253.8949 73.2369,-237.8076 73.2369,-224.0674"/>
            <polygon fill="#add8e6" stroke="#add8e6" points="73.2369,-213.672 77.737,-223.672 73.2369,-218.672 73.237,-223.672 73.237,-223.672 73.237,-223.672 73.2369,-218.672 68.737,-223.6721 73.2369,-213.672 73.2369,-213.672"/>
            <text text-anchor="middle" x="76.9322" y="-235.8" font-family="Times,serif" font-size="14.00" fill="#0000ff"> t</text>
        </g>
        <!-- tra -->
        <g id="node7" class="node">
            <title>tra</title>
            <ellipse fill="none" stroke="#000000" cx="112.2369" cy="-384.6156" rx="36.125" ry="29.3315"/>
            <text text-anchor="middle" x="112.2369" y="-388.8156" font-family="Times,serif" font-size="14.00" fill="#000000">Chain</text>
            <text text-anchor="middle" x="112.2369" y="-372.0156" font-family="Times,serif" font-size="14.00" fill="#000000">0x018</text>
        </g>
        <!-- trac&#45;&gt;tra -->
        <g id="edge19" class="edge">
            <title>trac&#45;&gt;tra</title>
            <path fill="none" stroke="#ffc0cb" d="M92.2023,-299.8107C98.0398,-305.6172 103.8226,-312.698 107.2369,-320.4 110.6198,-328.0312 112.455,-336.6721 113.3574,-345.0849"/>
            <polygon fill="#ffc0cb" stroke="#ffc0cb" points="114.0369,-355.1505 108.8735,-345.4763 113.7001,-350.1618 113.3633,-345.1732 113.3633,-345.1732 113.3633,-345.1732 113.7001,-350.1618 117.853,-344.87 114.0369,-355.1505 114.0369,-355.1505"/>
        </g>
        <!-- tree -->
        <g id="node8" class="node">
            <title>tree</title>
            <ellipse fill="none" stroke="#000000" cx="217.2369" cy="-284.4" rx="73.4745" ry="18"/>
            <text text-anchor="middle" x="217.2369" y="-280.2" font-family="Times,serif" font-size="14.00" fill="#000000">contentArray[1]</text>
        </g>
        <!-- trac&#45;&gt;tree -->
        <!-- tra&#45;&gt;trac -->
        <g id="edge8" class="edge">
            <title>tra&#45;&gt;trac</title>
            <path fill="none" stroke="#add8e6" d="M101.2694,-356.4333C95.8306,-342.4575 89.2887,-325.6472 83.8929,-311.7821"/>
            <polygon fill="#add8e6" stroke="#add8e6" points="80.1988,-302.2895 88.0191,-309.9766 82.0121,-306.9491 83.8255,-311.6087 83.8255,-311.6087 83.8255,-311.6087 82.0121,-306.9491 79.6319,-313.2407 80.1988,-302.2895 80.1988,-302.2895"/>
            <text text-anchor="middle" x="98.0942" y="-324.6" font-family="Times,serif" font-size="14.00" fill="#0000ff"> c</text>
        </g>
        <!-- tr -->
        <g id="node12" class="node">
            <title>tr</title>
            <ellipse fill="none" stroke="#000000" cx="217.2369" cy="-496.2469" rx="37.9027" ry="29.3315"/>
            <text text-anchor="middle" x="217.2369" y="-500.4469" font-family="Times,serif" font-size="14.00" fill="#000000">Sparse</text>
            <text text-anchor="middle" x="217.2369" y="-483.6469" font-family="Times,serif" font-size="14.00" fill="#000000">0x07E</text>
        </g>
        <!-- tra&#45;&gt;tr -->
        <g id="edge20" class="edge">
            <title>tra&#45;&gt;tr</title>
            <path fill="none" stroke="#ffc0cb" d="M134.8244,-407.6467C142.3198,-415.356 150.6782,-424.0253 158.2369,-432.0313 168.0928,-442.4704 178.7426,-453.987 188.2457,-464.3504"/>
            <polygon fill="#ffc0cb" stroke="#ffc0cb" points="195.2572,-472.0136 185.1867,-467.6734 191.882,-468.3247 188.5068,-464.6357 188.5068,-464.6357 188.5068,-464.6357 191.882,-468.3247 191.8268,-461.598 195.2572,-472.0136 195.2572,-472.0136"/>
        </g>
        <!-- tre -->
        <g id="node9" class="node">
            <title>tre</title>
            <ellipse fill="none" stroke="#000000" cx="217.2369" cy="-384.6156" rx="37.9306" ry="29.3315"/>
            <text text-anchor="middle" x="217.2369" y="-388.8156" font-family="Times,serif" font-size="14.00" fill="#000000">Chain</text>
            <text text-anchor="middle" x="217.2369" y="-372.0156" font-family="Times,serif" font-size="14.00" fill="#000000">0x03B</text>
        </g>
        <!-- tree&#45;&gt;tre -->
        <g id="edge21" class="edge">
            <title>tree&#45;&gt;tre</title>
            <path fill="none" stroke="#ffc0cb" d="M225.7116,-302.3279C227.9713,-307.9814 230.0993,-314.3363 231.2369,-320.4 232.8247,-328.8637 232.2596,-337.9179 230.673,-346.479"/>
            <polygon fill="#ffc0cb" stroke="#ffc0cb" points="228.409,-356.2376 226.2855,-345.4793 229.5391,-351.3669 230.6691,-346.4963 230.6691,-346.4963 230.6691,-346.4963 229.5391,-351.3669 235.0527,-347.5133 228.409,-356.2376 228.409,-356.2376"/>
        </g>
        <!-- trie -->
        <g id="node10" class="node">
            <title>trie</title>
            <ellipse fill="none" stroke="#000000" cx="399.2369" cy="-284.4" rx="73.4745" ry="18"/>
            <text text-anchor="middle" x="399.2369" y="-280.2" font-family="Times,serif" font-size="14.00" fill="#000000">contentArray[2]</text>
        </g>
        <!-- tree&#45;&gt;trie -->
        <!-- tre&#45;&gt;tree -->
        <g id="edge13" class="edge">
            <title>tre&#45;&gt;tree</title>
            <path fill="none" stroke="#add8e6" d="M217.2369,-355.0897C217.2369,-341.6046 217.2369,-325.7123 217.2369,-312.4153"/>
            <polygon fill="#add8e6" stroke="#add8e6" points="217.2369,-302.4033 221.737,-312.4033 217.2369,-307.4033 217.237,-312.4033 217.237,-312.4033 217.237,-312.4033 217.2369,-307.4033 212.737,-312.4034 217.2369,-302.4033 217.2369,-302.4033"/>
            <text text-anchor="middle" x="222.0942" y="-324.6" font-family="Times,serif" font-size="14.00" fill="#0000ff"> e</text>
        </g>
        <!-- tre&#45;&gt;tr -->
        <g id="edge22" class="edge">
            <title>tre&#45;&gt;tr</title>
            <path fill="none" stroke="#ffc0cb" d="M227.8923,-412.9079C230.9037,-424.04 232.9509,-436.9736 231.2369,-448.8313 230.8027,-451.835 230.2214,-454.9136 229.5418,-457.989"/>
            <polygon fill="#ffc0cb" stroke="#ffc0cb" points="227.0968,-467.7057 225.1732,-456.9099 228.317,-462.8569 229.5371,-458.008 229.5371,-458.008 229.5371,-458.008 228.317,-462.8569 233.9011,-459.1062 227.0968,-467.7057 227.0968,-467.7057"/>
        </g>
        <!-- tri -->
        <g id="node11" class="node">
            <title>tri</title>
            <ellipse fill="none" stroke="#000000" cx="326.2369" cy="-384.6156" rx="37.9306" ry="29.3315"/>
            <text text-anchor="middle" x="326.2369" y="-388.8156" font-family="Times,serif" font-size="14.00" fill="#000000">Chain</text>
            <text text-anchor="middle" x="326.2369" y="-372.0156" font-family="Times,serif" font-size="14.00" fill="#000000">0x05B</text>
        </g>
        <!-- trie&#45;&gt;tri -->
        <g id="edge23" class="edge">
            <title>trie&#45;&gt;tri</title>
            <path fill="none" stroke="#ffc0cb" d="M393.8563,-302.4822C390.1724,-313.1558 384.6144,-326.606 377.2369,-337.2 372.5248,-343.9665 366.7036,-350.493 360.6987,-356.4272"/>
            <polygon fill="#ffc0cb" stroke="#ffc0cb" points="353.0638,-363.6005 357.2704,-353.4736 356.7078,-360.1768 360.3518,-356.7531 360.3518,-356.7531 360.3518,-356.7531 356.7078,-360.1768 363.4331,-360.0327 353.0638,-363.6005 353.0638,-363.6005"/>
        </g>
        <!-- tri&#45;&gt;trie -->
        <g id="edge15" class="edge">
            <title>tri&#45;&gt;trie</title>
            <path fill="none" stroke="#add8e6" d="M342.2386,-357.7635C349.5562,-346.0182 358.5767,-332.2461 367.5223,-320.4 370.1199,-316.9602 372.9633,-313.4399 375.8469,-310.0124"/>
            <polygon fill="#add8e6" stroke="#add8e6" points="382.5518,-302.2644 379.4108,-312.7708 379.2799,-306.0453 376.0081,-309.8261 376.0081,-309.8261 376.0081,-309.8261 379.2799,-306.0453 372.6053,-306.8815 382.5518,-302.2644 382.5518,-302.2644"/>
            <text text-anchor="middle" x="372.0942" y="-324.6" font-family="Times,serif" font-size="14.00" fill="#0000ff"> e</text>
        </g>
        <!-- tri&#45;&gt;tr -->
        <g id="edge24" class="edge">
            <title>tri&#45;&gt;tr</title>
            <path fill="none" stroke="#ffc0cb" d="M314.1697,-412.7968C308.1382,-424.7883 300.0242,-438.3853 290.2369,-448.8313 280.9326,-458.7618 269.1419,-467.5728 257.7651,-474.8231"/>
            <polygon fill="#ffc0cb" stroke="#ffc0cb" points="249.1939,-480.056 255.3841,-471.0044 253.4614,-477.4506 257.729,-474.8451 257.729,-474.8451 257.729,-474.8451 253.4614,-477.4506 260.0739,-478.6859 249.1939,-480.056 249.1939,-480.056"/>
        </g>
        <!-- tr&#45;&gt;tra -->
        <g id="edge7" class="edge">
            <title>tr&#45;&gt;tra</title>
            <path fill="none" stroke="#add8e6" d="M186.1766,-479.0539C173.479,-471.0083 159.2794,-460.5991 148.5223,-448.8313 141.1239,-440.7377 134.615,-430.8736 129.2283,-421.329"/>
            <polygon fill="#add8e6" stroke="#add8e6" points="124.4153,-412.3441 133.1041,-419.0341 126.7763,-416.7516 129.1373,-421.159 129.1373,-421.159 129.1373,-421.159 126.7763,-416.7516 125.1706,-423.284 124.4153,-412.3441 124.4153,-412.3441"/>
            <text text-anchor="middle" x="154.0942" y="-436.2313" font-family="Times,serif" font-size="14.00" fill="#0000ff"> a</text>
        </g>
        <!-- tr&#45;&gt;tre -->
        <g id="edge12" class="edge">
            <title>tr&#45;&gt;tre</title>
            <path fill="none" stroke="#add8e6" d="M217.2369,-466.6249C217.2369,-453.7568 217.2369,-438.4867 217.2369,-424.6319"/>
            <polygon fill="#add8e6" stroke="#add8e6" points="217.2369,-414.3761 221.737,-424.3761 217.2369,-419.3761 217.237,-424.3761 217.237,-424.3761 217.237,-424.3761 217.2369,-419.3761 212.737,-424.3762 217.2369,-414.3761 217.2369,-414.3761"/>
            <text text-anchor="middle" x="222.0942" y="-436.2313" font-family="Times,serif" font-size="14.00" fill="#0000ff"> e</text>
        </g>
        <!-- tr&#45;&gt;tri -->
        <g id="edge14" class="edge">
            <title>tr&#45;&gt;tri</title>
            <path fill="none" stroke="#add8e6" d="M240.0869,-472.8454C256.2553,-456.2866 278.1111,-433.9032 295.7628,-415.8254"/>
            <polygon fill="#add8e6" stroke="#add8e6" points="303.0416,-408.3709 299.275,-418.6696 299.5485,-411.9483 296.0553,-415.5258 296.0553,-415.5258 296.0553,-415.5258 299.5485,-411.9483 292.8356,-412.382 303.0416,-408.3709 303.0416,-408.3709"/>
            <text text-anchor="middle" x="282.9322" y="-436.2313" font-family="Times,serif" font-size="14.00" fill="#0000ff"> i</text>
        </g>
        <!-- tr&#45;&gt;t -->
        <g id="edge25" class="edge">
            <title>tr&#45;&gt;t</title>
            <path fill="none" stroke="#ffc0cb" d="M224.5566,-525.3096C226.4734,-536.3112 227.6536,-548.9542 226.2369,-560.4626 225.9201,-563.0362 225.4804,-565.6905 224.9643,-568.3364"/>
            <polygon fill="#ffc0cb" stroke="#ffc0cb" points="222.6937,-578.3117 220.5255,-567.5623 223.8035,-573.4364 224.9132,-568.5611 224.9132,-568.5611 224.9132,-568.5611 223.8035,-573.4364 229.301,-569.5599 222.6937,-578.3117 222.6937,-578.3117"/>
        </g>
        <!-- t&#45;&gt;root -->
        <g id="edge26" class="edge">
            <title>t&#45;&gt;root</title>
            <path fill="none" stroke="#ffc0cb" d="M222.0886,-614.6473C223.3802,-620.3113 224.5942,-626.6075 225.2369,-632.4626 226.1247,-640.5504 225.87,-649.2014 225.048,-657.4497"/>
            <polygon fill="#ffc0cb" stroke="#ffc0cb" points="223.7469,-667.6094 220.5537,-657.1188 224.3821,-662.6499 225.0173,-657.6904 225.0173,-657.6904 225.0173,-657.6904 224.3821,-662.6499 229.4808,-658.2621 223.7469,-667.6094 223.7469,-667.6094"/>
        </g>
        <!-- t&#45;&gt;tr -->
        <g id="edge6" class="edge">
            <title>t&#45;&gt;tr</title>
            <path fill="none" stroke="#add8e6" d="M217.2369,-578.0815C217.2369,-566.3502 217.2369,-550.6774 217.2369,-536.1885"/>
            <polygon fill="#add8e6" stroke="#add8e6" points="217.2369,-525.9209 221.737,-535.9208 217.2369,-530.9209 217.237,-535.9209 217.237,-535.9209 217.237,-535.9209 217.2369,-530.9209 212.737,-535.9209 217.2369,-525.9209 217.2369,-525.9209"/>
            <text text-anchor="middle" x="221.3172" y="-547.8626" font-family="Times,serif" font-size="14.00" fill="#0000ff"> r</text>
        </g>
    </g>
</svg>
