<?xml version="1.0" encoding="UTF-8" standalone="no"?>
<!DOCTYPE svg PUBLIC "-//W3C//DTD SVG 1.1//EN"
        "http://www.w3.org/Graphics/SVG/1.1/DTD/svg11.dtd">
<!---
 Licensed to the Apache Software Foundation (ASF) under one
 or more contributor license agreements.  See the NOTICE file
 distributed with this work for additional information
 regarding copyright ownership.  The ASF licenses this file
 to you under the Apache License, Version 2.0 (the
 "License"); you may not use this file except in compliance
 with the License.  You may obtain a copy of the License at

     http://www.apache.org/licenses/LICENSE-2.0

 Unless required by applicable law or agreed to in writing, software
 distributed under the License is distributed on an "AS IS" BASIS,
 WITHOUT WARRANTIES OR CONDITIONS OF ANY KIND, either express or implied.
 See the License for the specific language governing permissions and
 limitations under the License.
-->

<!-- Generated by graphviz version 2.40.1 (20161225.0304)
# embedded DOT (plantuml) works in IDEA preview
# but not on GitHub
```plantuml
digraph G {
    { rank=same root -> start [style=invis] }
    start [label="start/end"]

    tractor [label = "contentArray[0]"]
    tracto [label = "0x01B"]
    tract [label = "0x01A"]
    trac [label = "0x019"]
    tra [label = "Chain\n0x018"; color = "lightgrey"; fontcolor = lightgray]

    tree [label = "contentArray[1]"]
    tre [label = "Chain\n0x03B"]
    trie [label = "contentArray[2]"]
    tri [label = "Chain\n0x05B"]

    tr [label = "Sparse\n0x07E"]

    t [label = "0x09B"]
    root [label = "Chain\n0x9A"]

    root -> t [label = " t"]
    t -> tr [label = " r"]
    trac -> tract [label = " t"]
    tract -> tracto [label = " o"]
    tracto -> tractor [label = " r"]

    tr -> tra [label = " a"; color = "lightgrey"; fontcolor = lightgray]
    tra -> trac [label = " c"; color = "lightgrey"; fontcolor = lightgray]

    tr -> tre [label = " e"]
    tre -> tree [label = " e"]

    tr -> tri [label = " i"]
    tri -> trie [label = " e"]

    subgraph path {
        edge [color = "lightblue"; fontcolor="blue"; arrowhead="vee"]
        node [color = "blue"; fontcolor="blue"]

        start -> root

        root -> t [label = " t"]
        t -> tr [label = " r"]
        tr -> tra [label = " a"]
        tra -> trav [label = " v"]
        trav -> trave [label = " e"]
        trave -> traver [label = " r"]
        traver -> travers [label = " s"]
        travers -> traverse [label = " e"]

        tra2 [label = "Sparse\n0x0DE"]
        trav [label = "Chain\n0x0B8"]
        trave [label = "0x0B9"]
        traver [label = "0x0BA"]
        travers [label = "0x0BB"]
        traverse [label = "contentArray[3]"]

        tr -> tru [label = " u"]
        tru -> truc [label = " c"]
        truc -> truck [label = " k"]

        tru [label = "Chain\n0x0FA"]
        truc [label = "0x0FB"]
        truck [label = "contentArray[4]"]
    }

    {rank=same tra -> tra2 -> tre -> tri -> tru [style=invis]}
    {rank=same trac -> trav -> tree -> trie -> truc [style=invis]}

    {
        edge [color = "blue"]
        tr -> tra2 [label = " a"]
        tra2 -> trac [label = " c"]
        tra2 -> trav [label = " v"]
        trav -> trave [label = " e"]
        trave -> traver [label = " r"]
        traver -> travers [label = " s"]
        travers -> traverse [label = " e"]
        tr -> tru [label = " u"]
        tru -> truc [label = " c"]
        truc -> truck [label = " k"]
    }

    subgraph back {
        edge [color = "pink"; fontcolor="red"; arrowhead="vee"; constrain="false"]

        traverse -> travers [label = " ~3"]
        travers -> traver [label = "0x0BB"]
        traver -> trave [label = "0x0BA"]
        trave -> trav [label = "0x0B9"]
        trav -> tra2 [label = "0x0B8"]
        tra2 -> tr [label = "0x0DE"]
        tr -> t [label = "0x07E"]
        t -> root [label = "0x09B"]
        root -> start [label = "0x09A"]

        truck -> truc [label = "~4"]
        truc -> tru [label = "0x0FB"]
        tru -> tr [label = "0x0FA"]
    }
}
```
 -->
<!-- Title: G Pages: 1 -->
<svg width="757pt" height="846pt"
     viewBox="0.00 0.00 757.47 845.73" xmlns="http://www.w3.org/2000/svg" xmlns:xlink="http://www.w3.org/1999/xlink">
    <g id="graph0" class="graph" transform="scale(1 1) rotate(0) translate(4 841.7251)">
        <title>G</title>
        <polygon fill="#ffffff" stroke="transparent" points="-4,4 -4,-841.7251 753.4738,-841.7251 753.4738,4 -4,4"/>
        <!-- root -->
        <g id="node1" class="node">
            <title>root</title>
            <ellipse fill="none" stroke="#000000" cx="357.2369" cy="-808.3095" rx="33.1337" ry="29.3315"/>
            <text text-anchor="middle" x="357.2369" y="-812.5095" font-family="Times,serif" font-size="14.00" fill="#000000">Chain</text>
            <text text-anchor="middle" x="357.2369" y="-795.7095" font-family="Times,serif" font-size="14.00" fill="#000000">0x9A</text>
        </g>
        <!-- start -->
        <g id="node2" class="node">
            <title>start</title>
            <ellipse fill="none" stroke="#000000" cx="490.2369" cy="-808.3095" rx="44.0775" ry="18"/>
            <text text-anchor="middle" x="490.2369" y="-804.1095" font-family="Times,serif" font-size="14.00" fill="#000000">start/end</text>
        </g>
        <!-- root&#45;&gt;start -->
        <!-- root&#45;&gt;start -->
        <g id="edge51" class="edge">
            <title>root&#45;&gt;start</title>
            <path fill="none" stroke="#ffc0cb" d="M390.7984,-808.3095C404.3037,-808.3095 420.2339,-808.3095 435.3398,-808.3095"/>
            <polygon fill="#ffc0cb" stroke="#ffc0cb" points="445.6261,-808.3095 435.6262,-812.8096 440.6261,-808.3095 435.6261,-808.3096 435.6261,-808.3096 435.6261,-808.3096 440.6261,-808.3095 435.6261,-803.8096 445.6261,-808.3095 445.6261,-808.3095"/>
            <text text-anchor="middle" x="418.2509" y="-815.5095" font-family="Times,serif" font-size="14.00" fill="#ff0000">0x09A</text>
        </g>
        <!-- t -->
        <g id="node13" class="node">
            <title>t</title>
            <ellipse fill="none" stroke="#000000" cx="357.2369" cy="-708.0939" rx="36.5824" ry="18"/>
            <text text-anchor="middle" x="357.2369" y="-703.8939" font-family="Times,serif" font-size="14.00" fill="#000000">0x09B</text>
        </g>
        <!-- root&#45;&gt;t -->
        <g id="edge2" class="edge">
            <title>root&#45;&gt;t</title>
            <path fill="none" stroke="#000000" d="M337.9564,-784.2612C330.7393,-772.3485 325.2768,-757.6462 329.8463,-744.0939 331.1636,-740.1869 333.0926,-736.3684 335.3269,-732.7663"/>
            <polygon fill="#000000" stroke="#000000" points="338.3844,-734.5068 341.3357,-724.3313 332.683,-730.4454 338.3844,-734.5068"/>
            <text text-anchor="middle" x="333.9322" y="-748.2939" font-family="Times,serif" font-size="14.00" fill="#000000"> t</text>
        </g>
        <!-- root&#45;&gt;t -->
        <g id="edge14" class="edge">
            <title>root&#45;&gt;t</title>
            <path fill="none" stroke="#add8e6" d="M357.2369,-778.7835C357.2369,-765.2984 357.2369,-749.4062 357.2369,-736.1092"/>
            <polygon fill="#add8e6" stroke="#add8e6" points="357.2369,-726.0972 361.737,-736.0971 357.2369,-731.0972 357.237,-736.0972 357.237,-736.0972 357.237,-736.0972 357.2369,-731.0972 352.737,-736.0972 357.2369,-726.0972 357.2369,-726.0972"/>
            <text text-anchor="middle" x="360.9322" y="-748.2939" font-family="Times,serif" font-size="14.00" fill="#0000ff"> t</text>
        </g>
        <!-- start&#45;&gt;root -->
        <g id="edge13" class="edge">
            <title>start&#45;&gt;root</title>
            <path fill="none" stroke="#add8e6" d="M446.4042,-805.6333C434.2938,-805.1818 421.1479,-804.9584 409.0184,-805.3095 406.3264,-805.3874 403.5568,-805.4881 400.7643,-805.6051"/>
            <polygon fill="#add8e6" stroke="#add8e6" points="390.6504,-806.089 400.4239,-801.1161 395.6447,-805.85 400.639,-805.611 400.639,-805.611 400.639,-805.611 395.6447,-805.85 400.8541,-810.1058 390.6504,-806.089 390.6504,-806.089"/>
        </g>
        <!-- tractor -->
        <g id="node3" class="node">
            <title>tractor</title>
            <ellipse fill="none" stroke="#000000" cx="73.2369" cy="-106.8" rx="73.4745" ry="18"/>
            <text text-anchor="middle" x="73.2369" y="-102.6" font-family="Times,serif" font-size="14.00" fill="#000000">contentArray[0]</text>
        </g>
        <!-- tracto -->
        <g id="node4" class="node">
            <title>tracto</title>
            <ellipse fill="none" stroke="#000000" cx="74.2369" cy="-195.6" rx="36.5824" ry="18"/>
            <text text-anchor="middle" x="74.2369" y="-191.4" font-family="Times,serif" font-size="14.00" fill="#000000">0x01B</text>
        </g>
        <!-- tracto&#45;&gt;tractor -->
        <g id="edge6" class="edge">
            <title>tracto&#45;&gt;tractor</title>
            <path fill="none" stroke="#000000" d="M74.0297,-177.2006C73.8934,-165.0949 73.7122,-149.0076 73.5575,-135.2674"/>
            <polygon fill="#000000" stroke="#000000" points="77.0529,-134.8319 73.4404,-124.872 70.0533,-134.9108 77.0529,-134.8319"/>
            <text text-anchor="middle" x="78.3172" y="-147" font-family="Times,serif" font-size="14.00" fill="#000000"> r</text>
        </g>
        <!-- tract -->
        <g id="node5" class="node">
            <title>tract</title>
            <ellipse fill="none" stroke="#000000" cx="78.2369" cy="-284.4" rx="37.1443" ry="18"/>
            <text text-anchor="middle" x="78.2369" y="-280.2" font-family="Times,serif" font-size="14.00" fill="#000000">0x01A</text>
        </g>
        <!-- tract&#45;&gt;tracto -->
        <g id="edge5" class="edge">
            <title>tract&#45;&gt;tracto</title>
            <path fill="none" stroke="#000000" d="M77.4081,-266.0006C76.8628,-253.8949 76.1381,-237.8076 75.5192,-224.0674"/>
            <polygon fill="#000000" stroke="#000000" points="78.9975,-223.5044 75.0509,-213.672 72.0046,-223.8194 78.9975,-223.5044"/>
            <text text-anchor="middle" x="82.4869" y="-235.8" font-family="Times,serif" font-size="14.00" fill="#000000"> o</text>
        </g>
        <!-- trac -->
        <g id="node6" class="node">
            <title>trac</title>
            <ellipse fill="none" stroke="#000000" cx="94.2369" cy="-384.6156" rx="35.3587" ry="18"/>
            <text text-anchor="middle" x="94.2369" y="-380.4156" font-family="Times,serif" font-size="14.00" fill="#000000">0x019</text>
        </g>
        <!-- trac&#45;&gt;tract -->
        <g id="edge4" class="edge">
            <title>trac&#45;&gt;tract</title>
            <path fill="none" stroke="#000000" d="M91.3022,-366.2345C88.9115,-351.2603 85.4955,-329.8643 82.756,-312.7055"/>
            <polygon fill="#000000" stroke="#000000" points="86.1858,-311.9877 81.1529,-302.6646 79.2734,-313.0913 86.1858,-311.9877"/>
            <text text-anchor="middle" x="89.9322" y="-324.6" font-family="Times,serif" font-size="14.00" fill="#000000"> t</text>
        </g>
        <!-- trav -->
        <g id="node14" class="node">
            <title>trav</title>
            <ellipse fill="none" stroke="#0000ff" cx="202.2369" cy="-384.6156" rx="37.9306" ry="29.3315"/>
            <text text-anchor="middle" x="202.2369" y="-388.8156" font-family="Times,serif" font-size="14.00" fill="#0000ff">Chain</text>
            <text text-anchor="middle" x="202.2369" y="-372.0156" font-family="Times,serif" font-size="14.00" fill="#0000ff">0x0B8</text>
        </g>
        <!-- trac&#45;&gt;trav -->
        <!-- tra -->
        <g id="node7" class="node">
            <title>tra</title>
            <ellipse fill="none" stroke="#d3d3d3" cx="133.2369" cy="-496.2469" rx="36.125" ry="29.3315"/>
            <text text-anchor="middle" x="133.2369" y="-500.4469" font-family="Times,serif" font-size="14.00" fill="#d3d3d3">Chain</text>
            <text text-anchor="middle" x="133.2369" y="-483.6469" font-family="Times,serif" font-size="14.00" fill="#d3d3d3">0x018</text>
        </g>
        <!-- tra&#45;&gt;trac -->
        <g id="edge8" class="edge">
            <title>tra&#45;&gt;trac</title>
            <path fill="none" stroke="#d3d3d3" d="M114.5188,-470.6739C110.3016,-463.8622 106.2666,-456.3098 103.5223,-448.8313 99.3758,-437.5318 97.0731,-424.4776 95.7973,-413.1021"/>
            <polygon fill="#d3d3d3" stroke="#d3d3d3" points="99.2538,-412.4638 94.8622,-402.822 92.2826,-413.098 99.2538,-412.4638"/>
            <text text-anchor="middle" x="109.0942" y="-436.2313" font-family="Times,serif" font-size="14.00" fill="#d3d3d3"> c</text>
        </g>
        <!-- tra&#45;&gt;trav -->
        <g id="edge17" class="edge">
            <title>tra&#45;&gt;trav</title>
            <path fill="none" stroke="#add8e6" d="M130.7527,-466.6197C131.0399,-455.1889 132.9734,-442.3975 138.7369,-432.0313 144.2651,-422.0881 152.8469,-413.6214 161.933,-406.7148"/>
            <polygon fill="#add8e6" stroke="#add8e6" points="170.346,-400.8129 164.7439,-410.2398 166.2527,-403.6844 162.1595,-406.5559 162.1595,-406.5559 162.1595,-406.5559 166.2527,-403.6844 159.5751,-402.872 170.346,-400.8129 170.346,-400.8129"/>
            <text text-anchor="middle" x="144.4869" y="-436.2313" font-family="Times,serif" font-size="14.00" fill="#0000ff"> v</text>
        </g>
        <!-- tra2 -->
        <g id="node19" class="node">
            <title>tra2</title>
            <ellipse fill="none" stroke="#0000ff" cx="244.2369" cy="-496.2469" rx="39.2145" ry="29.3315"/>
            <text text-anchor="middle" x="244.2369" y="-500.4469" font-family="Times,serif" font-size="14.00" fill="#0000ff">Sparse</text>
            <text text-anchor="middle" x="244.2369" y="-483.6469" font-family="Times,serif" font-size="14.00" fill="#0000ff">0x0DE</text>
        </g>
        <!-- tra&#45;&gt;tra2 -->
        <!-- tree -->
        <g id="node8" class="node">
            <title>tree</title>
            <ellipse fill="none" stroke="#000000" cx="348.2369" cy="-384.6156" rx="73.4745" ry="18"/>
            <text text-anchor="middle" x="348.2369" y="-380.4156" font-family="Times,serif" font-size="14.00" fill="#000000">contentArray[1]</text>
        </g>
        <!-- trie -->
        <g id="node10" class="node">
            <title>trie</title>
            <ellipse fill="none" stroke="#000000" cx="530.2369" cy="-384.6156" rx="73.4745" ry="18"/>
            <text text-anchor="middle" x="530.2369" y="-380.4156" font-family="Times,serif" font-size="14.00" fill="#000000">contentArray[2]</text>
        </g>
        <!-- tree&#45;&gt;trie -->
        <!-- tre -->
        <g id="node9" class="node">
            <title>tre</title>
            <ellipse fill="none" stroke="#000000" cx="357.2369" cy="-496.2469" rx="37.9306" ry="29.3315"/>
            <text text-anchor="middle" x="357.2369" y="-500.4469" font-family="Times,serif" font-size="14.00" fill="#000000">Chain</text>
            <text text-anchor="middle" x="357.2369" y="-483.6469" font-family="Times,serif" font-size="14.00" fill="#000000">0x03B</text>
        </g>
        <!-- tre&#45;&gt;tree -->
        <g id="edge10" class="edge">
            <title>tre&#45;&gt;tree</title>
            <path fill="none" stroke="#000000" d="M354.8487,-466.6249C353.5073,-449.9873 351.8422,-429.334 350.5186,-412.9163"/>
            <polygon fill="#000000" stroke="#000000" points="353.9973,-412.5103 349.7049,-402.8239 347.0199,-413.0729 353.9973,-412.5103"/>
            <text text-anchor="middle" x="359.0942" y="-436.2313" font-family="Times,serif" font-size="14.00" fill="#000000"> e</text>
        </g>
        <!-- tri -->
        <g id="node11" class="node">
            <title>tri</title>
            <ellipse fill="none" stroke="#000000" cx="468.2369" cy="-496.2469" rx="37.9306" ry="29.3315"/>
            <text text-anchor="middle" x="468.2369" y="-500.4469" font-family="Times,serif" font-size="14.00" fill="#000000">Chain</text>
            <text text-anchor="middle" x="468.2369" y="-483.6469" font-family="Times,serif" font-size="14.00" fill="#000000">0x05B</text>
        </g>
        <!-- tre&#45;&gt;tri -->
        <!-- truc -->
        <g id="node21" class="node">
            <title>truc</title>
            <ellipse fill="none" stroke="#0000ff" cx="676.2369" cy="-384.6156" rx="37.1616" ry="18"/>
            <text text-anchor="middle" x="676.2369" y="-380.4156" font-family="Times,serif" font-size="14.00" fill="#0000ff">0x0FB</text>
        </g>
        <!-- trie&#45;&gt;truc -->
        <!-- tri&#45;&gt;trie -->
        <g id="edge12" class="edge">
            <title>tri&#45;&gt;trie</title>
            <path fill="none" stroke="#000000" d="M483.2454,-469.2241C492.9216,-451.8019 505.4604,-429.2258 515.1517,-411.7765"/>
            <polygon fill="#000000" stroke="#000000" points="518.4109,-413.1168 520.2066,-402.6752 512.2914,-409.718 518.4109,-413.1168"/>
            <text text-anchor="middle" x="507.0942" y="-436.2313" font-family="Times,serif" font-size="14.00" fill="#000000"> e</text>
        </g>
        <!-- tru -->
        <g id="node20" class="node">
            <title>tru</title>
            <ellipse fill="none" stroke="#0000ff" cx="580.2369" cy="-496.2469" rx="38.626" ry="29.3315"/>
            <text text-anchor="middle" x="580.2369" y="-500.4469" font-family="Times,serif" font-size="14.00" fill="#0000ff">Chain</text>
            <text text-anchor="middle" x="580.2369" y="-483.6469" font-family="Times,serif" font-size="14.00" fill="#0000ff">0x0FA</text>
        </g>
        <!-- tri&#45;&gt;tru -->
        <!-- tr -->
        <g id="node12" class="node">
            <title>tr</title>
            <ellipse fill="none" stroke="#000000" cx="357.2369" cy="-607.8782" rx="37.9027" ry="29.3315"/>
            <text text-anchor="middle" x="357.2369" y="-612.0782" font-family="Times,serif" font-size="14.00" fill="#000000">Sparse</text>
            <text text-anchor="middle" x="357.2369" y="-595.2782" font-family="Times,serif" font-size="14.00" fill="#000000">0x07E</text>
        </g>
        <!-- tr&#45;&gt;tra -->
        <g id="edge7" class="edge">
            <title>tr&#45;&gt;tra</title>
            <path fill="none" stroke="#d3d3d3" d="M321.8872,-597.2153C295.7144,-588.7379 259.543,-575.7815 229.5223,-560.4626 208.2971,-549.6318 186.0738,-535.0548 168.3323,-522.5268"/>
            <polygon fill="#d3d3d3" stroke="#d3d3d3" points="170.1754,-519.5418 160.0068,-516.5667 166.1007,-525.2336 170.1754,-519.5418"/>
            <text text-anchor="middle" x="235.0942" y="-547.8626" font-family="Times,serif" font-size="14.00" fill="#d3d3d3"> a</text>
        </g>
        <!-- tr&#45;&gt;tra -->
        <g id="edge16" class="edge">
            <title>tr&#45;&gt;tra</title>
            <path fill="none" stroke="#add8e6" d="M319.8208,-603.7035C283.8354,-598.2919 229.0725,-586.2816 188.5223,-560.4626 176.3594,-552.7182 165.4058,-541.4906 156.5184,-530.5822"/>
            <polygon fill="#add8e6" stroke="#add8e6" points="150.1392,-522.3658 159.8263,-527.5049 153.2055,-526.3152 156.2719,-530.2646 156.2719,-530.2646 156.2719,-530.2646 153.2055,-526.3152 152.7174,-533.0243 150.1392,-522.3658 150.1392,-522.3658"/>
            <text text-anchor="middle" x="194.0942" y="-547.8626" font-family="Times,serif" font-size="14.00" fill="#0000ff"> a</text>
        </g>
        <!-- tr&#45;&gt;tre -->
        <g id="edge9" class="edge">
            <title>tr&#45;&gt;tre</title>
            <path fill="none" stroke="#000000" d="M357.2369,-578.2562C357.2369,-565.3881 357.2369,-550.1179 357.2369,-536.2631"/>
            <polygon fill="#000000" stroke="#000000" points="360.737,-536.0074 357.2369,-526.0074 353.737,-536.0074 360.737,-536.0074"/>
            <text text-anchor="middle" x="362.0942" y="-547.8626" font-family="Times,serif" font-size="14.00" fill="#000000"> e</text>
        </g>
        <!-- tr&#45;&gt;tri -->
        <g id="edge11" class="edge">
            <title>tr&#45;&gt;tri</title>
            <path fill="none" stroke="#000000" d="M380.5061,-584.4766C397.0825,-567.806 419.5291,-545.2318 437.5674,-527.0908"/>
            <polygon fill="#000000" stroke="#000000" points="440.4292,-529.1767 444.9983,-519.6177 435.4654,-524.241 440.4292,-529.1767"/>
            <text text-anchor="middle" x="423.9322" y="-547.8626" font-family="Times,serif" font-size="14.00" fill="#000000"> i</text>
        </g>
        <!-- tr&#45;&gt;t -->
        <g id="edge49" class="edge">
            <title>tr&#45;&gt;t</title>
            <path fill="none" stroke="#ffc0cb" d="M355.1399,-637.287C354.605,-648.2159 354.2816,-660.7205 354.6843,-672.0939 354.7703,-674.5242 354.889,-677.0451 355.0283,-679.5733"/>
            <polygon fill="#ffc0cb" stroke="#ffc0cb" points="355.6875,-689.7931 350.5531,-680.1035 355.3656,-684.8034 355.0438,-679.8138 355.0438,-679.8138 355.0438,-679.8138 355.3656,-684.8034 359.5344,-679.5241 355.6875,-689.7931 355.6875,-689.7931"/>
            <text text-anchor="middle" x="373.5132" y="-659.4939" font-family="Times,serif" font-size="14.00" fill="#ff0000">0x07E</text>
        </g>
        <!-- tr&#45;&gt;tra2 -->
        <g id="edge33" class="edge">
            <title>tr&#45;&gt;tra2</title>
            <path fill="none" stroke="#0000ff" d="M333.9323,-584.2913C321.8427,-572.1071 306.8029,-557.03 293.2369,-543.6626 287.6045,-538.1127 281.5754,-532.2309 275.74,-526.5682"/>
            <polygon fill="#0000ff" stroke="#0000ff" points="278.1153,-523.9962 268.4966,-519.5541 273.2458,-529.0249 278.1153,-523.9962"/>
            <text text-anchor="middle" x="314.0942" y="-547.8626" font-family="Times,serif" font-size="14.00" fill="#000000"> a</text>
        </g>
        <!-- tr&#45;&gt;tru -->
        <g id="edge22" class="edge">
            <title>tr&#45;&gt;tru</title>
            <path fill="none" stroke="#add8e6" d="M389.1874,-591.8842C428.4573,-572.2261 495.1969,-538.817 538.4895,-517.1452"/>
            <polygon fill="#add8e6" stroke="#add8e6" points="547.6205,-512.5743 540.6927,-521.0747 543.1494,-514.8125 538.6783,-517.0507 538.6783,-517.0507 538.6783,-517.0507 543.1494,-514.8125 536.664,-513.0267 547.6205,-512.5743 547.6205,-512.5743"/>
            <text text-anchor="middle" x="486.4869" y="-547.8626" font-family="Times,serif" font-size="14.00" fill="#0000ff"> u</text>
        </g>
        <!-- tr&#45;&gt;tru -->
        <g id="edge40" class="edge">
            <title>tr&#45;&gt;tru</title>
            <path fill="none" stroke="#0000ff" d="M393.3967,-599.0169C422.2538,-591.1383 463.1788,-578.126 496.2369,-560.4626 514.2689,-550.8278 532.5102,-537.4219 547.3655,-525.3499"/>
            <polygon fill="#0000ff" stroke="#0000ff" points="549.7845,-527.8908 555.2473,-518.8128 545.3158,-522.5028 549.7845,-527.8908"/>
            <text text-anchor="middle" x="525.4869" y="-547.8626" font-family="Times,serif" font-size="14.00" fill="#000000"> u</text>
        </g>
        <!-- t&#45;&gt;root -->
        <g id="edge50" class="edge">
            <title>t&#45;&gt;root</title>
            <path fill="none" stroke="#ffc0cb" d="M362.0886,-726.2786C363.3802,-731.9426 364.5942,-738.2388 365.2369,-744.0939 366.1247,-752.1817 365.87,-760.8327 365.048,-769.081"/>
            <polygon fill="#ffc0cb" stroke="#ffc0cb" points="363.7469,-779.2407 360.5537,-768.7501 364.3821,-774.2812 365.0173,-769.3217 365.0173,-769.3217 365.0173,-769.3217 364.3821,-774.2812 369.4808,-769.8934 363.7469,-779.2407 363.7469,-779.2407"/>
            <text text-anchor="middle" x="384.9052" y="-748.2939" font-family="Times,serif" font-size="14.00" fill="#ff0000">0x09B</text>
        </g>
        <!-- t&#45;&gt;tr -->
        <g id="edge3" class="edge">
            <title>t&#45;&gt;tr</title>
            <path fill="none" stroke="#000000" d="M378.7729,-693.2308C385.3244,-687.4682 391.7179,-680.2751 395.2369,-672.0939 398.1872,-665.2348 397.7115,-662.3385 395.2369,-655.2939 393.2659,-649.6828 390.3202,-644.2436 386.9247,-639.1727"/>
            <polygon fill="#000000" stroke="#000000" points="389.6469,-636.9677 380.8782,-631.0211 384.0247,-641.138 389.6469,-636.9677"/>
            <text text-anchor="middle" x="402.3172" y="-659.4939" font-family="Times,serif" font-size="14.00" fill="#000000"> r</text>
        </g>
        <!-- t&#45;&gt;tr -->
        <g id="edge15" class="edge">
            <title>t&#45;&gt;tr</title>
            <path fill="none" stroke="#add8e6" d="M340.324,-692.0138C335.3995,-686.2543 330.6543,-679.3722 328.0763,-672.0939 324.4827,-661.9481 326.7954,-651.1983 331.382,-641.4556"/>
            <polygon fill="#add8e6" stroke="#add8e6" points="336.3576,-632.4758 335.4471,-643.4038 333.9342,-636.8493 331.5109,-641.2228 331.5109,-641.2228 331.5109,-641.2228 333.9342,-636.8493 327.5747,-639.0418 336.3576,-632.4758 336.3576,-632.4758"/>
            <text text-anchor="middle" x="332.3172" y="-659.4939" font-family="Times,serif" font-size="14.00" fill="#0000ff"> r</text>
        </g>
        <!-- trav&#45;&gt;tree -->
        <!-- trave -->
        <g id="node15" class="node">
            <title>trave</title>
            <ellipse fill="none" stroke="#0000ff" cx="202.2369" cy="-284.4" rx="36.5824" ry="18"/>
            <text text-anchor="middle" x="202.2369" y="-280.2" font-family="Times,serif" font-size="14.00" fill="#0000ff">0x0B9</text>
        </g>
        <!-- trav&#45;&gt;trave -->
        <g id="edge18" class="edge">
            <title>trav&#45;&gt;trave</title>
            <path fill="none" stroke="#add8e6" d="M181.4692,-359.4476C176.9833,-352.6281 172.8815,-344.9707 170.5223,-337.2 168.3531,-330.0554 167.8843,-327.3851 170.5223,-320.4 172.1555,-316.0753 174.5712,-311.9338 177.3533,-308.0992"/>
            <polygon fill="#add8e6" stroke="#add8e6" points="183.8676,-300.2431 180.9485,-310.8134 180.6761,-304.0921 177.4845,-307.941 177.4845,-307.941 177.4845,-307.941 180.6761,-304.0921 174.0205,-305.0686 183.8676,-300.2431 183.8676,-300.2431"/>
            <text text-anchor="middle" x="176.0942" y="-324.6" font-family="Times,serif" font-size="14.00" fill="#0000ff"> e</text>
        </g>
        <!-- trav&#45;&gt;trave -->
        <g id="edge36" class="edge">
            <title>trav&#45;&gt;trave</title>
            <path fill="none" stroke="#0000ff" d="M202.2369,-355.0897C202.2369,-341.6046 202.2369,-325.7123 202.2369,-312.4153"/>
            <polygon fill="#0000ff" stroke="#0000ff" points="205.737,-312.4033 202.2369,-302.4033 198.737,-312.4034 205.737,-312.4033"/>
            <text text-anchor="middle" x="207.0942" y="-324.6" font-family="Times,serif" font-size="14.00" fill="#000000"> e</text>
        </g>
        <!-- trav&#45;&gt;tra2 -->
        <g id="edge47" class="edge">
            <title>trav&#45;&gt;tra2</title>
            <path fill="none" stroke="#ffc0cb" d="M213.0163,-412.9388C215.4002,-419.2228 217.909,-425.8514 220.2369,-432.0313 223.4375,-440.5282 226.8619,-449.6636 230.0924,-458.3025"/>
            <polygon fill="#ffc0cb" stroke="#ffc0cb" points="233.6352,-467.7845 225.9197,-459.992 231.8851,-463.1007 230.1351,-458.417 230.1351,-458.417 230.1351,-458.417 231.8851,-463.1007 234.3505,-456.8419 233.6352,-467.7845 233.6352,-467.7845"/>
            <text text-anchor="middle" x="244.9052" y="-436.2313" font-family="Times,serif" font-size="14.00" fill="#ff0000">0x0B8</text>
        </g>
        <!-- trave&#45;&gt;trav -->
        <g id="edge46" class="edge">
            <title>trave&#45;&gt;trav</title>
            <path fill="none" stroke="#ffc0cb" d="M208.9024,-302.4722C210.6782,-308.1317 212.3487,-314.4535 213.2369,-320.4 214.4724,-328.6713 214.0766,-337.5213 212.8888,-345.926"/>
            <polygon fill="#ffc0cb" stroke="#ffc0cb" points="211.1036,-355.888 208.4382,-345.2509 211.9856,-350.9664 212.8676,-346.0448 212.8676,-346.0448 212.8676,-346.0448 211.9856,-350.9664 217.297,-346.8386 211.1036,-355.888 211.1036,-355.888"/>
            <text text-anchor="middle" x="232.9052" y="-324.6" font-family="Times,serif" font-size="14.00" fill="#ff0000">0x0B9</text>
        </g>
        <!-- traver -->
        <g id="node16" class="node">
            <title>traver</title>
            <ellipse fill="none" stroke="#0000ff" cx="202.2369" cy="-195.6" rx="38.8671" ry="18"/>
            <text text-anchor="middle" x="202.2369" y="-191.4" font-family="Times,serif" font-size="14.00" fill="#0000ff">0x0BA</text>
        </g>
        <!-- trave&#45;&gt;traver -->
        <g id="edge19" class="edge">
            <title>trave&#45;&gt;traver</title>
            <path fill="none" stroke="#add8e6" d="M185.324,-268.32C180.3995,-262.5605 175.6543,-255.6784 173.0763,-248.4 170.5834,-241.3618 170.5834,-238.6382 173.0763,-231.6 174.4962,-227.5912 176.5735,-223.7026 178.9762,-220.0556"/>
            <polygon fill="#add8e6" stroke="#add8e6" points="185.0164,-212.0415 182.5911,-222.7358 182.007,-216.0344 178.9975,-220.0273 178.9975,-220.0273 178.9975,-220.0273 182.007,-216.0344 175.4039,-217.3188 185.0164,-212.0415 185.0164,-212.0415"/>
            <text text-anchor="middle" x="177.3172" y="-235.8" font-family="Times,serif" font-size="14.00" fill="#0000ff"> r</text>
        </g>
        <!-- trave&#45;&gt;traver -->
        <g id="edge37" class="edge">
            <title>trave&#45;&gt;traver</title>
            <path fill="none" stroke="#0000ff" d="M202.2369,-266.0006C202.2369,-253.8949 202.2369,-237.8076 202.2369,-224.0674"/>
            <polygon fill="#0000ff" stroke="#0000ff" points="205.737,-223.672 202.2369,-213.672 198.737,-223.6721 205.737,-223.672"/>
            <text text-anchor="middle" x="206.3172" y="-235.8" font-family="Times,serif" font-size="14.00" fill="#000000"> r</text>
        </g>
        <!-- traver&#45;&gt;trave -->
        <g id="edge45" class="edge">
            <title>traver&#45;&gt;trave</title>
            <path fill="none" stroke="#ffc0cb" d="M207.6937,-213.7509C209.1467,-219.4136 210.5127,-225.7174 211.2369,-231.6 212.1492,-239.0107 212.1492,-240.9893 211.2369,-248.4 210.9201,-250.9736 210.4804,-253.6279 209.9643,-256.2738"/>
            <polygon fill="#ffc0cb" stroke="#ffc0cb" points="207.6937,-266.2491 205.5255,-255.4997 208.8035,-261.3738 209.9132,-256.4985 209.9132,-256.4985 209.9132,-256.4985 208.8035,-261.3738 214.301,-257.4973 207.6937,-266.2491 207.6937,-266.2491"/>
            <text text-anchor="middle" x="232.4585" y="-235.8" font-family="Times,serif" font-size="14.00" fill="#ff0000">0x0BA</text>
        </g>
        <!-- travers -->
        <g id="node17" class="node">
            <title>travers</title>
            <ellipse fill="none" stroke="#0000ff" cx="203.2369" cy="-106.8" rx="38.305" ry="18"/>
            <text text-anchor="middle" x="203.2369" y="-102.6" font-family="Times,serif" font-size="14.00" fill="#0000ff">0x0BB</text>
        </g>
        <!-- traver&#45;&gt;travers -->
        <g id="edge20" class="edge">
            <title>traver&#45;&gt;travers</title>
            <path fill="none" stroke="#add8e6" d="M183.9854,-179.6658C174.6965,-169.5397 166.3137,-155.9116 171.2923,-142.8 172.9385,-138.4645 175.3723,-134.3169 178.1749,-130.4793"/>
            <polygon fill="#add8e6" stroke="#add8e6" points="184.7367,-122.6213 181.7812,-133.1814 181.5319,-126.4592 178.3271,-130.2971 178.3271,-130.2971 178.3271,-130.2971 181.5319,-126.4592 174.873,-127.4128 184.7367,-122.6213 184.7367,-122.6213"/>
            <text text-anchor="middle" x="176.7092" y="-147" font-family="Times,serif" font-size="14.00" fill="#0000ff"> s</text>
        </g>
        <!-- traver&#45;&gt;travers -->
        <g id="edge38" class="edge">
            <title>traver&#45;&gt;travers</title>
            <path fill="none" stroke="#0000ff" d="M202.4441,-177.2006C202.5804,-165.0949 202.7616,-149.0076 202.9163,-135.2674"/>
            <polygon fill="#0000ff" stroke="#0000ff" points="206.4205,-134.9108 203.0334,-124.872 199.4209,-134.8319 206.4205,-134.9108"/>
            <text text-anchor="middle" x="207.7092" y="-147" font-family="Times,serif" font-size="14.00" fill="#000000"> s</text>
        </g>
        <!-- travers&#45;&gt;traver -->
        <g id="edge44" class="edge">
            <title>travers&#45;&gt;traver</title>
            <path fill="none" stroke="#ffc0cb" d="M209.0666,-124.8376C211.6638,-135.0186 213.8193,-147.9908 212.2369,-159.6 211.8717,-162.2793 211.3602,-165.0407 210.7599,-167.7863"/>
            <polygon fill="#ffc0cb" stroke="#ffc0cb" points="208.2983,-177.4866 206.3963,-166.6869 209.5282,-172.6402 210.758,-167.7938 210.758,-167.7938 210.758,-167.7938 209.5282,-172.6402 215.1198,-168.9007 208.2983,-177.4866 208.2983,-177.4866"/>
            <text text-anchor="middle" x="233.0735" y="-147" font-family="Times,serif" font-size="14.00" fill="#ff0000">0x0BB</text>
        </g>
        <!-- traverse -->
        <g id="node18" class="node">
            <title>traverse</title>
            <ellipse fill="none" stroke="#0000ff" cx="203.2369" cy="-18" rx="73.4745" ry="18"/>
            <text text-anchor="middle" x="203.2369" y="-13.8" font-family="Times,serif" font-size="14.00" fill="#0000ff">contentArray[3]</text>
        </g>
        <!-- travers&#45;&gt;traverse -->
        <g id="edge21" class="edge">
            <title>travers&#45;&gt;traverse</title>
            <path fill="none" stroke="#add8e6" d="M184.8676,-90.9569C179.5135,-85.2132 174.3474,-78.2805 171.5223,-70.8 168.8843,-63.8149 168.8843,-60.9851 171.5223,-54 172.8668,-50.4399 174.7415,-47.004 176.9144,-43.7612"/>
            <polygon fill="#add8e6" stroke="#add8e6" points="183.203,-35.676 180.6155,-46.3323 180.1332,-39.6227 177.0634,-43.5695 177.0634,-43.5695 177.0634,-43.5695 180.1332,-39.6227 173.5114,-40.8067 183.203,-35.676 183.203,-35.676"/>
            <text text-anchor="middle" x="177.0942" y="-58.2" font-family="Times,serif" font-size="14.00" fill="#0000ff"> e</text>
        </g>
        <!-- travers&#45;&gt;traverse -->
        <g id="edge39" class="edge">
            <title>travers&#45;&gt;traverse</title>
            <path fill="none" stroke="#0000ff" d="M203.2369,-88.4006C203.2369,-76.2949 203.2369,-60.2076 203.2369,-46.4674"/>
            <polygon fill="#0000ff" stroke="#0000ff" points="206.737,-46.072 203.2369,-36.072 199.737,-46.0721 206.737,-46.072"/>
            <text text-anchor="middle" x="208.0942" y="-58.2" font-family="Times,serif" font-size="14.00" fill="#000000"> e</text>
        </g>
        <!-- traverse&#45;&gt;travers -->
        <g id="edge43" class="edge">
            <title>traverse&#45;&gt;travers</title>
            <path fill="none" stroke="#ffc0cb" d="M209.9024,-36.0722C211.6782,-41.7317 213.3487,-48.0535 214.2369,-54 215.3399,-61.3847 215.3399,-63.4153 214.2369,-70.8 213.8344,-73.4945 213.2713,-76.2661 212.6106,-79.0181"/>
            <polygon fill="#ffc0cb" stroke="#ffc0cb" points="209.9024,-88.7278 208.2546,-77.8864 211.2458,-83.9116 212.5891,-79.0954 212.5891,-79.0954 212.5891,-79.0954 211.2458,-83.9116 216.9237,-80.3044 209.9024,-88.7278 209.9024,-88.7278"/>
            <text text-anchor="middle" x="224.2732" y="-58.2" font-family="Times,serif" font-size="14.00" fill="#ff0000"> ~3</text>
        </g>
        <!-- tra2&#45;&gt;trac -->
        <g id="edge34" class="edge">
            <title>tra2&#45;&gt;trac</title>
            <path fill="none" stroke="#0000ff" d="M216.023,-475.2499C189.2207,-455.3034 149.1456,-425.4792 122.3699,-405.5525"/>
            <polygon fill="#0000ff" stroke="#0000ff" points="124.2894,-402.6181 114.1775,-399.4556 120.1102,-408.2337 124.2894,-402.6181"/>
            <text text-anchor="middle" x="183.0942" y="-436.2313" font-family="Times,serif" font-size="14.00" fill="#000000"> c</text>
        </g>
        <!-- tra2&#45;&gt;tre -->
        <!-- tra2&#45;&gt;tr -->
        <g id="edge48" class="edge">
            <title>tra2&#45;&gt;tr</title>
            <path fill="none" stroke="#ffc0cb" d="M240.4944,-525.6305C240.4789,-537.419 242.498,-550.5344 249.5777,-560.4626 263.7679,-580.3622 288.2176,-592.0186 310.2338,-598.7899"/>
            <polygon fill="#ffc0cb" stroke="#ffc0cb" points="320.1326,-601.5694 309.2883,-603.1984 315.3187,-600.2177 310.5049,-598.866 310.5049,-598.866 310.5049,-598.866 315.3187,-600.2177 311.7214,-594.5335 320.1326,-601.5694 320.1326,-601.5694"/>
            <text text-anchor="middle" x="270.0665" y="-547.8626" font-family="Times,serif" font-size="14.00" fill="#ff0000">0x0DE</text>
        </g>
        <!-- tra2&#45;&gt;trav -->
        <g id="edge35" class="edge">
            <title>tra2&#45;&gt;trav</title>
            <path fill="none" stroke="#0000ff" d="M222.659,-471.5823C217.635,-464.6387 212.8503,-456.7959 209.7369,-448.8313 206.7154,-441.1019 204.8136,-432.4806 203.6368,-424.1275"/>
            <polygon fill="#0000ff" stroke="#0000ff" points="207.1115,-423.7045 202.5344,-414.1494 200.1538,-424.4733 207.1115,-423.7045"/>
            <text text-anchor="middle" x="215.4869" y="-436.2313" font-family="Times,serif" font-size="14.00" fill="#000000"> v</text>
        </g>
        <!-- tru&#45;&gt;tr -->
        <g id="edge54" class="edge">
            <title>tru&#45;&gt;tr</title>
            <path fill="none" stroke="#ffc0cb" d="M566.5842,-524.088C558.9936,-536.8985 548.4041,-551.2608 535.2369,-560.4626 496.6598,-587.4217 443.613,-599.0546 405.481,-604.073"/>
            <polygon fill="#ffc0cb" stroke="#ffc0cb" points="395.1457,-605.3203 404.5344,-599.6545 400.1097,-604.7212 405.0736,-604.1221 405.0736,-604.1221 405.0736,-604.1221 400.1097,-604.7212 405.6128,-608.5897 395.1457,-605.3203 395.1457,-605.3203"/>
            <text text-anchor="middle" x="571.6815" y="-547.8626" font-family="Times,serif" font-size="14.00" fill="#ff0000">0x0FA</text>
        </g>
        <!-- tru&#45;&gt;truc -->
        <g id="edge23" class="edge">
            <title>tru&#45;&gt;truc</title>
            <path fill="none" stroke="#add8e6" d="M584.906,-467.0117C587.8872,-455.247 592.7225,-442.1094 600.5223,-432.0313 610.5674,-419.0519 625.2451,-408.7011 639.0092,-401.0235"/>
            <polygon fill="#add8e6" stroke="#add8e6" points="647.8644,-396.3635 641.1106,-405.0028 643.4397,-398.692 639.0149,-401.0205 639.0149,-401.0205 639.0149,-401.0205 643.4397,-398.692 636.9193,-397.0383 647.8644,-396.3635 647.8644,-396.3635"/>
            <text text-anchor="middle" x="605.0942" y="-436.2313" font-family="Times,serif" font-size="14.00" fill="#0000ff"> c</text>
        </g>
        <!-- tru&#45;&gt;truc -->
        <g id="edge41" class="edge">
            <title>tru&#45;&gt;truc</title>
            <path fill="none" stroke="#0000ff" d="M601.5424,-471.4723C617.5177,-452.8958 639.2774,-427.5931 655.1898,-409.0897"/>
            <polygon fill="#0000ff" stroke="#0000ff" points="657.9656,-411.2298 661.8323,-401.3657 652.6583,-406.6656 657.9656,-411.2298"/>
            <text text-anchor="middle" x="638.0942" y="-436.2313" font-family="Times,serif" font-size="14.00" fill="#000000"> c</text>
        </g>
        <!-- truc&#45;&gt;tru -->
        <g id="edge53" class="edge">
            <title>truc&#45;&gt;tru</title>
            <path fill="none" stroke="#ffc0cb" d="M670.9731,-402.6462C666.3263,-416.3625 658.5213,-435.1464 647.2369,-448.8313 639.6641,-458.015 629.8999,-466.2538 620.1806,-473.1865"/>
            <polygon fill="#ffc0cb" stroke="#ffc0cb" points="611.7071,-478.9336 617.4572,-469.5962 615.8452,-476.127 619.9832,-473.3204 619.9832,-473.3204 619.9832,-473.3204 615.8452,-476.127 622.5091,-477.0446 611.7071,-478.9336 611.7071,-478.9336"/>
            <text text-anchor="middle" x="676.2965" y="-436.2313" font-family="Times,serif" font-size="14.00" fill="#ff0000">0x0FB</text>
        </g>
        <!-- truck -->
        <g id="node22" class="node">
            <title>truck</title>
            <ellipse fill="none" stroke="#0000ff" cx="676.2369" cy="-284.4" rx="73.4745" ry="18"/>
            <text text-anchor="middle" x="676.2369" y="-280.2" font-family="Times,serif" font-size="14.00" fill="#0000ff">contentArray[4]</text>
        </g>
        <!-- truc&#45;&gt;truck -->
        <g id="edge24" class="edge">
            <title>truc&#45;&gt;truck</title>
            <path fill="none" stroke="#add8e6" d="M661.1247,-367.9416C654.3993,-359.4018 647.222,-348.4489 643.7369,-337.2 641.5272,-330.0678 641.0565,-327.369 643.7369,-320.4 645.1585,-316.7039 647.1547,-313.1507 649.4663,-309.8129"/>
            <polygon fill="#add8e6" stroke="#add8e6" points="655.7148,-302.0002 652.9831,-312.6204 652.5918,-305.9049 649.4689,-309.8097 649.4689,-309.8097 649.4689,-309.8097 652.5918,-305.9049 645.9546,-306.999 655.7148,-302.0002 655.7148,-302.0002"/>
            <text text-anchor="middle" x="648.4869" y="-324.6" font-family="Times,serif" font-size="14.00" fill="#0000ff"> k</text>
        </g>
        <!-- truc&#45;&gt;truck -->
        <g id="edge42" class="edge">
            <title>truc&#45;&gt;truck</title>
            <path fill="none" stroke="#0000ff" d="M676.2369,-366.2345C676.2369,-351.2603 676.2369,-329.8643 676.2369,-312.7055"/>
            <polygon fill="#0000ff" stroke="#0000ff" points="679.737,-312.6645 676.2369,-302.6646 672.737,-312.6646 679.737,-312.6645"/>
            <text text-anchor="middle" x="681.4869" y="-324.6" font-family="Times,serif" font-size="14.00" fill="#000000"> k</text>
        </g>
        <!-- truck&#45;&gt;truc -->
        <g id="edge52" class="edge">
            <title>truck&#45;&gt;truc</title>
            <path fill="none" stroke="#ffc0cb" d="M683.5061,-302.4275C685.4432,-308.0852 687.266,-314.4172 688.2369,-320.4 690.1842,-332.3997 688.3971,-345.6086 685.6614,-356.9103"/>
            <polygon fill="#ffc0cb" stroke="#ffc0cb" points="682.9623,-366.6639 681.2924,-355.8259 684.2958,-361.845 685.6294,-357.0261 685.6294,-357.0261 685.6294,-357.0261 684.2958,-361.845 689.9664,-358.2263 682.9623,-366.6639 682.9623,-366.6639"/>
            <text text-anchor="middle" x="695.5232" y="-324.6" font-family="Times,serif" font-size="14.00" fill="#ff0000">~4</text>
        </g>
    </g>
</svg>
