<?xml version="1.0" encoding="UTF-8" standalone="no"?>
<!--
  - Licensed to the Apache Software Foundation (ASF) under one
  - or more contributor license agreements.  See the NOTICE file
  - distributed with this work for additional information
  - regarding copyright ownership.  The ASF licenses this file
  - to you under the Apache License, Version 2.0 (the
  - "License"); you may not use this file except in compliance
  - with the License.  You may obtain a copy of the License at
  -
  -     http://www.apache.org/licenses/LICENSE-2.0
  -
  - Unless required by applicable law or agreed to in writing, software
  - distributed under the License is distributed on an "AS IS" BASIS,
  - WITHOUT WARRANTIES OR CONDITIONS OF ANY KIND, either express or implied.
  - See the License for the specific language governing permissions and
  - limitations under the License.
  -->

<!DOCTYPE svg PUBLIC "-//W3C//DTD SVG 1.1//EN"
        "http://www.w3.org/Graphics/SVG/1.1/DTD/svg11.dtd">
<!-- Generated by graphviz version 2.40.1 (20161225.0304)
digraph G {
    { rank=same root -> start [style=invis] }
    start [label="start/end"]

    tractor [label = "contentArray[0]"]
    tracto [label = "0x01B"]
    tract [label = "0x01A"]
    trac [label = "0x019"]
    tra [label = "Chain\n0x018"]

    tree [label = "contentArray[1]"]
    tre [label = "Chain\n0x03B"]
    trie [label = "contentArray[2]"]
    tri [label = "Chain\n0x05B"]

    tr [label = "Sparse\n0x07E"]

    t [label = "0x09B"]
    root [label = "Chain\n0x9A"]

    root -> t [label = " t"]
    t -> tr [label = " r"]
    tr -> tra [label = " a"]
    tra -> trac [label = " c"]
    trac -> tract [label = " t"]
    tract -> tracto [label = " o"]
    tracto -> tractor [label = " r"]

    tr -> tre [label = " e"]
    tre -> tree [label = " e"]

    tr -> tri [label = " i"]
    tri -> trie [label = " e"]

    // {rank=same tra -> tre -> tri [style=invis]}
    {rank=same trac -> tree -> trie [style=invis]}

    subgraph path {
        edge [color = "lightblue"; fontcolor="blue"; arrowhead="vee"; constraint="false"]

        start -> root [label = " 0, -1"]

        root -> tr [label = "t, 2, r "]
        tr -> tra [label = "3, a"]
        tra -> tractor [label = "cto, 7, r"]

        // tr -> tre [label = " e"]
        tre -> tree [label = " 4, e"]

        // tr -> tri [label = " i"]
        tri -> trie [label = " 4, e"]

        tractor -> tre [label = " 3, e"]
        tree -> tri [label = "3, i"; ]
        trie -> start [label = "-1, -1"]
    }
}
 -->
<!-- Title: G Pages: 1 -->
<svg width="515pt" height="734pt"
     viewBox="0.00 0.00 514.97 734.09" xmlns="http://www.w3.org/2000/svg" xmlns:xlink="http://www.w3.org/1999/xlink">
    <g id="graph0" class="graph" transform="scale(1 1) rotate(0) translate(4 730.0939)">
        <title>G</title>
        <polygon fill="#ffffff" stroke="transparent" points="-4,4 -4,-730.0939 510.9735,-730.0939 510.9735,4 -4,4"/>
        <!-- root -->
        <g id="node1" class="node">
            <title>root</title>
            <ellipse fill="none" stroke="#000000" cx="235.743" cy="-696.6782" rx="34.9213" ry="29.3315"/>
            <text text-anchor="middle" x="235.743" y="-700.8782" font-family="Times,serif" font-size="14.00" fill="#000000">Chain</text>
            <text text-anchor="middle" x="235.743" y="-684.0782" font-family="Times,serif" font-size="14.00" fill="#000000">0x9A</text>
        </g>
        <!-- start -->
        <g id="node2" class="node">
            <title>start</title>
            <ellipse fill="none" stroke="#000000" cx="361.743" cy="-696.6782" rx="44.0775" ry="18"/>
            <text text-anchor="middle" x="361.743" y="-692.4782" font-family="Times,serif" font-size="14.00" fill="#000000">start/end</text>
        </g>
        <!-- root&#45;&gt;start -->
        <!-- tr -->
        <g id="node12" class="node">
            <title>tr</title>
            <ellipse fill="none" stroke="#000000" cx="235.743" cy="-496.2469" rx="37.9027" ry="29.3315"/>
            <text text-anchor="middle" x="235.743" y="-500.4469" font-family="Times,serif" font-size="14.00" fill="#000000">Sparse</text>
            <text text-anchor="middle" x="235.743" y="-483.6469" font-family="Times,serif" font-size="14.00" fill="#000000">0x07E</text>
        </g>
        <!-- root&#45;&gt;tr -->
        <g id="edge16" class="edge">
            <title>root&#45;&gt;tr</title>
            <path fill="none" stroke="#add8e6" d="M208.9256,-677.804C190.37,-662.9875 167.1966,-640.5442 156.6918,-614.4626 142.7976,-579.9656 172.623,-545.1366 199.529,-522.3097"/>
            <polygon fill="#add8e6" stroke="#add8e6" points="207.3667,-515.9125 202.4651,-525.7219 203.4931,-519.0741 199.6196,-522.2357 199.6196,-522.2357 199.6196,-522.2357 203.4931,-519.0741 196.7741,-518.7495 207.3667,-515.9125 207.3667,-515.9125"/>
            <text text-anchor="middle" x="173.2686" y="-592.2626" font-family="Times,serif" font-size="14.00" fill="#0000ff">t, 2, r </text>
        </g>
        <!-- t -->
        <g id="node13" class="node">
            <title>t</title>
            <ellipse fill="none" stroke="#000000" cx="235.743" cy="-596.4626" rx="36.5824" ry="18"/>
            <text text-anchor="middle" x="235.743" y="-592.2626" font-family="Times,serif" font-size="14.00" fill="#000000">0x09B</text>
        </g>
        <!-- root&#45;&gt;t -->
        <g id="edge2" class="edge">
            <title>root&#45;&gt;t</title>
            <path fill="none" stroke="#000000" d="M235.743,-667.1522C235.743,-653.6671 235.743,-637.7749 235.743,-624.4779"/>
            <polygon fill="#000000" stroke="#000000" points="239.2431,-624.4659 235.743,-614.4659 232.2431,-624.4659 239.2431,-624.4659"/>
            <text text-anchor="middle" x="239.4383" y="-636.6626" font-family="Times,serif" font-size="14.00" fill="#000000"> t</text>
        </g>
        <!-- start&#45;&gt;root -->
        <g id="edge15" class="edge">
            <title>start&#45;&gt;root</title>
            <path fill="none" stroke="#add8e6" d="M317.3783,-696.6782C305.5769,-696.6782 292.8167,-696.6782 280.9698,-696.6782"/>
            <polygon fill="#add8e6" stroke="#add8e6" points="270.841,-696.6782 280.8411,-692.1783 275.841,-696.6783 280.841,-696.6783 280.841,-696.6783 280.841,-696.6783 275.841,-696.6783 280.841,-701.1783 270.841,-696.6782 270.841,-696.6782"/>
            <text text-anchor="middle" x="294.0792" y="-703.8782" font-family="Times,serif" font-size="14.00" fill="#0000ff"> 0, &#45;1</text>
        </g>
        <!-- tractor -->
        <g id="node3" class="node">
            <title>tractor</title>
            <ellipse fill="none" stroke="#000000" cx="91.743" cy="-18" rx="73.4745" ry="18"/>
            <text text-anchor="middle" x="91.743" y="-13.8" font-family="Times,serif" font-size="14.00" fill="#000000">contentArray[0]</text>
        </g>
        <!-- tre -->
        <g id="node9" class="node">
            <title>tre</title>
            <ellipse fill="none" stroke="#000000" cx="235.743" cy="-384.6156" rx="37.9306" ry="29.3315"/>
            <text text-anchor="middle" x="235.743" y="-388.8156" font-family="Times,serif" font-size="14.00" fill="#000000">Chain</text>
            <text text-anchor="middle" x="235.743" y="-372.0156" font-family="Times,serif" font-size="14.00" fill="#000000">0x03B</text>
        </g>
        <!-- tractor&#45;&gt;tre -->
        <g id="edge21" class="edge">
            <title>tractor&#45;&gt;tre</title>
            <path fill="none" stroke="#add8e6" d="M142.2881,-31.2033C233.224,-58.0052 422.1486,-128.3147 499.743,-266.4 507.5812,-280.3486 510.6711,-290.7134 499.743,-302.4 458.9747,-345.9983 272.5113,-276.8017 231.743,-320.4 225.2999,-327.2904 223.5432,-336.6232 224.0821,-346.0371"/>
            <polygon fill="#add8e6" stroke="#add8e6" points="225.4547,-356.1722 219.6532,-346.8666 224.7836,-351.2174 224.1125,-346.2627 224.1125,-346.2627 224.1125,-346.2627 224.7836,-351.2174 228.5718,-345.6587 225.4547,-356.1722 225.4547,-356.1722"/>
            <text text-anchor="middle" x="471.6003" y="-191.4" font-family="Times,serif" font-size="14.00" fill="#0000ff"> 3, e</text>
        </g>
        <!-- tracto -->
        <g id="node4" class="node">
            <title>tracto</title>
            <ellipse fill="none" stroke="#000000" cx="91.743" cy="-106.8" rx="36.5824" ry="18"/>
            <text text-anchor="middle" x="91.743" y="-102.6" font-family="Times,serif" font-size="14.00" fill="#000000">0x01B</text>
        </g>
        <!-- tracto&#45;&gt;tractor -->
        <g id="edge8" class="edge">
            <title>tracto&#45;&gt;tractor</title>
            <path fill="none" stroke="#000000" d="M91.743,-88.4006C91.743,-76.2949 91.743,-60.2076 91.743,-46.4674"/>
            <polygon fill="#000000" stroke="#000000" points="95.2431,-46.072 91.743,-36.072 88.2431,-46.0721 95.2431,-46.072"/>
            <text text-anchor="middle" x="95.8233" y="-58.2" font-family="Times,serif" font-size="14.00" fill="#000000"> r</text>
        </g>
        <!-- tract -->
        <g id="node5" class="node">
            <title>tract</title>
            <ellipse fill="none" stroke="#000000" cx="91.743" cy="-195.6" rx="37.1443" ry="18"/>
            <text text-anchor="middle" x="91.743" y="-191.4" font-family="Times,serif" font-size="14.00" fill="#000000">0x01A</text>
        </g>
        <!-- tract&#45;&gt;tracto -->
        <g id="edge7" class="edge">
            <title>tract&#45;&gt;tracto</title>
            <path fill="none" stroke="#000000" d="M91.743,-177.2006C91.743,-165.0949 91.743,-149.0076 91.743,-135.2674"/>
            <polygon fill="#000000" stroke="#000000" points="95.2431,-134.872 91.743,-124.872 88.2431,-134.8721 95.2431,-134.872"/>
            <text text-anchor="middle" x="96.993" y="-147" font-family="Times,serif" font-size="14.00" fill="#000000"> o</text>
        </g>
        <!-- trac -->
        <g id="node6" class="node">
            <title>trac</title>
            <ellipse fill="none" stroke="#000000" cx="91.743" cy="-284.4" rx="35.3587" ry="18"/>
            <text text-anchor="middle" x="91.743" y="-280.2" font-family="Times,serif" font-size="14.00" fill="#000000">0x019</text>
        </g>
        <!-- trac&#45;&gt;tract -->
        <g id="edge6" class="edge">
            <title>trac&#45;&gt;tract</title>
            <path fill="none" stroke="#000000" d="M91.743,-266.0006C91.743,-253.8949 91.743,-237.8076 91.743,-224.0674"/>
            <polygon fill="#000000" stroke="#000000" points="95.2431,-223.672 91.743,-213.672 88.2431,-223.6721 95.2431,-223.672"/>
            <text text-anchor="middle" x="95.4383" y="-235.8" font-family="Times,serif" font-size="14.00" fill="#000000"> t</text>
        </g>
        <!-- tree -->
        <g id="node8" class="node">
            <title>tree</title>
            <ellipse fill="none" stroke="#000000" cx="235.743" cy="-284.4" rx="73.4745" ry="18"/>
            <text text-anchor="middle" x="235.743" y="-280.2" font-family="Times,serif" font-size="14.00" fill="#000000">contentArray[1]</text>
        </g>
        <!-- trac&#45;&gt;tree -->
        <!-- tra -->
        <g id="node7" class="node">
            <title>tra</title>
            <ellipse fill="none" stroke="#000000" cx="117.743" cy="-384.6156" rx="36.125" ry="29.3315"/>
            <text text-anchor="middle" x="117.743" y="-388.8156" font-family="Times,serif" font-size="14.00" fill="#000000">Chain</text>
            <text text-anchor="middle" x="117.743" y="-372.0156" font-family="Times,serif" font-size="14.00" fill="#000000">0x018</text>
        </g>
        <!-- tra&#45;&gt;tractor -->
        <g id="edge18" class="edge">
            <title>tra&#45;&gt;tractor</title>
            <path fill="none" stroke="#add8e6" d="M94.3918,-361.848C65.2172,-331.3805 17.371,-274.1277 2.9772,-213.6 -12.3828,-149.0092 36.553,-79.6557 67.7845,-43.4033"/>
            <polygon fill="#add8e6" stroke="#add8e6" points="74.5314,-35.7623 71.2857,-46.2369 71.2219,-39.5104 67.9125,-43.2584 67.9125,-43.2584 67.9125,-43.2584 71.2219,-39.5104 64.5393,-40.2799 74.5314,-35.7623 74.5314,-35.7623"/>
            <text text-anchor="middle" x="25.1259" y="-191.4" font-family="Times,serif" font-size="14.00" fill="#0000ff">cto, 7, r</text>
        </g>
        <!-- tra&#45;&gt;trac -->
        <g id="edge5" class="edge">
            <title>tra&#45;&gt;trac</title>
            <path fill="none" stroke="#000000" d="M110.2227,-355.6291C106.6613,-341.9016 102.4282,-325.5854 98.9126,-312.0348"/>
            <polygon fill="#000000" stroke="#000000" points="102.2863,-311.1009 96.3871,-302.3003 95.5106,-312.8588 102.2863,-311.1009"/>
            <text text-anchor="middle" x="109.6003" y="-324.6" font-family="Times,serif" font-size="14.00" fill="#000000"> c</text>
        </g>
        <!-- trie -->
        <g id="node10" class="node">
            <title>trie</title>
            <ellipse fill="none" stroke="#000000" cx="417.743" cy="-284.4" rx="73.4745" ry="18"/>
            <text text-anchor="middle" x="417.743" y="-280.2" font-family="Times,serif" font-size="14.00" fill="#000000">contentArray[2]</text>
        </g>
        <!-- tree&#45;&gt;trie -->
        <!-- tri -->
        <g id="node11" class="node">
            <title>tri</title>
            <ellipse fill="none" stroke="#000000" cx="351.743" cy="-384.6156" rx="37.9306" ry="29.3315"/>
            <text text-anchor="middle" x="351.743" y="-388.8156" font-family="Times,serif" font-size="14.00" fill="#000000">Chain</text>
            <text text-anchor="middle" x="351.743" y="-372.0156" font-family="Times,serif" font-size="14.00" fill="#000000">0x05B</text>
        </g>
        <!-- tree&#45;&gt;tri -->
        <g id="edge22" class="edge">
            <title>tree&#45;&gt;tri</title>
            <path fill="none" stroke="#add8e6" d="M256.2723,-301.9531C263.1097,-307.8109 270.7613,-314.3787 277.743,-320.4 291.1837,-331.9919 305.9615,-344.8025 318.7535,-355.9126"/>
            <polygon fill="#add8e6" stroke="#add8e6" points="326.432,-362.5843 315.9318,-359.4223 322.6577,-359.3048 318.8834,-356.0254 318.8834,-356.0254 318.8834,-356.0254 322.6577,-359.3048 321.8349,-352.6285 326.432,-362.5843 326.432,-362.5843"/>
            <text text-anchor="middle" x="304.6883" y="-324.6" font-family="Times,serif" font-size="14.00" fill="#0000ff">3, i</text>
        </g>
        <!-- tre&#45;&gt;tree -->
        <g id="edge10" class="edge">
            <title>tre&#45;&gt;tree</title>
            <path fill="none" stroke="#000000" d="M235.743,-355.0897C235.743,-341.6046 235.743,-325.7123 235.743,-312.4153"/>
            <polygon fill="#000000" stroke="#000000" points="239.2431,-312.4033 235.743,-302.4033 232.2431,-312.4034 239.2431,-312.4033"/>
            <text text-anchor="middle" x="240.6003" y="-324.6" font-family="Times,serif" font-size="14.00" fill="#000000"> e</text>
        </g>
        <!-- tre&#45;&gt;tree -->
        <g id="edge19" class="edge">
            <title>tre&#45;&gt;tree</title>
            <path fill="none" stroke="#add8e6" d="M246.9152,-356.2376C249.9939,-345.0943 251.9521,-332.1755 249.743,-320.4 249.2098,-317.5576 248.4589,-314.6513 247.5789,-311.7832"/>
            <polygon fill="#add8e6" stroke="#add8e6" points="244.2177,-302.3279 251.8073,-310.243 245.8925,-307.0391 247.5672,-311.7503 247.5672,-311.7503 247.5672,-311.7503 245.8925,-307.0391 243.3271,-313.2575 244.2177,-302.3279 244.2177,-302.3279"/>
            <text text-anchor="middle" x="261.6003" y="-324.6" font-family="Times,serif" font-size="14.00" fill="#0000ff"> 4, e</text>
        </g>
        <!-- trie&#45;&gt;start -->
        <g id="edge23" class="edge">
            <title>trie&#45;&gt;start</title>
            <path fill="none" stroke="#add8e6" d="M423.8044,-302.5134C425.4188,-308.1745 426.937,-314.487 427.743,-320.4 428.7515,-327.7983 428.42,-329.7641 427.743,-337.2 416.3734,-462.0872 383.223,-608.394 368.6978,-668.6161"/>
            <polygon fill="#add8e6" stroke="#add8e6" points="366.2917,-678.5093 364.2825,-667.729 367.4734,-673.6509 368.655,-668.7925 368.655,-668.7925 368.655,-668.7925 367.4734,-673.6509 373.0275,-669.856 366.2917,-678.5093 366.2917,-678.5093"/>
            <text text-anchor="middle" x="424.9036" y="-492.0469" font-family="Times,serif" font-size="14.00" fill="#0000ff">&#45;1, &#45;1</text>
        </g>
        <!-- tri&#45;&gt;trie -->
        <g id="edge12" class="edge">
            <title>tri&#45;&gt;trie</title>
            <path fill="none" stroke="#000000" d="M362.0369,-356.2283C366.9129,-344.6002 373.3603,-331.3353 381.0284,-320.4 383.6952,-316.597 386.7946,-312.8528 390.0406,-309.3005"/>
            <polygon fill="#000000" stroke="#000000" points="392.7971,-311.4868 397.2698,-301.8824 387.7839,-306.6013 392.7971,-311.4868"/>
            <text text-anchor="middle" x="385.6003" y="-324.6" font-family="Times,serif" font-size="14.00" fill="#000000"> e</text>
        </g>
        <!-- tri&#45;&gt;trie -->
        <g id="edge20" class="edge">
            <title>tri&#45;&gt;trie</title>
            <path fill="none" stroke="#add8e6" d="M373.4397,-360.2898C379.3828,-353.0969 385.5988,-345.0431 390.743,-337.2 395.9944,-329.1936 400.9936,-320.0361 405.2308,-311.6206"/>
            <polygon fill="#add8e6" stroke="#add8e6" points="409.6638,-302.5353 409.3228,-313.4959 407.4712,-307.0289 405.2786,-311.5225 405.2786,-311.5225 405.2786,-311.5225 407.4712,-307.0289 401.2343,-309.5492 409.6638,-302.5353 409.6638,-302.5353"/>
            <text text-anchor="middle" x="411.6003" y="-324.6" font-family="Times,serif" font-size="14.00" fill="#0000ff"> 4, e</text>
        </g>
        <!-- tr&#45;&gt;tra -->
        <g id="edge4" class="edge">
            <title>tr&#45;&gt;tra</title>
            <path fill="none" stroke="#000000" d="M201.7509,-482.8183C184.9175,-474.8752 165.2161,-463.4812 151.0284,-448.8313 143.6903,-441.2541 137.5841,-431.7356 132.6915,-422.3656"/>
            <polygon fill="#000000" stroke="#000000" points="135.7196,-420.5888 128.2027,-413.1224 129.4228,-423.6468 135.7196,-420.5888"/>
            <text text-anchor="middle" x="156.6003" y="-436.2313" font-family="Times,serif" font-size="14.00" fill="#000000"> a</text>
        </g>
        <!-- tr&#45;&gt;tra -->
        <g id="edge17" class="edge">
            <title>tr&#45;&gt;tra</title>
            <path fill="none" stroke="#add8e6" d="M211.5792,-473.3873C193.4836,-456.2683 168.5764,-432.7055 148.9704,-414.1576"/>
            <polygon fill="#add8e6" stroke="#add8e6" points="141.4713,-407.0632 151.8282,-410.6666 145.1035,-410.4994 148.7357,-413.9356 148.7357,-413.9356 148.7357,-413.9356 145.1035,-410.4994 145.6431,-417.2046 141.4713,-407.0632 141.4713,-407.0632"/>
            <text text-anchor="middle" x="194.8503" y="-436.2313" font-family="Times,serif" font-size="14.00" fill="#0000ff">3, a</text>
        </g>
        <!-- tr&#45;&gt;tre -->
        <g id="edge9" class="edge">
            <title>tr&#45;&gt;tre</title>
            <path fill="none" stroke="#000000" d="M235.743,-466.6249C235.743,-453.7568 235.743,-438.4867 235.743,-424.6319"/>
            <polygon fill="#000000" stroke="#000000" points="239.2431,-424.3761 235.743,-414.3761 232.2431,-424.3762 239.2431,-424.3761"/>
            <text text-anchor="middle" x="240.6003" y="-436.2313" font-family="Times,serif" font-size="14.00" fill="#000000"> e</text>
        </g>
        <!-- tr&#45;&gt;tri -->
        <g id="edge11" class="edge">
            <title>tr&#45;&gt;tri</title>
            <path fill="none" stroke="#000000" d="M259.4973,-473.3873C277.0521,-456.4936 301.128,-433.3244 320.2814,-414.8924"/>
            <polygon fill="#000000" stroke="#000000" points="322.8434,-417.2844 327.6219,-407.8283 317.9895,-412.2405 322.8434,-417.2844"/>
            <text text-anchor="middle" x="303.4383" y="-436.2313" font-family="Times,serif" font-size="14.00" fill="#000000"> i</text>
        </g>
        <!-- t&#45;&gt;tr -->
        <g id="edge3" class="edge">
            <title>t&#45;&gt;tr</title>
            <path fill="none" stroke="#000000" d="M235.743,-578.0815C235.743,-566.3502 235.743,-550.6774 235.743,-536.1885"/>
            <polygon fill="#000000" stroke="#000000" points="239.2431,-535.9208 235.743,-525.9209 232.2431,-535.9209 239.2431,-535.9208"/>
            <text text-anchor="middle" x="239.8233" y="-547.8626" font-family="Times,serif" font-size="14.00" fill="#000000"> r</text>
        </g>
    </g>
</svg>
