<?xml version="1.0" encoding="UTF-8" standalone="no"?>
<!DOCTYPE svg PUBLIC "-//W3C//DTD SVG 1.1//EN"
        "http://www.w3.org/Graphics/SVG/1.1/DTD/svg11.dtd">
<!---
 Licensed to the Apache Software Foundation (ASF) under one
 or more contributor license agreements.  See the NOTICE file
 distributed with this work for additional information
 regarding copyright ownership.  The ASF licenses this file
 to you under the Apache License, Version 2.0 (the
 "License"); you may not use this file except in compliance
 with the License.  You may obtain a copy of the License at

     http://www.apache.org/licenses/LICENSE-2.0

 Unless required by applicable law or agreed to in writing, software
 distributed under the License is distributed on an "AS IS" BASIS,
 WITHOUT WARRANTIES OR CONDITIONS OF ANY KIND, either express or implied.
 See the License for the specific language governing permissions and
 limitations under the License.
-->

<!-- Generated by graphviz version 2.40.1 (20161225.0304)
# embedded DOT (plantuml) works in IDEA preview
# but not on GitHub
```plantuml
digraph G {
    { rank=same root -> start [style=invis] }
    start [label="start/end"]

    tractor [label = "contentArray[0]"]
    tracto [label = "0x01B"]
    tract [label = "0x01A"]
    trac [label = "0x019"]
    tra [label = "Chain\n0x018"]

    tree [label = "contentArray[1]"]
    tre [label = "Chain\n0x03B"]
    trie [label = "contentArray[2]"]
    tri [label = "Chain\n0x05B"]

    tr [label = "Sparse\n0x07E"]

    t [label = "0x09B"]
    root [label = "Chain\n0x9A"]

    { edge [style=invis]
    root -> t [label = " t"]
    t -> tr [label = " r"]
    tr -> tra [label = " a"]
    tra -> trac [label = " c"]
    trac -> tract [label = " t"]
    tract -> tracto [label = " o"]
    tracto -> tractor [label = " r"]

    tr -> tre [label = " e"]
    tre -> tree [label = " e"]

    tr -> tri [label = " i"]
    tri -> trie [label = " e"]

    // {rank=same tra -> tre -> tri [style=invis]}
    {rank=same trac -> tree -> trie [style=invis]}
    }

    subgraph path {
        edge [color = "lightblue"; fontcolor="blue"; constraint="false"; arrowhead="vee"]

        start -> root

        root -> tr [label=" tr"]
        tr -> tra [label=" a"]
        tra -> tractor [label=" ctor"]
        // tractor -> tr [xlabel="back 5"]
        tr -> tre [label=" e"]
        tre -> tree [label=" e"]
        // tree -> tr [xlabel="back 2"]
        tr -> tri [label=" i"]
        tri -> trie [label=" e"]
        // trie -> start [xlabel="back 4"]
    }

    subgraph back {
        edge [color = "pink"; fontcolor="blue"; constraint="false"; arrowhead="vee"]
        tractor -> tr
        tree -> tr
        trie -> start
    }
}
```
 -->
<!-- Title: G Pages: 1 -->
<svg width="498pt" height="734pt"
     viewBox="0.00 0.00 498.17 734.09" xmlns="http://www.w3.org/2000/svg" xmlns:xlink="http://www.w3.org/1999/xlink">
    <g id="graph0" class="graph" transform="scale(1 1) rotate(0) translate(4 730.0939)">
        <title>G</title>
        <polygon fill="#ffffff" stroke="transparent" points="-4,4 -4,-730.0939 494.1727,-730.0939 494.1727,4 -4,4"/>
        <!-- root -->
        <g id="node1" class="node">
            <title>root</title>
            <ellipse fill="none" stroke="#000000" cx="234.9358" cy="-696.6782" rx="33.1337" ry="29.3315"/>
            <text text-anchor="middle" x="234.9358" y="-700.8782" font-family="Times,serif" font-size="14.00" fill="#000000">Chain</text>
            <text text-anchor="middle" x="234.9358" y="-684.0782" font-family="Times,serif" font-size="14.00" fill="#000000">0x9A</text>
        </g>
        <!-- start -->
        <g id="node2" class="node">
            <title>start</title>
            <ellipse fill="none" stroke="#000000" cx="347.9358" cy="-696.6782" rx="44.0775" ry="18"/>
            <text text-anchor="middle" x="347.9358" y="-692.4782" font-family="Times,serif" font-size="14.00" fill="#000000">start/end</text>
        </g>
        <!-- root&#45;&gt;start -->
        <!-- tr -->
        <g id="node12" class="node">
            <title>tr</title>
            <ellipse fill="none" stroke="#000000" cx="234.9358" cy="-496.2469" rx="37.9027" ry="29.3315"/>
            <text text-anchor="middle" x="234.9358" y="-500.4469" font-family="Times,serif" font-size="14.00" fill="#000000">Sparse</text>
            <text text-anchor="middle" x="234.9358" y="-483.6469" font-family="Times,serif" font-size="14.00" fill="#000000">0x07E</text>
        </g>
        <!-- root&#45;&gt;tr -->
        <g id="edge16" class="edge">
            <title>root&#45;&gt;tr</title>
            <path fill="none" stroke="#add8e6" d="M213.0724,-674.0074C199.7752,-658.5794 184.022,-636.9454 176.8846,-614.4626 167.0445,-583.4666 186.0576,-550.4221 204.9004,-527.173"/>
            <polygon fill="#add8e6" stroke="#add8e6" points="211.5106,-519.3775 208.4753,-529.915 208.2769,-523.1911 205.0431,-527.0046 205.0431,-527.0046 205.0431,-527.0046 208.2769,-523.1911 201.6109,-524.0943 211.5106,-519.3775 211.5106,-519.3775"/>
            <text text-anchor="middle" x="182.9614" y="-592.2626" font-family="Times,serif" font-size="14.00" fill="#0000ff"> tr</text>
        </g>
        <!-- t -->
        <g id="node13" class="node">
            <title>t</title>
            <ellipse fill="none" stroke="#000000" cx="234.9358" cy="-596.4626" rx="36.5824" ry="18"/>
            <text text-anchor="middle" x="234.9358" y="-592.2626" font-family="Times,serif" font-size="14.00" fill="#000000">0x09B</text>
        </g>
        <!-- root&#45;&gt;t -->
        <!-- start&#45;&gt;root -->
        <g id="edge15" class="edge">
            <title>start&#45;&gt;root</title>
            <path fill="none" stroke="#add8e6" d="M323.3101,-711.7185C306.4337,-719.1537 289.5573,-720.6839 272.6809,-716.309"/>
            <polygon fill="#add8e6" stroke="#add8e6" points="262.7444,-713.0508 273.6487,-711.8907 267.4955,-714.6087 272.2466,-716.1667 272.2466,-716.1667 272.2466,-716.1667 267.4955,-714.6087 270.8444,-720.4427 262.7444,-713.0508 262.7444,-713.0508"/>
        </g>
        <!-- tractor -->
        <g id="node3" class="node">
            <title>tractor</title>
            <ellipse fill="none" stroke="#000000" cx="90.9358" cy="-18" rx="73.4745" ry="18"/>
            <text text-anchor="middle" x="90.9358" y="-13.8" font-family="Times,serif" font-size="14.00" fill="#000000">contentArray[0]</text>
        </g>
        <!-- tractor&#45;&gt;tr -->
        <g id="edge23" class="edge">
            <title>tractor&#45;&gt;tr</title>
            <path fill="none" stroke="#ffc0cb" d="M68.3708,-35.1602C53.2196,-48.0928 34.3648,-67.2465 24.9358,-88.8 -13.1135,-175.7758 -2.9101,-211.9541 25.9358,-302.4 51.6621,-383.0647 83.6843,-432.7139 102.9358,-448.8313 127.1072,-469.0677 160.589,-480.9627 187.7828,-487.7778"/>
            <polygon fill="#ffc0cb" stroke="#ffc0cb" points="197.8647,-490.1478 187.1003,-492.2399 192.9974,-489.0036 188.1301,-487.8593 188.1301,-487.8593 188.1301,-487.8593 192.9974,-489.0036 189.1599,-483.4788 197.8647,-490.1478 197.8647,-490.1478"/>
        </g>
        <!-- tracto -->
        <g id="node4" class="node">
            <title>tracto</title>
            <ellipse fill="none" stroke="#000000" cx="90.9358" cy="-106.8" rx="36.5824" ry="18"/>
            <text text-anchor="middle" x="90.9358" y="-102.6" font-family="Times,serif" font-size="14.00" fill="#000000">0x01B</text>
        </g>
        <!-- tracto&#45;&gt;tractor -->
        <!-- tract -->
        <g id="node5" class="node">
            <title>tract</title>
            <ellipse fill="none" stroke="#000000" cx="90.9358" cy="-195.6" rx="37.1443" ry="18"/>
            <text text-anchor="middle" x="90.9358" y="-191.4" font-family="Times,serif" font-size="14.00" fill="#000000">0x01A</text>
        </g>
        <!-- tract&#45;&gt;tracto -->
        <!-- trac -->
        <g id="node6" class="node">
            <title>trac</title>
            <ellipse fill="none" stroke="#000000" cx="90.9358" cy="-284.4" rx="35.3587" ry="18"/>
            <text text-anchor="middle" x="90.9358" y="-280.2" font-family="Times,serif" font-size="14.00" fill="#000000">0x019</text>
        </g>
        <!-- trac&#45;&gt;tract -->
        <!-- tree -->
        <g id="node8" class="node">
            <title>tree</title>
            <ellipse fill="none" stroke="#000000" cx="234.9358" cy="-284.4" rx="73.4745" ry="18"/>
            <text text-anchor="middle" x="234.9358" y="-280.2" font-family="Times,serif" font-size="14.00" fill="#000000">contentArray[1]</text>
        </g>
        <!-- trac&#45;&gt;tree -->
        <!-- tra -->
        <g id="node7" class="node">
            <title>tra</title>
            <ellipse fill="none" stroke="#000000" cx="137.9358" cy="-384.6156" rx="36.125" ry="29.3315"/>
            <text text-anchor="middle" x="137.9358" y="-388.8156" font-family="Times,serif" font-size="14.00" fill="#000000">Chain</text>
            <text text-anchor="middle" x="137.9358" y="-372.0156" font-family="Times,serif" font-size="14.00" fill="#000000">0x018</text>
        </g>
        <!-- tra&#45;&gt;tractor -->
        <g id="edge18" class="edge">
            <title>tra&#45;&gt;tractor</title>
            <path fill="none" stroke="#add8e6" d="M109.9558,-365.7127C89.7668,-350.7265 63.2887,-328.0827 46.9358,-302.4 24.7617,-267.575 25.7969,-254.428 19.67,-213.6 11.2715,-157.6347 21.5147,-140.318 44.9358,-88.8 52.0335,-73.1876 62.2518,-57.0573 71.2558,-44.1437"/>
            <polygon fill="#add8e6" stroke="#add8e6" points="77.242,-35.7633 75.0912,-46.5162 74.3357,-39.8319 71.4294,-43.9005 71.4294,-43.9005 71.4294,-43.9005 74.3357,-39.8319 67.7677,-41.2849 77.242,-35.7633 77.242,-35.7633"/>
            <text text-anchor="middle" x="32.5687" y="-191.4" font-family="Times,serif" font-size="14.00" fill="#0000ff"> ctor</text>
        </g>
        <!-- tra&#45;&gt;trac -->
        <!-- trie -->
        <g id="node10" class="node">
            <title>trie</title>
            <ellipse fill="none" stroke="#000000" cx="416.9358" cy="-284.4" rx="73.4745" ry="18"/>
            <text text-anchor="middle" x="416.9358" y="-280.2" font-family="Times,serif" font-size="14.00" fill="#000000">contentArray[2]</text>
        </g>
        <!-- tree&#45;&gt;trie -->
        <!-- tree&#45;&gt;tr -->
        <g id="edge24" class="edge">
            <title>tree&#45;&gt;tr</title>
            <path fill="none" stroke="#ffc0cb" d="M176.0292,-295.1578C146.8453,-301.5575 115.6009,-310.3755 104.9358,-320.4 93.0148,-331.605 95.6396,-339.0646 92.9358,-355.2 88.6145,-380.9877 80.6184,-390.967 92.9358,-414.0313 112.4778,-450.6238 155.7364,-472.1892 189.4058,-483.9828"/>
            <polygon fill="#ffc0cb" stroke="#ffc0cb" points="199.0642,-487.1947 188.1551,-488.3091 194.3197,-485.6169 189.5751,-484.0391 189.5751,-484.0391 189.5751,-484.0391 194.3197,-485.6169 190.9952,-479.769 199.0642,-487.1947 199.0642,-487.1947"/>
        </g>
        <!-- tre -->
        <g id="node9" class="node">
            <title>tre</title>
            <ellipse fill="none" stroke="#000000" cx="234.9358" cy="-384.6156" rx="37.9306" ry="29.3315"/>
            <text text-anchor="middle" x="234.9358" y="-388.8156" font-family="Times,serif" font-size="14.00" fill="#000000">Chain</text>
            <text text-anchor="middle" x="234.9358" y="-372.0156" font-family="Times,serif" font-size="14.00" fill="#000000">0x03B</text>
        </g>
        <!-- tre&#45;&gt;tree -->
        <!-- tre&#45;&gt;tree -->
        <g id="edge20" class="edge">
            <title>tre&#45;&gt;tree</title>
            <path fill="none" stroke="#add8e6" d="M246.1079,-356.2376C249.1866,-345.0943 251.1449,-332.1755 248.9358,-320.4 248.4025,-317.5576 247.6517,-314.6513 246.7716,-311.7832"/>
            <polygon fill="#add8e6" stroke="#add8e6" points="243.4105,-302.3279 251.0001,-310.243 245.0852,-307.0391 246.76,-311.7503 246.76,-311.7503 246.76,-311.7503 245.0852,-307.0391 242.5199,-313.2575 243.4105,-302.3279 243.4105,-302.3279"/>
            <text text-anchor="middle" x="253.7931" y="-324.6" font-family="Times,serif" font-size="14.00" fill="#0000ff"> e</text>
        </g>
        <!-- trie&#45;&gt;start -->
        <g id="edge25" class="edge">
            <title>trie&#45;&gt;start</title>
            <path fill="none" stroke="#ffc0cb" d="M413.9107,-302.4748C403.0344,-367.4612 365.8611,-589.5735 352.6455,-668.5372"/>
            <polygon fill="#ffc0cb" stroke="#ffc0cb" points="350.945,-678.698 348.1575,-668.0924 351.7704,-673.7666 352.5957,-668.8352 352.5957,-668.8352 352.5957,-668.8352 351.7704,-673.7666 357.034,-669.578 350.945,-678.698 350.945,-678.698"/>
        </g>
        <!-- tri -->
        <g id="node11" class="node">
            <title>tri</title>
            <ellipse fill="none" stroke="#000000" cx="339.9358" cy="-384.6156" rx="37.9306" ry="29.3315"/>
            <text text-anchor="middle" x="339.9358" y="-388.8156" font-family="Times,serif" font-size="14.00" fill="#000000">Chain</text>
            <text text-anchor="middle" x="339.9358" y="-372.0156" font-family="Times,serif" font-size="14.00" fill="#000000">0x05B</text>
        </g>
        <!-- tri&#45;&gt;trie -->
        <!-- tri&#45;&gt;trie -->
        <g id="edge22" class="edge">
            <title>tri&#45;&gt;trie</title>
            <path fill="none" stroke="#add8e6" d="M355.6083,-357.5072C362.865,-345.7144 371.9288,-331.9761 381.2212,-320.4 384.2316,-316.6497 387.5835,-312.8608 390.9939,-309.2205"/>
            <polygon fill="#add8e6" stroke="#add8e6" points="397.9861,-302.0169 394.2501,-312.3268 394.5035,-305.6047 391.021,-309.1925 391.021,-309.1925 391.021,-309.1925 394.5035,-305.6047 387.792,-306.0582 397.9861,-302.0169 397.9861,-302.0169"/>
            <text text-anchor="middle" x="385.7931" y="-324.6" font-family="Times,serif" font-size="14.00" fill="#0000ff"> e</text>
        </g>
        <!-- tr&#45;&gt;tra -->
        <!-- tr&#45;&gt;tra -->
        <g id="edge17" class="edge">
            <title>tr&#45;&gt;tra</title>
            <path fill="none" stroke="#add8e6" d="M213.6487,-471.749C199.5271,-455.4972 180.8544,-434.0081 165.5865,-416.4372"/>
            <polygon fill="#add8e6" stroke="#add8e6" points="158.8397,-408.6726 168.7956,-413.2695 162.1192,-412.4469 165.3988,-416.2211 165.3988,-416.2211 165.3988,-416.2211 162.1192,-412.4469 162.002,-419.1727 158.8397,-408.6726 158.8397,-408.6726"/>
            <text text-anchor="middle" x="197.7931" y="-436.2313" font-family="Times,serif" font-size="14.00" fill="#0000ff"> a</text>
        </g>
        <!-- tr&#45;&gt;tre -->
        <!-- tr&#45;&gt;tre -->
        <g id="edge19" class="edge">
            <title>tr&#45;&gt;tre</title>
            <path fill="none" stroke="#add8e6" d="M244.7957,-467.7057C246.5159,-461.5528 248.0394,-455.0326 248.9358,-448.8313 250.1677,-440.3086 249.4566,-431.23 247.841,-422.6641"/>
            <polygon fill="#add8e6" stroke="#add8e6" points="245.5912,-412.9079 252.2232,-421.641 246.7147,-417.7801 247.8383,-422.6522 247.8383,-422.6522 247.8383,-422.6522 246.7147,-417.7801 243.4534,-423.6634 245.5912,-412.9079 245.5912,-412.9079"/>
            <text text-anchor="middle" x="253.7931" y="-436.2313" font-family="Times,serif" font-size="14.00" fill="#0000ff"> e</text>
        </g>
        <!-- tr&#45;&gt;tri -->
        <!-- tr&#45;&gt;tri -->
        <g id="edge21" class="edge">
            <title>tr&#45;&gt;tri</title>
            <path fill="none" stroke="#add8e6" d="M265.8,-479.3124C278.6421,-471.2442 293.0589,-460.7473 303.9358,-448.8313 311.249,-440.8193 317.6701,-431.0614 322.9868,-421.5958"/>
            <polygon fill="#add8e6" stroke="#add8e6" points="327.7388,-412.6767 327.008,-423.6182 325.3877,-417.0895 323.0366,-421.5022 323.0366,-421.5022 323.0366,-421.5022 325.3877,-417.0895 319.0651,-419.3862 327.7388,-412.6767 327.7388,-412.6767"/>
            <text text-anchor="middle" x="319.6311" y="-436.2313" font-family="Times,serif" font-size="14.00" fill="#0000ff"> i</text>
        </g>
        <!-- t&#45;&gt;tr -->
    </g>
</svg>
