<?xml version="1.0" encoding="UTF-8" standalone="no"?>
<!--
  - Licensed to the Apache Software Foundation (ASF) under one
  - or more contributor license agreements.  See the NOTICE file
  - distributed with this work for additional information
  - regarding copyright ownership.  The ASF licenses this file
  - to you under the Apache License, Version 2.0 (the
  - "License"); you may not use this file except in compliance
  - with the License.  You may obtain a copy of the License at
  -
  -     http://www.apache.org/licenses/LICENSE-2.0
  -
  - Unless required by applicable law or agreed to in writing, software
  - distributed under the License is distributed on an "AS IS" BASIS,
  - WITHOUT WARRANTIES OR CONDITIONS OF ANY KIND, either express or implied.
  - See the License for the specific language governing permissions and
  - limitations under the License.
  -->

<!DOCTYPE svg PUBLIC "-//W3C//DTD SVG 1.1//EN"
        "http://www.w3.org/Graphics/SVG/1.1/DTD/svg11.dtd">
<!-- Generated by graphviz version 2.40.1 (20161225.0304)
digraph G {
    { rank=same root -> start [style=invis] }
    start [label="start/end"]

    tractor [label = "contentArray[0]"]
    tracto [label = "0x01B"]
    tract [label = "0x01A"]
    trac [label = "0x019"]
    tra [label = "Chain\n0x018"]

    tree [label = "contentArray[1]"]
    tre [label = "Chain\n0x03B"]
    trie [label = "contentArray[2]"]
    tri [label = "Chain\n0x05B"]

    tr [label = "Sparse\n0x07E"]

    t [label = "0x09B"]
    root [label = "Chain\n0x9A"]

    root -> t [label = " t"]
    t -> tr [label = " r"]
    tr -> tra [label = " a"]
    tra -> trac [label = " c"]
    trac -> tract [label = " t"]
    tract -> tracto [label = " o"]
    tracto -> tractor [label = " r"]

    tr -> tre [label = " e"]
    tre -> tree [label = " e"]

    tr -> tri [label = " i"]
    tri -> trie [label = " e"]

    // {rank=same tra -> tre -> tri [style=invis]}
    {rank=same trac -> tree -> trie [style=invis]}

   subgraph path {
        edge [color = "lightblue"; fontcolor="blue"; arrowhead="vee"; constraint="false"]

        start -> root [label = " 0, -1"]

        root -> t [label = " 1, t"]
        t -> tr [label = " 2, r"]
        tr -> tra [label = " 3, a"]
        tra -> trac [label = " 4, c"]
        trac -> tract [label = " 5, t"]
        tract -> tracto [label = " 6, o"]
        tracto -> tractor [label = " 7, r"]

        tractor -> tre [label = " 3, e"]

        // tr -> tre [label = " e"]
        tre -> tree [label = " 4, e"]

        tree -> tri [label = "3, i"; ]

        // tr -> tri [label = " i"]
        tri -> trie [label = " 4, e"]

        trie -> start [label = "-1, -1"]
    }
}

 -->
<!-- Title: G Pages: 1 -->
<svg width="496pt" height="734pt"
     viewBox="0.00 0.00 496.47 734.09" xmlns="http://www.w3.org/2000/svg" xmlns:xlink="http://www.w3.org/1999/xlink">
    <g id="graph0" class="graph" transform="scale(1 1) rotate(0) translate(4 730.0939)">
        <title>G</title>
        <polygon fill="#ffffff" stroke="transparent" points="-4,4 -4,-730.0939 492.4673,-730.0939 492.4673,4 -4,4"/>
        <!-- root -->
        <g id="node1" class="node">
            <title>root</title>
            <ellipse fill="none" stroke="#000000" cx="217.2369" cy="-696.6782" rx="34.9213" ry="29.3315"/>
            <text text-anchor="middle" x="217.2369" y="-700.8782" font-family="Times,serif" font-size="14.00" fill="#000000">Chain</text>
            <text text-anchor="middle" x="217.2369" y="-684.0782" font-family="Times,serif" font-size="14.00" fill="#000000">0x9A</text>
        </g>
        <!-- start -->
        <g id="node2" class="node">
            <title>start</title>
            <ellipse fill="none" stroke="#000000" cx="343.2369" cy="-696.6782" rx="44.0775" ry="18"/>
            <text text-anchor="middle" x="343.2369" y="-692.4782" font-family="Times,serif" font-size="14.00" fill="#000000">start/end</text>
        </g>
        <!-- root&#45;&gt;start -->
        <!-- t -->
        <g id="node13" class="node">
            <title>t</title>
            <ellipse fill="none" stroke="#000000" cx="217.2369" cy="-596.4626" rx="36.5824" ry="18"/>
            <text text-anchor="middle" x="217.2369" y="-592.2626" font-family="Times,serif" font-size="14.00" fill="#000000">0x09B</text>
        </g>
        <!-- root&#45;&gt;t -->
        <g id="edge2" class="edge">
            <title>root&#45;&gt;t</title>
            <path fill="none" stroke="#000000" d="M217.2369,-667.1522C217.2369,-653.6671 217.2369,-637.7749 217.2369,-624.4779"/>
            <polygon fill="#000000" stroke="#000000" points="220.737,-624.4659 217.2369,-614.4659 213.737,-624.4659 220.737,-624.4659"/>
            <text text-anchor="middle" x="220.9322" y="-636.6626" font-family="Times,serif" font-size="14.00" fill="#000000"> t</text>
        </g>
        <!-- root&#45;&gt;t -->
        <g id="edge16" class="edge">
            <title>root&#45;&gt;t</title>
            <path fill="none" stroke="#add8e6" d="M226.1036,-667.9505C228.4851,-656.8764 229.9747,-644.0969 228.2369,-632.4626 227.8344,-629.7681 227.2713,-626.9965 226.6106,-624.2444"/>
            <polygon fill="#add8e6" stroke="#add8e6" points="223.9024,-614.5348 230.9237,-622.9581 225.2458,-619.351 226.5891,-624.1672 226.5891,-624.1672 226.5891,-624.1672 225.2458,-619.351 222.2546,-625.3762 223.9024,-614.5348 223.9024,-614.5348"/>
            <text text-anchor="middle" x="239.9322" y="-636.6626" font-family="Times,serif" font-size="14.00" fill="#0000ff"> 1, t</text>
        </g>
        <!-- start&#45;&gt;root -->
        <g id="edge15" class="edge">
            <title>start&#45;&gt;root</title>
            <path fill="none" stroke="#add8e6" d="M298.8722,-696.6782C287.0707,-696.6782 274.3106,-696.6782 262.4637,-696.6782"/>
            <polygon fill="#add8e6" stroke="#add8e6" points="252.3349,-696.6782 262.335,-692.1783 257.3349,-696.6783 262.3349,-696.6783 262.3349,-696.6783 262.3349,-696.6783 257.3349,-696.6783 262.3349,-701.1783 252.3349,-696.6782 252.3349,-696.6782"/>
            <text text-anchor="middle" x="275.5731" y="-703.8782" font-family="Times,serif" font-size="14.00" fill="#0000ff"> 0, &#45;1</text>
        </g>
        <!-- tractor -->
        <g id="node3" class="node">
            <title>tractor</title>
            <ellipse fill="none" stroke="#000000" cx="73.2369" cy="-18" rx="73.4745" ry="18"/>
            <text text-anchor="middle" x="73.2369" y="-13.8" font-family="Times,serif" font-size="14.00" fill="#000000">contentArray[0]</text>
        </g>
        <!-- tre -->
        <g id="node9" class="node">
            <title>tre</title>
            <ellipse fill="none" stroke="#000000" cx="217.2369" cy="-384.6156" rx="37.9306" ry="29.3315"/>
            <text text-anchor="middle" x="217.2369" y="-388.8156" font-family="Times,serif" font-size="14.00" fill="#000000">Chain</text>
            <text text-anchor="middle" x="217.2369" y="-372.0156" font-family="Times,serif" font-size="14.00" fill="#000000">0x03B</text>
        </g>
        <!-- tractor&#45;&gt;tre -->
        <g id="edge23" class="edge">
            <title>tractor&#45;&gt;tre</title>
            <path fill="none" stroke="#add8e6" d="M123.782,-31.2033C214.7179,-58.0052 403.6425,-128.3147 481.2369,-266.4 489.075,-280.3486 492.1649,-290.7134 481.2369,-302.4 440.4686,-345.9983 254.0052,-276.8017 213.2369,-320.4 206.7937,-327.2904 205.037,-336.6232 205.5759,-346.0371"/>
            <polygon fill="#add8e6" stroke="#add8e6" points="206.9485,-356.1722 201.1471,-346.8666 206.2775,-351.2174 205.6064,-346.2627 205.6064,-346.2627 205.6064,-346.2627 206.2775,-351.2174 210.0657,-345.6587 206.9485,-356.1722 206.9485,-356.1722"/>
            <text text-anchor="middle" x="453.0942" y="-191.4" font-family="Times,serif" font-size="14.00" fill="#0000ff"> 3, e</text>
        </g>
        <!-- tracto -->
        <g id="node4" class="node">
            <title>tracto</title>
            <ellipse fill="none" stroke="#000000" cx="73.2369" cy="-106.8" rx="36.5824" ry="18"/>
            <text text-anchor="middle" x="73.2369" y="-102.6" font-family="Times,serif" font-size="14.00" fill="#000000">0x01B</text>
        </g>
        <!-- tracto&#45;&gt;tractor -->
        <g id="edge8" class="edge">
            <title>tracto&#45;&gt;tractor</title>
            <path fill="none" stroke="#000000" d="M73.2369,-88.4006C73.2369,-76.2949 73.2369,-60.2076 73.2369,-46.4674"/>
            <polygon fill="#000000" stroke="#000000" points="76.737,-46.072 73.2369,-36.072 69.737,-46.0721 76.737,-46.072"/>
            <text text-anchor="middle" x="77.3172" y="-58.2" font-family="Times,serif" font-size="14.00" fill="#000000"> r</text>
        </g>
        <!-- tracto&#45;&gt;tractor -->
        <g id="edge22" class="edge">
            <title>tracto&#45;&gt;tractor</title>
            <path fill="none" stroke="#add8e6" d="M78.6937,-88.6491C80.1467,-82.9864 81.5127,-76.6826 82.2369,-70.8 83.1492,-63.3893 83.1492,-61.4107 82.2369,-54 81.9201,-51.4264 81.4804,-48.7721 80.9643,-46.1262"/>
            <polygon fill="#add8e6" stroke="#add8e6" points="78.6937,-36.1509 85.301,-44.9027 79.8035,-41.0262 80.9132,-45.9015 80.9132,-45.9015 80.9132,-45.9015 79.8035,-41.0262 76.5255,-46.9003 78.6937,-36.1509 78.6937,-36.1509"/>
            <text text-anchor="middle" x="94.3172" y="-58.2" font-family="Times,serif" font-size="14.00" fill="#0000ff"> 7, r</text>
        </g>
        <!-- tract -->
        <g id="node5" class="node">
            <title>tract</title>
            <ellipse fill="none" stroke="#000000" cx="73.2369" cy="-195.6" rx="37.1443" ry="18"/>
            <text text-anchor="middle" x="73.2369" y="-191.4" font-family="Times,serif" font-size="14.00" fill="#000000">0x01A</text>
        </g>
        <!-- tract&#45;&gt;tracto -->
        <g id="edge7" class="edge">
            <title>tract&#45;&gt;tracto</title>
            <path fill="none" stroke="#000000" d="M73.2369,-177.2006C73.2369,-165.0949 73.2369,-149.0076 73.2369,-135.2674"/>
            <polygon fill="#000000" stroke="#000000" points="76.737,-134.872 73.2369,-124.872 69.737,-134.8721 76.737,-134.872"/>
            <text text-anchor="middle" x="78.4869" y="-147" font-family="Times,serif" font-size="14.00" fill="#000000"> o</text>
        </g>
        <!-- tract&#45;&gt;tracto -->
        <g id="edge21" class="edge">
            <title>tract&#45;&gt;tracto</title>
            <path fill="none" stroke="#add8e6" d="M80.5061,-177.5725C82.4432,-171.9148 84.266,-165.5828 85.2369,-159.6 86.4329,-152.2297 86.4329,-150.1703 85.2369,-142.8 84.7719,-139.9346 84.1115,-136.9891 83.3367,-134.0759"/>
            <polygon fill="#add8e6" stroke="#add8e6" points="80.3796,-124.4595 87.6201,-132.6951 81.8492,-129.2387 83.3189,-134.0178 83.3189,-134.0178 83.3189,-134.0178 81.8492,-129.2387 79.0176,-135.3405 80.3796,-124.4595 80.3796,-124.4595"/>
            <text text-anchor="middle" x="98.4869" y="-147" font-family="Times,serif" font-size="14.00" fill="#0000ff"> 6, o</text>
        </g>
        <!-- trac -->
        <g id="node6" class="node">
            <title>trac</title>
            <ellipse fill="none" stroke="#000000" cx="73.2369" cy="-284.4" rx="35.3587" ry="18"/>
            <text text-anchor="middle" x="73.2369" y="-280.2" font-family="Times,serif" font-size="14.00" fill="#000000">0x019</text>
        </g>
        <!-- trac&#45;&gt;tract -->
        <g id="edge6" class="edge">
            <title>trac&#45;&gt;tract</title>
            <path fill="none" stroke="#000000" d="M73.2369,-266.0006C73.2369,-253.8949 73.2369,-237.8076 73.2369,-224.0674"/>
            <polygon fill="#000000" stroke="#000000" points="76.737,-223.672 73.2369,-213.672 69.737,-223.6721 76.737,-223.672"/>
            <text text-anchor="middle" x="76.9322" y="-235.8" font-family="Times,serif" font-size="14.00" fill="#000000"> t</text>
        </g>
        <!-- trac&#45;&gt;tract -->
        <g id="edge20" class="edge">
            <title>trac&#45;&gt;tract</title>
            <path fill="none" stroke="#add8e6" d="M79.7865,-266.6959C81.6052,-260.9434 83.3294,-254.4757 84.2369,-248.4 85.3399,-241.0153 85.3399,-238.9847 84.2369,-231.6 83.8344,-228.9055 83.2713,-226.1339 82.6106,-223.3819"/>
            <polygon fill="#add8e6" stroke="#add8e6" points="79.9024,-213.6722 86.9237,-222.0956 81.2458,-218.4884 82.5891,-223.3046 82.5891,-223.3046 82.5891,-223.3046 81.2458,-218.4884 78.2546,-224.5136 79.9024,-213.6722 79.9024,-213.6722"/>
            <text text-anchor="middle" x="95.9322" y="-235.8" font-family="Times,serif" font-size="14.00" fill="#0000ff"> 5, t</text>
        </g>
        <!-- tree -->
        <g id="node8" class="node">
            <title>tree</title>
            <ellipse fill="none" stroke="#000000" cx="217.2369" cy="-284.4" rx="73.4745" ry="18"/>
            <text text-anchor="middle" x="217.2369" y="-280.2" font-family="Times,serif" font-size="14.00" fill="#000000">contentArray[1]</text>
        </g>
        <!-- trac&#45;&gt;tree -->
        <!-- tra -->
        <g id="node7" class="node">
            <title>tra</title>
            <ellipse fill="none" stroke="#000000" cx="123.2369" cy="-384.6156" rx="36.125" ry="29.3315"/>
            <text text-anchor="middle" x="123.2369" y="-388.8156" font-family="Times,serif" font-size="14.00" fill="#000000">Chain</text>
            <text text-anchor="middle" x="123.2369" y="-372.0156" font-family="Times,serif" font-size="14.00" fill="#000000">0x018</text>
        </g>
        <!-- tra&#45;&gt;trac -->
        <g id="edge5" class="edge">
            <title>tra&#45;&gt;trac</title>
            <path fill="none" stroke="#000000" d="M102.7638,-360.0748C97.5807,-353.0088 92.3929,-345.074 88.5223,-337.2 84.7334,-329.4922 81.7193,-320.678 79.4036,-312.4881"/>
            <polygon fill="#000000" stroke="#000000" points="82.7327,-311.3819 76.8381,-302.5783 75.9561,-313.1364 82.7327,-311.3819"/>
            <text text-anchor="middle" x="94.0942" y="-324.6" font-family="Times,serif" font-size="14.00" fill="#000000"> c</text>
        </g>
        <!-- tra&#45;&gt;trac -->
        <g id="edge19" class="edge">
            <title>tra&#45;&gt;trac</title>
            <path fill="none" stroke="#add8e6" d="M113.8009,-356.1612C109.6057,-344.7723 104.2515,-331.7001 98.2369,-320.4 96.3599,-316.8736 94.2013,-313.2795 91.9556,-309.7938"/>
            <polygon fill="#add8e6" stroke="#add8e6" points="86.3046,-301.4527 95.6391,-307.2076 89.1091,-305.5922 91.9136,-309.7316 91.9136,-309.7316 91.9136,-309.7316 89.1091,-305.5922 88.1881,-312.2557 86.3046,-301.4527 86.3046,-301.4527"/>
            <text text-anchor="middle" x="118.0942" y="-324.6" font-family="Times,serif" font-size="14.00" fill="#0000ff"> 4, c</text>
        </g>
        <!-- trie -->
        <g id="node10" class="node">
            <title>trie</title>
            <ellipse fill="none" stroke="#000000" cx="399.2369" cy="-284.4" rx="73.4745" ry="18"/>
            <text text-anchor="middle" x="399.2369" y="-280.2" font-family="Times,serif" font-size="14.00" fill="#000000">contentArray[2]</text>
        </g>
        <!-- tree&#45;&gt;trie -->
        <!-- tri -->
        <g id="node11" class="node">
            <title>tri</title>
            <ellipse fill="none" stroke="#000000" cx="333.2369" cy="-384.6156" rx="37.9306" ry="29.3315"/>
            <text text-anchor="middle" x="333.2369" y="-388.8156" font-family="Times,serif" font-size="14.00" fill="#000000">Chain</text>
            <text text-anchor="middle" x="333.2369" y="-372.0156" font-family="Times,serif" font-size="14.00" fill="#000000">0x05B</text>
        </g>
        <!-- tree&#45;&gt;tri -->
        <g id="edge25" class="edge">
            <title>tree&#45;&gt;tri</title>
            <path fill="none" stroke="#add8e6" d="M238.3195,-301.876C245.324,-307.7286 253.1441,-314.3129 260.2369,-320.4 273.6022,-331.8703 288.1999,-344.6585 300.805,-355.7846"/>
            <polygon fill="#add8e6" stroke="#add8e6" points="308.3671,-362.4707 297.8947,-359.2181 304.6213,-359.1588 300.8755,-355.8469 300.8755,-355.8469 300.8755,-355.8469 304.6213,-359.1588 303.8562,-352.4756 308.3671,-362.4707 308.3671,-362.4707"/>
            <text text-anchor="middle" x="288.1822" y="-324.6" font-family="Times,serif" font-size="14.00" fill="#0000ff">3, i</text>
        </g>
        <!-- tre&#45;&gt;tree -->
        <g id="edge10" class="edge">
            <title>tre&#45;&gt;tree</title>
            <path fill="none" stroke="#000000" d="M217.2369,-355.0897C217.2369,-341.6046 217.2369,-325.7123 217.2369,-312.4153"/>
            <polygon fill="#000000" stroke="#000000" points="220.737,-312.4033 217.2369,-302.4033 213.737,-312.4034 220.737,-312.4033"/>
            <text text-anchor="middle" x="222.0942" y="-324.6" font-family="Times,serif" font-size="14.00" fill="#000000"> e</text>
        </g>
        <!-- tre&#45;&gt;tree -->
        <g id="edge24" class="edge">
            <title>tre&#45;&gt;tree</title>
            <path fill="none" stroke="#add8e6" d="M228.409,-356.2376C231.4877,-345.0943 233.446,-332.1755 231.2369,-320.4 230.7037,-317.5576 229.9528,-314.6513 229.0727,-311.7832"/>
            <polygon fill="#add8e6" stroke="#add8e6" points="225.7116,-302.3279 233.3012,-310.243 227.3863,-307.0391 229.0611,-311.7503 229.0611,-311.7503 229.0611,-311.7503 227.3863,-307.0391 224.821,-313.2575 225.7116,-302.3279 225.7116,-302.3279"/>
            <text text-anchor="middle" x="244.0942" y="-324.6" font-family="Times,serif" font-size="14.00" fill="#0000ff"> 4, e</text>
        </g>
        <!-- trie&#45;&gt;start -->
        <g id="edge27" class="edge">
            <title>trie&#45;&gt;start</title>
            <path fill="none" stroke="#add8e6" d="M405.2983,-302.5134C406.9127,-308.1745 408.4309,-314.487 409.2369,-320.4 410.2453,-327.7983 409.9138,-329.7641 409.2369,-337.2 397.8673,-462.0872 364.7169,-608.394 350.1917,-668.6161"/>
            <polygon fill="#add8e6" stroke="#add8e6" points="347.7856,-678.5093 345.7763,-667.729 348.9672,-673.6509 350.1489,-668.7925 350.1489,-668.7925 350.1489,-668.7925 348.9672,-673.6509 354.5214,-669.856 347.7856,-678.5093 347.7856,-678.5093"/>
            <text text-anchor="middle" x="406.3975" y="-492.0469" font-family="Times,serif" font-size="14.00" fill="#0000ff">&#45;1, &#45;1</text>
        </g>
        <!-- tri&#45;&gt;trie -->
        <g id="edge12" class="edge">
            <title>tri&#45;&gt;trie</title>
            <path fill="none" stroke="#000000" d="M343.5308,-356.2283C348.4068,-344.6002 354.8542,-331.3353 362.5223,-320.4 365.189,-316.597 368.2884,-312.8528 371.5344,-309.3005"/>
            <polygon fill="#000000" stroke="#000000" points="374.2909,-311.4868 378.7636,-301.8824 369.2777,-306.6013 374.2909,-311.4868"/>
            <text text-anchor="middle" x="367.0942" y="-324.6" font-family="Times,serif" font-size="14.00" fill="#000000"> e</text>
        </g>
        <!-- tri&#45;&gt;trie -->
        <g id="edge26" class="edge">
            <title>tri&#45;&gt;trie</title>
            <path fill="none" stroke="#add8e6" d="M354.9336,-360.2898C360.8766,-353.0969 367.0926,-345.0431 372.2369,-337.2 377.4883,-329.1936 382.4875,-320.0361 386.7247,-311.6206"/>
            <polygon fill="#add8e6" stroke="#add8e6" points="391.1577,-302.5353 390.8167,-313.4959 388.9651,-307.0289 386.7725,-311.5225 386.7725,-311.5225 386.7725,-311.5225 388.9651,-307.0289 382.7282,-309.5492 391.1577,-302.5353 391.1577,-302.5353"/>
            <text text-anchor="middle" x="393.0942" y="-324.6" font-family="Times,serif" font-size="14.00" fill="#0000ff"> 4, e</text>
        </g>
        <!-- tr -->
        <g id="node12" class="node">
            <title>tr</title>
            <ellipse fill="none" stroke="#000000" cx="217.2369" cy="-496.2469" rx="37.9027" ry="29.3315"/>
            <text text-anchor="middle" x="217.2369" y="-500.4469" font-family="Times,serif" font-size="14.00" fill="#000000">Sparse</text>
            <text text-anchor="middle" x="217.2369" y="-483.6469" font-family="Times,serif" font-size="14.00" fill="#000000">0x07E</text>
        </g>
        <!-- tr&#45;&gt;tra -->
        <g id="edge4" class="edge">
            <title>tr&#45;&gt;tra</title>
            <path fill="none" stroke="#000000" d="M182.6116,-484.1004C165.8889,-476.4961 147.0056,-465.018 135.5223,-448.8313 130.4241,-441.645 127.2882,-432.9125 125.3932,-424.2323"/>
            <polygon fill="#000000" stroke="#000000" points="128.8093,-423.4413 123.6954,-414.1623 121.9067,-424.6051 128.8093,-423.4413"/>
            <text text-anchor="middle" x="141.0942" y="-436.2313" font-family="Times,serif" font-size="14.00" fill="#000000"> a</text>
        </g>
        <!-- tr&#45;&gt;tra -->
        <g id="edge18" class="edge">
            <title>tr&#45;&gt;tra</title>
            <path fill="none" stroke="#add8e6" d="M196.3752,-471.4723C182.7729,-455.3186 164.8877,-434.0788 150.2087,-416.6465"/>
            <polygon fill="#add8e6" stroke="#add8e6" points="143.7168,-408.9369 153.6002,-413.6877 146.9374,-412.7616 150.158,-416.5862 150.158,-416.5862 150.158,-416.5862 146.9374,-412.7616 146.7158,-419.4848 143.7168,-408.9369 143.7168,-408.9369"/>
            <text text-anchor="middle" x="188.0942" y="-436.2313" font-family="Times,serif" font-size="14.00" fill="#0000ff"> 3, a</text>
        </g>
        <!-- tr&#45;&gt;tre -->
        <g id="edge9" class="edge">
            <title>tr&#45;&gt;tre</title>
            <path fill="none" stroke="#000000" d="M217.2369,-466.6249C217.2369,-453.7568 217.2369,-438.4867 217.2369,-424.6319"/>
            <polygon fill="#000000" stroke="#000000" points="220.737,-424.3761 217.2369,-414.3761 213.737,-424.3762 220.737,-424.3761"/>
            <text text-anchor="middle" x="222.0942" y="-436.2313" font-family="Times,serif" font-size="14.00" fill="#000000"> e</text>
        </g>
        <!-- tr&#45;&gt;tri -->
        <g id="edge11" class="edge">
            <title>tr&#45;&gt;tri</title>
            <path fill="none" stroke="#000000" d="M234.0049,-469.6873C242.4241,-457.4678 253.2833,-443.2328 264.8463,-432.0313 273.7641,-423.3922 284.4016,-415.2101 294.5991,-408.1516"/>
            <polygon fill="#000000" stroke="#000000" points="296.6631,-410.9815 303.0143,-402.5013 292.761,-405.17 296.6631,-410.9815"/>
            <text text-anchor="middle" x="268.9322" y="-436.2313" font-family="Times,serif" font-size="14.00" fill="#000000"> i</text>
        </g>
        <!-- t&#45;&gt;tr -->
        <g id="edge3" class="edge">
            <title>t&#45;&gt;tr</title>
            <path fill="none" stroke="#000000" d="M217.2369,-578.0815C217.2369,-566.3502 217.2369,-550.6774 217.2369,-536.1885"/>
            <polygon fill="#000000" stroke="#000000" points="220.737,-535.9208 217.2369,-525.9209 213.737,-535.9209 220.737,-535.9208"/>
            <text text-anchor="middle" x="221.3172" y="-547.8626" font-family="Times,serif" font-size="14.00" fill="#000000"> r</text>
        </g>
        <!-- t&#45;&gt;tr -->
        <g id="edge17" class="edge">
            <title>t&#45;&gt;tr</title>
            <path fill="none" stroke="#add8e6" d="M224.3796,-578.803C226.3635,-573.0529 228.2449,-566.5754 229.2369,-560.4626 230.5801,-552.1852 230.1465,-543.3325 228.8503,-534.9273"/>
            <polygon fill="#add8e6" stroke="#add8e6" points="226.9029,-524.9655 233.2379,-533.9164 227.8622,-529.8726 228.8215,-534.7798 228.8215,-534.7798 228.8215,-534.7798 227.8622,-529.8726 224.4051,-535.6431 226.9029,-524.9655 226.9029,-524.9655"/>
            <text text-anchor="middle" x="241.3172" y="-547.8626" font-family="Times,serif" font-size="14.00" fill="#0000ff"> 2, r</text>
        </g>
    </g>
</svg>