<?xml version="1.0" encoding="UTF-8" standalone="no"?>
<!DOCTYPE svg PUBLIC "-//W3C//DTD SVG 1.1//EN"
        "http://www.w3.org/Graphics/SVG/1.1/DTD/svg11.dtd">
<!---
 Licensed to the Apache Software Foundation (ASF) under one
 or more contributor license agreements.  See the NOTICE file
 distributed with this work for additional information
 regarding copyright ownership.  The ASF licenses this file
 to you under the Apache License, Version 2.0 (the
 "License"); you may not use this file except in compliance
 with the License.  You may obtain a copy of the License at

     http://www.apache.org/licenses/LICENSE-2.0

 Unless required by applicable law or agreed to in writing, software
 distributed under the License is distributed on an "AS IS" BASIS,
 WITHOUT WARRANTIES OR CONDITIONS OF ANY KIND, either express or implied.
 See the License for the specific language governing permissions and
 limitations under the License.
-->

<!-- Generated by graphviz version 2.40.1 (20161225.0304)
# embedded DOT (plantuml) works in IDEA preview
# but not on GitHub
```plantuml
digraph G {
    { rank=same root -> start [style=invis] }
    start [label="start/end"]

    tractor [label = "contentArray[0]"]
    tracto [label = "0x01B"]
    tract [label = "0x01A"]
    trac [label = "0x019"]
    tra [label = "Chain\n0x018"]

    tree [label = "contentArray[1]"]
    tre [label = "Chain\n0x03B"]
    trie [label = "contentArray[2]"]
    tri [label = "Chain\n0x05B"]

    tr [label = "Sparse\n0x07E"]

    t [label = "0x09B"]
    root [label = "Chain\n0x9A"]

    { edge [style=invis]
    root -> t [label = " t"]
    t -> tr [label = " r"]
    tr -> tra [label = " a"]
    tra -> trac [label = " c"]
    trac -> tract [label = " t"]
    tract -> tracto [label = " o"]
    tracto -> tractor [label = " r"]

    tr -> tre [label = " e"]
    tre -> tree [label = " e"]

    tr -> tri [label = " i"]
    tri -> trie [label = " e"]

    // {rank=same tra -> tre -> tri [style=invis]}
    {rank=same trac -> tree -> trie [style=invis]}
    }

    subgraph path {
        edge [color = "lightblue"; fontcolor="blue"; constraint="false"; arrowhead="vee"]

        start -> root

        root -> tr [label=" tr"]
        tr -> tra [label=" a"]
        tra -> tractor [label=" ctor"]
        // tractor -> tr [xlabel="back 5"]
        tr -> tre [label=" e"]
        tre -> tree [label=" e"]
        // tree -> tr [xlabel="back 2"]
        tr -> tri [label=" i"]
        tri -> trie [label=" e"]
        // trie -> start [xlabel="back 4"]
    }

    subgraph back {
        edge [color = "pink"; fontcolor="blue"; constraint="false"; arrowhead="vee"]
        tractor -> tr
        tree -> tr
        trie -> tr
        tr -> start
    }
}

```
 -->
<!-- Title: G Pages: 1 -->
<svg width="514pt" height="734pt"
     viewBox="0.00 0.00 514.43 734.09" xmlns="http://www.w3.org/2000/svg" xmlns:xlink="http://www.w3.org/1999/xlink">
    <g id="graph0" class="graph" transform="scale(1 1) rotate(0) translate(4 730.0939)">
        <title>G</title>
        <polygon fill="#ffffff" stroke="transparent" points="-4,4 -4,-730.0939 510.4319,-730.0939 510.4319,4 -4,4"/>
        <!-- root -->
        <g id="node1" class="node">
            <title>root</title>
            <ellipse fill="none" stroke="#000000" cx="251.195" cy="-696.6782" rx="33.1337" ry="29.3315"/>
            <text text-anchor="middle" x="251.195" y="-700.8782" font-family="Times,serif" font-size="14.00" fill="#000000">Chain</text>
            <text text-anchor="middle" x="251.195" y="-684.0782" font-family="Times,serif" font-size="14.00" fill="#000000">0x9A</text>
        </g>
        <!-- start -->
        <g id="node2" class="node">
            <title>start</title>
            <ellipse fill="none" stroke="#000000" cx="364.195" cy="-696.6782" rx="44.0775" ry="18"/>
            <text text-anchor="middle" x="364.195" y="-692.4782" font-family="Times,serif" font-size="14.00" fill="#000000">start/end</text>
        </g>
        <!-- root&#45;&gt;start -->
        <!-- tr -->
        <g id="node12" class="node">
            <title>tr</title>
            <ellipse fill="none" stroke="#000000" cx="251.195" cy="-496.2469" rx="37.9027" ry="29.3315"/>
            <text text-anchor="middle" x="251.195" y="-500.4469" font-family="Times,serif" font-size="14.00" fill="#000000">Sparse</text>
            <text text-anchor="middle" x="251.195" y="-483.6469" font-family="Times,serif" font-size="14.00" fill="#000000">0x07E</text>
        </g>
        <!-- root&#45;&gt;tr -->
        <g id="edge16" class="edge">
            <title>root&#45;&gt;tr</title>
            <path fill="none" stroke="#add8e6" d="M229.3316,-674.0074C216.0344,-658.5794 200.2812,-636.9454 193.1438,-614.4626 183.3037,-583.4666 202.3168,-550.4221 221.1595,-527.173"/>
            <polygon fill="#add8e6" stroke="#add8e6" points="227.7698,-519.3775 224.7345,-529.915 224.536,-523.1911 221.3023,-527.0046 221.3023,-527.0046 221.3023,-527.0046 224.536,-523.1911 217.8701,-524.0943 227.7698,-519.3775 227.7698,-519.3775"/>
            <text text-anchor="middle" x="199.2206" y="-592.2626" font-family="Times,serif" font-size="14.00" fill="#0000ff"> tr</text>
        </g>
        <!-- t -->
        <g id="node13" class="node">
            <title>t</title>
            <ellipse fill="none" stroke="#000000" cx="251.195" cy="-596.4626" rx="36.5824" ry="18"/>
            <text text-anchor="middle" x="251.195" y="-592.2626" font-family="Times,serif" font-size="14.00" fill="#000000">0x09B</text>
        </g>
        <!-- root&#45;&gt;t -->
        <!-- start&#45;&gt;root -->
        <g id="edge15" class="edge">
            <title>start&#45;&gt;root</title>
            <path fill="none" stroke="#add8e6" d="M339.5693,-711.7185C322.6929,-719.1537 305.8165,-720.6839 288.9401,-716.309"/>
            <polygon fill="#add8e6" stroke="#add8e6" points="279.0036,-713.0508 289.9079,-711.8907 283.7547,-714.6087 288.5058,-716.1667 288.5058,-716.1667 288.5058,-716.1667 283.7547,-714.6087 287.1036,-720.4427 279.0036,-713.0508 279.0036,-713.0508"/>
        </g>
        <!-- tractor -->
        <g id="node3" class="node">
            <title>tractor</title>
            <ellipse fill="none" stroke="#000000" cx="107.195" cy="-18" rx="73.4745" ry="18"/>
            <text text-anchor="middle" x="107.195" y="-13.8" font-family="Times,serif" font-size="14.00" fill="#000000">contentArray[0]</text>
        </g>
        <!-- tractor&#45;&gt;tr -->
        <g id="edge23" class="edge">
            <title>tractor&#45;&gt;tr</title>
            <path fill="none" stroke="#ffc0cb" d="M84.63,-35.1602C69.4788,-48.0928 50.624,-67.2465 41.195,-88.8 -16.74,-221.232 -10.7218,-279.9131 43.195,-414.0313 50.7046,-432.7114 55.2178,-438.0092 72.195,-448.8313 112.0895,-474.262 165.2695,-486.1237 203.2767,-491.613"/>
            <polygon fill="#ffc0cb" stroke="#ffc0cb" points="213.5707,-492.9982 203.0598,-496.1243 208.6154,-492.3313 203.66,-491.6645 203.66,-491.6645 203.66,-491.6645 208.6154,-492.3313 204.2602,-487.2047 213.5707,-492.9982 213.5707,-492.9982"/>
        </g>
        <!-- tracto -->
        <g id="node4" class="node">
            <title>tracto</title>
            <ellipse fill="none" stroke="#000000" cx="107.195" cy="-106.8" rx="36.5824" ry="18"/>
            <text text-anchor="middle" x="107.195" y="-102.6" font-family="Times,serif" font-size="14.00" fill="#000000">0x01B</text>
        </g>
        <!-- tracto&#45;&gt;tractor -->
        <!-- tract -->
        <g id="node5" class="node">
            <title>tract</title>
            <ellipse fill="none" stroke="#000000" cx="107.195" cy="-195.6" rx="37.1443" ry="18"/>
            <text text-anchor="middle" x="107.195" y="-191.4" font-family="Times,serif" font-size="14.00" fill="#000000">0x01A</text>
        </g>
        <!-- tract&#45;&gt;tracto -->
        <!-- trac -->
        <g id="node6" class="node">
            <title>trac</title>
            <ellipse fill="none" stroke="#000000" cx="107.195" cy="-284.4" rx="35.3587" ry="18"/>
            <text text-anchor="middle" x="107.195" y="-280.2" font-family="Times,serif" font-size="14.00" fill="#000000">0x019</text>
        </g>
        <!-- trac&#45;&gt;tract -->
        <!-- tree -->
        <g id="node8" class="node">
            <title>tree</title>
            <ellipse fill="none" stroke="#000000" cx="251.195" cy="-284.4" rx="73.4745" ry="18"/>
            <text text-anchor="middle" x="251.195" y="-280.2" font-family="Times,serif" font-size="14.00" fill="#000000">contentArray[1]</text>
        </g>
        <!-- trac&#45;&gt;tree -->
        <!-- tra -->
        <g id="node7" class="node">
            <title>tra</title>
            <ellipse fill="none" stroke="#000000" cx="158.195" cy="-384.6156" rx="36.125" ry="29.3315"/>
            <text text-anchor="middle" x="158.195" y="-388.8156" font-family="Times,serif" font-size="14.00" fill="#000000">Chain</text>
            <text text-anchor="middle" x="158.195" y="-372.0156" font-family="Times,serif" font-size="14.00" fill="#000000">0x018</text>
        </g>
        <!-- tra&#45;&gt;tractor -->
        <g id="edge18" class="edge">
            <title>tra&#45;&gt;tractor</title>
            <path fill="none" stroke="#add8e6" d="M129.4035,-366.2846C108.261,-351.4371 80.3464,-328.7126 63.195,-302.4 40.6505,-267.8137 42.0561,-254.428 35.9292,-213.6 27.5307,-157.6347 37.7739,-140.318 61.195,-88.8 68.2927,-73.1876 78.511,-57.0573 87.515,-44.1437"/>
            <polygon fill="#add8e6" stroke="#add8e6" points="93.5012,-35.7633 91.3504,-46.5162 90.5949,-39.8319 87.6886,-43.9005 87.6886,-43.9005 87.6886,-43.9005 90.5949,-39.8319 84.0269,-41.2849 93.5012,-35.7633 93.5012,-35.7633"/>
            <text text-anchor="middle" x="48.8279" y="-191.4" font-family="Times,serif" font-size="14.00" fill="#0000ff"> ctor</text>
        </g>
        <!-- tra&#45;&gt;trac -->
        <!-- trie -->
        <g id="node10" class="node">
            <title>trie</title>
            <ellipse fill="none" stroke="#000000" cx="433.195" cy="-284.4" rx="73.4745" ry="18"/>
            <text text-anchor="middle" x="433.195" y="-280.2" font-family="Times,serif" font-size="14.00" fill="#000000">contentArray[2]</text>
        </g>
        <!-- tree&#45;&gt;trie -->
        <!-- tree&#45;&gt;tr -->
        <g id="edge24" class="edge">
            <title>tree&#45;&gt;tr</title>
            <path fill="none" stroke="#ffc0cb" d="M191.7753,-295.0456C138.4603,-304.7362 68.2532,-317.9026 66.195,-320.4 29.2104,-365.2753 48.1813,-409.6972 91.195,-448.8313 107.8743,-464.0063 163.4286,-478.2581 204.4135,-487.0987"/>
            <polygon fill="#ffc0cb" stroke="#ffc0cb" points="214.2244,-489.1725 203.5099,-491.507 209.3325,-488.1384 204.4406,-487.1043 204.4406,-487.1043 204.4406,-487.1043 209.3325,-488.1384 205.3713,-482.7016 214.2244,-489.1725 214.2244,-489.1725"/>
        </g>
        <!-- tre -->
        <g id="node9" class="node">
            <title>tre</title>
            <ellipse fill="none" stroke="#000000" cx="251.195" cy="-384.6156" rx="37.9306" ry="29.3315"/>
            <text text-anchor="middle" x="251.195" y="-388.8156" font-family="Times,serif" font-size="14.00" fill="#000000">Chain</text>
            <text text-anchor="middle" x="251.195" y="-372.0156" font-family="Times,serif" font-size="14.00" fill="#000000">0x03B</text>
        </g>
        <!-- tre&#45;&gt;tree -->
        <!-- tre&#45;&gt;tree -->
        <g id="edge20" class="edge">
            <title>tre&#45;&gt;tree</title>
            <path fill="none" stroke="#add8e6" d="M262.3671,-356.2376C265.4458,-345.0943 267.4041,-332.1755 265.195,-320.4 264.6617,-317.5576 263.9109,-314.6513 263.0308,-311.7832"/>
            <polygon fill="#add8e6" stroke="#add8e6" points="259.6697,-302.3279 267.2592,-310.243 261.3444,-307.0391 263.0192,-311.7503 263.0192,-311.7503 263.0192,-311.7503 261.3444,-307.0391 258.7791,-313.2575 259.6697,-302.3279 259.6697,-302.3279"/>
            <text text-anchor="middle" x="270.0523" y="-324.6" font-family="Times,serif" font-size="14.00" fill="#0000ff"> e</text>
        </g>
        <!-- trie&#45;&gt;tr -->
        <g id="edge25" class="edge">
            <title>trie&#45;&gt;tr</title>
            <path fill="none" stroke="#ffc0cb" d="M375.9621,-295.6423C362.0088,-298.1228 347.0972,-300.557 333.195,-302.4 286.7634,-308.5553 159.3708,-290.6496 123.195,-320.4 90.8711,-346.9827 93.9946,-376.8451 113.195,-414.0313 131.5732,-449.625 172.7739,-471.1596 205.3999,-483.2062"/>
            <polygon fill="#ffc0cb" stroke="#ffc0cb" points="215.2151,-486.6452 204.2896,-487.5853 210.4964,-484.9918 205.7776,-483.3385 205.7776,-483.3385 205.7776,-483.3385 210.4964,-484.9918 207.2657,-479.0916 215.2151,-486.6452 215.2151,-486.6452"/>
        </g>
        <!-- tri -->
        <g id="node11" class="node">
            <title>tri</title>
            <ellipse fill="none" stroke="#000000" cx="358.195" cy="-384.6156" rx="37.9306" ry="29.3315"/>
            <text text-anchor="middle" x="358.195" y="-388.8156" font-family="Times,serif" font-size="14.00" fill="#000000">Chain</text>
            <text text-anchor="middle" x="358.195" y="-372.0156" font-family="Times,serif" font-size="14.00" fill="#000000">0x05B</text>
        </g>
        <!-- tri&#45;&gt;trie -->
        <!-- tri&#45;&gt;trie -->
        <g id="edge22" class="edge">
            <title>tri&#45;&gt;trie</title>
            <path fill="none" stroke="#add8e6" d="M378.6156,-359.7523C384.3949,-352.5509 390.6255,-344.6271 396.195,-337.2 402.5745,-328.6926 409.3145,-319.2281 415.2689,-310.6885"/>
            <polygon fill="#add8e6" stroke="#add8e6" points="421.1416,-302.203 419.151,-312.9867 418.2962,-306.3144 415.4507,-310.4258 415.4507,-310.4258 415.4507,-310.4258 418.2962,-306.3144 411.7505,-307.8649 421.1416,-302.203 421.1416,-302.203"/>
            <text text-anchor="middle" x="412.0523" y="-324.6" font-family="Times,serif" font-size="14.00" fill="#0000ff"> e</text>
        </g>
        <!-- tr&#45;&gt;start -->
        <g id="edge26" class="edge">
            <title>tr&#45;&gt;start</title>
            <path fill="none" stroke="#ffc0cb" d="M266.5237,-523.436C288.1956,-561.8759 327.547,-631.6747 349.0941,-669.8934"/>
            <polygon fill="#ffc0cb" stroke="#ffc0cb" points="354.167,-678.8913 345.3359,-672.3903 351.7114,-674.5358 349.2558,-670.1803 349.2558,-670.1803 349.2558,-670.1803 351.7114,-674.5358 353.1758,-667.9703 354.167,-678.8913 354.167,-678.8913"/>
        </g>
        <!-- tr&#45;&gt;tra -->
        <!-- tr&#45;&gt;tra -->
        <g id="edge17" class="edge">
            <title>tr&#45;&gt;tra</title>
            <path fill="none" stroke="#add8e6" d="M230.5553,-471.4723C217.1904,-455.43 199.6466,-434.3715 185.1808,-417.0077"/>
            <polygon fill="#add8e6" stroke="#add8e6" points="178.777,-409.321 188.6352,-414.1237 181.9774,-413.1625 185.1778,-417.0041 185.1778,-417.0041 185.1778,-417.0041 181.9774,-413.1625 181.7204,-419.8845 178.777,-409.321 178.777,-409.321"/>
            <text text-anchor="middle" x="216.0523" y="-436.2313" font-family="Times,serif" font-size="14.00" fill="#0000ff"> a</text>
        </g>
        <!-- tr&#45;&gt;tre -->
        <!-- tr&#45;&gt;tre -->
        <g id="edge19" class="edge">
            <title>tr&#45;&gt;tre</title>
            <path fill="none" stroke="#add8e6" d="M261.0549,-467.7057C262.775,-461.5528 264.2986,-455.0326 265.195,-448.8313 266.4269,-440.3086 265.7158,-431.23 264.1002,-422.6641"/>
            <polygon fill="#add8e6" stroke="#add8e6" points="261.8503,-412.9079 268.4824,-421.641 262.9739,-417.7801 264.0975,-422.6522 264.0975,-422.6522 264.0975,-422.6522 262.9739,-417.7801 259.7126,-423.6634 261.8503,-412.9079 261.8503,-412.9079"/>
            <text text-anchor="middle" x="270.0523" y="-436.2313" font-family="Times,serif" font-size="14.00" fill="#0000ff"> e</text>
        </g>
        <!-- tr&#45;&gt;tri -->
        <!-- tr&#45;&gt;tri -->
        <g id="edge21" class="edge">
            <title>tr&#45;&gt;tri</title>
            <path fill="none" stroke="#add8e6" d="M282.4484,-479.3274C295.4663,-471.2619 310.1001,-460.763 321.195,-448.8313 328.6315,-440.8339 335.204,-431.0808 340.668,-421.6153"/>
            <polygon fill="#add8e6" stroke="#add8e6" points="345.5591,-412.695 344.6971,-423.6269 343.1552,-417.0792 340.7513,-421.4634 340.7513,-421.4634 340.7513,-421.4634 343.1552,-417.0792 336.8055,-419.2999 345.5591,-412.695 345.5591,-412.695"/>
            <text text-anchor="middle" x="336.8903" y="-436.2313" font-family="Times,serif" font-size="14.00" fill="#0000ff"> i</text>
        </g>
        <!-- t&#45;&gt;tr -->
    </g>
</svg>
