<?xml version="1.0" encoding="UTF-8" standalone="no"?>
<!DOCTYPE svg PUBLIC "-//W3C//DTD SVG 1.1//EN"
        "http://www.w3.org/Graphics/SVG/1.1/DTD/svg11.dtd">
<!---
 Licensed to the Apache Software Foundation (ASF) under one
 or more contributor license agreements.  See the NOTICE file
 distributed with this work for additional information
 regarding copyright ownership.  The ASF licenses this file
 to you under the Apache License, Version 2.0 (the
 "License"); you may not use this file except in compliance
 with the License.  You may obtain a copy of the License at

     http://www.apache.org/licenses/LICENSE-2.0

 Unless required by applicable law or agreed to in writing, software
 distributed under the License is distributed on an "AS IS" BASIS,
 WITHOUT WARRANTIES OR CONDITIONS OF ANY KIND, either express or implied.
 See the License for the specific language governing permissions and
 limitations under the License.
-->

<!-- Generated by graphviz version 2.40.1 (20161225.0304)
# embedded DOT (plantuml) works in IDEA preview
# but not on GitHub
```plantuml
digraph G {
    { rank=same root -> start [style=invis] }
    start [label="start/end"]

    tractor [label = "contentArray[0]"]
    tracto [label = "0x01B"]
    tract [label = "0x01A"]
    trac [label = "0x019"]
    tra [label = "Chain\n0x018"; color = "lightgrey"; fontcolor = lightgray]

    tree [label = "contentArray[1]"]
    tre [label = "Chain\n0x03B"]
    trie [label = "contentArray[2]"]
    tri [label = "Chain\n0x05B"]

    tr [label = "Sparse\n0x07E"]

    t [label = "0x09B"]
    root [label = "Chain\n0x9A"]

    root -> t [label = " t"]
    t -> tr [label = " r"]
    trac -> tract [label = " t"]
    tract -> tracto [label = " o"]
    tracto -> tractor [label = " r"]

    tr -> tra [label = " a"; color = "lightgrey"; fontcolor = lightgray]
    tra -> trac [label = " c"; color = "lightgrey"; fontcolor = lightgray]

    tr -> tre [label = " e"]
    tre -> tree [label = " e"]

    tr -> tri [label = " i"]
    tri -> trie [label = " e"]

    subgraph path {
        edge [color = "lightblue"; fontcolor="blue"; arrowhead="vee"]
        node [color = "blue"; fontcolor="blue"]

        start -> root

        root -> t [label = " t"]
        t -> tr [label = " r"]
        tr -> tra [label = " a"]
        tra -> trav [label = " v"]
        trav -> trave [label = " e"]
        trave -> traver [label = " r"]
        traver -> travers [label = " s"]
        travers -> traverse [label = " e"]

        tra2 [label = "Sparse\n0x0DE"]
        trav [label = "Chain\n0x0B8"]
        trave [label = "0x0B9"]
        traver [label = "0x0BA"]
        travers [label = "0x0BB"]
        traverse [label = "contentArray[3]"]
    }

    {rank=same tra -> tra2 -> tre -> tri [style=invis]}
    {rank=same trac -> trav -> tree -> trie [style=invis]}

    {
        edge [color = "blue"]
        tr -> tra2 [label = " a"]
        tra2 -> trac [label = " c"]
        tra2 -> trav [label = " v"]
        trav -> trave [label = " e"]
        trave -> traver [label = " r"]
        traver -> travers [label = " s"]
        travers -> traverse [label = " e"]
    }

    subgraph back {
        edge [color = "pink"; fontcolor="red"; arrowhead="vee"; constrain="false"]

        traverse -> travers [label = " ~3"]
        travers -> traver [label = "0x0BB"]
        traver -> trave [label = "0x0BA"]
        trave -> trav [label = "0x0B9"]
        trav -> tra2 [label = "0x0B8"]
        tra2 -> tr [label = "0x0DE"]
        tr -> t [label = "0x07E"]
        t -> root [label = "0x09B"]
        root -> start [label = "0x09A"]
    }
}
```
 -->
<!-- Title: G Pages: 1 -->
<svg width="611pt" height="846pt"
     viewBox="0.00 0.00 611.47 845.73" xmlns="http://www.w3.org/2000/svg" xmlns:xlink="http://www.w3.org/1999/xlink">
    <g id="graph0" class="graph" transform="scale(1 1) rotate(0) translate(4 841.7251)">
        <title>G</title>
        <polygon fill="#ffffff" stroke="transparent" points="-4,4 -4,-841.7251 607.4738,-841.7251 607.4738,4 -4,4"/>
        <!-- root -->
        <g id="node1" class="node">
            <title>root</title>
            <ellipse fill="none" stroke="#000000" cx="230.2369" cy="-808.3095" rx="33.1337" ry="29.3315"/>
            <text text-anchor="middle" x="230.2369" y="-812.5095" font-family="Times,serif" font-size="14.00" fill="#000000">Chain</text>
            <text text-anchor="middle" x="230.2369" y="-795.7095" font-family="Times,serif" font-size="14.00" fill="#000000">0x9A</text>
        </g>
        <!-- start -->
        <g id="node2" class="node">
            <title>start</title>
            <ellipse fill="none" stroke="#000000" cx="363.2369" cy="-808.3095" rx="44.0775" ry="18"/>
            <text text-anchor="middle" x="363.2369" y="-804.1095" font-family="Times,serif" font-size="14.00" fill="#000000">start/end</text>
        </g>
        <!-- root&#45;&gt;start -->
        <!-- root&#45;&gt;start -->
        <g id="edge43" class="edge">
            <title>root&#45;&gt;start</title>
            <path fill="none" stroke="#ffc0cb" d="M263.7984,-808.3095C277.3037,-808.3095 293.2339,-808.3095 308.3398,-808.3095"/>
            <polygon fill="#ffc0cb" stroke="#ffc0cb" points="318.6261,-808.3095 308.6262,-812.8096 313.6261,-808.3095 308.6261,-808.3096 308.6261,-808.3096 308.6261,-808.3096 313.6261,-808.3095 308.6261,-803.8096 318.6261,-808.3095 318.6261,-808.3095"/>
            <text text-anchor="middle" x="291.2509" y="-815.5095" font-family="Times,serif" font-size="14.00" fill="#ff0000">0x09A</text>
        </g>
        <!-- t -->
        <g id="node13" class="node">
            <title>t</title>
            <ellipse fill="none" stroke="#000000" cx="230.2369" cy="-708.0939" rx="36.5824" ry="18"/>
            <text text-anchor="middle" x="230.2369" y="-703.8939" font-family="Times,serif" font-size="14.00" fill="#000000">0x09B</text>
        </g>
        <!-- root&#45;&gt;t -->
        <g id="edge2" class="edge">
            <title>root&#45;&gt;t</title>
            <path fill="none" stroke="#000000" d="M210.9564,-784.2612C203.7393,-772.3485 198.2768,-757.6462 202.8463,-744.0939 204.1636,-740.1869 206.0926,-736.3684 208.3269,-732.7663"/>
            <polygon fill="#000000" stroke="#000000" points="211.3844,-734.5068 214.3357,-724.3313 205.683,-730.4454 211.3844,-734.5068"/>
            <text text-anchor="middle" x="206.9322" y="-748.2939" font-family="Times,serif" font-size="14.00" fill="#000000"> t</text>
        </g>
        <!-- root&#45;&gt;t -->
        <g id="edge14" class="edge">
            <title>root&#45;&gt;t</title>
            <path fill="none" stroke="#add8e6" d="M230.2369,-778.7835C230.2369,-765.2984 230.2369,-749.4062 230.2369,-736.1092"/>
            <polygon fill="#add8e6" stroke="#add8e6" points="230.2369,-726.0972 234.737,-736.0971 230.2369,-731.0972 230.237,-736.0972 230.237,-736.0972 230.237,-736.0972 230.2369,-731.0972 225.737,-736.0972 230.2369,-726.0972 230.2369,-726.0972"/>
            <text text-anchor="middle" x="233.9322" y="-748.2939" font-family="Times,serif" font-size="14.00" fill="#0000ff"> t</text>
        </g>
        <!-- start&#45;&gt;root -->
        <g id="edge13" class="edge">
            <title>start&#45;&gt;root</title>
            <path fill="none" stroke="#add8e6" d="M319.4042,-805.6333C307.2938,-805.1818 294.1479,-804.9584 282.0184,-805.3095 279.3264,-805.3874 276.5568,-805.4881 273.7643,-805.6051"/>
            <polygon fill="#add8e6" stroke="#add8e6" points="263.6504,-806.089 273.4239,-801.1161 268.6447,-805.85 273.639,-805.611 273.639,-805.611 273.639,-805.611 268.6447,-805.85 273.8541,-810.1058 263.6504,-806.089 263.6504,-806.089"/>
        </g>
        <!-- tractor -->
        <g id="node3" class="node">
            <title>tractor</title>
            <ellipse fill="none" stroke="#000000" cx="73.2369" cy="-106.8" rx="73.4745" ry="18"/>
            <text text-anchor="middle" x="73.2369" y="-102.6" font-family="Times,serif" font-size="14.00" fill="#000000">contentArray[0]</text>
        </g>
        <!-- tracto -->
        <g id="node4" class="node">
            <title>tracto</title>
            <ellipse fill="none" stroke="#000000" cx="74.2369" cy="-195.6" rx="36.5824" ry="18"/>
            <text text-anchor="middle" x="74.2369" y="-191.4" font-family="Times,serif" font-size="14.00" fill="#000000">0x01B</text>
        </g>
        <!-- tracto&#45;&gt;tractor -->
        <g id="edge6" class="edge">
            <title>tracto&#45;&gt;tractor</title>
            <path fill="none" stroke="#000000" d="M74.0297,-177.2006C73.8934,-165.0949 73.7122,-149.0076 73.5575,-135.2674"/>
            <polygon fill="#000000" stroke="#000000" points="77.0529,-134.8319 73.4404,-124.872 70.0533,-134.9108 77.0529,-134.8319"/>
            <text text-anchor="middle" x="78.3172" y="-147" font-family="Times,serif" font-size="14.00" fill="#000000"> r</text>
        </g>
        <!-- tract -->
        <g id="node5" class="node">
            <title>tract</title>
            <ellipse fill="none" stroke="#000000" cx="78.2369" cy="-284.4" rx="37.1443" ry="18"/>
            <text text-anchor="middle" x="78.2369" y="-280.2" font-family="Times,serif" font-size="14.00" fill="#000000">0x01A</text>
        </g>
        <!-- tract&#45;&gt;tracto -->
        <g id="edge5" class="edge">
            <title>tract&#45;&gt;tracto</title>
            <path fill="none" stroke="#000000" d="M77.4081,-266.0006C76.8628,-253.8949 76.1381,-237.8076 75.5192,-224.0674"/>
            <polygon fill="#000000" stroke="#000000" points="78.9975,-223.5044 75.0509,-213.672 72.0046,-223.8194 78.9975,-223.5044"/>
            <text text-anchor="middle" x="82.4869" y="-235.8" font-family="Times,serif" font-size="14.00" fill="#000000"> o</text>
        </g>
        <!-- trac -->
        <g id="node6" class="node">
            <title>trac</title>
            <ellipse fill="none" stroke="#000000" cx="94.2369" cy="-384.6156" rx="35.3587" ry="18"/>
            <text text-anchor="middle" x="94.2369" y="-380.4156" font-family="Times,serif" font-size="14.00" fill="#000000">0x019</text>
        </g>
        <!-- trac&#45;&gt;tract -->
        <g id="edge4" class="edge">
            <title>trac&#45;&gt;tract</title>
            <path fill="none" stroke="#000000" d="M91.3022,-366.2345C88.9115,-351.2603 85.4955,-329.8643 82.756,-312.7055"/>
            <polygon fill="#000000" stroke="#000000" points="86.1858,-311.9877 81.1529,-302.6646 79.2734,-313.0913 86.1858,-311.9877"/>
            <text text-anchor="middle" x="89.9322" y="-324.6" font-family="Times,serif" font-size="14.00" fill="#000000"> t</text>
        </g>
        <!-- trav -->
        <g id="node14" class="node">
            <title>trav</title>
            <ellipse fill="none" stroke="#0000ff" cx="202.2369" cy="-384.6156" rx="37.9306" ry="29.3315"/>
            <text text-anchor="middle" x="202.2369" y="-388.8156" font-family="Times,serif" font-size="14.00" fill="#0000ff">Chain</text>
            <text text-anchor="middle" x="202.2369" y="-372.0156" font-family="Times,serif" font-size="14.00" fill="#0000ff">0x0B8</text>
        </g>
        <!-- trac&#45;&gt;trav -->
        <!-- tra -->
        <g id="node7" class="node">
            <title>tra</title>
            <ellipse fill="none" stroke="#d3d3d3" cx="124.2369" cy="-496.2469" rx="36.125" ry="29.3315"/>
            <text text-anchor="middle" x="124.2369" y="-500.4469" font-family="Times,serif" font-size="14.00" fill="#d3d3d3">Chain</text>
            <text text-anchor="middle" x="124.2369" y="-483.6469" font-family="Times,serif" font-size="14.00" fill="#d3d3d3">0x018</text>
        </g>
        <!-- tra&#45;&gt;trac -->
        <g id="edge8" class="edge">
            <title>tra&#45;&gt;trac</title>
            <path fill="none" stroke="#d3d3d3" d="M108.792,-469.6104C105.5657,-463.008 102.5364,-455.818 100.5223,-448.8313 97.2068,-437.3303 95.5641,-424.2429 94.7752,-412.8969"/>
            <polygon fill="#d3d3d3" stroke="#d3d3d3" points="98.2581,-412.4701 94.2539,-402.6611 91.2672,-412.8262 98.2581,-412.4701"/>
            <text text-anchor="middle" x="106.0942" y="-436.2313" font-family="Times,serif" font-size="14.00" fill="#d3d3d3"> c</text>
        </g>
        <!-- tra&#45;&gt;trav -->
        <g id="edge17" class="edge">
            <title>tra&#45;&gt;trav</title>
            <path fill="none" stroke="#add8e6" d="M124.8024,-466.7151C126.1832,-455.1695 129.2555,-442.2712 135.7369,-432.0313 142.2539,-421.7351 151.8894,-413.0083 161.8152,-405.9576"/>
            <polygon fill="#add8e6" stroke="#add8e6" points="170.1591,-400.4315 164.3065,-409.7051 165.9904,-403.1924 161.8218,-405.9533 161.8218,-405.9533 161.8218,-405.9533 165.9904,-403.1924 159.337,-402.2015 170.1591,-400.4315 170.1591,-400.4315"/>
            <text text-anchor="middle" x="141.4869" y="-436.2313" font-family="Times,serif" font-size="14.00" fill="#0000ff"> v</text>
        </g>
        <!-- tra2 -->
        <g id="node19" class="node">
            <title>tra2</title>
            <ellipse fill="none" stroke="#0000ff" cx="235.2369" cy="-496.2469" rx="39.2145" ry="29.3315"/>
            <text text-anchor="middle" x="235.2369" y="-500.4469" font-family="Times,serif" font-size="14.00" fill="#0000ff">Sparse</text>
            <text text-anchor="middle" x="235.2369" y="-483.6469" font-family="Times,serif" font-size="14.00" fill="#0000ff">0x0DE</text>
        </g>
        <!-- tra&#45;&gt;tra2 -->
        <!-- tree -->
        <g id="node8" class="node">
            <title>tree</title>
            <ellipse fill="none" stroke="#000000" cx="348.2369" cy="-384.6156" rx="73.4745" ry="18"/>
            <text text-anchor="middle" x="348.2369" y="-380.4156" font-family="Times,serif" font-size="14.00" fill="#000000">contentArray[1]</text>
        </g>
        <!-- trie -->
        <g id="node10" class="node">
            <title>trie</title>
            <ellipse fill="none" stroke="#000000" cx="530.2369" cy="-384.6156" rx="73.4745" ry="18"/>
            <text text-anchor="middle" x="530.2369" y="-380.4156" font-family="Times,serif" font-size="14.00" fill="#000000">contentArray[2]</text>
        </g>
        <!-- tree&#45;&gt;trie -->
        <!-- tre -->
        <g id="node9" class="node">
            <title>tre</title>
            <ellipse fill="none" stroke="#000000" cx="348.2369" cy="-496.2469" rx="37.9306" ry="29.3315"/>
            <text text-anchor="middle" x="348.2369" y="-500.4469" font-family="Times,serif" font-size="14.00" fill="#000000">Chain</text>
            <text text-anchor="middle" x="348.2369" y="-483.6469" font-family="Times,serif" font-size="14.00" fill="#000000">0x03B</text>
        </g>
        <!-- tre&#45;&gt;tree -->
        <g id="edge10" class="edge">
            <title>tre&#45;&gt;tree</title>
            <path fill="none" stroke="#000000" d="M348.2369,-466.6249C348.2369,-449.9873 348.2369,-429.334 348.2369,-412.9163"/>
            <polygon fill="#000000" stroke="#000000" points="351.737,-412.8239 348.2369,-402.8239 344.737,-412.8239 351.737,-412.8239"/>
            <text text-anchor="middle" x="353.0942" y="-436.2313" font-family="Times,serif" font-size="14.00" fill="#000000"> e</text>
        </g>
        <!-- tri -->
        <g id="node11" class="node">
            <title>tri</title>
            <ellipse fill="none" stroke="#000000" cx="459.2369" cy="-496.2469" rx="37.9306" ry="29.3315"/>
            <text text-anchor="middle" x="459.2369" y="-500.4469" font-family="Times,serif" font-size="14.00" fill="#000000">Chain</text>
            <text text-anchor="middle" x="459.2369" y="-483.6469" font-family="Times,serif" font-size="14.00" fill="#000000">0x05B</text>
        </g>
        <!-- tre&#45;&gt;tri -->
        <!-- tri&#45;&gt;trie -->
        <g id="edge12" class="edge">
            <title>tri&#45;&gt;trie</title>
            <path fill="none" stroke="#000000" d="M476.0629,-469.7919C487.3072,-452.1128 502.0457,-428.9399 513.3106,-411.2283"/>
            <polygon fill="#000000" stroke="#000000" points="516.4345,-412.8384 518.848,-402.5221 510.5279,-409.0817 516.4345,-412.8384"/>
            <text text-anchor="middle" x="503.0942" y="-436.2313" font-family="Times,serif" font-size="14.00" fill="#000000"> e</text>
        </g>
        <!-- tr -->
        <g id="node12" class="node">
            <title>tr</title>
            <ellipse fill="none" stroke="#000000" cx="230.2369" cy="-607.8782" rx="37.9027" ry="29.3315"/>
            <text text-anchor="middle" x="230.2369" y="-612.0782" font-family="Times,serif" font-size="14.00" fill="#000000">Sparse</text>
            <text text-anchor="middle" x="230.2369" y="-595.2782" font-family="Times,serif" font-size="14.00" fill="#000000">0x07E</text>
        </g>
        <!-- tr&#45;&gt;tra -->
        <g id="edge7" class="edge">
            <title>tr&#45;&gt;tra</title>
            <path fill="none" stroke="#d3d3d3" d="M195.7438,-595.1807C178.8708,-587.4308 159.461,-575.9889 146.5223,-560.4626 140.4195,-553.1393 135.9491,-544.0436 132.6887,-535.0233"/>
            <polygon fill="#d3d3d3" stroke="#d3d3d3" points="135.9777,-533.8168 129.6057,-525.3523 129.3084,-535.943 135.9777,-533.8168"/>
            <text text-anchor="middle" x="152.0942" y="-547.8626" font-family="Times,serif" font-size="14.00" fill="#d3d3d3"> a</text>
        </g>
        <!-- tr&#45;&gt;tra -->
        <g id="edge16" class="edge">
            <title>tr&#45;&gt;tra</title>
            <path fill="none" stroke="#add8e6" d="M207.757,-584.2041C191.9107,-567.5159 170.5426,-545.0127 153.387,-526.9457"/>
            <polygon fill="#add8e6" stroke="#add8e6" points="146.3209,-519.5041 156.4699,-523.6571 149.7638,-523.13 153.2067,-526.7558 153.2067,-526.7558 153.2067,-526.7558 149.7638,-523.13 149.9435,-529.8544 146.3209,-519.5041 146.3209,-519.5041"/>
            <text text-anchor="middle" x="189.0942" y="-547.8626" font-family="Times,serif" font-size="14.00" fill="#0000ff"> a</text>
        </g>
        <!-- tr&#45;&gt;tre -->
        <g id="edge9" class="edge">
            <title>tr&#45;&gt;tre</title>
            <path fill="none" stroke="#000000" d="M254.4007,-585.0186C272.3773,-568.0122 297.076,-544.6465 316.6218,-526.1556"/>
            <polygon fill="#000000" stroke="#000000" points="319.2463,-528.4909 324.1054,-519.076 314.4357,-523.4058 319.2463,-528.4909"/>
            <text text-anchor="middle" x="302.0942" y="-547.8626" font-family="Times,serif" font-size="14.00" fill="#000000"> e</text>
        </g>
        <!-- tr&#45;&gt;tri -->
        <g id="edge11" class="edge">
            <title>tr&#45;&gt;tri</title>
            <path fill="none" stroke="#000000" d="M262.5613,-592.1209C303.3074,-572.2583 373.3978,-538.0911 417.9723,-516.3623"/>
            <polygon fill="#000000" stroke="#000000" points="419.6217,-519.452 427.0769,-511.924 416.5544,-513.1598 419.6217,-519.452"/>
            <text text-anchor="middle" x="361.9322" y="-547.8626" font-family="Times,serif" font-size="14.00" fill="#000000"> i</text>
        </g>
        <!-- tr&#45;&gt;t -->
        <g id="edge41" class="edge">
            <title>tr&#45;&gt;t</title>
            <path fill="none" stroke="#ffc0cb" d="M228.1399,-637.287C227.605,-648.2159 227.2816,-660.7205 227.6843,-672.0939 227.7703,-674.5242 227.889,-677.0451 228.0283,-679.5733"/>
            <polygon fill="#ffc0cb" stroke="#ffc0cb" points="228.6875,-689.7931 223.5531,-680.1035 228.3656,-684.8034 228.0438,-679.8138 228.0438,-679.8138 228.0438,-679.8138 228.3656,-684.8034 232.5344,-679.5241 228.6875,-689.7931 228.6875,-689.7931"/>
            <text text-anchor="middle" x="246.5132" y="-659.4939" font-family="Times,serif" font-size="14.00" fill="#ff0000">0x07E</text>
        </g>
        <!-- tr&#45;&gt;tra2 -->
        <g id="edge28" class="edge">
            <title>tr&#45;&gt;tra2</title>
            <path fill="none" stroke="#0000ff" d="M218.5572,-579.8196C215.264,-568.6049 213.1491,-555.5518 215.5223,-543.6626 216.1971,-540.2816 217.118,-536.8402 218.1951,-533.4336"/>
            <polygon fill="#0000ff" stroke="#0000ff" points="221.4953,-534.5993 221.57,-524.0047 214.9047,-532.2403 221.4953,-534.5993"/>
            <text text-anchor="middle" x="221.0942" y="-547.8626" font-family="Times,serif" font-size="14.00" fill="#000000"> a</text>
        </g>
        <!-- t&#45;&gt;root -->
        <g id="edge42" class="edge">
            <title>t&#45;&gt;root</title>
            <path fill="none" stroke="#ffc0cb" d="M235.0886,-726.2786C236.3802,-731.9426 237.5942,-738.2388 238.2369,-744.0939 239.1247,-752.1817 238.87,-760.8327 238.048,-769.081"/>
            <polygon fill="#ffc0cb" stroke="#ffc0cb" points="236.7469,-779.2407 233.5537,-768.7501 237.3821,-774.2812 238.0173,-769.3217 238.0173,-769.3217 238.0173,-769.3217 237.3821,-774.2812 242.4808,-769.8934 236.7469,-779.2407 236.7469,-779.2407"/>
            <text text-anchor="middle" x="257.9052" y="-748.2939" font-family="Times,serif" font-size="14.00" fill="#ff0000">0x09B</text>
        </g>
        <!-- t&#45;&gt;tr -->
        <g id="edge3" class="edge">
            <title>t&#45;&gt;tr</title>
            <path fill="none" stroke="#000000" d="M251.7729,-693.2308C258.3244,-687.4682 264.7179,-680.2751 268.2369,-672.0939 271.1872,-665.2348 270.7115,-662.3385 268.2369,-655.2939 266.2659,-649.6828 263.3202,-644.2436 259.9247,-639.1727"/>
            <polygon fill="#000000" stroke="#000000" points="262.6469,-636.9677 253.8782,-631.0211 257.0247,-641.138 262.6469,-636.9677"/>
            <text text-anchor="middle" x="275.3172" y="-659.4939" font-family="Times,serif" font-size="14.00" fill="#000000"> r</text>
        </g>
        <!-- t&#45;&gt;tr -->
        <g id="edge15" class="edge">
            <title>t&#45;&gt;tr</title>
            <path fill="none" stroke="#add8e6" d="M213.324,-692.0138C208.3995,-686.2543 203.6543,-679.3722 201.0763,-672.0939 197.4827,-661.9481 199.7954,-651.1983 204.382,-641.4556"/>
            <polygon fill="#add8e6" stroke="#add8e6" points="209.3576,-632.4758 208.4471,-643.4038 206.9342,-636.8493 204.5109,-641.2228 204.5109,-641.2228 204.5109,-641.2228 206.9342,-636.8493 200.5747,-639.0418 209.3576,-632.4758 209.3576,-632.4758"/>
            <text text-anchor="middle" x="205.3172" y="-659.4939" font-family="Times,serif" font-size="14.00" fill="#0000ff"> r</text>
        </g>
        <!-- trav&#45;&gt;tree -->
        <!-- trave -->
        <g id="node15" class="node">
            <title>trave</title>
            <ellipse fill="none" stroke="#0000ff" cx="202.2369" cy="-284.4" rx="36.5824" ry="18"/>
            <text text-anchor="middle" x="202.2369" y="-280.2" font-family="Times,serif" font-size="14.00" fill="#0000ff">0x0B9</text>
        </g>
        <!-- trav&#45;&gt;trave -->
        <g id="edge18" class="edge">
            <title>trav&#45;&gt;trave</title>
            <path fill="none" stroke="#add8e6" d="M181.4692,-359.4476C176.9833,-352.6281 172.8815,-344.9707 170.5223,-337.2 168.3531,-330.0554 167.8843,-327.3851 170.5223,-320.4 172.1555,-316.0753 174.5712,-311.9338 177.3533,-308.0992"/>
            <polygon fill="#add8e6" stroke="#add8e6" points="183.8676,-300.2431 180.9485,-310.8134 180.6761,-304.0921 177.4845,-307.941 177.4845,-307.941 177.4845,-307.941 180.6761,-304.0921 174.0205,-305.0686 183.8676,-300.2431 183.8676,-300.2431"/>
            <text text-anchor="middle" x="176.0942" y="-324.6" font-family="Times,serif" font-size="14.00" fill="#0000ff"> e</text>
        </g>
        <!-- trav&#45;&gt;trave -->
        <g id="edge31" class="edge">
            <title>trav&#45;&gt;trave</title>
            <path fill="none" stroke="#0000ff" d="M202.2369,-355.0897C202.2369,-341.6046 202.2369,-325.7123 202.2369,-312.4153"/>
            <polygon fill="#0000ff" stroke="#0000ff" points="205.737,-312.4033 202.2369,-302.4033 198.737,-312.4034 205.737,-312.4033"/>
            <text text-anchor="middle" x="207.0942" y="-324.6" font-family="Times,serif" font-size="14.00" fill="#000000"> e</text>
        </g>
        <!-- trav&#45;&gt;tra2 -->
        <g id="edge39" class="edge">
            <title>trav&#45;&gt;tra2</title>
            <path fill="none" stroke="#ffc0cb" d="M210.8211,-413.654C214.805,-427.1305 219.5957,-443.3363 223.8744,-457.8102"/>
            <polygon fill="#ffc0cb" stroke="#ffc0cb" points="226.7386,-467.4991 219.5882,-459.1851 225.3211,-462.7042 223.9036,-457.9093 223.9036,-457.9093 223.9036,-457.9093 225.3211,-462.7042 228.219,-456.6336 226.7386,-467.4991 226.7386,-467.4991"/>
            <text text-anchor="middle" x="239.9052" y="-436.2313" font-family="Times,serif" font-size="14.00" fill="#ff0000">0x0B8</text>
        </g>
        <!-- trave&#45;&gt;trav -->
        <g id="edge38" class="edge">
            <title>trave&#45;&gt;trav</title>
            <path fill="none" stroke="#ffc0cb" d="M208.9024,-302.4722C210.6782,-308.1317 212.3487,-314.4535 213.2369,-320.4 214.4724,-328.6713 214.0766,-337.5213 212.8888,-345.926"/>
            <polygon fill="#ffc0cb" stroke="#ffc0cb" points="211.1036,-355.888 208.4382,-345.2509 211.9856,-350.9664 212.8676,-346.0448 212.8676,-346.0448 212.8676,-346.0448 211.9856,-350.9664 217.297,-346.8386 211.1036,-355.888 211.1036,-355.888"/>
            <text text-anchor="middle" x="232.9052" y="-324.6" font-family="Times,serif" font-size="14.00" fill="#ff0000">0x0B9</text>
        </g>
        <!-- traver -->
        <g id="node16" class="node">
            <title>traver</title>
            <ellipse fill="none" stroke="#0000ff" cx="202.2369" cy="-195.6" rx="38.8671" ry="18"/>
            <text text-anchor="middle" x="202.2369" y="-191.4" font-family="Times,serif" font-size="14.00" fill="#0000ff">0x0BA</text>
        </g>
        <!-- trave&#45;&gt;traver -->
        <g id="edge19" class="edge">
            <title>trave&#45;&gt;traver</title>
            <path fill="none" stroke="#add8e6" d="M185.324,-268.32C180.3995,-262.5605 175.6543,-255.6784 173.0763,-248.4 170.5834,-241.3618 170.5834,-238.6382 173.0763,-231.6 174.4962,-227.5912 176.5735,-223.7026 178.9762,-220.0556"/>
            <polygon fill="#add8e6" stroke="#add8e6" points="185.0164,-212.0415 182.5911,-222.7358 182.007,-216.0344 178.9975,-220.0273 178.9975,-220.0273 178.9975,-220.0273 182.007,-216.0344 175.4039,-217.3188 185.0164,-212.0415 185.0164,-212.0415"/>
            <text text-anchor="middle" x="177.3172" y="-235.8" font-family="Times,serif" font-size="14.00" fill="#0000ff"> r</text>
        </g>
        <!-- trave&#45;&gt;traver -->
        <g id="edge32" class="edge">
            <title>trave&#45;&gt;traver</title>
            <path fill="none" stroke="#0000ff" d="M202.2369,-266.0006C202.2369,-253.8949 202.2369,-237.8076 202.2369,-224.0674"/>
            <polygon fill="#0000ff" stroke="#0000ff" points="205.737,-223.672 202.2369,-213.672 198.737,-223.6721 205.737,-223.672"/>
            <text text-anchor="middle" x="206.3172" y="-235.8" font-family="Times,serif" font-size="14.00" fill="#000000"> r</text>
        </g>
        <!-- traver&#45;&gt;trave -->
        <g id="edge37" class="edge">
            <title>traver&#45;&gt;trave</title>
            <path fill="none" stroke="#ffc0cb" d="M207.6937,-213.7509C209.1467,-219.4136 210.5127,-225.7174 211.2369,-231.6 212.1492,-239.0107 212.1492,-240.9893 211.2369,-248.4 210.9201,-250.9736 210.4804,-253.6279 209.9643,-256.2738"/>
            <polygon fill="#ffc0cb" stroke="#ffc0cb" points="207.6937,-266.2491 205.5255,-255.4997 208.8035,-261.3738 209.9132,-256.4985 209.9132,-256.4985 209.9132,-256.4985 208.8035,-261.3738 214.301,-257.4973 207.6937,-266.2491 207.6937,-266.2491"/>
            <text text-anchor="middle" x="232.4585" y="-235.8" font-family="Times,serif" font-size="14.00" fill="#ff0000">0x0BA</text>
        </g>
        <!-- travers -->
        <g id="node17" class="node">
            <title>travers</title>
            <ellipse fill="none" stroke="#0000ff" cx="203.2369" cy="-106.8" rx="38.305" ry="18"/>
            <text text-anchor="middle" x="203.2369" y="-102.6" font-family="Times,serif" font-size="14.00" fill="#0000ff">0x0BB</text>
        </g>
        <!-- traver&#45;&gt;travers -->
        <g id="edge20" class="edge">
            <title>traver&#45;&gt;travers</title>
            <path fill="none" stroke="#add8e6" d="M183.9854,-179.6658C174.6965,-169.5397 166.3137,-155.9116 171.2923,-142.8 172.9385,-138.4645 175.3723,-134.3169 178.1749,-130.4793"/>
            <polygon fill="#add8e6" stroke="#add8e6" points="184.7367,-122.6213 181.7812,-133.1814 181.5319,-126.4592 178.3271,-130.2971 178.3271,-130.2971 178.3271,-130.2971 181.5319,-126.4592 174.873,-127.4128 184.7367,-122.6213 184.7367,-122.6213"/>
            <text text-anchor="middle" x="176.7092" y="-147" font-family="Times,serif" font-size="14.00" fill="#0000ff"> s</text>
        </g>
        <!-- traver&#45;&gt;travers -->
        <g id="edge33" class="edge">
            <title>traver&#45;&gt;travers</title>
            <path fill="none" stroke="#0000ff" d="M202.4441,-177.2006C202.5804,-165.0949 202.7616,-149.0076 202.9163,-135.2674"/>
            <polygon fill="#0000ff" stroke="#0000ff" points="206.4205,-134.9108 203.0334,-124.872 199.4209,-134.8319 206.4205,-134.9108"/>
            <text text-anchor="middle" x="207.7092" y="-147" font-family="Times,serif" font-size="14.00" fill="#000000"> s</text>
        </g>
        <!-- travers&#45;&gt;traver -->
        <g id="edge36" class="edge">
            <title>travers&#45;&gt;traver</title>
            <path fill="none" stroke="#ffc0cb" d="M209.0666,-124.8376C211.6638,-135.0186 213.8193,-147.9908 212.2369,-159.6 211.8717,-162.2793 211.3602,-165.0407 210.7599,-167.7863"/>
            <polygon fill="#ffc0cb" stroke="#ffc0cb" points="208.2983,-177.4866 206.3963,-166.6869 209.5282,-172.6402 210.758,-167.7938 210.758,-167.7938 210.758,-167.7938 209.5282,-172.6402 215.1198,-168.9007 208.2983,-177.4866 208.2983,-177.4866"/>
            <text text-anchor="middle" x="233.0735" y="-147" font-family="Times,serif" font-size="14.00" fill="#ff0000">0x0BB</text>
        </g>
        <!-- traverse -->
        <g id="node18" class="node">
            <title>traverse</title>
            <ellipse fill="none" stroke="#0000ff" cx="203.2369" cy="-18" rx="73.4745" ry="18"/>
            <text text-anchor="middle" x="203.2369" y="-13.8" font-family="Times,serif" font-size="14.00" fill="#0000ff">contentArray[3]</text>
        </g>
        <!-- travers&#45;&gt;traverse -->
        <g id="edge21" class="edge">
            <title>travers&#45;&gt;traverse</title>
            <path fill="none" stroke="#add8e6" d="M184.8676,-90.9569C179.5135,-85.2132 174.3474,-78.2805 171.5223,-70.8 168.8843,-63.8149 168.8843,-60.9851 171.5223,-54 172.8668,-50.4399 174.7415,-47.004 176.9144,-43.7612"/>
            <polygon fill="#add8e6" stroke="#add8e6" points="183.203,-35.676 180.6155,-46.3323 180.1332,-39.6227 177.0634,-43.5695 177.0634,-43.5695 177.0634,-43.5695 180.1332,-39.6227 173.5114,-40.8067 183.203,-35.676 183.203,-35.676"/>
            <text text-anchor="middle" x="177.0942" y="-58.2" font-family="Times,serif" font-size="14.00" fill="#0000ff"> e</text>
        </g>
        <!-- travers&#45;&gt;traverse -->
        <g id="edge34" class="edge">
            <title>travers&#45;&gt;traverse</title>
            <path fill="none" stroke="#0000ff" d="M203.2369,-88.4006C203.2369,-76.2949 203.2369,-60.2076 203.2369,-46.4674"/>
            <polygon fill="#0000ff" stroke="#0000ff" points="206.737,-46.072 203.2369,-36.072 199.737,-46.0721 206.737,-46.072"/>
            <text text-anchor="middle" x="208.0942" y="-58.2" font-family="Times,serif" font-size="14.00" fill="#000000"> e</text>
        </g>
        <!-- traverse&#45;&gt;travers -->
        <g id="edge35" class="edge">
            <title>traverse&#45;&gt;travers</title>
            <path fill="none" stroke="#ffc0cb" d="M209.9024,-36.0722C211.6782,-41.7317 213.3487,-48.0535 214.2369,-54 215.3399,-61.3847 215.3399,-63.4153 214.2369,-70.8 213.8344,-73.4945 213.2713,-76.2661 212.6106,-79.0181"/>
            <polygon fill="#ffc0cb" stroke="#ffc0cb" points="209.9024,-88.7278 208.2546,-77.8864 211.2458,-83.9116 212.5891,-79.0954 212.5891,-79.0954 212.5891,-79.0954 211.2458,-83.9116 216.9237,-80.3044 209.9024,-88.7278 209.9024,-88.7278"/>
            <text text-anchor="middle" x="224.2732" y="-58.2" font-family="Times,serif" font-size="14.00" fill="#ff0000"> ~3</text>
        </g>
        <!-- tra2&#45;&gt;trac -->
        <g id="edge29" class="edge">
            <title>tra2&#45;&gt;trac</title>
            <path fill="none" stroke="#0000ff" d="M208.0507,-474.7233C183.1741,-455.0282 146.5501,-426.0326 121.6137,-406.2901"/>
            <polygon fill="#0000ff" stroke="#0000ff" points="123.6518,-403.4396 113.6389,-399.9764 119.3067,-408.9278 123.6518,-403.4396"/>
            <text text-anchor="middle" x="178.0942" y="-436.2313" font-family="Times,serif" font-size="14.00" fill="#000000"> c</text>
        </g>
        <!-- tra2&#45;&gt;tre -->
        <!-- tra2&#45;&gt;tr -->
        <g id="edge40" class="edge">
            <title>tra2&#45;&gt;tr</title>
            <path fill="none" stroke="#ffc0cb" d="M233.9039,-526.0074C233.3268,-538.8926 232.6427,-554.1663 232.0226,-568.0109"/>
            <polygon fill="#ffc0cb" stroke="#ffc0cb" points="231.5637,-578.2562 227.5157,-568.0648 231.7874,-573.2612 232.0112,-568.2662 232.0112,-568.2662 232.0112,-568.2662 231.7874,-573.2612 236.5067,-568.4676 231.5637,-578.2562 231.5637,-578.2562"/>
            <text text-anchor="middle" x="253.0665" y="-547.8626" font-family="Times,serif" font-size="14.00" fill="#ff0000">0x0DE</text>
        </g>
        <!-- tra2&#45;&gt;trav -->
        <g id="edge30" class="edge">
            <title>tra2&#45;&gt;trav</title>
            <path fill="none" stroke="#0000ff" d="M214.7335,-471.0228C210.2756,-464.2044 206.1695,-456.5615 203.7369,-448.8313 201.3127,-441.1275 200.14,-432.6433 199.7048,-424.4366"/>
            <polygon fill="#0000ff" stroke="#0000ff" points="203.201,-424.2005 199.5092,-414.2697 196.2023,-424.3352 203.201,-424.2005"/>
            <text text-anchor="middle" x="209.4869" y="-436.2313" font-family="Times,serif" font-size="14.00" fill="#000000"> v</text>
        </g>
    </g>
</svg>
