<?xml version="1.0" encoding="UTF-8" standalone="no"?>
<!DOCTYPE svg PUBLIC "-//W3C//DTD SVG 1.1//EN"
        "http://www.w3.org/Graphics/SVG/1.1/DTD/svg11.dtd">
<!---
 Licensed to the Apache Software Foundation (ASF) under one
 or more contributor license agreements.  See the NOTICE file
 distributed with this work for additional information
 regarding copyright ownership.  The ASF licenses this file
 to you under the Apache License, Version 2.0 (the
 "License"); you may not use this file except in compliance
 with the License.  You may obtain a copy of the License at

     http://www.apache.org/licenses/LICENSE-2.0

 Unless required by applicable law or agreed to in writing, software
 distributed under the License is distributed on an "AS IS" BASIS,
 WITHOUT WARRANTIES OR CONDITIONS OF ANY KIND, either express or implied.
 See the License for the specific language governing permissions and
 limitations under the License.
-->

<!-- Generated by graphviz version 2.40.1 (20161225.0304)
# embedded DOT (plantuml) works in IDEA preview
# but not on GitHub
```plantuml
digraph G {
    { rank=same root -> start [style=invis] }
    start [label="start/end"]

    tractor [label = "contentArray[0]"]
    tracto [label = "0x01B"]
    tract [label = "0x01A"]
    trac [label = "0x019"]
    tra [label = "Chain\n0x018"]

    tree [label = "contentArray[1]"]
    tre [label = "Chain\n0x03B"]
    trie [label = "contentArray[2]"]
    tri [label = "Chain\n0x05B"]

    tr [label = "Sparse\n0x07E"]

    t [label = "0x09B"]
    root [label = "Chain\n0x9A"]

    root -> t [label = " t"]
    t -> tr [label = " r"]
    tr -> tra [label = " a"]
    tra -> trac [label = " c"]
    trac -> tract [label = " t"]
    tract -> tracto [label = " o"]
    tracto -> tractor [label = " r"]

    tr -> tre [label = " e"]
    tre -> tree [label = " e"]

    tr -> tri [label = " i"]
    tri -> trie [label = " e"]

    // {rank=same tra -> tre -> tri [style=invis]}
    {rank=same trac -> tree -> trie [style=invis]}

    subgraph path {
        edge [color = "lightblue"; fontcolor="blue"; arrowhead="vee"]
        node [color = "lightblue"; fontcolor="blue"]

        start -> root

        root -> t [label = " t"]
        t -> tr [label = " r"]
        tr -> tra [label = " a"]
        tra -> trav [label = " v"]
        trav -> trave [label = " e"]
        trave -> traver [label = " r"]
        traver -> travers [label = " s"]
        travers -> traverse [label = " e"]

        trav [label = "NONE"]
        trave [label = "NONE"]
        traver [label = "NONE"]
        travers [label = "NONE"]
        traverse [label = "NONE"]
    }
}
```
 -->
<!-- Title: G Pages: 1 -->
<svg width="575pt" height="823pt"
     viewBox="0.00 0.00 575.47 822.89" xmlns="http://www.w3.org/2000/svg" xmlns:xlink="http://www.w3.org/1999/xlink">
    <g id="graph0" class="graph" transform="scale(1 1) rotate(0) translate(4 818.8939)">
        <title>G</title>
        <polygon fill="#ffffff" stroke="transparent" points="-4,4 -4,-818.8939 571.4738,-818.8939 571.4738,4 -4,4"/>
        <!-- root -->
        <g id="node1" class="node">
            <title>root</title>
            <ellipse fill="none" stroke="#000000" cx="279.2369" cy="-785.4782" rx="33.1337" ry="29.3315"/>
            <text text-anchor="middle" x="279.2369" y="-789.6782" font-family="Times,serif" font-size="14.00" fill="#000000">Chain</text>
            <text text-anchor="middle" x="279.2369" y="-772.8782" font-family="Times,serif" font-size="14.00" fill="#000000">0x9A</text>
        </g>
        <!-- start -->
        <g id="node2" class="node">
            <title>start</title>
            <ellipse fill="none" stroke="#000000" cx="392.2369" cy="-785.4782" rx="44.0775" ry="18"/>
            <text text-anchor="middle" x="392.2369" y="-781.2782" font-family="Times,serif" font-size="14.00" fill="#000000">start/end</text>
        </g>
        <!-- root&#45;&gt;start -->
        <!-- t -->
        <g id="node13" class="node">
            <title>t</title>
            <ellipse fill="none" stroke="#000000" cx="279.2369" cy="-685.2626" rx="36.5824" ry="18"/>
            <text text-anchor="middle" x="279.2369" y="-681.0626" font-family="Times,serif" font-size="14.00" fill="#000000">0x09B</text>
        </g>
        <!-- root&#45;&gt;t -->
        <g id="edge2" class="edge">
            <title>root&#45;&gt;t</title>
            <path fill="none" stroke="#000000" d="M269.3368,-757.0824C266.6104,-745.9368 264.8794,-733.0211 266.8463,-721.2626 267.3268,-718.39 268.009,-715.4398 268.8091,-712.5238"/>
            <polygon fill="#000000" stroke="#000000" points="272.1732,-713.494 271.8627,-702.9037 265.5012,-711.3762 272.1732,-713.494"/>
            <text text-anchor="middle" x="270.9322" y="-725.4626" font-family="Times,serif" font-size="14.00" fill="#000000"> t</text>
        </g>
        <!-- root&#45;&gt;t -->
        <g id="edge16" class="edge">
            <title>root&#45;&gt;t</title>
            <path fill="none" stroke="#add8e6" d="M279.2369,-755.9522C279.2369,-742.4671 279.2369,-726.5749 279.2369,-713.2779"/>
            <polygon fill="#add8e6" stroke="#add8e6" points="279.2369,-703.2659 283.737,-713.2659 279.2369,-708.2659 279.237,-713.2659 279.237,-713.2659 279.237,-713.2659 279.2369,-708.2659 274.737,-713.2659 279.2369,-703.2659 279.2369,-703.2659"/>
            <text text-anchor="middle" x="282.9322" y="-725.4626" font-family="Times,serif" font-size="14.00" fill="#0000ff"> t</text>
        </g>
        <!-- start&#45;&gt;root -->
        <g id="edge15" class="edge">
            <title>start&#45;&gt;root</title>
            <path fill="none" stroke="#add8e6" d="M367.6112,-800.5185C350.7348,-807.9537 333.8585,-809.4839 316.9821,-805.109"/>
            <polygon fill="#add8e6" stroke="#add8e6" points="307.0455,-801.8508 317.9498,-800.6907 311.7966,-803.4087 316.5477,-804.9667 316.5477,-804.9667 316.5477,-804.9667 311.7966,-803.4087 315.1456,-809.2427 307.0455,-801.8508 307.0455,-801.8508"/>
        </g>
        <!-- tractor -->
        <g id="node3" class="node">
            <title>tractor</title>
            <ellipse fill="none" stroke="#000000" cx="73.2369" cy="-106.8" rx="73.4745" ry="18"/>
            <text text-anchor="middle" x="73.2369" y="-102.6" font-family="Times,serif" font-size="14.00" fill="#000000">contentArray[0]</text>
        </g>
        <!-- tracto -->
        <g id="node4" class="node">
            <title>tracto</title>
            <ellipse fill="none" stroke="#000000" cx="91.2369" cy="-195.6" rx="36.5824" ry="18"/>
            <text text-anchor="middle" x="91.2369" y="-191.4" font-family="Times,serif" font-size="14.00" fill="#000000">0x01B</text>
        </g>
        <!-- tracto&#45;&gt;tractor -->
        <g id="edge8" class="edge">
            <title>tracto&#45;&gt;tractor</title>
            <path fill="none" stroke="#000000" d="M87.5943,-177.63C85.1221,-165.4338 81.802,-149.0543 78.9772,-135.1187"/>
            <polygon fill="#000000" stroke="#000000" points="82.3528,-134.1534 76.9358,-125.0481 75.4923,-135.5441 82.3528,-134.1534"/>
            <text text-anchor="middle" x="88.3172" y="-147" font-family="Times,serif" font-size="14.00" fill="#000000"> r</text>
        </g>
        <!-- tract -->
        <g id="node5" class="node">
            <title>tract</title>
            <ellipse fill="none" stroke="#000000" cx="91.2369" cy="-284.4" rx="37.1443" ry="18"/>
            <text text-anchor="middle" x="91.2369" y="-280.2" font-family="Times,serif" font-size="14.00" fill="#000000">0x01A</text>
        </g>
        <!-- tract&#45;&gt;tracto -->
        <g id="edge7" class="edge">
            <title>tract&#45;&gt;tracto</title>
            <path fill="none" stroke="#000000" d="M91.2369,-266.0006C91.2369,-253.8949 91.2369,-237.8076 91.2369,-224.0674"/>
            <polygon fill="#000000" stroke="#000000" points="94.737,-223.672 91.2369,-213.672 87.737,-223.6721 94.737,-223.672"/>
            <text text-anchor="middle" x="96.4869" y="-235.8" font-family="Times,serif" font-size="14.00" fill="#000000"> o</text>
        </g>
        <!-- trac -->
        <g id="node6" class="node">
            <title>trac</title>
            <ellipse fill="none" stroke="#000000" cx="92.2369" cy="-373.2" rx="35.3587" ry="18"/>
            <text text-anchor="middle" x="92.2369" y="-369" font-family="Times,serif" font-size="14.00" fill="#000000">0x019</text>
        </g>
        <!-- trac&#45;&gt;tract -->
        <g id="edge6" class="edge">
            <title>trac&#45;&gt;tract</title>
            <path fill="none" stroke="#000000" d="M92.0297,-354.8006C91.8934,-342.6949 91.7122,-326.6076 91.5575,-312.8674"/>
            <polygon fill="#000000" stroke="#000000" points="95.0529,-312.4319 91.4404,-302.472 88.0533,-312.5108 95.0529,-312.4319"/>
            <text text-anchor="middle" x="95.9322" y="-324.6" font-family="Times,serif" font-size="14.00" fill="#000000"> t</text>
        </g>
        <!-- tree -->
        <g id="node8" class="node">
            <title>tree</title>
            <ellipse fill="none" stroke="#000000" cx="312.2369" cy="-373.2" rx="73.4745" ry="18"/>
            <text text-anchor="middle" x="312.2369" y="-369" font-family="Times,serif" font-size="14.00" fill="#000000">contentArray[1]</text>
        </g>
        <!-- trac&#45;&gt;tree -->
        <!-- tra -->
        <g id="node7" class="node">
            <title>tra</title>
            <ellipse fill="none" stroke="#000000" cx="203.2369" cy="-473.4156" rx="36.125" ry="29.3315"/>
            <text text-anchor="middle" x="203.2369" y="-477.6156" font-family="Times,serif" font-size="14.00" fill="#000000">Chain</text>
            <text text-anchor="middle" x="203.2369" y="-460.8156" font-family="Times,serif" font-size="14.00" fill="#000000">0x018</text>
        </g>
        <!-- tra&#45;&gt;trac -->
        <g id="edge5" class="edge">
            <title>tra&#45;&gt;trac</title>
            <path fill="none" stroke="#000000" d="M178.8775,-451.4229C160.5618,-434.8867 135.5561,-412.3105 117.1156,-395.6616"/>
            <polygon fill="#000000" stroke="#000000" points="119.421,-393.0276 109.6531,-388.9241 114.7301,-398.2233 119.421,-393.0276"/>
            <text text-anchor="middle" x="153.0942" y="-413.4" font-family="Times,serif" font-size="14.00" fill="#000000"> c</text>
        </g>
        <!-- trav -->
        <g id="node14" class="node">
            <title>trav</title>
            <ellipse fill="none" stroke="#add8e6" cx="183.2369" cy="-373.2" rx="37.7006" ry="18"/>
            <text text-anchor="middle" x="183.2369" y="-369" font-family="Times,serif" font-size="14.00" fill="#0000ff">NONE</text>
        </g>
        <!-- tra&#45;&gt;trav -->
        <g id="edge19" class="edge">
            <title>tra&#45;&gt;trav</title>
            <path fill="none" stroke="#add8e6" d="M197.3983,-444.1597C194.7054,-430.666 191.5224,-414.7168 188.8568,-401.3604"/>
            <polygon fill="#add8e6" stroke="#add8e6" points="186.8493,-391.3011 193.2195,-400.227 187.8279,-396.2044 188.8065,-401.1078 188.8065,-401.1078 188.8065,-401.1078 187.8279,-396.2044 184.3935,-401.9885 186.8493,-391.3011 186.8493,-391.3011"/>
            <text text-anchor="middle" x="198.4869" y="-413.4" font-family="Times,serif" font-size="14.00" fill="#0000ff"> v</text>
        </g>
        <!-- trie -->
        <g id="node10" class="node">
            <title>trie</title>
            <ellipse fill="none" stroke="#000000" cx="494.2369" cy="-373.2" rx="73.4745" ry="18"/>
            <text text-anchor="middle" x="494.2369" y="-369" font-family="Times,serif" font-size="14.00" fill="#000000">contentArray[2]</text>
        </g>
        <!-- tree&#45;&gt;trie -->
        <!-- tre -->
        <g id="node9" class="node">
            <title>tre</title>
            <ellipse fill="none" stroke="#000000" cx="304.2369" cy="-473.4156" rx="37.9306" ry="29.3315"/>
            <text text-anchor="middle" x="304.2369" y="-477.6156" font-family="Times,serif" font-size="14.00" fill="#000000">Chain</text>
            <text text-anchor="middle" x="304.2369" y="-460.8156" font-family="Times,serif" font-size="14.00" fill="#000000">0x03B</text>
        </g>
        <!-- tre&#45;&gt;tree -->
        <g id="edge10" class="edge">
            <title>tre&#45;&gt;tree</title>
            <path fill="none" stroke="#000000" d="M306.5939,-443.8897C307.6704,-430.4046 308.939,-414.5123 310.0005,-401.2153"/>
            <polygon fill="#000000" stroke="#000000" points="313.4928,-401.4502 310.7997,-391.2033 306.515,-400.8931 313.4928,-401.4502"/>
            <text text-anchor="middle" x="314.0942" y="-413.4" font-family="Times,serif" font-size="14.00" fill="#000000"> e</text>
        </g>
        <!-- tri -->
        <g id="node11" class="node">
            <title>tri</title>
            <ellipse fill="none" stroke="#000000" cx="446.2369" cy="-473.4156" rx="37.9306" ry="29.3315"/>
            <text text-anchor="middle" x="446.2369" y="-477.6156" font-family="Times,serif" font-size="14.00" fill="#000000">Chain</text>
            <text text-anchor="middle" x="446.2369" y="-460.8156" font-family="Times,serif" font-size="14.00" fill="#000000">0x05B</text>
        </g>
        <!-- tri&#45;&gt;trie -->
        <g id="edge12" class="edge">
            <title>tri&#45;&gt;trie</title>
            <path fill="none" stroke="#000000" d="M459.4802,-445.766C466.2441,-431.6441 474.4452,-414.5215 481.1822,-400.456"/>
            <polygon fill="#000000" stroke="#000000" points="484.4134,-401.812 485.5766,-391.2812 478.1002,-398.7881 484.4134,-401.812"/>
            <text text-anchor="middle" x="480.0942" y="-413.4" font-family="Times,serif" font-size="14.00" fill="#000000"> e</text>
        </g>
        <!-- tr -->
        <g id="node12" class="node">
            <title>tr</title>
            <ellipse fill="none" stroke="#000000" cx="279.2369" cy="-585.0469" rx="37.9027" ry="29.3315"/>
            <text text-anchor="middle" x="279.2369" y="-589.2469" font-family="Times,serif" font-size="14.00" fill="#000000">Sparse</text>
            <text text-anchor="middle" x="279.2369" y="-572.4469" font-family="Times,serif" font-size="14.00" fill="#000000">0x07E</text>
        </g>
        <!-- tr&#45;&gt;tra -->
        <g id="edge4" class="edge">
            <title>tr&#45;&gt;tra</title>
            <path fill="none" stroke="#000000" d="M252.4549,-564.0846C243.9686,-556.4495 235.0956,-547.3003 228.5223,-537.6313 223.1796,-529.7724 218.7204,-520.6194 215.11,-511.7284"/>
            <polygon fill="#000000" stroke="#000000" points="218.3382,-510.37 211.5239,-502.2573 211.7918,-512.8487 218.3382,-510.37"/>
            <text text-anchor="middle" x="234.0942" y="-525.0313" font-family="Times,serif" font-size="14.00" fill="#000000"> a</text>
        </g>
        <!-- tr&#45;&gt;tra -->
        <g id="edge18" class="edge">
            <title>tr&#45;&gt;tra</title>
            <path fill="none" stroke="#add8e6" d="M262.877,-558.5399C255.5232,-546.8584 246.6268,-533.0409 238.2369,-520.8313 235.1223,-516.2987 231.7727,-511.5792 228.424,-506.9511"/>
            <polygon fill="#add8e6" stroke="#add8e6" points="222.4485,-498.7793 231.9836,-504.1952 225.3998,-502.8154 228.3512,-506.8514 228.3512,-506.8514 228.3512,-506.8514 225.3998,-502.8154 224.7187,-509.5077 222.4485,-498.7793 222.4485,-498.7793"/>
            <text text-anchor="middle" x="254.0942" y="-525.0313" font-family="Times,serif" font-size="14.00" fill="#0000ff"> a</text>
        </g>
        <!-- tr&#45;&gt;tre -->
        <g id="edge9" class="edge">
            <title>tr&#45;&gt;tre</title>
            <path fill="none" stroke="#000000" d="M285.7401,-556.0085C288.6971,-542.8046 292.2409,-526.9807 295.4318,-512.7327"/>
            <polygon fill="#000000" stroke="#000000" points="298.9093,-513.2196 297.6794,-502.6964 292.0785,-511.6898 298.9093,-513.2196"/>
            <text text-anchor="middle" x="298.0942" y="-525.0313" font-family="Times,serif" font-size="14.00" fill="#000000"> e</text>
        </g>
        <!-- tr&#45;&gt;tri -->
        <g id="edge11" class="edge">
            <title>tr&#45;&gt;tri</title>
            <path fill="none" stroke="#000000" d="M307.9452,-565.8568C335.7854,-547.247 378.1751,-518.9116 408.6826,-498.5188"/>
            <polygon fill="#000000" stroke="#000000" points="410.9757,-501.196 417.3443,-492.7289 407.0856,-495.3764 410.9757,-501.196"/>
            <text text-anchor="middle" x="376.9322" y="-525.0313" font-family="Times,serif" font-size="14.00" fill="#000000"> i</text>
        </g>
        <!-- t&#45;&gt;tr -->
        <g id="edge3" class="edge">
            <title>t&#45;&gt;tr</title>
            <path fill="none" stroke="#000000" d="M271.4066,-667.6591C269.2309,-661.9119 267.1669,-655.422 266.0763,-649.2626 264.5952,-640.8975 265.0969,-631.9507 266.5509,-623.4728"/>
            <polygon fill="#000000" stroke="#000000" points="270.0289,-623.9493 268.7277,-613.4347 263.1879,-622.4658 270.0289,-623.9493"/>
            <text text-anchor="middle" x="270.3172" y="-636.6626" font-family="Times,serif" font-size="14.00" fill="#000000"> r</text>
        </g>
        <!-- t&#45;&gt;tr -->
        <g id="edge17" class="edge">
            <title>t&#45;&gt;tr</title>
            <path fill="none" stroke="#add8e6" d="M279.2369,-666.8815C279.2369,-655.1502 279.2369,-639.4774 279.2369,-624.9885"/>
            <polygon fill="#add8e6" stroke="#add8e6" points="279.2369,-614.7209 283.737,-624.7208 279.2369,-619.7209 279.237,-624.7209 279.237,-624.7209 279.237,-624.7209 279.2369,-619.7209 274.737,-624.7209 279.2369,-614.7209 279.2369,-614.7209"/>
            <text text-anchor="middle" x="283.3172" y="-636.6626" font-family="Times,serif" font-size="14.00" fill="#0000ff"> r</text>
        </g>
        <!-- trave -->
        <g id="node15" class="node">
            <title>trave</title>
            <ellipse fill="none" stroke="#add8e6" cx="188.2369" cy="-284.4" rx="37.7006" ry="18"/>
            <text text-anchor="middle" x="188.2369" y="-280.2" font-family="Times,serif" font-size="14.00" fill="#0000ff">NONE</text>
        </g>
        <!-- trav&#45;&gt;trave -->
        <g id="edge20" class="edge">
            <title>trav&#45;&gt;trave</title>
            <path fill="none" stroke="#add8e6" d="M184.2729,-354.8006C184.9613,-342.575 185.8783,-326.2887 186.6569,-312.4599"/>
            <polygon fill="#add8e6" stroke="#add8e6" points="187.2193,-302.472 191.1499,-312.7092 186.9382,-307.4641 186.6571,-312.4562 186.6571,-312.4562 186.6571,-312.4562 186.9382,-307.4641 182.1642,-312.2032 187.2193,-302.472 187.2193,-302.472"/>
            <text text-anchor="middle" x="191.0942" y="-324.6" font-family="Times,serif" font-size="14.00" fill="#0000ff"> e</text>
        </g>
        <!-- traver -->
        <g id="node16" class="node">
            <title>traver</title>
            <ellipse fill="none" stroke="#add8e6" cx="193.2369" cy="-195.6" rx="37.7006" ry="18"/>
            <text text-anchor="middle" x="193.2369" y="-191.4" font-family="Times,serif" font-size="14.00" fill="#0000ff">NONE</text>
        </g>
        <!-- trave&#45;&gt;traver -->
        <g id="edge21" class="edge">
            <title>trave&#45;&gt;traver</title>
            <path fill="none" stroke="#add8e6" d="M189.2729,-266.0006C189.9613,-253.775 190.8783,-237.4887 191.6569,-223.6599"/>
            <polygon fill="#add8e6" stroke="#add8e6" points="192.2193,-213.672 196.1499,-223.9092 191.9382,-218.6641 191.6571,-223.6562 191.6571,-223.6562 191.6571,-223.6562 191.9382,-218.6641 187.1642,-223.4032 192.2193,-213.672 192.2193,-213.672"/>
            <text text-anchor="middle" x="195.3172" y="-235.8" font-family="Times,serif" font-size="14.00" fill="#0000ff"> r</text>
        </g>
        <!-- travers -->
        <g id="node17" class="node">
            <title>travers</title>
            <ellipse fill="none" stroke="#add8e6" cx="202.2369" cy="-106.8" rx="37.7006" ry="18"/>
            <text text-anchor="middle" x="202.2369" y="-102.6" font-family="Times,serif" font-size="14.00" fill="#0000ff">NONE</text>
        </g>
        <!-- traver&#45;&gt;travers -->
        <g id="edge22" class="edge">
            <title>traver&#45;&gt;travers</title>
            <path fill="none" stroke="#add8e6" d="M195.1017,-177.2006C196.3408,-164.975 197.9914,-148.6887 199.393,-134.8599"/>
            <polygon fill="#add8e6" stroke="#add8e6" points="200.4053,-124.872 203.8739,-135.2748 199.901,-129.8465 199.3968,-134.821 199.3968,-134.821 199.3968,-134.821 199.901,-129.8465 194.9198,-134.3673 200.4053,-124.872 200.4053,-124.872"/>
            <text text-anchor="middle" x="203.7092" y="-147" font-family="Times,serif" font-size="14.00" fill="#0000ff"> s</text>
        </g>
        <!-- traverse -->
        <g id="node18" class="node">
            <title>traverse</title>
            <ellipse fill="none" stroke="#add8e6" cx="202.2369" cy="-18" rx="37.7006" ry="18"/>
            <text text-anchor="middle" x="202.2369" y="-13.8" font-family="Times,serif" font-size="14.00" fill="#0000ff">NONE</text>
        </g>
        <!-- travers&#45;&gt;traverse -->
        <g id="edge23" class="edge">
            <title>travers&#45;&gt;traverse</title>
            <path fill="none" stroke="#add8e6" d="M202.2369,-88.4006C202.2369,-76.2949 202.2369,-60.2076 202.2369,-46.4674"/>
            <polygon fill="#add8e6" stroke="#add8e6" points="202.2369,-36.072 206.737,-46.072 202.2369,-41.072 202.237,-46.072 202.237,-46.072 202.237,-46.072 202.2369,-41.072 197.737,-46.0721 202.2369,-36.072 202.2369,-36.072"/>
            <text text-anchor="middle" x="207.0942" y="-58.2" font-family="Times,serif" font-size="14.00" fill="#0000ff"> e</text>
        </g>
    </g>
</svg>
