<?xml version="1.0" encoding="UTF-8" standalone="no"?>
<!DOCTYPE svg PUBLIC "-//W3C//DTD SVG 1.1//EN"
        "http://www.w3.org/Graphics/SVG/1.1/DTD/svg11.dtd">
<!---
 Licensed to the Apache Software Foundation (ASF) under one
 or more contributor license agreements.  See the NOTICE file
 distributed with this work for additional information
 regarding copyright ownership.  The ASF licenses this file
 to you under the Apache License, Version 2.0 (the
 "License"); you may not use this file except in compliance
 with the License.  You may obtain a copy of the License at

     http://www.apache.org/licenses/LICENSE-2.0

 Unless required by applicable law or agreed to in writing, software
 distributed under the License is distributed on an "AS IS" BASIS,
 WITHOUT WARRANTIES OR CONDITIONS OF ANY KIND, either express or implied.
 See the License for the specific language governing permissions and
 limitations under the License.
-->

<!-- Generated by graphviz version 2.40.1 (20161225.0304)
# embedded DOT (plantuml) works in IDEA preview
# but not on GitHub
digraph G {
    { rank=same root -> start [style=invis] }
    start [label="start/end"]

    tractor [label = "contentArray[0]"]
    tracto [label = "0x01B"]
    tract [label = "0x01A"]
    trac [label = "0x019"]
    tra [label = "Chain\n0x018"]

    tree [label = "contentArray[1]"]
    tre [label = "Chain\n0x03B"]
    trie [label = "contentArray[2]"]
    tri [label = "Chain\n0x05B"]

    tr [label = "Sparse\n0x07E"]

    t [label = "0x09B"]
    root [label = "Chain\n0x9A"]

    subgraph path {
        edge [color = "lightblue"; fontcolor="blue"; arrowhead="vee"]

        start -> root
        root -> t [label = " t"]
        t -> tr [label = " r"]
        tr -> tra [label = " a"]
        tra -> trac [label = " c"]
        trac -> tract [label = " t"]
        tract -> tracto [label = " o"]
        tracto -> tractor [label = " r"]

        tr -> tre [label = " e"]
        tre -> tree [label = " e"]

        tr -> tri [label = " i"]
        tri -> trie [label = " e"]

        // {rank=same tra -> tre -> tri [style=invis]}
        {rank=same trac -> tree -> trie [style=invis]}
    }

    subgraph back {
        edge [color = "pink"; fontcolor="blue"; constraint="false"; arrowhead="vee"]
        tractor -> tr
        tree -> tr
        trie -> start
    }
}
 -->
<!-- Title: G Pages: 1 -->
<svg width="480pt" height="734pt"
     viewBox="0.00 0.00 480.47 734.09" xmlns="http://www.w3.org/2000/svg" xmlns:xlink="http://www.w3.org/1999/xlink">
    <g id="graph0" class="graph" transform="scale(1 1) rotate(0) translate(4 730.0939)">
        <title>G</title>
        <polygon fill="#ffffff" stroke="transparent" points="-4,4 -4,-730.0939 476.4738,-730.0939 476.4738,4 -4,4"/>
        <!-- root -->
        <g id="node1" class="node">
            <title>root</title>
            <ellipse fill="none" stroke="#000000" cx="217.2369" cy="-696.6782" rx="34.9213" ry="29.3315"/>
            <text text-anchor="middle" x="217.2369" y="-700.8782" font-family="Times,serif" font-size="14.00" fill="#000000">Chain</text>
            <text text-anchor="middle" x="217.2369" y="-684.0782" font-family="Times,serif" font-size="14.00" fill="#000000">0x9A</text>
        </g>
        <!-- start -->
        <g id="node2" class="node">
            <title>start</title>
            <ellipse fill="none" stroke="#000000" cx="332.2369" cy="-696.6782" rx="44.0775" ry="18"/>
            <text text-anchor="middle" x="332.2369" y="-692.4782" font-family="Times,serif" font-size="14.00" fill="#000000">start/end</text>
        </g>
        <!-- root&#45;&gt;start -->
        <!-- t -->
        <g id="node13" class="node">
            <title>t</title>
            <ellipse fill="none" stroke="#000000" cx="217.2369" cy="-596.4626" rx="36.5824" ry="18"/>
            <text text-anchor="middle" x="217.2369" y="-592.2626" font-family="Times,serif" font-size="14.00" fill="#000000">0x09B</text>
        </g>
        <!-- root&#45;&gt;t -->
        <g id="edge3" class="edge">
            <title>root&#45;&gt;t</title>
            <path fill="none" stroke="#add8e6" d="M217.2369,-667.1522C217.2369,-653.6671 217.2369,-637.7749 217.2369,-624.4779"/>
            <polygon fill="#add8e6" stroke="#add8e6" points="217.2369,-614.4659 221.737,-624.4659 217.2369,-619.4659 217.237,-624.4659 217.237,-624.4659 217.237,-624.4659 217.2369,-619.4659 212.737,-624.4659 217.2369,-614.4659 217.2369,-614.4659"/>
            <text text-anchor="middle" x="220.9322" y="-636.6626" font-family="Times,serif" font-size="14.00" fill="#0000ff"> t</text>
        </g>
        <!-- start&#45;&gt;root -->
        <g id="edge2" class="edge">
            <title>start&#45;&gt;root</title>
            <path fill="none" stroke="#add8e6" d="M307.4351,-711.6056C290.438,-719.0227 273.4409,-720.6565 256.4438,-716.507"/>
            <polygon fill="#add8e6" stroke="#add8e6" points="246.4361,-713.3955 257.3213,-712.0674 251.2107,-714.88 255.9852,-716.3645 255.9852,-716.3645 255.9852,-716.3645 251.2107,-714.88 254.6492,-720.6616 246.4361,-713.3955 246.4361,-713.3955"/>
        </g>
        <!-- tractor -->
        <g id="node3" class="node">
            <title>tractor</title>
            <ellipse fill="none" stroke="#000000" cx="73.2369" cy="-18" rx="73.4745" ry="18"/>
            <text text-anchor="middle" x="73.2369" y="-13.8" font-family="Times,serif" font-size="14.00" fill="#000000">contentArray[0]</text>
        </g>
        <!-- tr -->
        <g id="node12" class="node">
            <title>tr</title>
            <ellipse fill="none" stroke="#000000" cx="217.2369" cy="-496.2469" rx="37.9027" ry="29.3315"/>
            <text text-anchor="middle" x="217.2369" y="-500.4469" font-family="Times,serif" font-size="14.00" fill="#000000">Sparse</text>
            <text text-anchor="middle" x="217.2369" y="-483.6469" font-family="Times,serif" font-size="14.00" fill="#000000">0x07E</text>
        </g>
        <!-- tractor&#45;&gt;tr -->
        <g id="edge16" class="edge">
            <title>tractor&#45;&gt;tr</title>
            <path fill="none" stroke="#ffc0cb" d="M57.5135,-35.7428C46.6571,-49.2423 33.1507,-68.8431 27.2369,-88.8 26.2429,-92.1544 24.6138,-277.4611 29.2369,-302.4 32.9143,-322.2376 56.637,-420.9537 90.2369,-448.8313 113.2626,-467.9355 144.7374,-479.7585 170.592,-486.8207"/>
            <polygon fill="#ffc0cb" stroke="#ffc0cb" points="180.558,-489.3874 169.7517,-491.2511 175.716,-488.1403 170.874,-486.8933 170.874,-486.8933 170.874,-486.8933 175.716,-488.1403 171.9963,-482.5355 180.558,-489.3874 180.558,-489.3874"/>
        </g>
        <!-- tracto -->
        <g id="node4" class="node">
            <title>tracto</title>
            <ellipse fill="none" stroke="#000000" cx="73.2369" cy="-106.8" rx="36.5824" ry="18"/>
            <text text-anchor="middle" x="73.2369" y="-102.6" font-family="Times,serif" font-size="14.00" fill="#000000">0x01B</text>
        </g>
        <!-- tracto&#45;&gt;tractor -->
        <g id="edge9" class="edge">
            <title>tracto&#45;&gt;tractor</title>
            <path fill="none" stroke="#add8e6" d="M73.2369,-88.4006C73.2369,-76.2949 73.2369,-60.2076 73.2369,-46.4674"/>
            <polygon fill="#add8e6" stroke="#add8e6" points="73.2369,-36.072 77.737,-46.072 73.2369,-41.072 73.237,-46.072 73.237,-46.072 73.237,-46.072 73.2369,-41.072 68.737,-46.0721 73.2369,-36.072 73.2369,-36.072"/>
            <text text-anchor="middle" x="77.3172" y="-58.2" font-family="Times,serif" font-size="14.00" fill="#0000ff"> r</text>
        </g>
        <!-- tract -->
        <g id="node5" class="node">
            <title>tract</title>
            <ellipse fill="none" stroke="#000000" cx="73.2369" cy="-195.6" rx="37.1443" ry="18"/>
            <text text-anchor="middle" x="73.2369" y="-191.4" font-family="Times,serif" font-size="14.00" fill="#000000">0x01A</text>
        </g>
        <!-- tract&#45;&gt;tracto -->
        <g id="edge8" class="edge">
            <title>tract&#45;&gt;tracto</title>
            <path fill="none" stroke="#add8e6" d="M73.2369,-177.2006C73.2369,-165.0949 73.2369,-149.0076 73.2369,-135.2674"/>
            <polygon fill="#add8e6" stroke="#add8e6" points="73.2369,-124.872 77.737,-134.872 73.2369,-129.872 73.237,-134.872 73.237,-134.872 73.237,-134.872 73.2369,-129.872 68.737,-134.8721 73.2369,-124.872 73.2369,-124.872"/>
            <text text-anchor="middle" x="78.4869" y="-147" font-family="Times,serif" font-size="14.00" fill="#0000ff"> o</text>
        </g>
        <!-- trac -->
        <g id="node6" class="node">
            <title>trac</title>
            <ellipse fill="none" stroke="#000000" cx="73.2369" cy="-284.4" rx="35.3587" ry="18"/>
            <text text-anchor="middle" x="73.2369" y="-280.2" font-family="Times,serif" font-size="14.00" fill="#000000">0x019</text>
        </g>
        <!-- trac&#45;&gt;tract -->
        <g id="edge7" class="edge">
            <title>trac&#45;&gt;tract</title>
            <path fill="none" stroke="#add8e6" d="M73.2369,-266.0006C73.2369,-253.8949 73.2369,-237.8076 73.2369,-224.0674"/>
            <polygon fill="#add8e6" stroke="#add8e6" points="73.2369,-213.672 77.737,-223.672 73.2369,-218.672 73.237,-223.672 73.237,-223.672 73.237,-223.672 73.2369,-218.672 68.737,-223.6721 73.2369,-213.672 73.2369,-213.672"/>
            <text text-anchor="middle" x="76.9322" y="-235.8" font-family="Times,serif" font-size="14.00" fill="#0000ff"> t</text>
        </g>
        <!-- tree -->
        <g id="node8" class="node">
            <title>tree</title>
            <ellipse fill="none" stroke="#000000" cx="217.2369" cy="-284.4" rx="73.4745" ry="18"/>
            <text text-anchor="middle" x="217.2369" y="-280.2" font-family="Times,serif" font-size="14.00" fill="#000000">contentArray[1]</text>
        </g>
        <!-- trac&#45;&gt;tree -->
        <!-- tra -->
        <g id="node7" class="node">
            <title>tra</title>
            <ellipse fill="none" stroke="#000000" cx="124.2369" cy="-384.6156" rx="36.125" ry="29.3315"/>
            <text text-anchor="middle" x="124.2369" y="-388.8156" font-family="Times,serif" font-size="14.00" fill="#000000">Chain</text>
            <text text-anchor="middle" x="124.2369" y="-372.0156" font-family="Times,serif" font-size="14.00" fill="#000000">0x018</text>
        </g>
        <!-- tra&#45;&gt;trac -->
        <g id="edge6" class="edge">
            <title>tra&#45;&gt;trac</title>
            <path fill="none" stroke="#add8e6" d="M110.3009,-357.2313C103.0163,-342.9169 94.1342,-325.4635 86.8914,-311.2313"/>
            <polygon fill="#add8e6" stroke="#add8e6" points="82.1788,-301.9709 90.7249,-308.8422 84.4465,-306.4271 86.7143,-310.8832 86.7143,-310.8832 86.7143,-310.8832 84.4465,-306.4271 82.7038,-312.9242 82.1788,-301.9709 82.1788,-301.9709"/>
            <text text-anchor="middle" x="104.0942" y="-324.6" font-family="Times,serif" font-size="14.00" fill="#0000ff"> c</text>
        </g>
        <!-- trie -->
        <g id="node10" class="node">
            <title>trie</title>
            <ellipse fill="none" stroke="#000000" cx="399.2369" cy="-284.4" rx="73.4745" ry="18"/>
            <text text-anchor="middle" x="399.2369" y="-280.2" font-family="Times,serif" font-size="14.00" fill="#000000">contentArray[2]</text>
        </g>
        <!-- tree&#45;&gt;trie -->
        <!-- tree&#45;&gt;tr -->
        <g id="edge17" class="edge">
            <title>tree&#45;&gt;tr</title>
            <path fill="none" stroke="#ffc0cb" d="M158.3327,-295.1942C129.7342,-301.5466 99.3858,-310.3083 89.2369,-320.4 77.8256,-331.747 81.481,-339.2647 79.2369,-355.2 75.5906,-381.0917 66.3187,-391.2981 79.2369,-414.0313 98.9655,-448.7494 139.7974,-470.3508 171.9533,-482.6472"/>
            <polygon fill="#ffc0cb" stroke="#ffc0cb" points="181.6212,-486.1688 170.6849,-486.9744 176.9232,-484.4574 172.2251,-482.7461 172.2251,-482.7461 172.2251,-482.7461 176.9232,-484.4574 173.7653,-478.5179 181.6212,-486.1688 181.6212,-486.1688"/>
        </g>
        <!-- tre -->
        <g id="node9" class="node">
            <title>tre</title>
            <ellipse fill="none" stroke="#000000" cx="217.2369" cy="-384.6156" rx="37.9306" ry="29.3315"/>
            <text text-anchor="middle" x="217.2369" y="-388.8156" font-family="Times,serif" font-size="14.00" fill="#000000">Chain</text>
            <text text-anchor="middle" x="217.2369" y="-372.0156" font-family="Times,serif" font-size="14.00" fill="#000000">0x03B</text>
        </g>
        <!-- tre&#45;&gt;tree -->
        <g id="edge11" class="edge">
            <title>tre&#45;&gt;tree</title>
            <path fill="none" stroke="#add8e6" d="M217.2369,-355.0897C217.2369,-341.6046 217.2369,-325.7123 217.2369,-312.4153"/>
            <polygon fill="#add8e6" stroke="#add8e6" points="217.2369,-302.4033 221.737,-312.4033 217.2369,-307.4033 217.237,-312.4033 217.237,-312.4033 217.237,-312.4033 217.2369,-307.4033 212.737,-312.4034 217.2369,-302.4033 217.2369,-302.4033"/>
            <text text-anchor="middle" x="222.0942" y="-324.6" font-family="Times,serif" font-size="14.00" fill="#0000ff"> e</text>
        </g>
        <!-- trie&#45;&gt;start -->
        <g id="edge18" class="edge">
            <title>trie&#45;&gt;start</title>
            <path fill="none" stroke="#ffc0cb" d="M398.5378,-302.5097C397.4092,-327.6379 394.7326,-374.4581 389.2369,-414.0313 376.1548,-508.2316 351.0965,-618.2848 339.0431,-668.779"/>
            <polygon fill="#ffc0cb" stroke="#ffc0cb" points="336.6774,-678.6227 334.6388,-667.848 337.8458,-673.7612 339.0142,-668.8996 339.0142,-668.8996 339.0142,-668.8996 337.8458,-673.7612 343.3896,-669.9511 336.6774,-678.6227 336.6774,-678.6227"/>
        </g>
        <!-- tri -->
        <g id="node11" class="node">
            <title>tri</title>
            <ellipse fill="none" stroke="#000000" cx="342.2369" cy="-384.6156" rx="37.9306" ry="29.3315"/>
            <text text-anchor="middle" x="342.2369" y="-388.8156" font-family="Times,serif" font-size="14.00" fill="#000000">Chain</text>
            <text text-anchor="middle" x="342.2369" y="-372.0156" font-family="Times,serif" font-size="14.00" fill="#000000">0x05B</text>
        </g>
        <!-- tri&#45;&gt;trie -->
        <g id="edge13" class="edge">
            <title>tri&#45;&gt;trie</title>
            <path fill="none" stroke="#add8e6" d="M351.1677,-355.794C355.3217,-344.3517 360.8359,-331.3387 367.5223,-320.4 369.7215,-316.8022 372.2911,-313.2194 374.9987,-309.7866"/>
            <polygon fill="#add8e6" stroke="#add8e6" points="381.4573,-302.1119 378.4615,-312.6607 378.2379,-305.9375 375.0184,-309.7632 375.0184,-309.7632 375.0184,-309.7632 378.2379,-305.9375 371.5754,-306.8657 381.4573,-302.1119 381.4573,-302.1119"/>
            <text text-anchor="middle" x="372.0942" y="-324.6" font-family="Times,serif" font-size="14.00" fill="#0000ff"> e</text>
        </g>
        <!-- tr&#45;&gt;tra -->
        <g id="edge5" class="edge">
            <title>tr&#45;&gt;tra</title>
            <path fill="none" stroke="#add8e6" d="M196.5972,-471.4723C183.2324,-455.43 165.6885,-434.3715 151.2227,-417.0077"/>
            <polygon fill="#add8e6" stroke="#add8e6" points="144.8189,-409.321 154.6771,-414.1237 148.0193,-413.1625 151.2197,-417.0041 151.2197,-417.0041 151.2197,-417.0041 148.0193,-413.1625 147.7623,-419.8845 144.8189,-409.321 144.8189,-409.321"/>
            <text text-anchor="middle" x="182.0942" y="-436.2313" font-family="Times,serif" font-size="14.00" fill="#0000ff"> a</text>
        </g>
        <!-- tr&#45;&gt;tre -->
        <g id="edge10" class="edge">
            <title>tr&#45;&gt;tre</title>
            <path fill="none" stroke="#add8e6" d="M217.2369,-466.6249C217.2369,-453.7568 217.2369,-438.4867 217.2369,-424.6319"/>
            <polygon fill="#add8e6" stroke="#add8e6" points="217.2369,-414.3761 221.737,-424.3761 217.2369,-419.3761 217.237,-424.3761 217.237,-424.3761 217.237,-424.3761 217.2369,-419.3761 212.737,-424.3762 217.2369,-414.3761 217.2369,-414.3761"/>
            <text text-anchor="middle" x="222.0942" y="-436.2313" font-family="Times,serif" font-size="14.00" fill="#0000ff"> e</text>
        </g>
        <!-- tr&#45;&gt;tri -->
        <g id="edge12" class="edge">
            <title>tr&#45;&gt;tri</title>
            <path fill="none" stroke="#add8e6" d="M241.0794,-473.3437C254.1439,-460.9437 270.7139,-445.4579 285.8463,-432.0313 293.0131,-425.6723 300.8138,-418.9751 308.2639,-412.682"/>
            <polygon fill="#add8e6" stroke="#add8e6" points="316.1638,-406.0471 311.4004,-415.9244 312.335,-409.2628 308.5062,-412.4785 308.5062,-412.4785 308.5062,-412.4785 312.335,-409.2628 305.6121,-409.0326 316.1638,-406.0471 316.1638,-406.0471"/>
            <text text-anchor="middle" x="288.9322" y="-436.2313" font-family="Times,serif" font-size="14.00" fill="#0000ff"> i</text>
        </g>
        <!-- t&#45;&gt;tr -->
        <g id="edge4" class="edge">
            <title>t&#45;&gt;tr</title>
            <path fill="none" stroke="#add8e6" d="M217.2369,-578.0815C217.2369,-566.3502 217.2369,-550.6774 217.2369,-536.1885"/>
            <polygon fill="#add8e6" stroke="#add8e6" points="217.2369,-525.9209 221.737,-535.9208 217.2369,-530.9209 217.237,-535.9209 217.237,-535.9209 217.237,-535.9209 217.2369,-530.9209 212.737,-535.9209 217.2369,-525.9209 217.2369,-525.9209"/>
            <text text-anchor="middle" x="221.3172" y="-547.8626" font-family="Times,serif" font-size="14.00" fill="#0000ff"> r</text>
        </g>
    </g>
</svg>