<?xml version="1.0" encoding="UTF-8" standalone="no"?>
<!DOCTYPE svg PUBLIC "-//W3C//DTD SVG 1.1//EN"
        "http://www.w3.org/Graphics/SVG/1.1/DTD/svg11.dtd">
<!---
 Licensed to the Apache Software Foundation (ASF) under one
 or more contributor license agreements.  See the NOTICE file
 distributed with this work for additional information
 regarding copyright ownership.  The ASF licenses this file
 to you under the Apache License, Version 2.0 (the
 "License"); you may not use this file except in compliance
 with the License.  You may obtain a copy of the License at

     http://www.apache.org/licenses/LICENSE-2.0

 Unless required by applicable law or agreed to in writing, software
 distributed under the License is distributed on an "AS IS" BASIS,
 WITHOUT WARRANTIES OR CONDITIONS OF ANY KIND, either express or implied.
 See the License for the specific language governing permissions and
 limitations under the License.
-->

<!-- Generated by graphviz version 2.40.1 (20161225.0304)
# embedded DOT (plantuml) works in IDEA preview
# but not on GitHub
```plantuml
digraph G {
    { rank=same root -> start [style=invis] }
    start [label="start/end"]

    tractor [label = "contentArray[0]"]
    tracto [label = "0x01B"]
    tract [label = "0x01A"]
    trac [label = "0x019"]
    tra [label = "Chain\n0x018"]

    tree [label = "contentArray[1]"]
    tre [label = "Chain\n0x03B"]
    trie [label = "contentArray[2]"]
    tri [label = "Chain\n0x05B"]

    tr [label = "Sparse\n0x07E"]

    t [label = "0x09B"]
    root [label = "Chain\n0x9A"]

    root -> t [label = " t"]
    t -> tr [label = " r"]
    tr -> tra [label = " a"]
    tra -> trac [label = " c"]
    trac -> tract [label = " t"]
    tract -> tracto [label = " o"]
    tracto -> tractor [label = " r"]

    tr -> tre [label = " e"]
    tre -> tree [label = " e"]

    tr -> tri [label = " i"]
    tri -> trie [label = " e"]

    // {rank=same tra -> tre -> tri [style=invis]}
    {rank=same trac -> tree -> trie [style=invis]}

    subgraph path {
        edge [color = "lightblue"; fontcolor="blue"; arrowhead="vee"]
        node [color = "blue"; fontcolor="blue"]

        start -> root

        root -> t [label = " t"]
        t -> tr [label = " r"]
        tr -> tra [label = " a"]
        tra -> trav [label = " v"]
        trav -> trave [label = " e"]
        trave -> traver [label = " r"]
        traver -> travers [label = " s"]
        travers -> traverse [label = " e"]

        trav [label = "0x0B8"]
        trave [label = "0x0B9"]
        traver [label = "0x0BA"]
        travers [label = "0x0BB"]
        traverse [label = "contentArray[3]"]
    }

    {
        edge [color = "blue"]
        trav -> trave [label = " e"]
        trave -> traver [label = " r"]
        traver -> travers [label = " s"]
        travers -> traverse [label = " e"]
    }

    subgraph back {
        edge [color = "pink"; fontcolor="red"; arrowhead="vee"; constrain="false"]

        traverse -> travers [label = " ~3"]
        travers -> traver [label = "0x0BB"]
        traver -> trave [label = "0x0BA"]
        trave -> trav [label = "0x0B9"]
        trav -> tra [label = "0x0B8"]
    }
}
```
 -->
<!-- Title: G Pages: 1 -->
<svg width="574pt" height="823pt"
     viewBox="0.00 0.00 574.47 822.89" xmlns="http://www.w3.org/2000/svg" xmlns:xlink="http://www.w3.org/1999/xlink">
    <g id="graph0" class="graph" transform="scale(1 1) rotate(0) translate(4 818.8939)">
        <title>G</title>
        <polygon fill="#ffffff" stroke="transparent" points="-4,4 -4,-818.8939 570.4738,-818.8939 570.4738,4 -4,4"/>
        <!-- root -->
        <g id="node1" class="node">
            <title>root</title>
            <ellipse fill="none" stroke="#000000" cx="289.2369" cy="-785.4782" rx="33.1337" ry="29.3315"/>
            <text text-anchor="middle" x="289.2369" y="-789.6782" font-family="Times,serif" font-size="14.00" fill="#000000">Chain</text>
            <text text-anchor="middle" x="289.2369" y="-772.8782" font-family="Times,serif" font-size="14.00" fill="#000000">0x9A</text>
        </g>
        <!-- start -->
        <g id="node2" class="node">
            <title>start</title>
            <ellipse fill="none" stroke="#000000" cx="402.2369" cy="-785.4782" rx="44.0775" ry="18"/>
            <text text-anchor="middle" x="402.2369" y="-781.2782" font-family="Times,serif" font-size="14.00" fill="#000000">start/end</text>
        </g>
        <!-- root&#45;&gt;start -->
        <!-- t -->
        <g id="node13" class="node">
            <title>t</title>
            <ellipse fill="none" stroke="#000000" cx="289.2369" cy="-685.2626" rx="36.5824" ry="18"/>
            <text text-anchor="middle" x="289.2369" y="-681.0626" font-family="Times,serif" font-size="14.00" fill="#000000">0x09B</text>
        </g>
        <!-- root&#45;&gt;t -->
        <g id="edge2" class="edge">
            <title>root&#45;&gt;t</title>
            <path fill="none" stroke="#000000" d="M279.3368,-757.0824C276.6104,-745.9368 274.8794,-733.0211 276.8463,-721.2626 277.3268,-718.39 278.009,-715.4398 278.8091,-712.5238"/>
            <polygon fill="#000000" stroke="#000000" points="282.1732,-713.494 281.8627,-702.9037 275.5012,-711.3762 282.1732,-713.494"/>
            <text text-anchor="middle" x="280.9322" y="-725.4626" font-family="Times,serif" font-size="14.00" fill="#000000"> t</text>
        </g>
        <!-- root&#45;&gt;t -->
        <g id="edge16" class="edge">
            <title>root&#45;&gt;t</title>
            <path fill="none" stroke="#add8e6" d="M289.2369,-755.9522C289.2369,-742.4671 289.2369,-726.5749 289.2369,-713.2779"/>
            <polygon fill="#add8e6" stroke="#add8e6" points="289.2369,-703.2659 293.737,-713.2659 289.2369,-708.2659 289.237,-713.2659 289.237,-713.2659 289.237,-713.2659 289.2369,-708.2659 284.737,-713.2659 289.2369,-703.2659 289.2369,-703.2659"/>
            <text text-anchor="middle" x="292.9322" y="-725.4626" font-family="Times,serif" font-size="14.00" fill="#0000ff"> t</text>
        </g>
        <!-- start&#45;&gt;root -->
        <g id="edge15" class="edge">
            <title>start&#45;&gt;root</title>
            <path fill="none" stroke="#add8e6" d="M377.6112,-800.5185C360.7348,-807.9537 343.8585,-809.4839 326.9821,-805.109"/>
            <polygon fill="#add8e6" stroke="#add8e6" points="317.0455,-801.8508 327.9498,-800.6907 321.7966,-803.4087 326.5477,-804.9667 326.5477,-804.9667 326.5477,-804.9667 321.7966,-803.4087 325.1456,-809.2427 317.0455,-801.8508 317.0455,-801.8508"/>
        </g>
        <!-- tractor -->
        <g id="node3" class="node">
            <title>tractor</title>
            <ellipse fill="none" stroke="#000000" cx="73.2369" cy="-106.8" rx="73.4745" ry="18"/>
            <text text-anchor="middle" x="73.2369" y="-102.6" font-family="Times,serif" font-size="14.00" fill="#000000">contentArray[0]</text>
        </g>
        <!-- tracto -->
        <g id="node4" class="node">
            <title>tracto</title>
            <ellipse fill="none" stroke="#000000" cx="91.2369" cy="-195.6" rx="36.5824" ry="18"/>
            <text text-anchor="middle" x="91.2369" y="-191.4" font-family="Times,serif" font-size="14.00" fill="#000000">0x01B</text>
        </g>
        <!-- tracto&#45;&gt;tractor -->
        <g id="edge8" class="edge">
            <title>tracto&#45;&gt;tractor</title>
            <path fill="none" stroke="#000000" d="M87.5943,-177.63C85.1221,-165.4338 81.802,-149.0543 78.9772,-135.1187"/>
            <polygon fill="#000000" stroke="#000000" points="82.3528,-134.1534 76.9358,-125.0481 75.4923,-135.5441 82.3528,-134.1534"/>
            <text text-anchor="middle" x="88.3172" y="-147" font-family="Times,serif" font-size="14.00" fill="#000000"> r</text>
        </g>
        <!-- tract -->
        <g id="node5" class="node">
            <title>tract</title>
            <ellipse fill="none" stroke="#000000" cx="92.2369" cy="-284.4" rx="37.1443" ry="18"/>
            <text text-anchor="middle" x="92.2369" y="-280.2" font-family="Times,serif" font-size="14.00" fill="#000000">0x01A</text>
        </g>
        <!-- tract&#45;&gt;tracto -->
        <g id="edge7" class="edge">
            <title>tract&#45;&gt;tracto</title>
            <path fill="none" stroke="#000000" d="M92.0297,-266.0006C91.8934,-253.8949 91.7122,-237.8076 91.5575,-224.0674"/>
            <polygon fill="#000000" stroke="#000000" points="95.0529,-223.6319 91.4404,-213.672 88.0533,-223.7108 95.0529,-223.6319"/>
            <text text-anchor="middle" x="97.4869" y="-235.8" font-family="Times,serif" font-size="14.00" fill="#000000"> o</text>
        </g>
        <!-- trac -->
        <g id="node6" class="node">
            <title>trac</title>
            <ellipse fill="none" stroke="#000000" cx="93.2369" cy="-373.2" rx="35.3587" ry="18"/>
            <text text-anchor="middle" x="93.2369" y="-369" font-family="Times,serif" font-size="14.00" fill="#000000">0x019</text>
        </g>
        <!-- trac&#45;&gt;tract -->
        <g id="edge6" class="edge">
            <title>trac&#45;&gt;tract</title>
            <path fill="none" stroke="#000000" d="M93.0297,-354.8006C92.8934,-342.6949 92.7122,-326.6076 92.5575,-312.8674"/>
            <polygon fill="#000000" stroke="#000000" points="96.0529,-312.4319 92.4404,-302.472 89.0533,-312.5108 96.0529,-312.4319"/>
            <text text-anchor="middle" x="96.9322" y="-324.6" font-family="Times,serif" font-size="14.00" fill="#000000"> t</text>
        </g>
        <!-- tree -->
        <g id="node8" class="node">
            <title>tree</title>
            <ellipse fill="none" stroke="#000000" cx="311.2369" cy="-373.2" rx="73.4745" ry="18"/>
            <text text-anchor="middle" x="311.2369" y="-369" font-family="Times,serif" font-size="14.00" fill="#000000">contentArray[1]</text>
        </g>
        <!-- trac&#45;&gt;tree -->
        <!-- tra -->
        <g id="node7" class="node">
            <title>tra</title>
            <ellipse fill="none" stroke="#000000" cx="219.2369" cy="-473.4156" rx="36.125" ry="29.3315"/>
            <text text-anchor="middle" x="219.2369" y="-477.6156" font-family="Times,serif" font-size="14.00" fill="#000000">Chain</text>
            <text text-anchor="middle" x="219.2369" y="-460.8156" font-family="Times,serif" font-size="14.00" fill="#000000">0x018</text>
        </g>
        <!-- tra&#45;&gt;trac -->
        <g id="edge5" class="edge">
            <title>tra&#45;&gt;trac</title>
            <path fill="none" stroke="#000000" d="M191.1461,-454.472C179.0394,-446.0482 164.8584,-435.8286 152.5223,-426 140.7539,-416.6237 128.241,-405.6422 117.7589,-396.1298"/>
            <polygon fill="#000000" stroke="#000000" points="119.9234,-393.366 110.185,-389.1928 115.1954,-398.5281 119.9234,-393.366"/>
            <text text-anchor="middle" x="158.0942" y="-413.4" font-family="Times,serif" font-size="14.00" fill="#000000"> c</text>
        </g>
        <!-- trav -->
        <g id="node14" class="node">
            <title>trav</title>
            <ellipse fill="none" stroke="#0000ff" cx="183.2369" cy="-373.2" rx="36.5824" ry="18"/>
            <text text-anchor="middle" x="183.2369" y="-369" font-family="Times,serif" font-size="14.00" fill="#0000ff">0x0B8</text>
        </g>
        <!-- tra&#45;&gt;trav -->
        <g id="edge19" class="edge">
            <title>tra&#45;&gt;trav</title>
            <path fill="none" stroke="#add8e6" d="M217.5652,-443.8618C216.1848,-432.6862 213.6979,-420.0532 209.2369,-409.2 207.6981,-405.4564 205.697,-401.7342 203.4879,-398.182"/>
            <polygon fill="#add8e6" stroke="#add8e6" points="197.713,-389.7873 207.0881,-395.4757 200.5468,-393.9067 203.3807,-398.0261 203.3807,-398.0261 203.3807,-398.0261 200.5468,-393.9067 199.6732,-400.5766 197.713,-389.7873 197.713,-389.7873"/>
            <text text-anchor="middle" x="219.4869" y="-413.4" font-family="Times,serif" font-size="14.00" fill="#0000ff"> v</text>
        </g>
        <!-- trie -->
        <g id="node10" class="node">
            <title>trie</title>
            <ellipse fill="none" stroke="#000000" cx="493.2369" cy="-373.2" rx="73.4745" ry="18"/>
            <text text-anchor="middle" x="493.2369" y="-369" font-family="Times,serif" font-size="14.00" fill="#000000">contentArray[2]</text>
        </g>
        <!-- tree&#45;&gt;trie -->
        <!-- tre -->
        <g id="node9" class="node">
            <title>tre</title>
            <ellipse fill="none" stroke="#000000" cx="311.2369" cy="-473.4156" rx="37.9306" ry="29.3315"/>
            <text text-anchor="middle" x="311.2369" y="-477.6156" font-family="Times,serif" font-size="14.00" fill="#000000">Chain</text>
            <text text-anchor="middle" x="311.2369" y="-460.8156" font-family="Times,serif" font-size="14.00" fill="#000000">0x03B</text>
        </g>
        <!-- tre&#45;&gt;tree -->
        <g id="edge10" class="edge">
            <title>tre&#45;&gt;tree</title>
            <path fill="none" stroke="#000000" d="M311.2369,-443.8897C311.2369,-430.4046 311.2369,-414.5123 311.2369,-401.2153"/>
            <polygon fill="#000000" stroke="#000000" points="314.737,-401.2033 311.2369,-391.2033 307.737,-401.2034 314.737,-401.2033"/>
            <text text-anchor="middle" x="316.0942" y="-413.4" font-family="Times,serif" font-size="14.00" fill="#000000"> e</text>
        </g>
        <!-- tri -->
        <g id="node11" class="node">
            <title>tri</title>
            <ellipse fill="none" stroke="#000000" cx="448.2369" cy="-473.4156" rx="37.9306" ry="29.3315"/>
            <text text-anchor="middle" x="448.2369" y="-477.6156" font-family="Times,serif" font-size="14.00" fill="#000000">Chain</text>
            <text text-anchor="middle" x="448.2369" y="-460.8156" font-family="Times,serif" font-size="14.00" fill="#000000">0x05B</text>
        </g>
        <!-- tri&#45;&gt;trie -->
        <g id="edge12" class="edge">
            <title>tri&#45;&gt;trie</title>
            <path fill="none" stroke="#000000" d="M460.7719,-445.5C467.1109,-431.383 474.7723,-414.3209 481.0603,-400.3175"/>
            <polygon fill="#000000" stroke="#000000" points="484.2575,-401.7415 485.1609,-391.1852 477.8717,-398.874 484.2575,-401.7415"/>
            <text text-anchor="middle" x="480.0942" y="-413.4" font-family="Times,serif" font-size="14.00" fill="#000000"> e</text>
        </g>
        <!-- tr -->
        <g id="node12" class="node">
            <title>tr</title>
            <ellipse fill="none" stroke="#000000" cx="289.2369" cy="-585.0469" rx="37.9027" ry="29.3315"/>
            <text text-anchor="middle" x="289.2369" y="-589.2469" font-family="Times,serif" font-size="14.00" fill="#000000">Sparse</text>
            <text text-anchor="middle" x="289.2369" y="-572.4469" font-family="Times,serif" font-size="14.00" fill="#000000">0x07E</text>
        </g>
        <!-- tr&#45;&gt;tra -->
        <g id="edge4" class="edge">
            <title>tr&#45;&gt;tra</title>
            <path fill="none" stroke="#000000" d="M262.3516,-564.0201C254.086,-556.4444 245.5803,-547.3475 239.5223,-537.6313 234.7133,-529.9184 230.9544,-520.9679 228.0512,-512.2428"/>
            <polygon fill="#000000" stroke="#000000" points="231.37,-511.1256 225.1267,-502.5657 224.6692,-513.1506 231.37,-511.1256"/>
            <text text-anchor="middle" x="245.0942" y="-525.0313" font-family="Times,serif" font-size="14.00" fill="#000000"> a</text>
        </g>
        <!-- tr&#45;&gt;tra -->
        <g id="edge18" class="edge">
            <title>tr&#45;&gt;tra</title>
            <path fill="none" stroke="#add8e6" d="M272.7366,-558.4643C265.5384,-546.8917 256.9887,-533.179 249.2369,-520.8313 246.7152,-516.8145 244.0675,-512.6105 241.4331,-508.4359"/>
            <polygon fill="#add8e6" stroke="#add8e6" points="236.0886,-499.9773 245.2344,-506.0275 238.7594,-504.2043 241.4302,-508.4312 241.4302,-508.4312 241.4302,-508.4312 238.7594,-504.2043 237.6259,-510.8349 236.0886,-499.9773 236.0886,-499.9773"/>
            <text text-anchor="middle" x="264.0942" y="-525.0313" font-family="Times,serif" font-size="14.00" fill="#0000ff"> a</text>
        </g>
        <!-- tr&#45;&gt;tre -->
        <g id="edge9" class="edge">
            <title>tr&#45;&gt;tre</title>
            <path fill="none" stroke="#000000" d="M295.0171,-555.7171C297.6192,-542.5138 300.7286,-526.7364 303.5256,-512.5441"/>
            <polygon fill="#000000" stroke="#000000" points="306.9955,-513.0376 305.4953,-502.5496 300.1276,-511.6841 306.9955,-513.0376"/>
            <text text-anchor="middle" x="307.0942" y="-525.0313" font-family="Times,serif" font-size="14.00" fill="#000000"> e</text>
        </g>
        <!-- tr&#45;&gt;tri -->
        <g id="edge11" class="edge">
            <title>tr&#45;&gt;tri</title>
            <path fill="none" stroke="#000000" d="M317.2969,-565.3465C343.5549,-546.9111 382.9334,-519.2642 411.6478,-499.1043"/>
            <polygon fill="#000000" stroke="#000000" points="414.0173,-501.7172 420.1904,-493.1066 409.995,-495.9882 414.0173,-501.7172"/>
            <text text-anchor="middle" x="381.9322" y="-525.0313" font-family="Times,serif" font-size="14.00" fill="#000000"> i</text>
        </g>
        <!-- t&#45;&gt;tr -->
        <g id="edge3" class="edge">
            <title>t&#45;&gt;tr</title>
            <path fill="none" stroke="#000000" d="M281.4066,-667.6591C279.2309,-661.9119 277.1669,-655.422 276.0763,-649.2626 274.5952,-640.8975 275.0969,-631.9507 276.5509,-623.4728"/>
            <polygon fill="#000000" stroke="#000000" points="280.0289,-623.9493 278.7277,-613.4347 273.1879,-622.4658 280.0289,-623.9493"/>
            <text text-anchor="middle" x="280.3172" y="-636.6626" font-family="Times,serif" font-size="14.00" fill="#000000"> r</text>
        </g>
        <!-- t&#45;&gt;tr -->
        <g id="edge17" class="edge">
            <title>t&#45;&gt;tr</title>
            <path fill="none" stroke="#add8e6" d="M289.2369,-666.8815C289.2369,-655.1502 289.2369,-639.4774 289.2369,-624.9885"/>
            <polygon fill="#add8e6" stroke="#add8e6" points="289.2369,-614.7209 293.737,-624.7208 289.2369,-619.7209 289.237,-624.7209 289.237,-624.7209 289.237,-624.7209 289.2369,-619.7209 284.737,-624.7209 289.2369,-614.7209 289.2369,-614.7209"/>
            <text text-anchor="middle" x="293.3172" y="-636.6626" font-family="Times,serif" font-size="14.00" fill="#0000ff"> r</text>
        </g>
        <!-- trav&#45;&gt;tra -->
        <g id="edge32" class="edge">
            <title>trav&#45;&gt;tra</title>
            <path fill="none" stroke="#ffc0cb" d="M172.1325,-390.7196C166.9576,-401.1938 162.925,-414.6319 167.9003,-426 171.4315,-434.0686 177.0881,-441.3739 183.3808,-447.7"/>
            <polygon fill="#ffc0cb" stroke="#ffc0cb" points="190.9707,-454.6637 180.5599,-451.219 187.2864,-451.2834 183.6021,-447.9031 183.6021,-447.9031 183.6021,-447.9031 187.2864,-451.2834 186.6444,-444.5873 190.9707,-454.6637 190.9707,-454.6637"/>
            <text text-anchor="middle" x="186.9052" y="-413.4" font-family="Times,serif" font-size="14.00" fill="#ff0000">0x0B8</text>
        </g>
        <!-- trave -->
        <g id="node15" class="node">
            <title>trave</title>
            <ellipse fill="none" stroke="#0000ff" cx="189.2369" cy="-284.4" rx="36.5824" ry="18"/>
            <text text-anchor="middle" x="189.2369" y="-280.2" font-family="Times,serif" font-size="14.00" fill="#0000ff">0x0B9</text>
        </g>
        <!-- trav&#45;&gt;trave -->
        <g id="edge20" class="edge">
            <title>trav&#45;&gt;trave</title>
            <path fill="none" stroke="#add8e6" d="M206.004,-359.0012C213.2194,-353.2102 220.3301,-345.8294 224.2369,-337.2 228.9378,-326.8164 224.0959,-316.1864 216.6675,-307.2114"/>
            <polygon fill="#add8e6" stroke="#add8e6" points="209.6485,-299.798 219.7915,-303.9657 213.0861,-303.4288 216.5238,-307.0596 216.5238,-307.0596 216.5238,-307.0596 213.0861,-303.4288 213.2561,-310.1535 209.6485,-299.798 209.6485,-299.798"/>
            <text text-anchor="middle" x="231.0942" y="-324.6" font-family="Times,serif" font-size="14.00" fill="#0000ff"> e</text>
        </g>
        <!-- trav&#45;&gt;trave -->
        <g id="edge24" class="edge">
            <title>trav&#45;&gt;trave</title>
            <path fill="none" stroke="#0000ff" d="M165.9239,-357.0271C157.1626,-346.8113 149.3672,-333.1725 154.5223,-320.4 156.3746,-315.8107 159.123,-311.4803 162.2767,-307.5211"/>
            <polygon fill="#0000ff" stroke="#0000ff" points="165.0223,-309.7042 169.162,-299.9515 159.844,-304.994 165.0223,-309.7042"/>
            <text text-anchor="middle" x="160.0942" y="-324.6" font-family="Times,serif" font-size="14.00" fill="#000000"> e</text>
        </g>
        <!-- trave&#45;&gt;trav -->
        <g id="edge31" class="edge">
            <title>trave&#45;&gt;trav</title>
            <path fill="none" stroke="#ffc0cb" d="M185.3926,-302.6325C184.3695,-308.2985 183.4083,-314.5837 182.9003,-320.4 182.2094,-328.3107 182.0246,-336.9134 182.0825,-344.8339"/>
            <polygon fill="#ffc0cb" stroke="#ffc0cb" points="182.2872,-355.0829 177.5883,-345.1748 182.1873,-350.0839 182.0874,-345.0849 182.0874,-345.0849 182.0874,-345.0849 182.1873,-350.0839 186.5865,-344.995 182.2872,-355.0829 182.2872,-355.0829"/>
            <text text-anchor="middle" x="201.9052" y="-324.6" font-family="Times,serif" font-size="14.00" fill="#ff0000">0x0B9</text>
        </g>
        <!-- traver -->
        <g id="node16" class="node">
            <title>traver</title>
            <ellipse fill="none" stroke="#0000ff" cx="194.2369" cy="-195.6" rx="38.8671" ry="18"/>
            <text text-anchor="middle" x="194.2369" y="-191.4" font-family="Times,serif" font-size="14.00" fill="#0000ff">0x0BA</text>
        </g>
        <!-- trave&#45;&gt;traver -->
        <g id="edge21" class="edge">
            <title>trave&#45;&gt;traver</title>
            <path fill="none" stroke="#add8e6" d="M213.0898,-270.4154C220.6549,-264.6446 228.1173,-257.2217 232.2369,-248.4 237.2769,-237.6073 231.7142,-226.7456 223.4297,-217.7036"/>
            <polygon fill="#add8e6" stroke="#add8e6" points="216.0035,-210.5778 226.3347,-214.2545 219.6113,-214.0396 223.219,-217.5015 223.219,-217.5015 223.219,-217.5015 219.6113,-214.0396 220.1034,-220.7485 216.0035,-210.5778 216.0035,-210.5778"/>
            <text text-anchor="middle" x="238.3172" y="-235.8" font-family="Times,serif" font-size="14.00" fill="#0000ff"> r</text>
        </g>
        <!-- trave&#45;&gt;traver -->
        <g id="edge25" class="edge">
            <title>trave&#45;&gt;traver</title>
            <path fill="none" stroke="#0000ff" d="M172.8782,-268.1851C164.5976,-257.9534 157.2248,-244.3128 162.0763,-231.6 163.7001,-227.3449 166.0838,-223.2741 168.8315,-219.5011"/>
            <polygon fill="#0000ff" stroke="#0000ff" points="171.5668,-221.6859 175.2747,-211.761 166.1869,-217.2074 171.5668,-221.6859"/>
            <text text-anchor="middle" x="166.3172" y="-235.8" font-family="Times,serif" font-size="14.00" fill="#000000"> r</text>
        </g>
        <!-- traver&#45;&gt;trave -->
        <g id="edge30" class="edge">
            <title>traver&#45;&gt;trave</title>
            <path fill="none" stroke="#ffc0cb" d="M190.328,-213.8298C189.2877,-219.4957 188.3103,-225.7815 187.7937,-231.6 187.0912,-239.5125 187.0294,-248.1157 187.2551,-256.0363"/>
            <polygon fill="#ffc0cb" stroke="#ffc0cb" points="187.7079,-266.2849 182.7708,-256.4934 187.4871,-261.2898 187.2664,-256.2947 187.2664,-256.2947 187.2664,-256.2947 187.4871,-261.2898 191.762,-256.096 187.7079,-266.2849 187.7079,-266.2849"/>
            <text text-anchor="middle" x="208.4585" y="-235.8" font-family="Times,serif" font-size="14.00" fill="#ff0000">0x0BA</text>
        </g>
        <!-- travers -->
        <g id="node17" class="node">
            <title>travers</title>
            <ellipse fill="none" stroke="#0000ff" cx="203.2369" cy="-106.8" rx="38.305" ry="18"/>
            <text text-anchor="middle" x="203.2369" y="-102.6" font-family="Times,serif" font-size="14.00" fill="#0000ff">0x0BB</text>
        </g>
        <!-- traver&#45;&gt;travers -->
        <g id="edge22" class="edge">
            <title>traver&#45;&gt;travers</title>
            <path fill="none" stroke="#add8e6" d="M219.6485,-181.4864C227.3996,-175.7839 234.9896,-168.4371 239.2369,-159.6 244.2682,-149.1317 239.1644,-138.3954 231.3732,-129.361"/>
            <polygon fill="#add8e6" stroke="#add8e6" points="224.3601,-122.2156 234.5764,-126.2003 227.8624,-125.784 231.3648,-129.3524 231.3648,-129.3524 231.3648,-129.3524 227.8624,-125.784 228.1532,-132.5046 224.3601,-122.2156 224.3601,-122.2156"/>
            <text text-anchor="middle" x="245.7092" y="-147" font-family="Times,serif" font-size="14.00" fill="#0000ff"> s</text>
        </g>
        <!-- traver&#45;&gt;travers -->
        <g id="edge26" class="edge">
            <title>traver&#45;&gt;travers</title>
            <path fill="none" stroke="#0000ff" d="M177.7403,-179.2722C169.4246,-168.9981 162.0986,-155.3524 167.2923,-142.8 169.2677,-138.0258 172.2173,-133.5536 175.5926,-129.4948"/>
            <polygon fill="#0000ff" stroke="#0000ff" points="178.1364,-131.8988 182.4642,-122.2282 173.0503,-127.0892 178.1364,-131.8988"/>
            <text text-anchor="middle" x="172.7092" y="-147" font-family="Times,serif" font-size="14.00" fill="#000000"> s</text>
        </g>
        <!-- travers&#45;&gt;traver -->
        <g id="edge29" class="edge">
            <title>travers&#45;&gt;traver</title>
            <path fill="none" stroke="#ffc0cb" d="M198.6734,-125.0051C197.4382,-130.6699 196.2533,-136.9614 195.5637,-142.8 194.632,-150.6883 194.1789,-159.2838 193.9873,-167.2046"/>
            <polygon fill="#ffc0cb" stroke="#ffc0cb" points="193.8675,-177.4577 189.4847,-167.4058 193.9259,-172.4581 193.9844,-167.4584 193.9844,-167.4584 193.9844,-167.4584 193.9259,-172.4581 198.4841,-167.511 193.8675,-177.4577 193.8675,-177.4577"/>
            <text text-anchor="middle" x="216.0735" y="-147" font-family="Times,serif" font-size="14.00" fill="#ff0000">0x0BB</text>
        </g>
        <!-- traverse -->
        <g id="node18" class="node">
            <title>traverse</title>
            <ellipse fill="none" stroke="#0000ff" cx="203.2369" cy="-18" rx="73.4745" ry="18"/>
            <text text-anchor="middle" x="203.2369" y="-13.8" font-family="Times,serif" font-size="14.00" fill="#0000ff">contentArray[3]</text>
        </g>
        <!-- travers&#45;&gt;traverse -->
        <g id="edge23" class="edge">
            <title>travers&#45;&gt;traverse</title>
            <path fill="none" stroke="#add8e6" d="M184.8676,-90.9569C179.5135,-85.2132 174.3474,-78.2805 171.5223,-70.8 168.8843,-63.8149 168.8843,-60.9851 171.5223,-54 172.8668,-50.4399 174.7415,-47.004 176.9144,-43.7612"/>
            <polygon fill="#add8e6" stroke="#add8e6" points="183.203,-35.676 180.6155,-46.3323 180.1332,-39.6227 177.0634,-43.5695 177.0634,-43.5695 177.0634,-43.5695 180.1332,-39.6227 173.5114,-40.8067 183.203,-35.676 183.203,-35.676"/>
            <text text-anchor="middle" x="177.0942" y="-58.2" font-family="Times,serif" font-size="14.00" fill="#0000ff"> e</text>
        </g>
        <!-- travers&#45;&gt;traverse -->
        <g id="edge27" class="edge">
            <title>travers&#45;&gt;traverse</title>
            <path fill="none" stroke="#0000ff" d="M203.2369,-88.4006C203.2369,-76.2949 203.2369,-60.2076 203.2369,-46.4674"/>
            <polygon fill="#0000ff" stroke="#0000ff" points="206.737,-46.072 203.2369,-36.072 199.737,-46.0721 206.737,-46.072"/>
            <text text-anchor="middle" x="208.0942" y="-58.2" font-family="Times,serif" font-size="14.00" fill="#000000"> e</text>
        </g>
        <!-- traverse&#45;&gt;travers -->
        <g id="edge28" class="edge">
            <title>traverse&#45;&gt;travers</title>
            <path fill="none" stroke="#ffc0cb" d="M209.9024,-36.0722C211.6782,-41.7317 213.3487,-48.0535 214.2369,-54 215.3399,-61.3847 215.3399,-63.4153 214.2369,-70.8 213.8344,-73.4945 213.2713,-76.2661 212.6106,-79.0181"/>
            <polygon fill="#ffc0cb" stroke="#ffc0cb" points="209.9024,-88.7278 208.2546,-77.8864 211.2458,-83.9116 212.5891,-79.0954 212.5891,-79.0954 212.5891,-79.0954 211.2458,-83.9116 216.9237,-80.3044 209.9024,-88.7278 209.9024,-88.7278"/>
            <text text-anchor="middle" x="224.2732" y="-58.2" font-family="Times,serif" font-size="14.00" fill="#ff0000"> ~3</text>
        </g>
    </g>
</svg>
