<svg xmlns="http://www.w3.org/2000/svg" width="651" height="709.4583740234375" style="
        width:651px;
        height:709.4583740234375px;
        background: transparent;
        fill: none;
">
        
        
        <svg xmlns="http://www.w3.org/2000/svg" class="role-diagram-draw-area"><g class="shapes-region" style="stroke: black; fill: none;"><g class="composite-shape"><path class="real" d=" M223.5,655 C223.5,634.84 239.84,618.5 260,618.5 C280.16,618.5 296.5,634.84 296.5,655 C296.5,675.16 280.16,691.5 260,691.5 C239.84,691.5 223.5,675.16 223.5,655 Z" style="stroke-width: 1; stroke: rgb(103, 148, 135); fill: rgb(103, 148, 135);"/></g><g class="composite-shape"><path class="real" d=" M229.26,655 C229.26,638.02 243.02,624.26 260,624.26 C276.98,624.26 290.74,638.02 290.74,655 C290.74,671.98 276.98,685.74 260,685.74 C243.02,685.74 229.26,671.98 229.26,655 Z" style="stroke-width: 1; stroke: rgb(202, 194, 126); fill: rgb(202, 194, 126);"/></g><g class="composite-shape"><path class="real" d=" M377.5,595 C377.5,571.53 396.53,552.5 420,552.5 C443.47,552.5 462.5,571.53 462.5,595 C462.5,618.47 443.47,637.5 420,637.5 C396.53,637.5 377.5,618.47 377.5,595 Z" style="stroke-width: 1; stroke: rgb(103, 148, 135); fill: rgb(103, 148, 135);"/></g><g class="composite-shape"><path class="real" d=" M384.06,595 C384.06,575.15 400.15,559.06 420,559.06 C439.85,559.06 455.94,575.15 455.94,595 C455.94,614.85 439.85,630.94 420,630.94 C400.15,630.94 384.06,614.85 384.06,595 Z" style="stroke-width: 1; stroke: rgb(202, 194, 126); fill: rgb(202, 194, 126);"/></g><g class="composite-shape"><path class="real" d=" M390,595 C390,578.43 403.43,565 420,565 C436.57,565 450,578.43 450,595 C450,611.57 436.57,625 420,625 C403.43,625 390,611.57 390,595 Z" style="stroke-width: 1; stroke: rgb(130, 192, 233); fill: rgb(130, 192, 233);"/></g><g class="composite-shape"><path class="real" d=" M444.06,435 C444.06,415.15 460.15,399.06 480,399.06 C499.85,399.06 515.94,415.15 515.94,435 C515.94,454.85 499.85,470.94 480,470.94 C460.15,470.94 444.06,454.85 444.06,435 Z" style="stroke-width: 1; stroke: rgb(202, 194, 126); fill: rgb(202, 194, 126);"/></g><g class="composite-shape"><path class="real" d=" M450,435 C450,418.43 463.43,405 480,405 C496.57,405 510,418.43 510,435 C510,451.57 496.57,465 480,465 C463.43,465 450,451.57 450,435 Z" style="stroke-width: 1; stroke: rgb(130, 192, 233); fill: rgb(130, 192, 233);"/></g><g class="composite-shape"><path class="real" d=" M390,275 C390,258.43 403.43,245 420,245 C436.57,245 450,258.43 450,275 C450,291.57 436.57,305 420,305 C403.43,305 390,291.57 390,275 Z" style="stroke-width: 1; stroke: rgb(130, 192, 233); fill: rgb(130, 192, 233);"/></g><g class="composite-shape"><path class="real" d=" M40,435 C40,313.5 138.5,215 260,215 C381.5,215 480,313.5 480,435 C480,556.5 381.5,655 260,655 C138.5,655 40,556.5 40,435 Z" style="stroke-width: 1; stroke: rgba(0, 0, 0, 0.52); fill: none; stroke-dasharray: 1.125, 3.35;"/></g><g class="grouped-shape"><g class="composite-shape"><path class="real" d=" M90,435 C90,341.11 166.11,265 260,265 C353.89,265 430,341.11 430,435 C430,528.89 353.89,605 260,605 C166.11,605 90,528.89 90,435 Z" style="stroke-width: 1; stroke: rgb(0, 0, 0); fill: none;"/></g><g class="composite-shape"><path class="real" d=" M111.25,435 C111.25,352.85 177.85,286.25 260,286.25 C342.15,286.25 408.75,352.85 408.75,435 C408.75,517.15 342.15,583.75 260,583.75 C177.85,583.75 111.25,517.15 111.25,435 Z" style="stroke-width: 1; stroke: rgb(0, 0, 0); fill: none;"/></g><g class="composite-shape"><path class="real" d=" M132.5,435 C132.5,364.58 189.58,307.5 260,307.5 C330.42,307.5 387.5,364.58 387.5,435 C387.5,505.42 330.42,562.5 260,562.5 C189.58,562.5 132.5,505.42 132.5,435 Z" style="stroke-width: 1; stroke: rgb(0, 0, 0); fill: none;"/></g></g><g class="composite-shape"><path class="real" d=" M235,655 C235,641.19 246.19,630 260,630 C273.81,630 285,641.19 285,655 C285,668.81 273.81,680 260,680 C246.19,680 235,668.81 235,655 Z" style="stroke-width: 1; stroke: rgb(0, 0, 0); fill: rgb(187, 187, 187);"/></g><g class="grouped-shape"><g class="composite-shape"><path class="real" d=" M235,215 C235,201.19 246.19,190 260,190 C273.81,190 285,201.19 285,215 C285,228.81 273.81,240 260,240 C246.19,240 235,228.81 235,215 Z" style="stroke-width: 1; stroke: rgb(0, 0, 0); fill: rgb(187, 187, 187);"/></g></g><g class="composite-shape"><path class="real" d=" M455,435 C455,421.19 466.19,410 480,410 C493.81,410 505,421.19 505,435 C505,448.81 493.81,460 480,460 C466.19,460 455,448.81 455,435 Z" style="stroke-width: 1; stroke: rgb(0, 0, 0); fill: rgb(187, 187, 187);"/></g><g class="composite-shape"><path class="real" d=" M15,435 C15,421.19 26.19,410 40,410 C53.81,410 65,421.19 65,435 C65,448.81 53.81,460 40,460 C26.19,460 15,448.81 15,435 Z" style="stroke-width: 1; stroke: rgb(0, 0, 0); fill: rgb(187, 187, 187);"/></g><g class="composite-shape"><path class="real" d=" M395,275 C395,261.19 406.19,250 420,250 C433.81,250 445,261.19 445,275 C445,288.81 433.81,300 420,300 C406.19,300 395,288.81 395,275 Z" style="stroke-width: 1; stroke: rgb(0, 0, 0); fill: rgb(187, 187, 187);"/></g><g class="composite-shape"><path class="real" d=" M395,595 C395,581.19 406.19,570 420,570 C433.81,570 445,581.19 445,595 C445,608.81 433.81,620 420,620 C406.19,620 395,608.81 395,595 Z" style="stroke-width: 1; stroke: rgb(0, 0, 0); fill: rgb(187, 187, 187);"/></g><g class="composite-shape"><path class="real" d=" M75,595 C75,581.19 86.19,570 100,570 C113.81,570 125,581.19 125,595 C125,608.81 113.81,620 100,620 C86.19,620 75,608.81 75,595 Z" style="stroke-width: 1; stroke: rgb(0, 0, 0); fill: rgb(187, 187, 187);"/></g><g class="grouped-shape"><g class="composite-shape"><path class="real" d=" M75,275 C75,261.19 86.19,250 100,250 C113.81,250 125,261.19 125,275 C125,288.81 113.81,300 100,300 C86.19,300 75,288.81 75,275 Z" style="stroke-width: 1; stroke: rgb(0, 0, 0); fill: rgb(187, 187, 187);"/></g></g><g class="arrow-line"><path class="connection real" stroke-dasharray="" d="  M268.22,265.22 C401.65,271.85 490.67,424.28 380,555" style="stroke: rgb(130, 192, 233); stroke-width: 6; fill: none;"/><g stroke="rgba(130,192,233,1)" transform="matrix(0.9999897039488793,0.00453784048117526,-0.00453784048117526,0.9999897039488793,260,265)" style="stroke: rgb(130, 192, 233); stroke-width: 6;"><circle cx="0" cy="0" r="9.045000000000002"/></g><g stroke="rgba(130,192,233,1)" fill="rgba(130,192,233,1)" transform="matrix(-0.6461239796429636,0.763232469782529,-0.763232469782529,-0.6461239796429636,380,555)" style="stroke: rgb(130, 192, 233); fill: rgb(130, 192, 233); stroke-width: 6;"><circle cx="0" cy="0" r="9.045000000000002"/></g></g><g class="arrow-line"><path class="connection real" stroke-dasharray="" d="  M366.47,330.7 C447.68,407.15 414.54,574.62 260,583.75" style="stroke: rgb(202, 194, 126); stroke-width: 6; fill: none;"/><g stroke="rgba(202,194,126,1)" transform="matrix(0.7722902597301384,0.6352698282824042,-0.6352698282824042,0.7722902597301384,360,325)" style="stroke: rgb(202, 194, 126); stroke-width: 6;"><circle cx="0" cy="0" r="9.045000000000002"/></g><g stroke="rgba(202,194,126,1)" fill="rgba(202,194,126,1)" transform="matrix(-0.9982604689368237,0.05895791853545039,-0.05895791853545039,-0.9982604689368237,260,583.7499999999999)" style="stroke: rgb(202, 194, 126); fill: rgb(202, 194, 126); stroke-width: 6;"><circle cx="0" cy="0" r="9.045000000000002"/></g></g><g class="arrow-line"><path class="connection real" stroke-dasharray="" d="  M387.19,443.58 C380.1,535.72 254.02,615.51 160,515" style="stroke: rgb(103, 148, 135); stroke-width: 6; fill: none;"/><g stroke="rgba(103,148,135,1)" transform="matrix(0.004537840481175261,0.9999897039488793,-0.9999897039488793,0.004537840481175261,387.5,435)" style="stroke: rgb(103, 148, 135); stroke-width: 6;"><circle cx="0" cy="0" r="9.045000000000002"/></g><g stroke="rgba(103,148,135,1)" fill="rgba(103,148,135,1)" transform="matrix(-0.6831463259165826,-0.7302815192695721,0.7302815192695721,-0.6831463259165826,160,515)" style="stroke: rgb(103, 148, 135); fill: rgb(103, 148, 135); stroke-width: 6;"><circle cx="0" cy="0" r="9.045000000000002"/></g></g><g class="arrow-line"><path class="connection real" stroke-dasharray="" d="  M345,195 L316.4,271.25" style="stroke: rgb(130, 192, 233); stroke-width: 3; fill: none;"/><g stroke="rgba(130,192,233,1)" transform="matrix(0.3511880698803796,-0.9363049394154095,0.9363049394154095,0.3511880698803796,315,275)" style="stroke: rgb(130, 192, 233); stroke-width: 3;"><path d=" M17.49,-5.26 Q7.94,-0.72 0,0 Q7.94,0.72 17.49,5.26"/></g></g><g class="arrow-line"><path class="connection real" stroke-dasharray="" d="  M485,330 L403.62,368.3" style="stroke: rgb(202, 194, 126); stroke-width: 3; fill: none;"/><g stroke="rgba(202,194,126,1)" transform="matrix(0.9048270524660194,-0.425779291565073,0.425779291565073,0.9048270524660194,400,370)" style="stroke: rgb(202, 194, 126); stroke-width: 3;"><path d=" M17.49,-5.26 Q7.94,-0.72 0,0 Q7.94,0.72 17.49,5.26"/></g></g><g/></g><g/><g/><g/></svg>
        <svg xmlns="http://www.w3.org/2000/svg" width="649" height="707.4583740234375" style="width:649px;height:707.4583740234375px;font-family:Asana-Math, Asana;background:transparent;"><g><g><g><g><g><g style="transform:matrix(1,0,0,1,12.171875,40.31333587646485);"><path d="M175 386L316 386L316 444L175 444L175 571L106 571L106 444L19 444L19 386L103 386L103 119C103 59 117 -11 186 -11C256 -11 307 14 332 27L316 86C290 65 258 53 226 53C189 53 175 83 175 136ZM829 220C829 354 729 461 610 461C487 461 390 351 390 220C390 88 492 -11 609 -11C729 -11 829 90 829 220ZM609 53C540 53 468 109 468 230C468 351 544 400 609 400C679 400 751 348 751 230C751 112 683 53 609 53ZM1140 272L1308 444L1218 444L1015 236L1015 694L943 694L943 0L1012 0L1012 141L1092 224L1248 0L1330 0ZM1760 219C1760 421 1653 461 1582 461C1471 461 1381 355 1381 226C1381 94 1477 -11 1597 -11C1660 -11 1717 13 1756 41L1750 106C1687 54 1621 50 1598 50C1518 50 1454 121 1451 219ZM1456 274C1472 350 1525 400 1582 400C1634 400 1690 366 1703 274ZM2224 298C2224 364 2209 455 2087 455C1997 455 1948 387 1942 379L1942 450L1870 450L1870 0L1948 0L1948 245C1948 311 1973 394 2049 394C2145 394 2146 323 2146 291L2146 0L2224 0Z" stroke="rgb(0, 0, 0)" stroke-width="8" fill="rgb(0, 0, 0)" style="transform:matrix(0.024480000000000002,0,0,-0.024480000000000002,0,0);"></path></g><g style="transform:matrix(1,0,0,1,68.578125,40.31333587646485);"><path d="M146 266C146 526 243 632 301 700L282 726C225 675 60 542 60 266C60 159 85 58 133 -32C168 -99 200 -138 282 -215L301 -194C255 -137 146 -15 146 266Z" stroke="rgb(0, 0, 0)" stroke-width="8" fill="rgb(0, 0, 0)" style="transform:matrix(0.024480000000000002,0,0,-0.024480000000000002,0,0);"></path></g><g style="transform:matrix(1,0,0,1,76.71356201171875,40.31333587646485);"><path d="M435 298C435 364 420 455 298 455C208 455 159 387 153 379L153 450L81 450L81 0L159 0L159 245C159 311 184 394 260 394C356 394 357 323 357 291L357 0L435 0Z" stroke="rgb(0, 0, 0)" stroke-width="8" fill="rgb(0, 0, 0)" style="transform:matrix(0.024480000000000002,0,0,-0.024480000000000002,0,0);"></path></g><g><g><g><g style="transform:matrix(1,0,0,1,90.05731201171875,44.635999999999996);"><path d="M299 689L279 689C220 627 137 624 89 622L89 563C122 564 170 566 220 587L220 59L95 59L95 0L424 0L424 59L299 59Z" stroke="rgb(0, 0, 0)" stroke-width="8" fill="rgb(0, 0, 0)" style="transform:matrix(0.017136,0,0,-0.017136,0,0);"></path></g></g></g></g><g style="transform:matrix(1,0,0,1,100.078125,40.31333587646485);"><path d="M51 726L32 700C87 636 187 526 187 266C187 -10 83 -131 32 -194L51 -215C104 -165 273 -23 273 265C273 542 108 675 51 726Z" stroke="rgb(0, 0, 0)" stroke-width="8" fill="rgb(0, 0, 0)" style="transform:matrix(0.024480000000000002,0,0,-0.024480000000000002,0,0);"></path></g><g style="transform:matrix(1,0,0,1,115.55731201171875,40.31333587646485);"><path d="M604 347L604 406L65 406L65 347ZM604 134L604 193L65 193L65 134Z" stroke="rgb(0, 0, 0)" stroke-width="8" fill="rgb(0, 0, 0)" style="transform:matrix(0.024480000000000002,0,0,-0.024480000000000002,0,0);"></path></g><g style="transform:matrix(1,0,0,1,139.2552490234375,40.31333587646485);"><path d="M175 386L316 386L316 444L175 444L175 571L106 571L106 444L19 444L19 386L103 386L103 119C103 59 117 -11 186 -11C256 -11 307 14 332 27L316 86C290 65 258 53 226 53C189 53 175 83 175 136Z" stroke="rgb(0, 0, 0)" stroke-width="8" fill="rgb(0, 0, 0)" style="transform:matrix(0.024480000000000002,0,0,-0.024480000000000002,0,0);"></path></g><g><g><g><g style="transform:matrix(1,0,0,1,148.80731201171875,44.635999999999996);"><path d="M299 689L279 689C220 627 137 624 89 622L89 563C122 564 170 566 220 587L220 59L95 59L95 0L424 0L424 59L299 59Z" stroke="rgb(0, 0, 0)" stroke-width="8" fill="rgb(0, 0, 0)" style="transform:matrix(0.017136,0,0,-0.017136,0,0);"></path></g></g></g></g></g><g><g style="transform:matrix(1,0,0,1,12.171875,71.98);"><path d="M175 386L316 386L316 444L175 444L175 571L106 571L106 444L19 444L19 386L103 386L103 119C103 59 117 -11 186 -11C256 -11 307 14 332 27L316 86C290 65 258 53 226 53C189 53 175 83 175 136ZM829 220C829 354 729 461 610 461C487 461 390 351 390 220C390 88 492 -11 609 -11C729 -11 829 90 829 220ZM609 53C540 53 468 109 468 230C468 351 544 400 609 400C679 400 751 348 751 230C751 112 683 53 609 53ZM1140 272L1308 444L1218 444L1015 236L1015 694L943 694L943 0L1012 0L1012 141L1092 224L1248 0L1330 0ZM1760 219C1760 421 1653 461 1582 461C1471 461 1381 355 1381 226C1381 94 1477 -11 1597 -11C1660 -11 1717 13 1756 41L1750 106C1687 54 1621 50 1598 50C1518 50 1454 121 1451 219ZM1456 274C1472 350 1525 400 1582 400C1634 400 1690 366 1703 274ZM2224 298C2224 364 2209 455 2087 455C1997 455 1948 387 1942 379L1942 450L1870 450L1870 0L1948 0L1948 245C1948 311 1973 394 2049 394C2145 394 2146 323 2146 291L2146 0L2224 0Z" stroke="rgb(0, 0, 0)" stroke-width="8" fill="rgb(0, 0, 0)" style="transform:matrix(0.024480000000000002,0,0,-0.024480000000000002,0,0);"></path></g><g style="transform:matrix(1,0,0,1,68.578125,71.98);"><path d="M146 266C146 526 243 632 301 700L282 726C225 675 60 542 60 266C60 159 85 58 133 -32C168 -99 200 -138 282 -215L301 -194C255 -137 146 -15 146 266Z" stroke="rgb(0, 0, 0)" stroke-width="8" fill="rgb(0, 0, 0)" style="transform:matrix(0.024480000000000002,0,0,-0.024480000000000002,0,0);"></path></g><g style="transform:matrix(1,0,0,1,76.71356201171875,71.98);"><path d="M435 298C435 364 420 455 298 455C208 455 159 387 153 379L153 450L81 450L81 0L159 0L159 245C159 311 184 394 260 394C356 394 357 323 357 291L357 0L435 0Z" stroke="rgb(0, 0, 0)" stroke-width="8" fill="rgb(0, 0, 0)" style="transform:matrix(0.024480000000000002,0,0,-0.024480000000000002,0,0);"></path></g><g><g><g><g style="transform:matrix(1,0,0,1,90.05731201171875,76.30266412353515);"><path d="M83 466C103 545 131 624 222 624C316 624 367 548 367 468C367 382 310 324 251 263L174 191L50 65L50 0L449 0L449 72L267 72C255 72 243 71 231 71L122 71C154 100 230 176 261 205C333 274 449 347 449 471C449 587 368 689 236 689C122 689 66 610 42 522C66 487 59 501 83 466Z" stroke="rgb(0, 0, 0)" stroke-width="8" fill="rgb(0, 0, 0)" style="transform:matrix(0.017136,0,0,-0.017136,0,0);"></path></g></g></g></g><g style="transform:matrix(1,0,0,1,100.078125,71.98);"><path d="M51 726L32 700C87 636 187 526 187 266C187 -10 83 -131 32 -194L51 -215C104 -165 273 -23 273 265C273 542 108 675 51 726Z" stroke="rgb(0, 0, 0)" stroke-width="8" fill="rgb(0, 0, 0)" style="transform:matrix(0.024480000000000002,0,0,-0.024480000000000002,0,0);"></path></g><g style="transform:matrix(1,0,0,1,115.55731201171875,71.98);"><path d="M604 347L604 406L65 406L65 347ZM604 134L604 193L65 193L65 134Z" stroke="rgb(0, 0, 0)" stroke-width="8" fill="rgb(0, 0, 0)" style="transform:matrix(0.024480000000000002,0,0,-0.024480000000000002,0,0);"></path></g><g style="transform:matrix(1,0,0,1,139.2552490234375,71.98);"><path d="M175 386L316 386L316 444L175 444L175 571L106 571L106 444L19 444L19 386L103 386L103 119C103 59 117 -11 186 -11C256 -11 307 14 332 27L316 86C290 65 258 53 226 53C189 53 175 83 175 136Z" stroke="rgb(0, 0, 0)" stroke-width="8" fill="rgb(0, 0, 0)" style="transform:matrix(0.024480000000000002,0,0,-0.024480000000000002,0,0);"></path></g><g><g><g><g style="transform:matrix(1,0,0,1,148.80731201171875,76.30266412353515);"><path d="M83 466C103 545 131 624 222 624C316 624 367 548 367 468C367 382 310 324 251 263L174 191L50 65L50 0L449 0L449 72L267 72C255 72 243 71 231 71L122 71C154 100 230 176 261 205C333 274 449 347 449 471C449 587 368 689 236 689C122 689 66 610 42 522C66 487 59 501 83 466Z" stroke="rgb(0, 0, 0)" stroke-width="8" fill="rgb(0, 0, 0)" style="transform:matrix(0.017136,0,0,-0.017136,0,0);"></path></g></g></g></g></g><g><g style="transform:matrix(1,0,0,1,12.171875,103.64666412353516);"><path d="M175 386L316 386L316 444L175 444L175 571L106 571L106 444L19 444L19 386L103 386L103 119C103 59 117 -11 186 -11C256 -11 307 14 332 27L316 86C290 65 258 53 226 53C189 53 175 83 175 136ZM829 220C829 354 729 461 610 461C487 461 390 351 390 220C390 88 492 -11 609 -11C729 -11 829 90 829 220ZM609 53C540 53 468 109 468 230C468 351 544 400 609 400C679 400 751 348 751 230C751 112 683 53 609 53ZM1140 272L1308 444L1218 444L1015 236L1015 694L943 694L943 0L1012 0L1012 141L1092 224L1248 0L1330 0ZM1760 219C1760 421 1653 461 1582 461C1471 461 1381 355 1381 226C1381 94 1477 -11 1597 -11C1660 -11 1717 13 1756 41L1750 106C1687 54 1621 50 1598 50C1518 50 1454 121 1451 219ZM1456 274C1472 350 1525 400 1582 400C1634 400 1690 366 1703 274ZM2224 298C2224 364 2209 455 2087 455C1997 455 1948 387 1942 379L1942 450L1870 450L1870 0L1948 0L1948 245C1948 311 1973 394 2049 394C2145 394 2146 323 2146 291L2146 0L2224 0Z" stroke="rgb(0, 0, 0)" stroke-width="8" fill="rgb(0, 0, 0)" style="transform:matrix(0.024480000000000002,0,0,-0.024480000000000002,0,0);"></path></g><g style="transform:matrix(1,0,0,1,68.578125,103.64666412353516);"><path d="M146 266C146 526 243 632 301 700L282 726C225 675 60 542 60 266C60 159 85 58 133 -32C168 -99 200 -138 282 -215L301 -194C255 -137 146 -15 146 266Z" stroke="rgb(0, 0, 0)" stroke-width="8" fill="rgb(0, 0, 0)" style="transform:matrix(0.024480000000000002,0,0,-0.024480000000000002,0,0);"></path></g><g style="transform:matrix(1,0,0,1,76.71356201171875,103.64666412353516);"><path d="M435 298C435 364 420 455 298 455C208 455 159 387 153 379L153 450L81 450L81 0L159 0L159 245C159 311 184 394 260 394C356 394 357 323 357 291L357 0L435 0Z" stroke="rgb(0, 0, 0)" stroke-width="8" fill="rgb(0, 0, 0)" style="transform:matrix(0.024480000000000002,0,0,-0.024480000000000002,0,0);"></path></g><g><g><g><g style="transform:matrix(1,0,0,1,90.05731201171875,107.96933587646484);"><path d="M92 522C121 593 186 630 247 630C299 630 348 600 348 535C348 473 307 413 246 398C240 397 238 397 167 391L167 329L238 329C346 329 368 235 368 184C368 105 322 40 245 40C176 40 97 75 53 144L42 83C115 -12 207 -22 247 -22C369 -22 457 76 457 183C457 275 387 338 319 360C395 401 430 471 430 535C430 622 347 689 248 689C171 689 98 648 56 577Z" stroke="rgb(0, 0, 0)" stroke-width="8" fill="rgb(0, 0, 0)" style="transform:matrix(0.017136,0,0,-0.017136,0,0);"></path></g></g></g></g><g style="transform:matrix(1,0,0,1,100.078125,103.64666412353516);"><path d="M51 726L32 700C87 636 187 526 187 266C187 -10 83 -131 32 -194L51 -215C104 -165 273 -23 273 265C273 542 108 675 51 726Z" stroke="rgb(0, 0, 0)" stroke-width="8" fill="rgb(0, 0, 0)" style="transform:matrix(0.024480000000000002,0,0,-0.024480000000000002,0,0);"></path></g><g style="transform:matrix(1,0,0,1,115.55731201171875,103.64666412353516);"><path d="M604 347L604 406L65 406L65 347ZM604 134L604 193L65 193L65 134Z" stroke="rgb(0, 0, 0)" stroke-width="8" fill="rgb(0, 0, 0)" style="transform:matrix(0.024480000000000002,0,0,-0.024480000000000002,0,0);"></path></g><g style="transform:matrix(1,0,0,1,139.2552490234375,103.64666412353516);"><path d="M175 386L316 386L316 444L175 444L175 571L106 571L106 444L19 444L19 386L103 386L103 119C103 59 117 -11 186 -11C256 -11 307 14 332 27L316 86C290 65 258 53 226 53C189 53 175 83 175 136Z" stroke="rgb(0, 0, 0)" stroke-width="8" fill="rgb(0, 0, 0)" style="transform:matrix(0.024480000000000002,0,0,-0.024480000000000002,0,0);"></path></g><g><g><g><g style="transform:matrix(1,0,0,1,148.80731201171875,107.96933587646484);"><path d="M92 522C121 593 186 630 247 630C299 630 348 600 348 535C348 473 307 413 246 398C240 397 238 397 167 391L167 329L238 329C346 329 368 235 368 184C368 105 322 40 245 40C176 40 97 75 53 144L42 83C115 -12 207 -22 247 -22C369 -22 457 76 457 183C457 275 387 338 319 360C395 401 430 471 430 535C430 622 347 689 248 689C171 689 98 648 56 577Z" stroke="rgb(0, 0, 0)" stroke-width="8" fill="rgb(0, 0, 0)" style="transform:matrix(0.017136,0,0,-0.017136,0,0);"></path></g></g></g></g></g><g><g style="transform:matrix(1,0,0,1,12.171875,135.31333587646483);"><path d="M124 111C94 111 67 83 67 53C67 23 94 -5 123 -5C155 -5 183 22 183 53C183 83 155 111 124 111ZM373 111C343 111 316 83 316 53C316 23 343 -5 372 -5C404 -5 432 22 432 53C432 83 404 111 373 111ZM622 111C592 111 565 83 565 53C565 23 592 -5 621 -5C653 -5 681 22 681 53C681 83 653 111 622 111Z" stroke="rgb(0, 0, 0)" stroke-width="8" fill="rgb(0, 0, 0)" style="transform:matrix(0.024480000000000002,0,0,-0.024480000000000002,0,0);"></path></g></g></g></g></g></g><g><g><g><g><g><g style="transform:matrix(1,0,0,1,245.3802490234375,659.4047891235351);"><path d="M24 388L31 368L63 389C100 412 103 414 110 414C121 414 128 404 128 389C128 338 87 145 46 2L53 -9C78 -2 101 4 123 8C142 134 163 199 209 268C263 352 338 414 383 414C394 414 400 405 400 390C400 372 397 351 389 319L337 107C328 70 324 47 324 31C324 6 335 -9 354 -9C380 -9 416 12 514 85L504 103L478 86C449 67 427 56 417 56C410 56 404 65 404 76C404 81 405 92 406 96L472 372C479 401 483 429 483 446C483 469 472 482 452 482C410 482 341 444 282 389C244 354 216 320 164 247L202 408C206 426 208 438 208 449C208 470 200 482 185 482C164 482 125 460 52 408Z" stroke="rgb(0, 0, 0)" stroke-width="8" fill="rgb(0, 0, 0)" style="transform:matrix(0.02941,0,0,-0.02941,0,0);"></path></g><g><g><g><g style="transform:matrix(1,0,0,1,262.578125,665.2589131469726);"><path d="M459 253C459 366 378 446 264 446C216 446 180 443 127 396L127 605L432 604L432 689L75 690L75 322L95 316C142 363 169 377 218 377C314 377 374 309 374 201C374 90 310 25 201 25C147 25 97 43 83 69L37 151L13 137C36 80 48 48 62 4C90 -11 130 -20 173 -20C301 -20 459 89 459 253Z" stroke="rgb(0, 0, 0)" stroke-width="8" fill="rgb(0, 0, 0)" style="transform:matrix(0.020587,0,0,-0.020587,0,0);"></path></g></g></g></g></g></g></g></g></g><g><g><g><g><g><g style="transform:matrix(1,0,0,1,465.3802490234375,444.4047891235352);"><path d="M24 388L31 368L63 389C100 412 103 414 110 414C121 414 128 404 128 389C128 338 87 145 46 2L53 -9C78 -2 101 4 123 8C142 134 163 199 209 268C263 352 338 414 383 414C394 414 400 405 400 390C400 372 397 351 389 319L337 107C328 70 324 47 324 31C324 6 335 -9 354 -9C380 -9 416 12 514 85L504 103L478 86C449 67 427 56 417 56C410 56 404 65 404 76C404 81 405 92 406 96L472 372C479 401 483 429 483 446C483 469 472 482 452 482C410 482 341 444 282 389C244 354 216 320 164 247L202 408C206 426 208 438 208 449C208 470 200 482 185 482C164 482 125 460 52 408Z" stroke="rgb(0, 0, 0)" stroke-width="8" fill="rgb(0, 0, 0)" style="transform:matrix(0.02941,0,0,-0.02941,0,0);"></path></g><g><g><g><g style="transform:matrix(1,0,0,1,482.578125,450.2588826293945);"><path d="M462 224C462 345 355 366 308 374C388 436 418 482 418 541C418 630 344 689 233 689C165 689 120 670 72 622L43 498L74 498L92 554C103 588 166 622 218 622C283 622 336 569 336 506C336 431 277 368 206 368C198 368 187 369 174 370L159 371L147 318L154 312C192 329 211 334 238 334C321 334 369 281 369 190C369 88 308 21 215 21C169 21 128 36 98 64C74 86 61 109 42 163L15 153C36 92 44 56 50 6C103 -12 147 -20 184 -20C307 -20 462 87 462 224Z" stroke="rgb(0, 0, 0)" stroke-width="8" fill="rgb(0, 0, 0)" style="transform:matrix(0.020587,0,0,-0.020587,0,0);"></path></g></g></g></g></g></g></g></g></g><g><g><g><g><g><g style="transform:matrix(1,0,0,1,25.380218505859375,444.4047891235352);"><path d="M24 388L31 368L63 389C100 412 103 414 110 414C121 414 128 404 128 389C128 338 87 145 46 2L53 -9C78 -2 101 4 123 8C142 134 163 199 209 268C263 352 338 414 383 414C394 414 400 405 400 390C400 372 397 351 389 319L337 107C328 70 324 47 324 31C324 6 335 -9 354 -9C380 -9 416 12 514 85L504 103L478 86C449 67 427 56 417 56C410 56 404 65 404 76C404 81 405 92 406 96L472 372C479 401 483 429 483 446C483 469 472 482 452 482C410 482 341 444 282 389C244 354 216 320 164 247L202 408C206 426 208 438 208 449C208 470 200 482 185 482C164 482 125 460 52 408Z" stroke="rgb(0, 0, 0)" stroke-width="8" fill="rgb(0, 0, 0)" style="transform:matrix(0.02941,0,0,-0.02941,0,0);"></path></g><g><g><g><g style="transform:matrix(1,0,0,1,42.578125,450.2588826293945);"><path d="M409 603L47 -1L157 -1L497 659L497 689L44 689L44 477L74 477L81 533C89 595 96 603 142 603Z" stroke="rgb(0, 0, 0)" stroke-width="8" fill="rgb(0, 0, 0)" style="transform:matrix(0.020587,0,0,-0.020587,0,0);"></path></g></g></g></g></g></g></g></g></g><g><g><g><g><g><g style="transform:matrix(1,0,0,1,405.3802490234375,284.4047891235352);"><path d="M24 388L31 368L63 389C100 412 103 414 110 414C121 414 128 404 128 389C128 338 87 145 46 2L53 -9C78 -2 101 4 123 8C142 134 163 199 209 268C263 352 338 414 383 414C394 414 400 405 400 390C400 372 397 351 389 319L337 107C328 70 324 47 324 31C324 6 335 -9 354 -9C380 -9 416 12 514 85L504 103L478 86C449 67 427 56 417 56C410 56 404 65 404 76C404 81 405 92 406 96L472 372C479 401 483 429 483 446C483 469 472 482 452 482C410 482 341 444 282 389C244 354 216 320 164 247L202 408C206 426 208 438 208 449C208 470 200 482 185 482C164 482 125 460 52 408Z" stroke="rgb(0, 0, 0)" stroke-width="8" fill="rgb(0, 0, 0)" style="transform:matrix(0.02941,0,0,-0.02941,0,0);"></path></g><g><g><g><g style="transform:matrix(1,0,0,1,422.578125,290.2588826293945);"><path d="M16 23L16 -3C203 -3 203 0 239 0C275 0 275 -3 468 -3L468 82C353 77 307 81 122 77L304 270C401 373 431 428 431 503C431 618 353 689 226 689C154 689 105 669 56 619L39 483L68 483L81 529C97 587 133 612 200 612C286 612 341 558 341 473C341 398 299 324 186 204Z" stroke="rgb(0, 0, 0)" stroke-width="8" fill="rgb(0, 0, 0)" style="transform:matrix(0.020587,0,0,-0.020587,0,0);"></path></g></g></g></g></g></g></g></g></g><g><g><g><g><g><g style="transform:matrix(1,0,0,1,405.3802490234375,604.4047891235351);"><path d="M24 388L31 368L63 389C100 412 103 414 110 414C121 414 128 404 128 389C128 338 87 145 46 2L53 -9C78 -2 101 4 123 8C142 134 163 199 209 268C263 352 338 414 383 414C394 414 400 405 400 390C400 372 397 351 389 319L337 107C328 70 324 47 324 31C324 6 335 -9 354 -9C380 -9 416 12 514 85L504 103L478 86C449 67 427 56 417 56C410 56 404 65 404 76C404 81 405 92 406 96L472 372C479 401 483 429 483 446C483 469 472 482 452 482C410 482 341 444 282 389C244 354 216 320 164 247L202 408C206 426 208 438 208 449C208 470 200 482 185 482C164 482 125 460 52 408Z" stroke="rgb(0, 0, 0)" stroke-width="8" fill="rgb(0, 0, 0)" style="transform:matrix(0.02941,0,0,-0.02941,0,0);"></path></g><g><g><g><g style="transform:matrix(1,0,0,1,422.578125,610.2589131469726);"><path d="M280 181L280 106C280 46 269 32 220 30L158 27L158 -3C291 0 291 0 315 0C339 0 339 0 472 -3L472 27L424 30C375 33 364 46 364 106L364 181C423 181 444 180 472 177L472 248L364 245L365 697L285 667L2 204L2 181ZM280 245L65 245L280 597Z" stroke="rgb(0, 0, 0)" stroke-width="8" fill="rgb(0, 0, 0)" style="transform:matrix(0.020587,0,0,-0.020587,0,0);"></path></g></g></g></g></g></g></g></g></g><g><g><g><g><g><g style="transform:matrix(1,0,0,1,85.38021850585938,604.4047891235351);"><path d="M24 388L31 368L63 389C100 412 103 414 110 414C121 414 128 404 128 389C128 338 87 145 46 2L53 -9C78 -2 101 4 123 8C142 134 163 199 209 268C263 352 338 414 383 414C394 414 400 405 400 390C400 372 397 351 389 319L337 107C328 70 324 47 324 31C324 6 335 -9 354 -9C380 -9 416 12 514 85L504 103L478 86C449 67 427 56 417 56C410 56 404 65 404 76C404 81 405 92 406 96L472 372C479 401 483 429 483 446C483 469 472 482 452 482C410 482 341 444 282 389C244 354 216 320 164 247L202 408C206 426 208 438 208 449C208 470 200 482 185 482C164 482 125 460 52 408Z" stroke="rgb(0, 0, 0)" stroke-width="8" fill="rgb(0, 0, 0)" style="transform:matrix(0.02941,0,0,-0.02941,0,0);"></path></g><g><g><g><g style="transform:matrix(1,0,0,1,102.578125,610.2589131469726);"><path d="M131 331C152 512 241 611 421 665L379 689C283 657 242 637 191 593C88 506 32 384 32 247C32 82 112 -20 241 -20C371 -20 468 83 468 219C468 334 399 409 293 409C216 409 184 370 131 331ZM255 349C331 349 382 283 382 184C382 80 331 13 254 13C169 13 123 86 123 220C123 255 127 274 138 291C160 325 207 349 255 349Z" stroke="rgb(0, 0, 0)" stroke-width="8" fill="rgb(0, 0, 0)" style="transform:matrix(0.020587,0,0,-0.020587,0,0);"></path></g></g></g></g></g></g></g></g></g><g><g><g><g><g><g style="transform:matrix(1,0,0,1,332.04168701171875,37.480000000000004);"><path d="M157 214C157 314 229 386 327 388L327 455C238 454 183 405 152 359L152 450L82 450L82 0L157 0ZM739 289C739 391 666 461 574 461C509 461 464 445 417 418L423 352C475 389 525 402 574 402C621 402 661 362 661 288L661 245C511 243 384 201 384 113C384 70 411 -11 498 -11C512 -11 606 -9 664 36L664 0L739 0ZM661 132C661 113 661 88 627 69C598 51 560 50 549 50C501 50 456 73 456 115C456 185 618 192 661 194ZM1254 298C1254 364 1239 455 1117 455C1027 455 978 387 972 379L972 450L900 450L900 0L978 0L978 245C978 311 1003 394 1079 394C1175 394 1176 323 1176 291L1176 0L1254 0ZM1686 391C1708 391 1736 395 1760 395C1778 395 1817 392 1819 392L1808 455C1738 455 1680 436 1650 423C1629 440 1595 455 1555 455C1469 455 1396 383 1396 292C1396 255 1409 219 1429 193C1400 152 1400 113 1400 108C1400 82 1409 53 1426 32C1374 1 1362 -45 1362 -71C1362 -146 1461 -206 1583 -206C1706 -206 1805 -147 1805 -70C1805 69 1638 69 1599 69L1511 69C1498 69 1453 69 1453 122C1453 133 1457 149 1464 158C1485 143 1518 129 1555 129C1645 129 1715 203 1715 292C1715 340 1693 377 1682 392ZM1555 186C1518 186 1466 209 1466 292C1466 375 1518 398 1555 398C1598 398 1645 370 1645 292C1645 214 1598 186 1555 186ZM1600 -3C1622 -3 1735 -3 1735 -72C1735 -116 1666 -149 1584 -149C1503 -149 1432 -118 1432 -71C1432 -68 1432 -3 1510 -3ZM2247 219C2247 421 2140 461 2069 461C1958 461 1868 355 1868 226C1868 94 1964 -11 2084 -11C2147 -11 2204 13 2243 41L2237 106C2174 54 2108 50 2085 50C2005 50 1941 121 1938 219ZM1943 274C1959 350 2012 400 2069 400C2121 400 2177 366 2190 274Z" stroke="rgb(0, 0, 0)" stroke-width="8" fill="rgb(0, 0, 0)" style="transform:matrix(0.024480000000000002,0,0,-0.024480000000000002,0,0);"></path></g><g style="transform:matrix(1,0,0,1,387.76043701171875,37.480000000000004);"><path d="M146 266C146 526 243 632 301 700L282 726C225 675 60 542 60 266C60 159 85 58 133 -32C168 -99 200 -138 282 -215L301 -194C255 -137 146 -15 146 266Z" stroke="rgb(0, 0, 0)" stroke-width="8" fill="rgb(0, 0, 0)" style="transform:matrix(0.024480000000000002,0,0,-0.024480000000000002,0,0);"></path></g><g style="transform:matrix(1,0,0,1,395.8958740234375,37.480000000000004);"><path d="M175 386L316 386L316 444L175 444L175 571L106 571L106 444L19 444L19 386L103 386L103 119C103 59 117 -11 186 -11C256 -11 307 14 332 27L316 86C290 65 258 53 226 53C189 53 175 83 175 136Z" stroke="rgb(0, 0, 0)" stroke-width="8" fill="rgb(0, 0, 0)" style="transform:matrix(0.024480000000000002,0,0,-0.024480000000000002,0,0);"></path></g><g><g><g><g style="transform:matrix(1,0,0,1,405.44793701171875,41.80266412353515);"><path d="M299 689L279 689C220 627 137 624 89 622L89 563C122 564 170 566 220 587L220 59L95 59L95 0L424 0L424 59L299 59Z" stroke="rgb(0, 0, 0)" stroke-width="8" fill="rgb(0, 0, 0)" style="transform:matrix(0.017136,0,0,-0.017136,0,0);"></path></g></g></g></g><g style="transform:matrix(1,0,0,1,415.46875,37.480000000000004);"><path d="M204 123C177 114 159 108 106 93C99 17 74 -48 16 -144L30 -155L71 -136C152 -31 190 32 218 109Z" stroke="rgb(0, 0, 0)" stroke-width="8" fill="rgb(0, 0, 0)" style="transform:matrix(0.024480000000000002,0,0,-0.024480000000000002,0,0);"></path></g><g style="transform:matrix(1,0,0,1,426.46875,37.480000000000004);"><path d="M424 386L565 386L565 444L424 444L424 571L355 571L355 444L268 444L268 386L352 386L352 119C352 59 366 -11 435 -11C505 -11 556 14 581 27L565 86C539 65 507 53 475 53C438 53 424 83 424 136Z" stroke="rgb(0, 0, 0)" stroke-width="8" fill="rgb(0, 0, 0)" style="transform:matrix(0.024480000000000002,0,0,-0.024480000000000002,0,0);"></path></g><g><g><g><g style="transform:matrix(1,0,0,1,442.1146240234375,41.80266412353515);"><path d="M83 466C103 545 131 624 222 624C316 624 367 548 367 468C367 382 310 324 251 263L174 191L50 65L50 0L449 0L449 72L267 72C255 72 243 71 231 71L122 71C154 100 230 176 261 205C333 274 449 347 449 471C449 587 368 689 236 689C122 689 66 610 42 522C66 487 59 501 83 466Z" stroke="rgb(0, 0, 0)" stroke-width="8" fill="rgb(0, 0, 0)" style="transform:matrix(0.017136,0,0,-0.017136,0,0);"></path></g></g></g></g><g style="transform:matrix(1,0,0,1,452.13543701171875,37.480000000000004);"><path d="M245 -184L254 -171C248 -140 246 -112 246 -44L246 578C246 628 250 665 250 691C250 706 249 717 245 726L51 726L45 720L45 694L49 689L87 689C114 689 136 683 148 673C157 664 160 649 160 616L160 -75C160 -108 157 -122 148 -131C136 -141 114 -147 87 -147L49 -147L45 -152L45 -178L51 -184Z" stroke="rgb(0, 0, 0)" stroke-width="8" fill="rgb(0, 0, 0)" style="transform:matrix(0.024480000000000002,0,0,-0.024480000000000002,0,0);"></path></g><g style="transform:matrix(1,0,0,1,460.2708740234375,37.480000000000004);"><path d="" stroke="rgb(0, 0, 0)" stroke-width="8" fill="rgb(0, 0, 0)" style="transform:matrix(0.024480000000000002,0,0,-0.024480000000000002,0,0);"></path></g><g><g style="transform:matrix(1,0,0,1,471.2708740234375,37.480000000000004);"><path d="M949 272L743 486L711 452L836 300L65 300L65 241L836 241L711 89L743 55Z" stroke="rgb(0, 0, 0)" stroke-width="8" fill="rgb(0, 0, 0)" style="transform:matrix(0.024480000000000002,0,0,-0.024480000000000002,0,0);"></path></g></g><g style="transform:matrix(1,0,0,1,500.96875,37.480000000000004);"><path d="M289 -175C226 -161 206 -117 206 -45L206 128C206 207 197 253 125 272L125 274C194 292 206 335 206 409L206 595C206 667 224 707 289 726C189 726 134 703 134 578L134 392C134 327 120 292 58 273C124 254 134 223 134 151L134 -17C134 -149 176 -175 289 -175Z" stroke="rgb(0, 0, 0)" stroke-width="8" fill="rgb(0, 0, 0)" style="transform:matrix(0.024480000000000002,0,0,-0.024480000000000002,0,0);"></path></g><g style="transform:matrix(1,0,0,1,510.32293701171875,37.480000000000004);"><path d="M435 298C435 364 420 455 298 455C208 455 159 387 153 379L153 450L81 450L81 0L159 0L159 245C159 311 184 394 260 394C356 394 357 323 357 291L357 0L435 0Z" stroke="rgb(0, 0, 0)" stroke-width="8" fill="rgb(0, 0, 0)" style="transform:matrix(0.024480000000000002,0,0,-0.024480000000000002,0,0);"></path></g><g><g><g><g style="transform:matrix(1,0,0,1,523.6666870117188,41.80266412353515);"><path d="M83 466C103 545 131 624 222 624C316 624 367 548 367 468C367 382 310 324 251 263L174 191L50 65L50 0L449 0L449 72L267 72C255 72 243 71 231 71L122 71C154 100 230 176 261 205C333 274 449 347 449 471C449 587 368 689 236 689C122 689 66 610 42 522C66 487 59 501 83 466Z" stroke="rgb(0, 0, 0)" stroke-width="8" fill="rgb(0, 0, 0)" style="transform:matrix(0.017136,0,0,-0.017136,0,0);"></path></g></g></g></g><g style="transform:matrix(1,0,0,1,533.6875,37.480000000000004);"><path d="M204 123C177 114 159 108 106 93C99 17 74 -48 16 -144L30 -155L71 -136C152 -31 190 32 218 109Z" stroke="rgb(0, 0, 0)" stroke-width="8" fill="rgb(0, 0, 0)" style="transform:matrix(0.024480000000000002,0,0,-0.024480000000000002,0,0);"></path></g><g style="transform:matrix(1,0,0,1,544.6875,37.480000000000004);"><path d="M684 298C684 364 669 455 547 455C457 455 408 387 402 379L402 450L330 450L330 0L408 0L408 245C408 311 433 394 509 394C605 394 606 323 606 291L606 0L684 0Z" stroke="rgb(0, 0, 0)" stroke-width="8" fill="rgb(0, 0, 0)" style="transform:matrix(0.024480000000000002,0,0,-0.024480000000000002,0,0);"></path></g><g><g><g><g style="transform:matrix(1,0,0,1,564.125,41.80266412353515);"><path d="M92 522C121 593 186 630 247 630C299 630 348 600 348 535C348 473 307 413 246 398C240 397 238 397 167 391L167 329L238 329C346 329 368 235 368 184C368 105 322 40 245 40C176 40 97 75 53 144L42 83C115 -12 207 -22 247 -22C369 -22 457 76 457 183C457 275 387 338 319 360C395 401 430 471 430 535C430 622 347 689 248 689C171 689 98 648 56 577Z" stroke="rgb(0, 0, 0)" stroke-width="8" fill="rgb(0, 0, 0)" style="transform:matrix(0.017136,0,0,-0.017136,0,0);"></path></g></g></g></g><g style="transform:matrix(1,0,0,1,574.1458740234375,37.480000000000004);"><path d="M204 123C177 114 159 108 106 93C99 17 74 -48 16 -144L30 -155L71 -136C152 -31 190 32 218 109Z" stroke="rgb(0, 0, 0)" stroke-width="8" fill="rgb(0, 0, 0)" style="transform:matrix(0.024480000000000002,0,0,-0.024480000000000002,0,0);"></path></g><g style="transform:matrix(1,0,0,1,585.1458740234375,37.480000000000004);"><path d="M684 298C684 364 669 455 547 455C457 455 408 387 402 379L402 450L330 450L330 0L408 0L408 245C408 311 433 394 509 394C605 394 606 323 606 291L606 0L684 0Z" stroke="rgb(0, 0, 0)" stroke-width="8" fill="rgb(0, 0, 0)" style="transform:matrix(0.024480000000000002,0,0,-0.024480000000000002,0,0);"></path></g><g><g><g><g style="transform:matrix(1,0,0,1,604.5833740234375,41.80266412353515);"><path d="M372 174L471 174L471 236L372 236L372 667L281 667L28 236L28 174L293 174L293 0L372 0ZM106 236C158 323 299 564 299 622L299 236Z" stroke="rgb(0, 0, 0)" stroke-width="8" fill="rgb(0, 0, 0)" style="transform:matrix(0.017136,0,0,-0.017136,0,0);"></path></g></g></g></g><g style="transform:matrix(1,0,0,1,615.822998046875,37.480000000000004);"><path d="M275 273C213 292 199 327 199 392L199 578C199 703 144 726 44 726C109 707 127 667 127 595L127 409C127 335 139 292 208 274L208 272C136 253 127 207 127 128L127 -45C127 -117 107 -161 44 -175C157 -175 199 -149 199 -17L199 151C199 223 209 254 275 273Z" stroke="rgb(0, 0, 0)" stroke-width="8" fill="rgb(0, 0, 0)" style="transform:matrix(0.024480000000000002,0,0,-0.024480000000000002,0,0);"></path></g></g></g></g></g><g><g><g><g><g style="transform:matrix(1,0,0,1,332.04168701171875,70.14666412353516);"><path d="M157 214C157 314 229 386 327 388L327 455C238 454 183 405 152 359L152 450L82 450L82 0L157 0ZM739 289C739 391 666 461 574 461C509 461 464 445 417 418L423 352C475 389 525 402 574 402C621 402 661 362 661 288L661 245C511 243 384 201 384 113C384 70 411 -11 498 -11C512 -11 606 -9 664 36L664 0L739 0ZM661 132C661 113 661 88 627 69C598 51 560 50 549 50C501 50 456 73 456 115C456 185 618 192 661 194ZM1254 298C1254 364 1239 455 1117 455C1027 455 978 387 972 379L972 450L900 450L900 0L978 0L978 245C978 311 1003 394 1079 394C1175 394 1176 323 1176 291L1176 0L1254 0ZM1686 391C1708 391 1736 395 1760 395C1778 395 1817 392 1819 392L1808 455C1738 455 1680 436 1650 423C1629 440 1595 455 1555 455C1469 455 1396 383 1396 292C1396 255 1409 219 1429 193C1400 152 1400 113 1400 108C1400 82 1409 53 1426 32C1374 1 1362 -45 1362 -71C1362 -146 1461 -206 1583 -206C1706 -206 1805 -147 1805 -70C1805 69 1638 69 1599 69L1511 69C1498 69 1453 69 1453 122C1453 133 1457 149 1464 158C1485 143 1518 129 1555 129C1645 129 1715 203 1715 292C1715 340 1693 377 1682 392ZM1555 186C1518 186 1466 209 1466 292C1466 375 1518 398 1555 398C1598 398 1645 370 1645 292C1645 214 1598 186 1555 186ZM1600 -3C1622 -3 1735 -3 1735 -72C1735 -116 1666 -149 1584 -149C1503 -149 1432 -118 1432 -71C1432 -68 1432 -3 1510 -3ZM2247 219C2247 421 2140 461 2069 461C1958 461 1868 355 1868 226C1868 94 1964 -11 2084 -11C2147 -11 2204 13 2243 41L2237 106C2174 54 2108 50 2085 50C2005 50 1941 121 1938 219ZM1943 274C1959 350 2012 400 2069 400C2121 400 2177 366 2190 274Z" stroke="rgb(0, 0, 0)" stroke-width="8" fill="rgb(0, 0, 0)" style="transform:matrix(0.024480000000000002,0,0,-0.024480000000000002,0,0);"></path></g><g style="transform:matrix(1,0,0,1,387.76043701171875,70.14666412353516);"><path d="M146 266C146 526 243 632 301 700L282 726C225 675 60 542 60 266C60 159 85 58 133 -32C168 -99 200 -138 282 -215L301 -194C255 -137 146 -15 146 266Z" stroke="rgb(0, 0, 0)" stroke-width="8" fill="rgb(0, 0, 0)" style="transform:matrix(0.024480000000000002,0,0,-0.024480000000000002,0,0);"></path></g><g style="transform:matrix(1,0,0,1,395.8958740234375,70.14666412353516);"><path d="M175 386L316 386L316 444L175 444L175 571L106 571L106 444L19 444L19 386L103 386L103 119C103 59 117 -11 186 -11C256 -11 307 14 332 27L316 86C290 65 258 53 226 53C189 53 175 83 175 136Z" stroke="rgb(0, 0, 0)" stroke-width="8" fill="rgb(0, 0, 0)" style="transform:matrix(0.024480000000000002,0,0,-0.024480000000000002,0,0);"></path></g><g><g><g><g style="transform:matrix(1,0,0,1,405.44793701171875,74.46933587646484);"><path d="M83 466C103 545 131 624 222 624C316 624 367 548 367 468C367 382 310 324 251 263L174 191L50 65L50 0L449 0L449 72L267 72C255 72 243 71 231 71L122 71C154 100 230 176 261 205C333 274 449 347 449 471C449 587 368 689 236 689C122 689 66 610 42 522C66 487 59 501 83 466Z" stroke="rgb(0, 0, 0)" stroke-width="8" fill="rgb(0, 0, 0)" style="transform:matrix(0.017136,0,0,-0.017136,0,0);"></path></g></g></g></g><g style="transform:matrix(1,0,0,1,415.46875,70.14666412353516);"><path d="M204 123C177 114 159 108 106 93C99 17 74 -48 16 -144L30 -155L71 -136C152 -31 190 32 218 109Z" stroke="rgb(0, 0, 0)" stroke-width="8" fill="rgb(0, 0, 0)" style="transform:matrix(0.024480000000000002,0,0,-0.024480000000000002,0,0);"></path></g><g style="transform:matrix(1,0,0,1,426.46875,70.14666412353516);"><path d="M424 386L565 386L565 444L424 444L424 571L355 571L355 444L268 444L268 386L352 386L352 119C352 59 366 -11 435 -11C505 -11 556 14 581 27L565 86C539 65 507 53 475 53C438 53 424 83 424 136Z" stroke="rgb(0, 0, 0)" stroke-width="8" fill="rgb(0, 0, 0)" style="transform:matrix(0.024480000000000002,0,0,-0.024480000000000002,0,0);"></path></g><g><g><g><g style="transform:matrix(1,0,0,1,442.1146240234375,74.46933587646484);"><path d="M92 522C121 593 186 630 247 630C299 630 348 600 348 535C348 473 307 413 246 398C240 397 238 397 167 391L167 329L238 329C346 329 368 235 368 184C368 105 322 40 245 40C176 40 97 75 53 144L42 83C115 -12 207 -22 247 -22C369 -22 457 76 457 183C457 275 387 338 319 360C395 401 430 471 430 535C430 622 347 689 248 689C171 689 98 648 56 577Z" stroke="rgb(0, 0, 0)" stroke-width="8" fill="rgb(0, 0, 0)" style="transform:matrix(0.017136,0,0,-0.017136,0,0);"></path></g></g></g></g><g style="transform:matrix(1,0,0,1,452.13543701171875,70.14666412353516);"><path d="M245 -184L254 -171C248 -140 246 -112 246 -44L246 578C246 628 250 665 250 691C250 706 249 717 245 726L51 726L45 720L45 694L49 689L87 689C114 689 136 683 148 673C157 664 160 649 160 616L160 -75C160 -108 157 -122 148 -131C136 -141 114 -147 87 -147L49 -147L45 -152L45 -178L51 -184Z" stroke="rgb(0, 0, 0)" stroke-width="8" fill="rgb(0, 0, 0)" style="transform:matrix(0.024480000000000002,0,0,-0.024480000000000002,0,0);"></path></g><g style="transform:matrix(1,0,0,1,460.2708740234375,70.14666412353516);"><path d="" stroke="rgb(0, 0, 0)" stroke-width="8" fill="rgb(0, 0, 0)" style="transform:matrix(0.024480000000000002,0,0,-0.024480000000000002,0,0);"></path></g><g><g style="transform:matrix(1,0,0,1,471.2708740234375,70.14666412353516);"><path d="M949 272L743 486L711 452L836 300L65 300L65 241L836 241L711 89L743 55Z" stroke="rgb(0, 0, 0)" stroke-width="8" fill="rgb(0, 0, 0)" style="transform:matrix(0.024480000000000002,0,0,-0.024480000000000002,0,0);"></path></g></g><g style="transform:matrix(1,0,0,1,500.96875,70.14666412353516);"><path d="M289 -175C226 -161 206 -117 206 -45L206 128C206 207 197 253 125 272L125 274C194 292 206 335 206 409L206 595C206 667 224 707 289 726C189 726 134 703 134 578L134 392C134 327 120 292 58 273C124 254 134 223 134 151L134 -17C134 -149 176 -175 289 -175Z" stroke="rgb(0, 0, 0)" stroke-width="8" fill="rgb(0, 0, 0)" style="transform:matrix(0.024480000000000002,0,0,-0.024480000000000002,0,0);"></path></g><g style="transform:matrix(1,0,0,1,510.32293701171875,70.14666412353516);"><path d="M435 298C435 364 420 455 298 455C208 455 159 387 153 379L153 450L81 450L81 0L159 0L159 245C159 311 184 394 260 394C356 394 357 323 357 291L357 0L435 0Z" stroke="rgb(0, 0, 0)" stroke-width="8" fill="rgb(0, 0, 0)" style="transform:matrix(0.024480000000000002,0,0,-0.024480000000000002,0,0);"></path></g><g><g><g><g style="transform:matrix(1,0,0,1,523.6666870117188,74.46933587646484);"><path d="M92 522C121 593 186 630 247 630C299 630 348 600 348 535C348 473 307 413 246 398C240 397 238 397 167 391L167 329L238 329C346 329 368 235 368 184C368 105 322 40 245 40C176 40 97 75 53 144L42 83C115 -12 207 -22 247 -22C369 -22 457 76 457 183C457 275 387 338 319 360C395 401 430 471 430 535C430 622 347 689 248 689C171 689 98 648 56 577Z" stroke="rgb(0, 0, 0)" stroke-width="8" fill="rgb(0, 0, 0)" style="transform:matrix(0.017136,0,0,-0.017136,0,0);"></path></g></g></g></g><g style="transform:matrix(1,0,0,1,533.6875,70.14666412353516);"><path d="M204 123C177 114 159 108 106 93C99 17 74 -48 16 -144L30 -155L71 -136C152 -31 190 32 218 109Z" stroke="rgb(0, 0, 0)" stroke-width="8" fill="rgb(0, 0, 0)" style="transform:matrix(0.024480000000000002,0,0,-0.024480000000000002,0,0);"></path></g><g style="transform:matrix(1,0,0,1,544.6875,70.14666412353516);"><path d="M684 298C684 364 669 455 547 455C457 455 408 387 402 379L402 450L330 450L330 0L408 0L408 245C408 311 433 394 509 394C605 394 606 323 606 291L606 0L684 0Z" stroke="rgb(0, 0, 0)" stroke-width="8" fill="rgb(0, 0, 0)" style="transform:matrix(0.024480000000000002,0,0,-0.024480000000000002,0,0);"></path></g><g><g><g><g style="transform:matrix(1,0,0,1,564.125,74.46933587646484);"><path d="M372 174L471 174L471 236L372 236L372 667L281 667L28 236L28 174L293 174L293 0L372 0ZM106 236C158 323 299 564 299 622L299 236Z" stroke="rgb(0, 0, 0)" stroke-width="8" fill="rgb(0, 0, 0)" style="transform:matrix(0.017136,0,0,-0.017136,0,0);"></path></g></g></g></g><g style="transform:matrix(1,0,0,1,574.1458740234375,70.14666412353516);"><path d="M204 123C177 114 159 108 106 93C99 17 74 -48 16 -144L30 -155L71 -136C152 -31 190 32 218 109Z" stroke="rgb(0, 0, 0)" stroke-width="8" fill="rgb(0, 0, 0)" style="transform:matrix(0.024480000000000002,0,0,-0.024480000000000002,0,0);"></path></g><g style="transform:matrix(1,0,0,1,585.1458740234375,70.14666412353516);"><path d="M684 298C684 364 669 455 547 455C457 455 408 387 402 379L402 450L330 450L330 0L408 0L408 245C408 311 433 394 509 394C605 394 606 323 606 291L606 0L684 0Z" stroke="rgb(0, 0, 0)" stroke-width="8" fill="rgb(0, 0, 0)" style="transform:matrix(0.024480000000000002,0,0,-0.024480000000000002,0,0);"></path></g><g><g><g><g style="transform:matrix(1,0,0,1,604.5833740234375,74.46933587646484);"><path d="M153 602L416 602L416 667L81 667L81 292L147 292C164 332 201 372 259 372C306 372 360 330 360 208C360 40 238 40 229 40C162 40 101 79 72 134L39 77C80 19 149 -22 230 -22C349 -22 449 78 449 206C449 333 363 434 260 434C220 434 182 419 153 392Z" stroke="rgb(0, 0, 0)" stroke-width="8" fill="rgb(0, 0, 0)" style="transform:matrix(0.017136,0,0,-0.017136,0,0);"></path></g></g></g></g><g style="transform:matrix(1,0,0,1,615.822998046875,70.14666412353516);"><path d="M275 273C213 292 199 327 199 392L199 578C199 703 144 726 44 726C109 707 127 667 127 595L127 409C127 335 139 292 208 274L208 272C136 253 127 207 127 128L127 -45C127 -117 107 -161 44 -175C157 -175 199 -149 199 -17L199 151C199 223 209 254 275 273Z" stroke="rgb(0, 0, 0)" stroke-width="8" fill="rgb(0, 0, 0)" style="transform:matrix(0.024480000000000002,0,0,-0.024480000000000002,0,0);"></path></g></g></g></g></g><g><g><g><g><g style="transform:matrix(1,0,0,1,332.04168701171875,102.81333587646485);"><path d="M157 214C157 314 229 386 327 388L327 455C238 454 183 405 152 359L152 450L82 450L82 0L157 0ZM739 289C739 391 666 461 574 461C509 461 464 445 417 418L423 352C475 389 525 402 574 402C621 402 661 362 661 288L661 245C511 243 384 201 384 113C384 70 411 -11 498 -11C512 -11 606 -9 664 36L664 0L739 0ZM661 132C661 113 661 88 627 69C598 51 560 50 549 50C501 50 456 73 456 115C456 185 618 192 661 194ZM1254 298C1254 364 1239 455 1117 455C1027 455 978 387 972 379L972 450L900 450L900 0L978 0L978 245C978 311 1003 394 1079 394C1175 394 1176 323 1176 291L1176 0L1254 0ZM1686 391C1708 391 1736 395 1760 395C1778 395 1817 392 1819 392L1808 455C1738 455 1680 436 1650 423C1629 440 1595 455 1555 455C1469 455 1396 383 1396 292C1396 255 1409 219 1429 193C1400 152 1400 113 1400 108C1400 82 1409 53 1426 32C1374 1 1362 -45 1362 -71C1362 -146 1461 -206 1583 -206C1706 -206 1805 -147 1805 -70C1805 69 1638 69 1599 69L1511 69C1498 69 1453 69 1453 122C1453 133 1457 149 1464 158C1485 143 1518 129 1555 129C1645 129 1715 203 1715 292C1715 340 1693 377 1682 392ZM1555 186C1518 186 1466 209 1466 292C1466 375 1518 398 1555 398C1598 398 1645 370 1645 292C1645 214 1598 186 1555 186ZM1600 -3C1622 -3 1735 -3 1735 -72C1735 -116 1666 -149 1584 -149C1503 -149 1432 -118 1432 -71C1432 -68 1432 -3 1510 -3ZM2247 219C2247 421 2140 461 2069 461C1958 461 1868 355 1868 226C1868 94 1964 -11 2084 -11C2147 -11 2204 13 2243 41L2237 106C2174 54 2108 50 2085 50C2005 50 1941 121 1938 219ZM1943 274C1959 350 2012 400 2069 400C2121 400 2177 366 2190 274Z" stroke="rgb(0, 0, 0)" stroke-width="8" fill="rgb(0, 0, 0)" style="transform:matrix(0.024480000000000002,0,0,-0.024480000000000002,0,0);"></path></g><g style="transform:matrix(1,0,0,1,387.76043701171875,102.81333587646485);"><path d="M146 266C146 526 243 632 301 700L282 726C225 675 60 542 60 266C60 159 85 58 133 -32C168 -99 200 -138 282 -215L301 -194C255 -137 146 -15 146 266Z" stroke="rgb(0, 0, 0)" stroke-width="8" fill="rgb(0, 0, 0)" style="transform:matrix(0.024480000000000002,0,0,-0.024480000000000002,0,0);"></path></g><g style="transform:matrix(1,0,0,1,395.8958740234375,102.81333587646485);"><path d="M175 386L316 386L316 444L175 444L175 571L106 571L106 444L19 444L19 386L103 386L103 119C103 59 117 -11 186 -11C256 -11 307 14 332 27L316 86C290 65 258 53 226 53C189 53 175 83 175 136Z" stroke="rgb(0, 0, 0)" stroke-width="8" fill="rgb(0, 0, 0)" style="transform:matrix(0.024480000000000002,0,0,-0.024480000000000002,0,0);"></path></g><g><g><g><g style="transform:matrix(1,0,0,1,405.44793701171875,107.13600762939453);"><path d="M92 522C121 593 186 630 247 630C299 630 348 600 348 535C348 473 307 413 246 398C240 397 238 397 167 391L167 329L238 329C346 329 368 235 368 184C368 105 322 40 245 40C176 40 97 75 53 144L42 83C115 -12 207 -22 247 -22C369 -22 457 76 457 183C457 275 387 338 319 360C395 401 430 471 430 535C430 622 347 689 248 689C171 689 98 648 56 577Z" stroke="rgb(0, 0, 0)" stroke-width="8" fill="rgb(0, 0, 0)" style="transform:matrix(0.017136,0,0,-0.017136,0,0);"></path></g></g></g></g><g style="transform:matrix(1,0,0,1,415.46875,102.81333587646485);"><path d="M204 123C177 114 159 108 106 93C99 17 74 -48 16 -144L30 -155L71 -136C152 -31 190 32 218 109Z" stroke="rgb(0, 0, 0)" stroke-width="8" fill="rgb(0, 0, 0)" style="transform:matrix(0.024480000000000002,0,0,-0.024480000000000002,0,0);"></path></g><g style="transform:matrix(1,0,0,1,426.46875,102.81333587646485);"><path d="M424 386L565 386L565 444L424 444L424 571L355 571L355 444L268 444L268 386L352 386L352 119C352 59 366 -11 435 -11C505 -11 556 14 581 27L565 86C539 65 507 53 475 53C438 53 424 83 424 136Z" stroke="rgb(0, 0, 0)" stroke-width="8" fill="rgb(0, 0, 0)" style="transform:matrix(0.024480000000000002,0,0,-0.024480000000000002,0,0);"></path></g><g><g><g><g style="transform:matrix(1,0,0,1,442.1146240234375,107.13600762939453);"><path d="M372 174L471 174L471 236L372 236L372 667L281 667L28 236L28 174L293 174L293 0L372 0ZM106 236C158 323 299 564 299 622L299 236Z" stroke="rgb(0, 0, 0)" stroke-width="8" fill="rgb(0, 0, 0)" style="transform:matrix(0.017136,0,0,-0.017136,0,0);"></path></g></g></g></g><g style="transform:matrix(1,0,0,1,452.13543701171875,102.81333587646485);"><path d="M245 -184L254 -171C248 -140 246 -112 246 -44L246 578C246 628 250 665 250 691C250 706 249 717 245 726L51 726L45 720L45 694L49 689L87 689C114 689 136 683 148 673C157 664 160 649 160 616L160 -75C160 -108 157 -122 148 -131C136 -141 114 -147 87 -147L49 -147L45 -152L45 -178L51 -184Z" stroke="rgb(0, 0, 0)" stroke-width="8" fill="rgb(0, 0, 0)" style="transform:matrix(0.024480000000000002,0,0,-0.024480000000000002,0,0);"></path></g><g style="transform:matrix(1,0,0,1,460.2708740234375,102.81333587646485);"><path d="" stroke="rgb(0, 0, 0)" stroke-width="8" fill="rgb(0, 0, 0)" style="transform:matrix(0.024480000000000002,0,0,-0.024480000000000002,0,0);"></path></g><g><g style="transform:matrix(1,0,0,1,471.2708740234375,102.81333587646485);"><path d="M949 272L743 486L711 452L836 300L65 300L65 241L836 241L711 89L743 55Z" stroke="rgb(0, 0, 0)" stroke-width="8" fill="rgb(0, 0, 0)" style="transform:matrix(0.024480000000000002,0,0,-0.024480000000000002,0,0);"></path></g></g><g style="transform:matrix(1,0,0,1,500.96875,102.81333587646485);"><path d="M289 -175C226 -161 206 -117 206 -45L206 128C206 207 197 253 125 272L125 274C194 292 206 335 206 409L206 595C206 667 224 707 289 726C189 726 134 703 134 578L134 392C134 327 120 292 58 273C124 254 134 223 134 151L134 -17C134 -149 176 -175 289 -175Z" stroke="rgb(0, 0, 0)" stroke-width="8" fill="rgb(0, 0, 0)" style="transform:matrix(0.024480000000000002,0,0,-0.024480000000000002,0,0);"></path></g><g style="transform:matrix(1,0,0,1,510.32293701171875,102.81333587646485);"><path d="M435 298C435 364 420 455 298 455C208 455 159 387 153 379L153 450L81 450L81 0L159 0L159 245C159 311 184 394 260 394C356 394 357 323 357 291L357 0L435 0Z" stroke="rgb(0, 0, 0)" stroke-width="8" fill="rgb(0, 0, 0)" style="transform:matrix(0.024480000000000002,0,0,-0.024480000000000002,0,0);"></path></g><g><g><g><g style="transform:matrix(1,0,0,1,523.6666870117188,107.13600762939453);"><path d="M372 174L471 174L471 236L372 236L372 667L281 667L28 236L28 174L293 174L293 0L372 0ZM106 236C158 323 299 564 299 622L299 236Z" stroke="rgb(0, 0, 0)" stroke-width="8" fill="rgb(0, 0, 0)" style="transform:matrix(0.017136,0,0,-0.017136,0,0);"></path></g></g></g></g><g style="transform:matrix(1,0,0,1,533.6875,102.81333587646485);"><path d="M204 123C177 114 159 108 106 93C99 17 74 -48 16 -144L30 -155L71 -136C152 -31 190 32 218 109Z" stroke="rgb(0, 0, 0)" stroke-width="8" fill="rgb(0, 0, 0)" style="transform:matrix(0.024480000000000002,0,0,-0.024480000000000002,0,0);"></path></g><g style="transform:matrix(1,0,0,1,544.6875,102.81333587646485);"><path d="M684 298C684 364 669 455 547 455C457 455 408 387 402 379L402 450L330 450L330 0L408 0L408 245C408 311 433 394 509 394C605 394 606 323 606 291L606 0L684 0Z" stroke="rgb(0, 0, 0)" stroke-width="8" fill="rgb(0, 0, 0)" style="transform:matrix(0.024480000000000002,0,0,-0.024480000000000002,0,0);"></path></g><g><g><g><g style="transform:matrix(1,0,0,1,564.125,107.13600762939453);"><path d="M153 602L416 602L416 667L81 667L81 292L147 292C164 332 201 372 259 372C306 372 360 330 360 208C360 40 238 40 229 40C162 40 101 79 72 134L39 77C80 19 149 -22 230 -22C349 -22 449 78 449 206C449 333 363 434 260 434C220 434 182 419 153 392Z" stroke="rgb(0, 0, 0)" stroke-width="8" fill="rgb(0, 0, 0)" style="transform:matrix(0.017136,0,0,-0.017136,0,0);"></path></g></g></g></g><g style="transform:matrix(1,0,0,1,574.1458740234375,102.81333587646485);"><path d="M204 123C177 114 159 108 106 93C99 17 74 -48 16 -144L30 -155L71 -136C152 -31 190 32 218 109Z" stroke="rgb(0, 0, 0)" stroke-width="8" fill="rgb(0, 0, 0)" style="transform:matrix(0.024480000000000002,0,0,-0.024480000000000002,0,0);"></path></g><g style="transform:matrix(1,0,0,1,585.1458740234375,102.81333587646485);"><path d="M684 298C684 364 669 455 547 455C457 455 408 387 402 379L402 450L330 450L330 0L408 0L408 245C408 311 433 394 509 394C605 394 606 323 606 291L606 0L684 0Z" stroke="rgb(0, 0, 0)" stroke-width="8" fill="rgb(0, 0, 0)" style="transform:matrix(0.024480000000000002,0,0,-0.024480000000000002,0,0);"></path></g><g><g><g><g style="transform:matrix(1,0,0,1,604.5833740234375,107.13600762939453);"><path d="M415 669C364 689 323 689 309 689C168 689 42 546 42 327C42 40 166 -22 251 -22C311 -22 354 1 393 47C438 99 457 145 457 226C457 356 391 469 295 469C263 469 187 461 126 385C139 549 218 630 310 630C348 630 380 623 415 609ZM127 223C127 237 127 239 128 251C128 326 173 407 256 407C304 407 332 382 352 344C373 307 375 271 375 226C375 191 375 144 351 103C334 74 308 40 251 40C145 40 130 189 127 223Z" stroke="rgb(0, 0, 0)" stroke-width="8" fill="rgb(0, 0, 0)" style="transform:matrix(0.017136,0,0,-0.017136,0,0);"></path></g></g></g></g><g style="transform:matrix(1,0,0,1,615.822998046875,102.81333587646485);"><path d="M275 273C213 292 199 327 199 392L199 578C199 703 144 726 44 726C109 707 127 667 127 595L127 409C127 335 139 292 208 274L208 272C136 253 127 207 127 128L127 -45C127 -117 107 -161 44 -175C157 -175 199 -149 199 -17L199 151C199 223 209 254 275 273Z" stroke="rgb(0, 0, 0)" stroke-width="8" fill="rgb(0, 0, 0)" style="transform:matrix(0.024480000000000002,0,0,-0.024480000000000002,0,0);"></path></g></g></g></g></g><g><text x="332.04168701171875" y="113.66666412353516" style="white-space:pre;stroke:none;fill:rgb(0, 0, 0);font-size:21.6px;font-family:Arial, Helvetica, sans-serif;font-weight:400;font-style:normal;dominant-baseline:text-before-edge;text-decoration:none solid rgb(0, 0, 0);">                                           ...</text></g></g><g><g><g><g><g></g></g></g></g></g><g><g><g><g><g><g style="transform:matrix(1,0,0,1,284.9114990234375,163.04063262939454);"><path d="M435 298C435 364 420 455 298 455C236 455 188 424 156 383L156 694L81 694L81 0L159 0L159 245C159 311 184 394 260 394C356 394 357 323 357 291L357 0L435 0ZM914 289C914 391 841 461 749 461C684 461 639 445 592 418L598 352C650 389 700 402 749 402C796 402 836 362 836 288L836 245C686 243 559 201 559 113C559 70 586 -11 673 -11C687 -11 781 -9 839 36L839 0L914 0ZM836 132C836 113 836 88 802 69C773 51 735 50 724 50C676 50 631 73 631 115C631 185 793 192 836 194ZM1354 128C1354 183 1317 217 1315 220C1276 255 1249 261 1199 270C1144 281 1098 291 1098 340C1098 402 1170 402 1183 402C1215 402 1268 398 1325 364L1337 429C1285 453 1244 461 1193 461C1168 461 1027 461 1027 330C1027 281 1056 249 1081 230C1112 208 1134 204 1189 193C1225 186 1283 174 1283 121C1283 52 1204 52 1189 52C1108 52 1052 89 1034 101L1022 33C1054 17 1109 -11 1190 -11C1328 -11 1354 75 1354 128ZM1811 298C1811 364 1796 455 1674 455C1612 455 1564 424 1532 383L1532 694L1457 694L1457 0L1535 0L1535 245C1535 311 1560 394 1636 394C1732 394 1733 323 1733 291L1733 0L1811 0Z" stroke="rgb(0, 0, 0)" stroke-width="8" fill="rgb(0, 0, 0)" style="transform:matrix(0.020399999999999998,0,0,-0.020399999999999998,0,0);"></path></g><g style="transform:matrix(1,0,0,1,323.46356201171875,163.70728912353516);"><path d="M146 266C146 526 243 632 301 700L282 726C225 675 60 542 60 266C60 159 85 58 133 -32C168 -99 200 -138 282 -215L301 -194C255 -137 146 -15 146 266Z" stroke="rgb(0, 0, 0)" stroke-width="8" fill="rgb(0, 0, 0)" style="transform:matrix(0.020399999999999998,0,0,-0.020399999999999998,0,0);"></path></g><g style="transform:matrix(1,0,0,1,330.234375,163.04063262939454);"><path d="M105 469L137 665C138 667 138 669 138 671C138 689 116 709 95 709C74 709 52 689 52 670L52 665L85 469ZM286 469L318 665C319 667 319 669 319 670C319 689 297 709 276 709C254 709 233 690 233 670L233 665L266 469ZM546 386L656 386L656 444L543 444L543 563C543 637 610 644 636 644C656 644 683 642 717 627L717 694C705 697 674 705 637 705C543 705 471 634 471 534L471 444L397 444L397 386L471 386L471 0L546 0ZM1143 220C1143 354 1043 461 924 461C801 461 704 351 704 220C704 88 806 -11 923 -11C1043 -11 1143 90 1143 220ZM923 53C854 53 782 109 782 230C782 351 858 400 923 400C993 400 1065 348 1065 230C1065 112 997 53 923 53ZM1642 220C1642 354 1542 461 1423 461C1300 461 1203 351 1203 220C1203 88 1305 -11 1422 -11C1542 -11 1642 90 1642 220ZM1422 53C1353 53 1281 109 1281 230C1281 351 1357 400 1422 400C1492 400 1564 348 1564 230C1564 112 1496 53 1422 53ZM1777 469L1809 665C1810 667 1810 669 1810 671C1810 689 1788 709 1767 709C1746 709 1724 689 1724 670L1724 665L1757 469ZM1958 469L1990 665C1991 667 1991 669 1991 670C1991 689 1969 709 1948 709C1926 709 1905 690 1905 670L1905 665L1938 469Z" stroke="rgb(0, 0, 0)" stroke-width="8" fill="rgb(0, 0, 0)" style="transform:matrix(0.020399999999999998,0,0,-0.020399999999999998,0,0);"></path></g><g style="transform:matrix(1,0,0,1,371.86981201171875,163.70728912353516);"><path d="M51 726L32 700C87 636 187 526 187 266C187 -10 83 -131 32 -194L51 -215C104 -165 273 -23 273 265C273 542 108 675 51 726Z" stroke="rgb(0, 0, 0)" stroke-width="8" fill="rgb(0, 0, 0)" style="transform:matrix(0.020399999999999998,0,0,-0.020399999999999998,0,0);"></path></g></g><g><g style="transform:matrix(1,0,0,1,284.9114990234375,187.04063262939454);"><path d="" stroke="rgb(0, 0, 0)" stroke-width="8" fill="rgb(0, 0, 0)" style="transform:matrix(0.020399999999999998,0,0,-0.020399999999999998,0,0);"></path></g><g><g style="transform:matrix(1,0,0,1,324.52606201171875,187.04063262939454);"><path d="M949 272L743 486L711 452L836 300L65 300L65 241L836 241L711 89L743 55Z" stroke="rgb(0, 0, 0)" stroke-width="8" fill="rgb(0, 0, 0)" style="transform:matrix(0.020399999999999998,0,0,-0.020399999999999998,0,0);"></path></g></g><g style="transform:matrix(1,0,0,1,349.2552490234375,187.70728912353516);"><path d="M289 -175C226 -161 206 -117 206 -45L206 128C206 207 197 253 125 272L125 274C194 292 206 335 206 409L206 595C206 667 224 707 289 726C189 726 134 703 134 578L134 392C134 327 120 292 58 273C124 254 134 223 134 151L134 -17C134 -149 176 -175 289 -175Z" stroke="rgb(0, 0, 0)" stroke-width="8" fill="rgb(0, 0, 0)" style="transform:matrix(0.020399999999999998,0,0,-0.020399999999999998,0,0);"></path></g><g style="transform:matrix(1,0,0,1,357.0364990234375,187.04063262939454);"><path d="M24 388L31 368L63 389C100 412 103 414 110 414C121 414 128 404 128 389C128 338 87 145 46 2L53 -9C78 -2 101 4 123 8C142 134 163 199 209 268C263 352 338 414 383 414C394 414 400 405 400 390C400 372 397 351 389 319L337 107C328 70 324 47 324 31C324 6 335 -9 354 -9C380 -9 416 12 514 85L504 103L478 86C449 67 427 56 417 56C410 56 404 65 404 76C404 81 405 92 406 96L472 372C479 401 483 429 483 446C483 469 472 482 452 482C410 482 341 444 282 389C244 354 216 320 164 247L202 408C206 426 208 438 208 449C208 470 200 482 185 482C164 482 125 460 52 408Z" stroke="rgb(0, 0, 0)" stroke-width="8" fill="rgb(0, 0, 0)" style="transform:matrix(0.020399999999999998,0,0,-0.020399999999999998,0,0);"></path></g><g><g><g><g style="transform:matrix(1,0,0,1,368.96356201171875,191.30603912353516);"><path d="M16 23L16 -3C203 -3 203 0 239 0C275 0 275 -3 468 -3L468 82C353 77 307 81 122 77L304 270C401 373 431 428 431 503C431 618 353 689 226 689C154 689 105 669 56 619L39 483L68 483L81 529C97 587 133 612 200 612C286 612 341 558 341 473C341 398 299 324 186 204Z" stroke="rgb(0, 0, 0)" stroke-width="8" fill="rgb(0, 0, 0)" style="transform:matrix(0.01428,0,0,-0.01428,0,0);"></path></g></g></g></g><g style="transform:matrix(1,0,0,1,377.30731201171875,187.04063262939454);"><path d="M204 123C177 114 159 108 106 93C99 17 74 -48 16 -144L30 -155L71 -136C152 -31 190 32 218 109Z" stroke="rgb(0, 0, 0)" stroke-width="8" fill="rgb(0, 0, 0)" style="transform:matrix(0.020399999999999998,0,0,-0.020399999999999998,0,0);"></path></g><g style="transform:matrix(1,0,0,1,386.46356201171875,187.04063262939454);"><path d="M273 388L280 368L312 389C349 412 352 414 359 414C370 414 377 404 377 389C377 338 336 145 295 2L302 -9C327 -2 350 4 372 8C391 134 412 199 458 268C512 352 587 414 632 414C643 414 649 405 649 390C649 372 646 351 638 319L586 107C577 70 573 47 573 31C573 6 584 -9 603 -9C629 -9 665 12 763 85L753 103L727 86C698 67 676 56 666 56C659 56 653 65 653 76C653 81 654 92 655 96L721 372C728 401 732 429 732 446C732 469 721 482 701 482C659 482 590 444 531 389C493 354 465 320 413 247L451 408C455 426 457 438 457 449C457 470 449 482 434 482C413 482 374 460 301 408Z" stroke="rgb(0, 0, 0)" stroke-width="8" fill="rgb(0, 0, 0)" style="transform:matrix(0.020399999999999998,0,0,-0.020399999999999998,0,0);"></path></g><g><g><g><g style="transform:matrix(1,0,0,1,403.46356201171875,191.30603912353516);"><path d="M462 224C462 345 355 366 308 374C388 436 418 482 418 541C418 630 344 689 233 689C165 689 120 670 72 622L43 498L74 498L92 554C103 588 166 622 218 622C283 622 336 569 336 506C336 431 277 368 206 368C198 368 187 369 174 370L159 371L147 318L154 312C192 329 211 334 238 334C321 334 369 281 369 190C369 88 308 21 215 21C169 21 128 36 98 64C74 86 61 109 42 163L15 153C36 92 44 56 50 6C103 -12 147 -20 184 -20C307 -20 462 87 462 224Z" stroke="rgb(0, 0, 0)" stroke-width="8" fill="rgb(0, 0, 0)" style="transform:matrix(0.01428,0,0,-0.01428,0,0);"></path></g></g></g></g><g style="transform:matrix(1,0,0,1,411.80731201171875,187.04063262939454);"><path d="M204 123C177 114 159 108 106 93C99 17 74 -48 16 -144L30 -155L71 -136C152 -31 190 32 218 109Z" stroke="rgb(0, 0, 0)" stroke-width="8" fill="rgb(0, 0, 0)" style="transform:matrix(0.020399999999999998,0,0,-0.020399999999999998,0,0);"></path></g><g style="transform:matrix(1,0,0,1,420.96356201171875,187.04063262939454);"><path d="M273 388L280 368L312 389C349 412 352 414 359 414C370 414 377 404 377 389C377 338 336 145 295 2L302 -9C327 -2 350 4 372 8C391 134 412 199 458 268C512 352 587 414 632 414C643 414 649 405 649 390C649 372 646 351 638 319L586 107C577 70 573 47 573 31C573 6 584 -9 603 -9C629 -9 665 12 763 85L753 103L727 86C698 67 676 56 666 56C659 56 653 65 653 76C653 81 654 92 655 96L721 372C728 401 732 429 732 446C732 469 721 482 701 482C659 482 590 444 531 389C493 354 465 320 413 247L451 408C455 426 457 438 457 449C457 470 449 482 434 482C413 482 374 460 301 408Z" stroke="rgb(0, 0, 0)" stroke-width="8" fill="rgb(0, 0, 0)" style="transform:matrix(0.020399999999999998,0,0,-0.020399999999999998,0,0);"></path></g><g><g><g><g style="transform:matrix(1,0,0,1,437.96356201171875,191.30603912353516);"><path d="M280 181L280 106C280 46 269 32 220 30L158 27L158 -3C291 0 291 0 315 0C339 0 339 0 472 -3L472 27L424 30C375 33 364 46 364 106L364 181C423 181 444 180 472 177L472 248L364 245L365 697L285 667L2 204L2 181ZM280 245L65 245L280 597Z" stroke="rgb(0, 0, 0)" stroke-width="8" fill="rgb(0, 0, 0)" style="transform:matrix(0.01428,0,0,-0.01428,0,0);"></path></g></g></g></g><g style="transform:matrix(1,0,0,1,447.3177490234375,187.70728912353516);"><path d="M275 273C213 292 199 327 199 392L199 578C199 703 144 726 44 726C109 707 127 667 127 595L127 409C127 335 139 292 208 274L208 272C136 253 127 207 127 128L127 -45C127 -117 107 -161 44 -175C157 -175 199 -149 199 -17L199 151C199 223 209 254 275 273Z" stroke="rgb(0, 0, 0)" stroke-width="8" fill="rgb(0, 0, 0)" style="transform:matrix(0.020399999999999998,0,0,-0.020399999999999998,0,0);"></path></g></g></g></g></g></g><g><g><g><g><g><g style="transform:matrix(1,0,0,1,245.3802490234375,224.40478912353515);"><path d="M24 388L31 368L63 389C100 412 103 414 110 414C121 414 128 404 128 389C128 338 87 145 46 2L53 -9C78 -2 101 4 123 8C142 134 163 199 209 268C263 352 338 414 383 414C394 414 400 405 400 390C400 372 397 351 389 319L337 107C328 70 324 47 324 31C324 6 335 -9 354 -9C380 -9 416 12 514 85L504 103L478 86C449 67 427 56 417 56C410 56 404 65 404 76C404 81 405 92 406 96L472 372C479 401 483 429 483 446C483 469 472 482 452 482C410 482 341 444 282 389C244 354 216 320 164 247L202 408C206 426 208 438 208 449C208 470 200 482 185 482C164 482 125 460 52 408Z" stroke="rgb(0, 0, 0)" stroke-width="8" fill="rgb(0, 0, 0)" style="transform:matrix(0.02941,0,0,-0.02941,0,0);"></path></g><g><g><g><g style="transform:matrix(1,0,0,1,262.578125,230.25888262939452);"><path d="M418 -3L418 27L366 30C311 33 301 44 301 96L301 700L60 598L67 548L217 614L217 96C217 44 206 33 152 30L96 27L96 -3C250 0 250 0 261 0C292 0 402 -3 418 -3Z" stroke="rgb(0, 0, 0)" stroke-width="8" fill="rgb(0, 0, 0)" style="transform:matrix(0.020587,0,0,-0.020587,0,0);"></path></g></g></g></g></g></g></g></g></g><g><g><g><g><g><g style="transform:matrix(1,0,0,1,85.38021850585938,284.4047891235352);"><path d="M24 388L31 368L63 389C100 412 103 414 110 414C121 414 128 404 128 389C128 338 87 145 46 2L53 -9C78 -2 101 4 123 8C142 134 163 199 209 268C263 352 338 414 383 414C394 414 400 405 400 390C400 372 397 351 389 319L337 107C328 70 324 47 324 31C324 6 335 -9 354 -9C380 -9 416 12 514 85L504 103L478 86C449 67 427 56 417 56C410 56 404 65 404 76C404 81 405 92 406 96L472 372C479 401 483 429 483 446C483 469 472 482 452 482C410 482 341 444 282 389C244 354 216 320 164 247L202 408C206 426 208 438 208 449C208 470 200 482 185 482C164 482 125 460 52 408Z" stroke="rgb(0, 0, 0)" stroke-width="8" fill="rgb(0, 0, 0)" style="transform:matrix(0.02941,0,0,-0.02941,0,0);"></path></g><g><g><g><g style="transform:matrix(1,0,0,1,102.578125,290.2588826293945);"><path d="M168 345C127 326 110 315 88 294C50 256 30 211 30 159C30 56 113 -20 226 -20C356 -20 464 82 464 206C464 286 427 329 313 381C404 443 436 485 436 545C436 631 365 689 259 689C140 689 53 613 53 508C53 440 80 402 168 345ZM284 295C347 267 385 218 385 164C385 80 322 14 241 14C156 14 101 74 101 167C101 240 130 286 204 331ZM223 423C160 454 128 494 128 544C128 610 176 655 247 655C320 655 368 607 368 534C368 477 343 438 278 396Z" stroke="rgb(0, 0, 0)" stroke-width="8" fill="rgb(0, 0, 0)" style="transform:matrix(0.020587,0,0,-0.020587,0,0);"></path></g></g></g></g></g></g></g></g></g><g><g><g><g><g><g style="transform:matrix(1,0,0,1,457.4114990234375,316.56666412353513);"><path d="M435 298C435 364 420 455 298 455C236 455 188 424 156 383L156 694L81 694L81 0L159 0L159 245C159 311 184 394 260 394C356 394 357 323 357 291L357 0L435 0ZM914 289C914 391 841 461 749 461C684 461 639 445 592 418L598 352C650 389 700 402 749 402C796 402 836 362 836 288L836 245C686 243 559 201 559 113C559 70 586 -11 673 -11C687 -11 781 -9 839 36L839 0L914 0ZM836 132C836 113 836 88 802 69C773 51 735 50 724 50C676 50 631 73 631 115C631 185 793 192 836 194ZM1354 128C1354 183 1317 217 1315 220C1276 255 1249 261 1199 270C1144 281 1098 291 1098 340C1098 402 1170 402 1183 402C1215 402 1268 398 1325 364L1337 429C1285 453 1244 461 1193 461C1168 461 1027 461 1027 330C1027 281 1056 249 1081 230C1112 208 1134 204 1189 193C1225 186 1283 174 1283 121C1283 52 1204 52 1189 52C1108 52 1052 89 1034 101L1022 33C1054 17 1109 -11 1190 -11C1328 -11 1354 75 1354 128ZM1811 298C1811 364 1796 455 1674 455C1612 455 1564 424 1532 383L1532 694L1457 694L1457 0L1535 0L1535 245C1535 311 1560 394 1636 394C1732 394 1733 323 1733 291L1733 0L1811 0Z" stroke="rgb(0, 0, 0)" stroke-width="8" fill="rgb(0, 0, 0)" style="transform:matrix(0.020399999999999998,0,0,-0.020399999999999998,0,0);"></path></g><g style="transform:matrix(1,0,0,1,495.96356201171875,317.2333511352539);"><path d="M146 266C146 526 243 632 301 700L282 726C225 675 60 542 60 266C60 159 85 58 133 -32C168 -99 200 -138 282 -215L301 -194C255 -137 146 -15 146 266Z" stroke="rgb(0, 0, 0)" stroke-width="8" fill="rgb(0, 0, 0)" style="transform:matrix(0.020399999999999998,0,0,-0.020399999999999998,0,0);"></path></g><g style="transform:matrix(1,0,0,1,502.734375,316.56666412353513);"><path d="M105 469L137 665C138 667 138 669 138 671C138 689 116 709 95 709C74 709 52 689 52 670L52 665L85 469ZM286 469L318 665C319 667 319 669 319 670C319 689 297 709 276 709C254 709 233 690 233 670L233 665L266 469ZM527 694L452 694L452 0L530 0L530 46C554 24 597 -11 664 -11C764 -11 850 89 850 223C850 347 782 455 688 455C649 455 587 445 527 396ZM530 335C546 359 582 394 637 394C696 394 772 351 772 223C772 93 688 50 627 50C588 50 555 68 530 114ZM1284 289C1284 391 1211 461 1119 461C1054 461 1009 445 962 418L968 352C1020 389 1070 402 1119 402C1166 402 1206 362 1206 288L1206 245C1056 243 929 201 929 113C929 70 956 -11 1043 -11C1057 -11 1151 -9 1209 36L1209 0L1284 0ZM1206 132C1206 113 1206 88 1172 69C1143 51 1105 50 1094 50C1046 50 1001 73 1001 115C1001 185 1163 192 1206 194ZM1521 214C1521 314 1593 386 1691 388L1691 455C1602 454 1547 405 1516 359L1516 450L1446 450L1446 0L1521 0ZM1809 469L1841 665C1842 667 1842 669 1842 671C1842 689 1820 709 1799 709C1778 709 1756 689 1756 670L1756 665L1789 469ZM1990 469L2022 665C2023 667 2023 669 2023 670C2023 689 2001 709 1980 709C1958 709 1937 690 1937 670L1937 665L1970 469Z" stroke="rgb(0, 0, 0)" stroke-width="8" fill="rgb(0, 0, 0)" style="transform:matrix(0.020399999999999998,0,0,-0.020399999999999998,0,0);"></path></g><g style="transform:matrix(1,0,0,1,545.015625,317.2333511352539);"><path d="M51 726L32 700C87 636 187 526 187 266C187 -10 83 -131 32 -194L51 -215C104 -165 273 -23 273 265C273 542 108 675 51 726Z" stroke="rgb(0, 0, 0)" stroke-width="8" fill="rgb(0, 0, 0)" style="transform:matrix(0.020399999999999998,0,0,-0.020399999999999998,0,0);"></path></g></g></g></g></g><g><g><g><g><g style="transform:matrix(1,0,0,1,457.4114990234375,343.2333511352539);"><path d="" stroke="rgb(0, 0, 0)" stroke-width="8" fill="rgb(0, 0, 0)" style="transform:matrix(0.020399999999999998,0,0,-0.020399999999999998,0,0);"></path></g><g><g style="transform:matrix(1,0,0,1,497.02606201171875,343.2333511352539);"><path d="M949 272L743 486L711 452L836 300L65 300L65 241L836 241L711 89L743 55Z" stroke="rgb(0, 0, 0)" stroke-width="8" fill="rgb(0, 0, 0)" style="transform:matrix(0.020399999999999998,0,0,-0.020399999999999998,0,0);"></path></g></g><g style="transform:matrix(1,0,0,1,521.7552490234375,343.9000076293945);"><path d="M289 -175C226 -161 206 -117 206 -45L206 128C206 207 197 253 125 272L125 274C194 292 206 335 206 409L206 595C206 667 224 707 289 726C189 726 134 703 134 578L134 392C134 327 120 292 58 273C124 254 134 223 134 151L134 -17C134 -149 176 -175 289 -175Z" stroke="rgb(0, 0, 0)" stroke-width="8" fill="rgb(0, 0, 0)" style="transform:matrix(0.020399999999999998,0,0,-0.020399999999999998,0,0);"></path></g><g style="transform:matrix(1,0,0,1,529.5364990234375,343.2333511352539);"><path d="M24 388L31 368L63 389C100 412 103 414 110 414C121 414 128 404 128 389C128 338 87 145 46 2L53 -9C78 -2 101 4 123 8C142 134 163 199 209 268C263 352 338 414 383 414C394 414 400 405 400 390C400 372 397 351 389 319L337 107C328 70 324 47 324 31C324 6 335 -9 354 -9C380 -9 416 12 514 85L504 103L478 86C449 67 427 56 417 56C410 56 404 65 404 76C404 81 405 92 406 96L472 372C479 401 483 429 483 446C483 469 472 482 452 482C410 482 341 444 282 389C244 354 216 320 164 247L202 408C206 426 208 438 208 449C208 470 200 482 185 482C164 482 125 460 52 408Z" stroke="rgb(0, 0, 0)" stroke-width="8" fill="rgb(0, 0, 0)" style="transform:matrix(0.020399999999999998,0,0,-0.020399999999999998,0,0);"></path></g><g><g><g><g style="transform:matrix(1,0,0,1,541.4635620117188,347.4987576293945);"><path d="M462 224C462 345 355 366 308 374C388 436 418 482 418 541C418 630 344 689 233 689C165 689 120 670 72 622L43 498L74 498L92 554C103 588 166 622 218 622C283 622 336 569 336 506C336 431 277 368 206 368C198 368 187 369 174 370L159 371L147 318L154 312C192 329 211 334 238 334C321 334 369 281 369 190C369 88 308 21 215 21C169 21 128 36 98 64C74 86 61 109 42 163L15 153C36 92 44 56 50 6C103 -12 147 -20 184 -20C307 -20 462 87 462 224Z" stroke="rgb(0, 0, 0)" stroke-width="8" fill="rgb(0, 0, 0)" style="transform:matrix(0.01428,0,0,-0.01428,0,0);"></path></g></g></g></g><g style="transform:matrix(1,0,0,1,549.8073120117188,343.2333511352539);"><path d="M204 123C177 114 159 108 106 93C99 17 74 -48 16 -144L30 -155L71 -136C152 -31 190 32 218 109Z" stroke="rgb(0, 0, 0)" stroke-width="8" fill="rgb(0, 0, 0)" style="transform:matrix(0.020399999999999998,0,0,-0.020399999999999998,0,0);"></path></g><g style="transform:matrix(1,0,0,1,558.9635620117188,343.2333511352539);"><path d="M273 388L280 368L312 389C349 412 352 414 359 414C370 414 377 404 377 389C377 338 336 145 295 2L302 -9C327 -2 350 4 372 8C391 134 412 199 458 268C512 352 587 414 632 414C643 414 649 405 649 390C649 372 646 351 638 319L586 107C577 70 573 47 573 31C573 6 584 -9 603 -9C629 -9 665 12 763 85L753 103L727 86C698 67 676 56 666 56C659 56 653 65 653 76C653 81 654 92 655 96L721 372C728 401 732 429 732 446C732 469 721 482 701 482C659 482 590 444 531 389C493 354 465 320 413 247L451 408C455 426 457 438 457 449C457 470 449 482 434 482C413 482 374 460 301 408Z" stroke="rgb(0, 0, 0)" stroke-width="8" fill="rgb(0, 0, 0)" style="transform:matrix(0.020399999999999998,0,0,-0.020399999999999998,0,0);"></path></g><g><g><g><g style="transform:matrix(1,0,0,1,575.9635620117188,347.4987576293945);"><path d="M280 181L280 106C280 46 269 32 220 30L158 27L158 -3C291 0 291 0 315 0C339 0 339 0 472 -3L472 27L424 30C375 33 364 46 364 106L364 181C423 181 444 180 472 177L472 248L364 245L365 697L285 667L2 204L2 181ZM280 245L65 245L280 597Z" stroke="rgb(0, 0, 0)" stroke-width="8" fill="rgb(0, 0, 0)" style="transform:matrix(0.01428,0,0,-0.01428,0,0);"></path></g></g></g></g><g style="transform:matrix(1,0,0,1,584.3073120117188,343.2333511352539);"><path d="M204 123C177 114 159 108 106 93C99 17 74 -48 16 -144L30 -155L71 -136C152 -31 190 32 218 109Z" stroke="rgb(0, 0, 0)" stroke-width="8" fill="rgb(0, 0, 0)" style="transform:matrix(0.020399999999999998,0,0,-0.020399999999999998,0,0);"></path></g><g style="transform:matrix(1,0,0,1,593.4635620117188,343.2333511352539);"><path d="M273 388L280 368L312 389C349 412 352 414 359 414C370 414 377 404 377 389C377 338 336 145 295 2L302 -9C327 -2 350 4 372 8C391 134 412 199 458 268C512 352 587 414 632 414C643 414 649 405 649 390C649 372 646 351 638 319L586 107C577 70 573 47 573 31C573 6 584 -9 603 -9C629 -9 665 12 763 85L753 103L727 86C698 67 676 56 666 56C659 56 653 65 653 76C653 81 654 92 655 96L721 372C728 401 732 429 732 446C732 469 721 482 701 482C659 482 590 444 531 389C493 354 465 320 413 247L451 408C455 426 457 438 457 449C457 470 449 482 434 482C413 482 374 460 301 408Z" stroke="rgb(0, 0, 0)" stroke-width="8" fill="rgb(0, 0, 0)" style="transform:matrix(0.020399999999999998,0,0,-0.020399999999999998,0,0);"></path></g><g><g><g><g style="transform:matrix(1,0,0,1,610.463623046875,347.4987576293945);"><path d="M459 253C459 366 378 446 264 446C216 446 180 443 127 396L127 605L432 604L432 689L75 690L75 322L95 316C142 363 169 377 218 377C314 377 374 309 374 201C374 90 310 25 201 25C147 25 97 43 83 69L37 151L13 137C36 80 48 48 62 4C90 -11 130 -20 173 -20C301 -20 459 89 459 253Z" stroke="rgb(0, 0, 0)" stroke-width="8" fill="rgb(0, 0, 0)" style="transform:matrix(0.01428,0,0,-0.01428,0,0);"></path></g></g></g></g><g style="transform:matrix(1,0,0,1,619.8177490234375,343.9000076293945);"><path d="M275 273C213 292 199 327 199 392L199 578C199 703 144 726 44 726C109 707 127 667 127 595L127 409C127 335 139 292 208 274L208 272C136 253 127 207 127 128L127 -45C127 -117 107 -161 44 -175C157 -175 199 -149 199 -17L199 151C199 223 209 254 275 273Z" stroke="rgb(0, 0, 0)" stroke-width="8" fill="rgb(0, 0, 0)" style="transform:matrix(0.020399999999999998,0,0,-0.020399999999999998,0,0);"></path></g></g></g></g></g></g><g><g><g><g><g><g style="transform:matrix(1,0,0,1,254.71356201171875,324.78125762939453);"><path d="M175 386L316 386L316 444L175 444L175 571L106 571L106 444L19 444L19 386L103 386L103 119C103 59 117 -11 186 -11C256 -11 307 14 332 27L316 86C290 65 258 53 226 53C189 53 175 83 175 136Z" stroke="rgb(0, 0, 0)" stroke-width="8" fill="rgb(0, 0, 0)" style="transform:matrix(0.017,0,0,-0.017,0,0);"></path></g><g><g><g><g style="transform:matrix(1,0,0,1,261.33856201171875,328.4521011352539);"><path d="M299 689L279 689C220 627 137 624 89 622L89 563C122 564 170 566 220 587L220 59L95 59L95 0L424 0L424 59L299 59Z" stroke="rgb(0, 0, 0)" stroke-width="8" fill="rgb(0, 0, 0)" style="transform:matrix(0.0119,0,0,-0.0119,0,0);"></path></g></g></g></g></g></g></g></g></g><g><g><g><g><g><g style="transform:matrix(1,0,0,1,331.71356201171875,354.78125762939453);"><path d="M175 386L316 386L316 444L175 444L175 571L106 571L106 444L19 444L19 386L103 386L103 119C103 59 117 -11 186 -11C256 -11 307 14 332 27L316 86C290 65 258 53 226 53C189 53 175 83 175 136Z" stroke="rgb(0, 0, 0)" stroke-width="8" fill="rgb(0, 0, 0)" style="transform:matrix(0.017,0,0,-0.017,0,0);"></path></g><g><g><g><g style="transform:matrix(1,0,0,1,338.33856201171875,358.4521011352539);"><path d="M83 466C103 545 131 624 222 624C316 624 367 548 367 468C367 382 310 324 251 263L174 191L50 65L50 0L449 0L449 72L267 72C255 72 243 71 231 71L122 71C154 100 230 176 261 205C333 274 449 347 449 471C449 587 368 689 236 689C122 689 66 610 42 522C66 487 59 501 83 466Z" stroke="rgb(0, 0, 0)" stroke-width="8" fill="rgb(0, 0, 0)" style="transform:matrix(0.0119,0,0,-0.0119,0,0);"></path></g></g></g></g></g></g></g></g></g><g><g><g><g><g><g style="transform:matrix(1,0,0,1,359.71356201171875,439.78125762939453);"><path d="M175 386L316 386L316 444L175 444L175 571L106 571L106 444L19 444L19 386L103 386L103 119C103 59 117 -11 186 -11C256 -11 307 14 332 27L316 86C290 65 258 53 226 53C189 53 175 83 175 136Z" stroke="rgb(0, 0, 0)" stroke-width="8" fill="rgb(0, 0, 0)" style="transform:matrix(0.017,0,0,-0.017,0,0);"></path></g><g><g><g><g style="transform:matrix(1,0,0,1,366.33856201171875,443.4521011352539);"><path d="M92 522C121 593 186 630 247 630C299 630 348 600 348 535C348 473 307 413 246 398C240 397 238 397 167 391L167 329L238 329C346 329 368 235 368 184C368 105 322 40 245 40C176 40 97 75 53 144L42 83C115 -12 207 -22 247 -22C369 -22 457 76 457 183C457 275 387 338 319 360C395 401 430 471 430 535C430 622 347 689 248 689C171 689 98 648 56 577Z" stroke="rgb(0, 0, 0)" stroke-width="8" fill="rgb(0, 0, 0)" style="transform:matrix(0.0119,0,0,-0.0119,0,0);"></path></g></g></g></g></g></g></g></g></g></svg>
</svg>
