<svg xmlns="http://www.w3.org/2000/svg" width="651" height="384.66668701171875" style="
        width:651px;
        height:384.66668701171875px;
        background: transparent;
        fill: none;
">
        
        
        <svg xmlns="http://www.w3.org/2000/svg" class="role-diagram-draw-area"><g class="shapes-region" style="stroke: black; fill: none;"><g class="composite-shape"><path class="real" d=" M40.4,190 C40.4,107.38 107.38,40.4 190,40.4 C272.62,40.4 339.6,107.38 339.6,190 C339.6,272.62 272.62,339.6 190,339.6 C107.38,339.6 40.4,272.62 40.4,190 Z" style="stroke-width: 1; stroke: rgba(0, 0, 0, 0.52); fill: none; stroke-dasharray: 1.125, 3.35;"/></g><g class="composite-shape"><path class="real" d=" M160,340 C160,323.43 173.43,310 190,310 C206.57,310 220,323.43 220,340 C220,356.57 206.57,370 190,370 C173.43,370 160,356.57 160,340 Z" style="stroke-width: 1; stroke: rgb(0, 0, 0); fill: rgb(130, 192, 233); stroke-dasharray: 6, 6;"/></g><g class="composite-shape"><path class="real" d=" M160,40 C160,23.43 173.43,10 190,10 C206.57,10 220,23.43 220,40 C220,56.57 206.57,70 190,70 C173.43,70 160,56.57 160,40 Z" style="stroke-width: 1; stroke: rgb(0, 0, 0); fill: rgb(130, 192, 233); stroke-dasharray: 6, 6;"/></g><g class="composite-shape"><path class="real" d=" M310,190 C310,173.43 323.43,160 340,160 C356.57,160 370,173.43 370,190 C370,206.57 356.57,220 340,220 C323.43,220 310,206.57 310,190 Z" style="stroke-width: 1; stroke: rgb(0, 0, 0); fill: rgb(103, 148, 135); stroke-dasharray: 1.125, 3.35;"/></g><g class="composite-shape"><path class="real" d=" M10,190 C10,173.43 23.43,160 40,160 C56.57,160 70,173.43 70,190 C70,206.57 56.57,220 40,220 C23.43,220 10,206.57 10,190 Z" style="stroke-width: 1; stroke: rgb(0, 0, 0); fill: rgb(103, 148, 135); stroke-dasharray: 1.125, 3.35;"/></g><g class="composite-shape"><path class="real" d=" M270,80 C270,63.43 283.43,50 300,50 C316.57,50 330,63.43 330,80 C330,96.57 316.57,110 300,110 C283.43,110 270,96.57 270,80 Z" style="stroke-width: 1; stroke: rgb(0, 0, 0); fill: rgb(202, 194, 126);"/></g><g class="composite-shape"><path class="real" d=" M270,300 C270,283.43 283.43,270 300,270 C316.57,270 330,283.43 330,300 C330,316.57 316.57,330 300,330 C283.43,330 270,316.57 270,300 Z" style="stroke-width: 1; stroke: rgb(0, 0, 0); fill: rgb(187, 187, 187);"/></g><g class="composite-shape"><path class="real" d=" M50,300 C50,283.43 63.43,270 80,270 C96.57,270 110,283.43 110,300 C110,316.57 96.57,330 80,330 C63.43,330 50,316.57 50,300 Z" style="stroke-width: 1; stroke: rgb(0, 0, 0); fill: rgb(202, 194, 126);"/></g><g class="composite-shape"><path class="real" d=" M50,80 C50,63.43 63.43,50 80,50 C96.57,50 110,63.43 110,80 C110,96.57 96.57,110 80,110 C63.43,110 50,96.57 50,80 Z" style="stroke-width: 1; stroke: rgb(0, 0, 0); fill: rgb(187, 187, 187);"/></g><g class="composite-shape"><path class="real" d=" M380,158.4 C380,146.47 389.67,136.8 401.6,136.8 C413.53,136.8 423.2,146.47 423.2,158.4 C423.2,170.33 413.53,180 401.6,180 C389.67,180 380,170.33 380,158.4 Z" style="stroke-width: 1; stroke: rgb(0, 0, 0); fill: rgb(103, 148, 135); stroke-dasharray: 1.125, 3.35;"/></g><g class="composite-shape"><path class="real" d=" M380,101.6 C380,89.67 389.67,80 401.6,80 C413.53,80 423.2,89.67 423.2,101.6 C423.2,113.53 413.53,123.2 401.6,123.2 C389.67,123.2 380,113.53 380,101.6 Z" style="stroke-width: 1; stroke: rgb(0, 0, 0); fill: rgb(130, 192, 233); stroke-dasharray: 6, 6;"/></g><g class="composite-shape"><path class="real" d=" M380,218.4 C380,206.47 389.67,196.8 401.6,196.8 C413.53,196.8 423.2,206.47 423.2,218.4 C423.2,230.33 413.53,240 401.6,240 C389.67,240 380,230.33 380,218.4 Z" style="stroke-width: 1; stroke: rgb(0, 0, 0); fill: rgb(202, 194, 126);"/></g><g class="composite-shape"><path class="real" d=" M380,278.4 C380,266.47 389.67,256.8 401.6,256.8 C413.53,256.8 423.2,266.47 423.2,278.4 C423.2,290.33 413.53,300 401.6,300 C389.67,300 380,290.33 380,278.4 Z" style="stroke-width: 1; stroke: rgb(0, 0, 0); fill: rgb(187, 187, 187);"/></g><g class="composite-shape"><path class="real" d=" M430,80 L640,80 L640,300 L430,300 Z" style="stroke-width: 1; stroke: rgb(0, 0, 0); fill: none;"/></g><g/></g><g/><g/><g/></svg>
        <svg xmlns="http://www.w3.org/2000/svg" width="649" height="382.66668701171875" style="width:649px;height:382.66668701171875px;font-family:Asana-Math, Asana;background:transparent;"><g><g><g><g><g><g style="transform:matrix(1,0,0,1,178.65625,348.9985620117188);"><path d="M125 390L69 107C68 99 56 61 56 31C56 6 67 -9 86 -9C121 -9 156 11 234 74L265 99L255 117L210 86C181 66 161 56 150 56C141 56 136 64 136 76C136 102 150 183 179 328L192 390L299 390L310 440C272 436 238 434 200 434C216 528 227 577 245 631L234 646C214 634 187 622 156 610L131 440C87 419 61 408 43 403L41 390Z" stroke="rgb(0, 0, 0)" stroke-width="8" fill="rgb(0, 0, 0)" style="transform:matrix(0.02941,0,0,-0.02941,0,0);"></path></g><g><g><g><g style="transform:matrix(1,0,0,1,189.3021240234375,354.852625);"><path d="M459 253C459 366 378 446 264 446C216 446 180 443 127 396L127 605L432 604L432 689L75 690L75 322L95 316C142 363 169 377 218 377C314 377 374 309 374 201C374 90 310 25 201 25C147 25 97 43 83 69L37 151L13 137C36 80 48 48 62 4C90 -11 130 -20 173 -20C301 -20 459 89 459 253Z" stroke="rgb(0, 0, 0)" stroke-width="8" fill="rgb(0, 0, 0)" style="transform:matrix(0.020587,0,0,-0.020587,0,0);"></path></g></g></g></g></g></g></g></g></g><g><g><g><g><g><g style="transform:matrix(1,0,0,1,178.65625,49.800625);"><path d="M125 390L69 107C68 99 56 61 56 31C56 6 67 -9 86 -9C121 -9 156 11 234 74L265 99L255 117L210 86C181 66 161 56 150 56C141 56 136 64 136 76C136 102 150 183 179 328L192 390L299 390L310 440C272 436 238 434 200 434C216 528 227 577 245 631L234 646C214 634 187 622 156 610L131 440C87 419 61 408 43 403L41 390Z" stroke="rgb(0, 0, 0)" stroke-width="8" fill="rgb(0, 0, 0)" style="transform:matrix(0.02941,0,0,-0.02941,0,0);"></path></g><g><g><g><g style="transform:matrix(1,0,0,1,189.3021240234375,55.65471850585938);"><path d="M418 -3L418 27L366 30C311 33 301 44 301 96L301 700L60 598L67 548L217 614L217 96C217 44 206 33 152 30L96 27L96 -3C250 0 250 0 261 0C292 0 402 -3 418 -3Z" stroke="rgb(0, 0, 0)" stroke-width="8" fill="rgb(0, 0, 0)" style="transform:matrix(0.020587,0,0,-0.020587,0,0);"></path></g></g></g></g></g></g></g></g></g><g><g><g><g><g><g style="transform:matrix(1,0,0,1,328.25,199.40481201171875);"><path d="M125 390L69 107C68 99 56 61 56 31C56 6 67 -9 86 -9C121 -9 156 11 234 74L265 99L255 117L210 86C181 66 161 56 150 56C141 56 136 64 136 76C136 102 150 183 179 328L192 390L299 390L310 440C272 436 238 434 200 434C216 528 227 577 245 631L234 646C214 634 187 622 156 610L131 440C87 419 61 408 43 403L41 390Z" stroke="rgb(0, 0, 0)" stroke-width="8" fill="rgb(0, 0, 0)" style="transform:matrix(0.02941,0,0,-0.02941,0,0);"></path></g><g><g><g><g style="transform:matrix(1,0,0,1,338.8958740234375,205.258875);"><path d="M462 224C462 345 355 366 308 374C388 436 418 482 418 541C418 630 344 689 233 689C165 689 120 670 72 622L43 498L74 498L92 554C103 588 166 622 218 622C283 622 336 569 336 506C336 431 277 368 206 368C198 368 187 369 174 370L159 371L147 318L154 312C192 329 211 334 238 334C321 334 369 281 369 190C369 88 308 21 215 21C169 21 128 36 98 64C74 86 61 109 42 163L15 153C36 92 44 56 50 6C103 -12 147 -20 184 -20C307 -20 462 87 462 224Z" stroke="rgb(0, 0, 0)" stroke-width="8" fill="rgb(0, 0, 0)" style="transform:matrix(0.020587,0,0,-0.020587,0,0);"></path></g></g></g></g></g></g></g></g></g><g><g><g><g><g><g style="transform:matrix(1,0,0,1,29.052093505859375,199.40481201171875);"><path d="M125 390L69 107C68 99 56 61 56 31C56 6 67 -9 86 -9C121 -9 156 11 234 74L265 99L255 117L210 86C181 66 161 56 150 56C141 56 136 64 136 76C136 102 150 183 179 328L192 390L299 390L310 440C272 436 238 434 200 434C216 528 227 577 245 631L234 646C214 634 187 622 156 610L131 440C87 419 61 408 43 403L41 390Z" stroke="rgb(0, 0, 0)" stroke-width="8" fill="rgb(0, 0, 0)" style="transform:matrix(0.02941,0,0,-0.02941,0,0);"></path></g><g><g><g><g style="transform:matrix(1,0,0,1,39.69793701171875,205.258875);"><path d="M409 603L47 -1L157 -1L497 659L497 689L44 689L44 477L74 477L81 533C89 595 96 603 142 603Z" stroke="rgb(0, 0, 0)" stroke-width="8" fill="rgb(0, 0, 0)" style="transform:matrix(0.020587,0,0,-0.020587,0,0);"></path></g></g></g></g></g></g></g></g></g><g><g><g><g><g><g style="transform:matrix(1,0,0,1,287.44793701171875,90.60271850585937);"><path d="M125 390L69 107C68 99 56 61 56 31C56 6 67 -9 86 -9C121 -9 156 11 234 74L265 99L255 117L210 86C181 66 161 56 150 56C141 56 136 64 136 76C136 102 150 183 179 328L192 390L299 390L310 440C272 436 238 434 200 434C216 528 227 577 245 631L234 646C214 634 187 622 156 610L131 440C87 419 61 408 43 403L41 390Z" stroke="rgb(0, 0, 0)" stroke-width="8" fill="rgb(0, 0, 0)" style="transform:matrix(0.02941,0,0,-0.02941,0,0);"></path></g><g><g><g><g style="transform:matrix(1,0,0,1,298.09375,96.45679675292969);"><path d="M16 23L16 -3C203 -3 203 0 239 0C275 0 275 -3 468 -3L468 82C353 77 307 81 122 77L304 270C401 373 431 428 431 503C431 618 353 689 226 689C154 689 105 669 56 619L39 483L68 483L81 529C97 587 133 612 200 612C286 612 341 558 341 473C341 398 299 324 186 204Z" stroke="rgb(0, 0, 0)" stroke-width="8" fill="rgb(0, 0, 0)" style="transform:matrix(0.020587,0,0,-0.020587,0,0);"></path></g></g></g></g></g></g></g></g></g><g><g><g><g><g><g style="transform:matrix(1,0,0,1,287.44793701171875,308.1964685058594);"><path d="M125 390L69 107C68 99 56 61 56 31C56 6 67 -9 86 -9C121 -9 156 11 234 74L265 99L255 117L210 86C181 66 161 56 150 56C141 56 136 64 136 76C136 102 150 183 179 328L192 390L299 390L310 440C272 436 238 434 200 434C216 528 227 577 245 631L234 646C214 634 187 622 156 610L131 440C87 419 61 408 43 403L41 390Z" stroke="rgb(0, 0, 0)" stroke-width="8" fill="rgb(0, 0, 0)" style="transform:matrix(0.02941,0,0,-0.02941,0,0);"></path></g><g><g><g><g style="transform:matrix(1,0,0,1,298.09375,314.05056201171874);"><path d="M280 181L280 106C280 46 269 32 220 30L158 27L158 -3C291 0 291 0 315 0C339 0 339 0 472 -3L472 27L424 30C375 33 364 46 364 106L364 181C423 181 444 180 472 177L472 248L364 245L365 697L285 667L2 204L2 181ZM280 245L65 245L280 597Z" stroke="rgb(0, 0, 0)" stroke-width="8" fill="rgb(0, 0, 0)" style="transform:matrix(0.020587,0,0,-0.020587,0,0);"></path></g></g></g></g></g></g></g></g></g><g><g><g><g><g><g style="transform:matrix(1,0,0,1,69.85418701171875,308.1964685058594);"><path d="M125 390L69 107C68 99 56 61 56 31C56 6 67 -9 86 -9C121 -9 156 11 234 74L265 99L255 117L210 86C181 66 161 56 150 56C141 56 136 64 136 76C136 102 150 183 179 328L192 390L299 390L310 440C272 436 238 434 200 434C216 528 227 577 245 631L234 646C214 634 187 622 156 610L131 440C87 419 61 408 43 403L41 390Z" stroke="rgb(0, 0, 0)" stroke-width="8" fill="rgb(0, 0, 0)" style="transform:matrix(0.02941,0,0,-0.02941,0,0);"></path></g><g><g><g><g style="transform:matrix(1,0,0,1,80.5,314.05056201171874);"><path d="M131 331C152 512 241 611 421 665L379 689C283 657 242 637 191 593C88 506 32 384 32 247C32 82 112 -20 241 -20C371 -20 468 83 468 219C468 334 399 409 293 409C216 409 184 370 131 331ZM255 349C331 349 382 283 382 184C382 80 331 13 254 13C169 13 123 86 123 220C123 255 127 274 138 291C160 325 207 349 255 349Z" stroke="rgb(0, 0, 0)" stroke-width="8" fill="rgb(0, 0, 0)" style="transform:matrix(0.020587,0,0,-0.020587,0,0);"></path></g></g></g></g></g></g></g></g></g><g><g><g><g><g><g style="transform:matrix(1,0,0,1,69.85418701171875,90.60271850585937);"><path d="M125 390L69 107C68 99 56 61 56 31C56 6 67 -9 86 -9C121 -9 156 11 234 74L265 99L255 117L210 86C181 66 161 56 150 56C141 56 136 64 136 76C136 102 150 183 179 328L192 390L299 390L310 440C272 436 238 434 200 434C216 528 227 577 245 631L234 646C214 634 187 622 156 610L131 440C87 419 61 408 43 403L41 390Z" stroke="rgb(0, 0, 0)" stroke-width="8" fill="rgb(0, 0, 0)" style="transform:matrix(0.02941,0,0,-0.02941,0,0);"></path></g><g><g><g><g style="transform:matrix(1,0,0,1,80.5,96.45679675292969);"><path d="M168 345C127 326 110 315 88 294C50 256 30 211 30 159C30 56 113 -20 226 -20C356 -20 464 82 464 206C464 286 427 329 313 381C404 443 436 485 436 545C436 631 365 689 259 689C140 689 53 613 53 508C53 440 80 402 168 345ZM284 295C347 267 385 218 385 164C385 80 322 14 241 14C156 14 101 74 101 167C101 240 130 286 204 331ZM223 423C160 454 128 494 128 544C128 610 176 655 247 655C320 655 368 607 368 534C368 477 343 438 278 396Z" stroke="rgb(0, 0, 0)" stroke-width="8" fill="rgb(0, 0, 0)" style="transform:matrix(0.020587,0,0,-0.020587,0,0);"></path></g></g></g></g></g></g></g></g></g><g><g><g><g><g><g style="transform:matrix(1,0,0,1,386.9739990234375,167.800625);"><path d="M24 388L31 368L63 389C100 412 103 414 110 414C121 414 128 404 128 389C128 338 87 145 46 2L53 -9C78 -2 101 4 123 8C142 134 163 199 209 268C263 352 338 414 383 414C394 414 400 405 400 390C400 372 397 351 389 319L337 107C328 70 324 47 324 31C324 6 335 -9 354 -9C380 -9 416 12 514 85L504 103L478 86C449 67 427 56 417 56C410 56 404 65 404 76C404 81 405 92 406 96L472 372C479 401 483 429 483 446C483 469 472 482 452 482C410 482 341 444 282 389C244 354 216 320 164 247L202 408C206 426 208 438 208 449C208 470 200 482 185 482C164 482 125 460 52 408Z" stroke="rgb(0, 0, 0)" stroke-width="8" fill="rgb(0, 0, 0)" style="transform:matrix(0.02941,0,0,-0.02941,0,0);"></path></g><g><g><g><g style="transform:matrix(1,0,0,1,404.171875,173.65471850585936);"><path d="M16 23L16 -3C203 -3 203 0 239 0C275 0 275 -3 468 -3L468 82C353 77 307 81 122 77L304 270C401 373 431 428 431 503C431 618 353 689 226 689C154 689 105 669 56 619L39 483L68 483L81 529C97 587 133 612 200 612C286 612 341 558 341 473C341 398 299 324 186 204Z" stroke="rgb(0, 0, 0)" stroke-width="8" fill="rgb(0, 0, 0)" style="transform:matrix(0.020587,0,0,-0.020587,0,0);"></path></g></g></g></g></g></g></g></g></g><g><g><g><g><g><g style="transform:matrix(1,0,0,1,386.9739990234375,110.99856201171875);"><path d="M24 388L31 368L63 389C100 412 103 414 110 414C121 414 128 404 128 389C128 338 87 145 46 2L53 -9C78 -2 101 4 123 8C142 134 163 199 209 268C263 352 338 414 383 414C394 414 400 405 400 390C400 372 397 351 389 319L337 107C328 70 324 47 324 31C324 6 335 -9 354 -9C380 -9 416 12 514 85L504 103L478 86C449 67 427 56 417 56C410 56 404 65 404 76C404 81 405 92 406 96L472 372C479 401 483 429 483 446C483 469 472 482 452 482C410 482 341 444 282 389C244 354 216 320 164 247L202 408C206 426 208 438 208 449C208 470 200 482 185 482C164 482 125 460 52 408Z" stroke="rgb(0, 0, 0)" stroke-width="8" fill="rgb(0, 0, 0)" style="transform:matrix(0.02941,0,0,-0.02941,0,0);"></path></g><g><g><g><g style="transform:matrix(1,0,0,1,404.171875,116.852625);"><path d="M418 -3L418 27L366 30C311 33 301 44 301 96L301 700L60 598L67 548L217 614L217 96C217 44 206 33 152 30L96 27L96 -3C250 0 250 0 261 0C292 0 402 -3 418 -3Z" stroke="rgb(0, 0, 0)" stroke-width="8" fill="rgb(0, 0, 0)" style="transform:matrix(0.020587,0,0,-0.020587,0,0);"></path></g></g></g></g></g></g></g></g></g><g><g><g><g><g><g style="transform:matrix(1,0,0,1,386.9739990234375,227.800625);"><path d="M24 388L31 368L63 389C100 412 103 414 110 414C121 414 128 404 128 389C128 338 87 145 46 2L53 -9C78 -2 101 4 123 8C142 134 163 199 209 268C263 352 338 414 383 414C394 414 400 405 400 390C400 372 397 351 389 319L337 107C328 70 324 47 324 31C324 6 335 -9 354 -9C380 -9 416 12 514 85L504 103L478 86C449 67 427 56 417 56C410 56 404 65 404 76C404 81 405 92 406 96L472 372C479 401 483 429 483 446C483 469 472 482 452 482C410 482 341 444 282 389C244 354 216 320 164 247L202 408C206 426 208 438 208 449C208 470 200 482 185 482C164 482 125 460 52 408Z" stroke="rgb(0, 0, 0)" stroke-width="8" fill="rgb(0, 0, 0)" style="transform:matrix(0.02941,0,0,-0.02941,0,0);"></path></g><g><g><g><g style="transform:matrix(1,0,0,1,404.171875,233.65471850585936);"><path d="M462 224C462 345 355 366 308 374C388 436 418 482 418 541C418 630 344 689 233 689C165 689 120 670 72 622L43 498L74 498L92 554C103 588 166 622 218 622C283 622 336 569 336 506C336 431 277 368 206 368C198 368 187 369 174 370L159 371L147 318L154 312C192 329 211 334 238 334C321 334 369 281 369 190C369 88 308 21 215 21C169 21 128 36 98 64C74 86 61 109 42 163L15 153C36 92 44 56 50 6C103 -12 147 -20 184 -20C307 -20 462 87 462 224Z" stroke="rgb(0, 0, 0)" stroke-width="8" fill="rgb(0, 0, 0)" style="transform:matrix(0.020587,0,0,-0.020587,0,0);"></path></g></g></g></g></g></g></g></g></g><g><g><g><g><g><g style="transform:matrix(1,0,0,1,386.9739990234375,287.800625);"><path d="M24 388L31 368L63 389C100 412 103 414 110 414C121 414 128 404 128 389C128 338 87 145 46 2L53 -9C78 -2 101 4 123 8C142 134 163 199 209 268C263 352 338 414 383 414C394 414 400 405 400 390C400 372 397 351 389 319L337 107C328 70 324 47 324 31C324 6 335 -9 354 -9C380 -9 416 12 514 85L504 103L478 86C449 67 427 56 417 56C410 56 404 65 404 76C404 81 405 92 406 96L472 372C479 401 483 429 483 446C483 469 472 482 452 482C410 482 341 444 282 389C244 354 216 320 164 247L202 408C206 426 208 438 208 449C208 470 200 482 185 482C164 482 125 460 52 408Z" stroke="rgb(0, 0, 0)" stroke-width="8" fill="rgb(0, 0, 0)" style="transform:matrix(0.02941,0,0,-0.02941,0,0);"></path></g><g><g><g><g style="transform:matrix(1,0,0,1,404.171875,293.65471850585936);"><path d="M280 181L280 106C280 46 269 32 220 30L158 27L158 -3C291 0 291 0 315 0C339 0 339 0 472 -3L472 27L424 30C375 33 364 46 364 106L364 181C423 181 444 180 472 177L472 248L364 245L365 697L285 667L2 204L2 181ZM280 245L65 245L280 597Z" stroke="rgb(0, 0, 0)" stroke-width="8" fill="rgb(0, 0, 0)" style="transform:matrix(0.020587,0,0,-0.020587,0,0);"></path></g></g></g></g></g></g></g></g></g><g><g><g><g><g><g style="transform:matrix(1,0,0,1,438.125,111.64668701171875);"><path d="M125 390L69 107C68 99 56 61 56 31C56 6 67 -9 86 -9C121 -9 156 11 234 74L265 99L255 117L210 86C181 66 161 56 150 56C141 56 136 64 136 76C136 102 150 183 179 328L192 390L299 390L310 440C272 436 238 434 200 434C216 528 227 577 245 631L234 646C214 634 187 622 156 610L131 440C87 419 61 408 43 403L41 390ZM349 152C349 46 394 -11 477 -11C532 -11 592 15 637 57C699 116 743 230 743 331C743 425 693 482 610 482C506 482 349 382 349 152ZM573 444C634 444 667 399 667 315C667 219 636 113 592 60C574 39 548 27 517 27C459 27 425 72 425 151C425 264 464 387 513 427C526 438 549 444 573 444ZM1015 722L1003 733C951 707 915 698 843 691L839 670L887 670C911 670 921 663 921 646C921 638 920 629 919 622L871 354C857 279 841 210 789 1L798 -9L865 8L888 132C897 180 921 225 955 259C1024 59 1056 -9 1081 -9C1094 -9 1118 4 1162 35L1208 67L1200 86L1157 62C1143 54 1136 52 1128 52C1118 52 1111 58 1102 75C1067 139 1045 193 1006 316L1020 330C1081 391 1127 416 1177 416C1185 416 1196 414 1213 410L1230 473C1212 479 1194 482 1182 482C1116 482 1033 405 908 230ZM1571 111L1547 94C1494 56 1446 36 1410 36C1363 36 1334 73 1334 133C1334 158 1337 185 1342 214C1359 218 1468 248 1493 259C1578 296 1617 342 1617 404C1617 451 1583 482 1533 482C1465 496 1355 423 1318 349C1288 299 1258 180 1258 113C1258 35 1302 -11 1374 -11C1431 -11 1487 17 1579 92ZM1356 274C1373 343 1393 386 1422 412C1440 428 1471 440 1495 440C1524 440 1543 420 1543 388C1543 344 1508 297 1456 272C1428 258 1392 247 1347 237ZM1655 388L1662 368L1694 389C1731 412 1734 414 1741 414C1752 414 1759 404 1759 389C1759 338 1718 145 1677 2L1684 -9C1709 -2 1732 4 1754 8C1773 134 1794 199 1840 268C1894 352 1969 414 2014 414C2025 414 2031 405 2031 390C2031 372 2028 351 2020 319L1968 107C1959 70 1955 47 1955 31C1955 6 1966 -9 1985 -9C2011 -9 2047 12 2145 85L2135 103L2109 86C2080 67 2058 56 2048 56C2041 56 2035 65 2035 76C2035 81 2036 92 2037 96L2103 372C2110 401 2114 429 2114 446C2114 469 2103 482 2083 482C2041 482 1972 444 1913 389C1875 354 1847 320 1795 247L1833 408C1837 426 1839 438 1839 449C1839 470 1831 482 1816 482C1795 482 1756 460 1683 408Z" stroke="rgb(0, 0, 0)" stroke-width="8" fill="rgb(0, 0, 0)" style="transform:matrix(0.024480000000000002,0,0,-0.024480000000000002,0,0);"></path></g><g style="transform:matrix(1,0,0,1,491.6458740234375,111.64668701171875);"><path d="M146 266C146 526 243 632 301 700L282 726C225 675 60 542 60 266C60 159 85 58 133 -32C168 -99 200 -138 282 -215L301 -194C255 -137 146 -15 146 266Z" stroke="rgb(0, 0, 0)" stroke-width="8" fill="rgb(0, 0, 0)" style="transform:matrix(0.024480000000000002,0,0,-0.024480000000000002,0,0);"></path></g><g style="transform:matrix(1,0,0,1,499.78125,111.64668701171875);"><path d="M24 388L31 368L63 389C100 412 103 414 110 414C121 414 128 404 128 389C128 338 87 145 46 2L53 -9C78 -2 101 4 123 8C142 134 163 199 209 268C263 352 338 414 383 414C394 414 400 405 400 390C400 372 397 351 389 319L337 107C328 70 324 47 324 31C324 6 335 -9 354 -9C380 -9 416 12 514 85L504 103L478 86C449 67 427 56 417 56C410 56 404 65 404 76C404 81 405 92 406 96L472 372C479 401 483 429 483 446C483 469 472 482 452 482C410 482 341 444 282 389C244 354 216 320 164 247L202 408C206 426 208 438 208 449C208 470 200 482 185 482C164 482 125 460 52 408Z" stroke="rgb(0, 0, 0)" stroke-width="8" fill="rgb(0, 0, 0)" style="transform:matrix(0.024480000000000002,0,0,-0.024480000000000002,0,0);"></path></g><g><g><g><g style="transform:matrix(1,0,0,1,514.1041870117188,115.96934350585937);"><path d="M418 -3L418 27L366 30C311 33 301 44 301 96L301 700L60 598L67 548L217 614L217 96C217 44 206 33 152 30L96 27L96 -3C250 0 250 0 261 0C292 0 402 -3 418 -3Z" stroke="rgb(0, 0, 0)" stroke-width="8" fill="rgb(0, 0, 0)" style="transform:matrix(0.017136,0,0,-0.017136,0,0);"></path></g></g></g></g><g style="transform:matrix(1,0,0,1,524.125,111.64668701171875);"><path d="M51 726L32 700C87 636 187 526 187 266C187 -10 83 -131 32 -194L51 -215C104 -165 273 -23 273 265C273 542 108 675 51 726Z" stroke="rgb(0, 0, 0)" stroke-width="8" fill="rgb(0, 0, 0)" style="transform:matrix(0.024480000000000002,0,0,-0.024480000000000002,0,0);"></path></g><g style="transform:matrix(1,0,0,1,539.6041870117188,111.64668701171875);"><path d="M604 347L604 406L65 406L65 347ZM604 134L604 193L65 193L65 134Z" stroke="rgb(0, 0, 0)" stroke-width="8" fill="rgb(0, 0, 0)" style="transform:matrix(0.024480000000000002,0,0,-0.024480000000000002,0,0);"></path></g><g style="transform:matrix(1,0,0,1,563.3021240234375,111.64668701171875);"><path d="M289 -175C226 -161 206 -117 206 -45L206 128C206 207 197 253 125 272L125 274C194 292 206 335 206 409L206 595C206 667 224 707 289 726C189 726 134 703 134 578L134 392C134 327 120 292 58 273C124 254 134 223 134 151L134 -17C134 -149 176 -175 289 -175Z" stroke="rgb(0, 0, 0)" stroke-width="8" fill="rgb(0, 0, 0)" style="transform:matrix(0.024480000000000002,0,0,-0.024480000000000002,0,0);"></path></g><g style="transform:matrix(1,0,0,1,572.65625,111.64668701171875);"><path d="M125 390L69 107C68 99 56 61 56 31C56 6 67 -9 86 -9C121 -9 156 11 234 74L265 99L255 117L210 86C181 66 161 56 150 56C141 56 136 64 136 76C136 102 150 183 179 328L192 390L299 390L310 440C272 436 238 434 200 434C216 528 227 577 245 631L234 646C214 634 187 622 156 610L131 440C87 419 61 408 43 403L41 390Z" stroke="rgb(0, 0, 0)" stroke-width="8" fill="rgb(0, 0, 0)" style="transform:matrix(0.024480000000000002,0,0,-0.024480000000000002,0,0);"></path></g><g><g><g><g style="transform:matrix(1,0,0,1,581.5208740234375,115.96934350585937);"><path d="M418 -3L418 27L366 30C311 33 301 44 301 96L301 700L60 598L67 548L217 614L217 96C217 44 206 33 152 30L96 27L96 -3C250 0 250 0 261 0C292 0 402 -3 418 -3Z" stroke="rgb(0, 0, 0)" stroke-width="8" fill="rgb(0, 0, 0)" style="transform:matrix(0.017136,0,0,-0.017136,0,0);"></path></g></g></g></g><g style="transform:matrix(1,0,0,1,591.5416870117188,111.64668701171875);"><path d="M204 123C177 114 159 108 106 93C99 17 74 -48 16 -144L30 -155L71 -136C152 -31 190 32 218 109Z" stroke="rgb(0, 0, 0)" stroke-width="8" fill="rgb(0, 0, 0)" style="transform:matrix(0.024480000000000002,0,0,-0.024480000000000002,0,0);"></path></g><g style="transform:matrix(1,0,0,1,602.541748046875,111.64668701171875);"><path d="M374 390L318 107C317 99 305 61 305 31C305 6 316 -9 335 -9C370 -9 405 11 483 74L514 99L504 117L459 86C430 66 410 56 399 56C390 56 385 64 385 76C385 102 399 183 428 328L441 390L548 390L559 440C521 436 487 434 449 434C465 528 476 577 494 631L483 646C463 634 436 622 405 610L380 440C336 419 310 408 292 403L290 390Z" stroke="rgb(0, 0, 0)" stroke-width="8" fill="rgb(0, 0, 0)" style="transform:matrix(0.024480000000000002,0,0,-0.024480000000000002,0,0);"></path></g><g><g><g><g style="transform:matrix(1,0,0,1,617.5,115.96934350585937);"><path d="M459 253C459 366 378 446 264 446C216 446 180 443 127 396L127 605L432 604L432 689L75 690L75 322L95 316C142 363 169 377 218 377C314 377 374 309 374 201C374 90 310 25 201 25C147 25 97 43 83 69L37 151L13 137C36 80 48 48 62 4C90 -11 130 -20 173 -20C301 -20 459 89 459 253Z" stroke="rgb(0, 0, 0)" stroke-width="8" fill="rgb(0, 0, 0)" style="transform:matrix(0.017136,0,0,-0.017136,0,0);"></path></g></g></g></g><g style="transform:matrix(1,0,0,1,628.7396240234375,111.64668701171875);"><path d="M275 273C213 292 199 327 199 392L199 578C199 703 144 726 44 726C109 707 127 667 127 595L127 409C127 335 139 292 208 274L208 272C136 253 127 207 127 128L127 -45C127 -117 107 -161 44 -175C157 -175 199 -149 199 -17L199 151C199 223 209 254 275 273Z" stroke="rgb(0, 0, 0)" stroke-width="8" fill="rgb(0, 0, 0)" style="transform:matrix(0.024480000000000002,0,0,-0.024480000000000002,0,0);"></path></g></g></g></g></g></g><g><g><g><g><g><g style="transform:matrix(1,0,0,1,439.125,164.64668701171874);"><path d="M125 390L69 107C68 99 56 61 56 31C56 6 67 -9 86 -9C121 -9 156 11 234 74L265 99L255 117L210 86C181 66 161 56 150 56C141 56 136 64 136 76C136 102 150 183 179 328L192 390L299 390L310 440C272 436 238 434 200 434C216 528 227 577 245 631L234 646C214 634 187 622 156 610L131 440C87 419 61 408 43 403L41 390ZM349 152C349 46 394 -11 477 -11C532 -11 592 15 637 57C699 116 743 230 743 331C743 425 693 482 610 482C506 482 349 382 349 152ZM573 444C634 444 667 399 667 315C667 219 636 113 592 60C574 39 548 27 517 27C459 27 425 72 425 151C425 264 464 387 513 427C526 438 549 444 573 444ZM1015 722L1003 733C951 707 915 698 843 691L839 670L887 670C911 670 921 663 921 646C921 638 920 629 919 622L871 354C857 279 841 210 789 1L798 -9L865 8L888 132C897 180 921 225 955 259C1024 59 1056 -9 1081 -9C1094 -9 1118 4 1162 35L1208 67L1200 86L1157 62C1143 54 1136 52 1128 52C1118 52 1111 58 1102 75C1067 139 1045 193 1006 316L1020 330C1081 391 1127 416 1177 416C1185 416 1196 414 1213 410L1230 473C1212 479 1194 482 1182 482C1116 482 1033 405 908 230ZM1571 111L1547 94C1494 56 1446 36 1410 36C1363 36 1334 73 1334 133C1334 158 1337 185 1342 214C1359 218 1468 248 1493 259C1578 296 1617 342 1617 404C1617 451 1583 482 1533 482C1465 496 1355 423 1318 349C1288 299 1258 180 1258 113C1258 35 1302 -11 1374 -11C1431 -11 1487 17 1579 92ZM1356 274C1373 343 1393 386 1422 412C1440 428 1471 440 1495 440C1524 440 1543 420 1543 388C1543 344 1508 297 1456 272C1428 258 1392 247 1347 237ZM1655 388L1662 368L1694 389C1731 412 1734 414 1741 414C1752 414 1759 404 1759 389C1759 338 1718 145 1677 2L1684 -9C1709 -2 1732 4 1754 8C1773 134 1794 199 1840 268C1894 352 1969 414 2014 414C2025 414 2031 405 2031 390C2031 372 2028 351 2020 319L1968 107C1959 70 1955 47 1955 31C1955 6 1966 -9 1985 -9C2011 -9 2047 12 2145 85L2135 103L2109 86C2080 67 2058 56 2048 56C2041 56 2035 65 2035 76C2035 81 2036 92 2037 96L2103 372C2110 401 2114 429 2114 446C2114 469 2103 482 2083 482C2041 482 1972 444 1913 389C1875 354 1847 320 1795 247L1833 408C1837 426 1839 438 1839 449C1839 470 1831 482 1816 482C1795 482 1756 460 1683 408Z" stroke="rgb(0, 0, 0)" stroke-width="8" fill="rgb(0, 0, 0)" style="transform:matrix(0.024480000000000002,0,0,-0.024480000000000002,0,0);"></path></g><g style="transform:matrix(1,0,0,1,492.6458740234375,164.64668701171874);"><path d="M146 266C146 526 243 632 301 700L282 726C225 675 60 542 60 266C60 159 85 58 133 -32C168 -99 200 -138 282 -215L301 -194C255 -137 146 -15 146 266Z" stroke="rgb(0, 0, 0)" stroke-width="8" fill="rgb(0, 0, 0)" style="transform:matrix(0.024480000000000002,0,0,-0.024480000000000002,0,0);"></path></g><g style="transform:matrix(1,0,0,1,500.78125,164.64668701171874);"><path d="M24 388L31 368L63 389C100 412 103 414 110 414C121 414 128 404 128 389C128 338 87 145 46 2L53 -9C78 -2 101 4 123 8C142 134 163 199 209 268C263 352 338 414 383 414C394 414 400 405 400 390C400 372 397 351 389 319L337 107C328 70 324 47 324 31C324 6 335 -9 354 -9C380 -9 416 12 514 85L504 103L478 86C449 67 427 56 417 56C410 56 404 65 404 76C404 81 405 92 406 96L472 372C479 401 483 429 483 446C483 469 472 482 452 482C410 482 341 444 282 389C244 354 216 320 164 247L202 408C206 426 208 438 208 449C208 470 200 482 185 482C164 482 125 460 52 408Z" stroke="rgb(0, 0, 0)" stroke-width="8" fill="rgb(0, 0, 0)" style="transform:matrix(0.024480000000000002,0,0,-0.024480000000000002,0,0);"></path></g><g><g><g><g style="transform:matrix(1,0,0,1,515.1041870117188,168.96934350585937);"><path d="M16 23L16 -3C203 -3 203 0 239 0C275 0 275 -3 468 -3L468 82C353 77 307 81 122 77L304 270C401 373 431 428 431 503C431 618 353 689 226 689C154 689 105 669 56 619L39 483L68 483L81 529C97 587 133 612 200 612C286 612 341 558 341 473C341 398 299 324 186 204Z" stroke="rgb(0, 0, 0)" stroke-width="8" fill="rgb(0, 0, 0)" style="transform:matrix(0.017136,0,0,-0.017136,0,0);"></path></g></g></g></g><g style="transform:matrix(1,0,0,1,525.125,164.64668701171874);"><path d="M51 726L32 700C87 636 187 526 187 266C187 -10 83 -131 32 -194L51 -215C104 -165 273 -23 273 265C273 542 108 675 51 726Z" stroke="rgb(0, 0, 0)" stroke-width="8" fill="rgb(0, 0, 0)" style="transform:matrix(0.024480000000000002,0,0,-0.024480000000000002,0,0);"></path></g><g style="transform:matrix(1,0,0,1,540.6041870117188,164.64668701171874);"><path d="M604 347L604 406L65 406L65 347ZM604 134L604 193L65 193L65 134Z" stroke="rgb(0, 0, 0)" stroke-width="8" fill="rgb(0, 0, 0)" style="transform:matrix(0.024480000000000002,0,0,-0.024480000000000002,0,0);"></path></g><g style="transform:matrix(1,0,0,1,564.3021240234375,164.64668701171874);"><path d="M289 -175C226 -161 206 -117 206 -45L206 128C206 207 197 253 125 272L125 274C194 292 206 335 206 409L206 595C206 667 224 707 289 726C189 726 134 703 134 578L134 392C134 327 120 292 58 273C124 254 134 223 134 151L134 -17C134 -149 176 -175 289 -175Z" stroke="rgb(0, 0, 0)" stroke-width="8" fill="rgb(0, 0, 0)" style="transform:matrix(0.024480000000000002,0,0,-0.024480000000000002,0,0);"></path></g><g style="transform:matrix(1,0,0,1,573.65625,164.64668701171874);"><path d="M125 390L69 107C68 99 56 61 56 31C56 6 67 -9 86 -9C121 -9 156 11 234 74L265 99L255 117L210 86C181 66 161 56 150 56C141 56 136 64 136 76C136 102 150 183 179 328L192 390L299 390L310 440C272 436 238 434 200 434C216 528 227 577 245 631L234 646C214 634 187 622 156 610L131 440C87 419 61 408 43 403L41 390Z" stroke="rgb(0, 0, 0)" stroke-width="8" fill="rgb(0, 0, 0)" style="transform:matrix(0.024480000000000002,0,0,-0.024480000000000002,0,0);"></path></g><g><g><g><g style="transform:matrix(1,0,0,1,582.5208740234375,168.96934350585937);"><path d="M462 224C462 345 355 366 308 374C388 436 418 482 418 541C418 630 344 689 233 689C165 689 120 670 72 622L43 498L74 498L92 554C103 588 166 622 218 622C283 622 336 569 336 506C336 431 277 368 206 368C198 368 187 369 174 370L159 371L147 318L154 312C192 329 211 334 238 334C321 334 369 281 369 190C369 88 308 21 215 21C169 21 128 36 98 64C74 86 61 109 42 163L15 153C36 92 44 56 50 6C103 -12 147 -20 184 -20C307 -20 462 87 462 224Z" stroke="rgb(0, 0, 0)" stroke-width="8" fill="rgb(0, 0, 0)" style="transform:matrix(0.017136,0,0,-0.017136,0,0);"></path></g></g></g></g><g style="transform:matrix(1,0,0,1,592.5416870117188,164.64668701171874);"><path d="M204 123C177 114 159 108 106 93C99 17 74 -48 16 -144L30 -155L71 -136C152 -31 190 32 218 109Z" stroke="rgb(0, 0, 0)" stroke-width="8" fill="rgb(0, 0, 0)" style="transform:matrix(0.024480000000000002,0,0,-0.024480000000000002,0,0);"></path></g><g style="transform:matrix(1,0,0,1,603.541748046875,164.64668701171874);"><path d="M374 390L318 107C317 99 305 61 305 31C305 6 316 -9 335 -9C370 -9 405 11 483 74L514 99L504 117L459 86C430 66 410 56 399 56C390 56 385 64 385 76C385 102 399 183 428 328L441 390L548 390L559 440C521 436 487 434 449 434C465 528 476 577 494 631L483 646C463 634 436 622 405 610L380 440C336 419 310 408 292 403L290 390Z" stroke="rgb(0, 0, 0)" stroke-width="8" fill="rgb(0, 0, 0)" style="transform:matrix(0.024480000000000002,0,0,-0.024480000000000002,0,0);"></path></g><g><g><g><g style="transform:matrix(1,0,0,1,618.5,168.96934350585937);"><path d="M409 603L47 -1L157 -1L497 659L497 689L44 689L44 477L74 477L81 533C89 595 96 603 142 603Z" stroke="rgb(0, 0, 0)" stroke-width="8" fill="rgb(0, 0, 0)" style="transform:matrix(0.017136,0,0,-0.017136,0,0);"></path></g></g></g></g><g style="transform:matrix(1,0,0,1,629.7396240234375,164.64668701171874);"><path d="M275 273C213 292 199 327 199 392L199 578C199 703 144 726 44 726C109 707 127 667 127 595L127 409C127 335 139 292 208 274L208 272C136 253 127 207 127 128L127 -45C127 -117 107 -161 44 -175C157 -175 199 -149 199 -17L199 151C199 223 209 254 275 273Z" stroke="rgb(0, 0, 0)" stroke-width="8" fill="rgb(0, 0, 0)" style="transform:matrix(0.024480000000000002,0,0,-0.024480000000000002,0,0);"></path></g></g></g></g></g></g><g><g><g><g><g><g style="transform:matrix(1,0,0,1,439.125,221.64668701171874);"><path d="M125 390L69 107C68 99 56 61 56 31C56 6 67 -9 86 -9C121 -9 156 11 234 74L265 99L255 117L210 86C181 66 161 56 150 56C141 56 136 64 136 76C136 102 150 183 179 328L192 390L299 390L310 440C272 436 238 434 200 434C216 528 227 577 245 631L234 646C214 634 187 622 156 610L131 440C87 419 61 408 43 403L41 390ZM349 152C349 46 394 -11 477 -11C532 -11 592 15 637 57C699 116 743 230 743 331C743 425 693 482 610 482C506 482 349 382 349 152ZM573 444C634 444 667 399 667 315C667 219 636 113 592 60C574 39 548 27 517 27C459 27 425 72 425 151C425 264 464 387 513 427C526 438 549 444 573 444ZM1015 722L1003 733C951 707 915 698 843 691L839 670L887 670C911 670 921 663 921 646C921 638 920 629 919 622L871 354C857 279 841 210 789 1L798 -9L865 8L888 132C897 180 921 225 955 259C1024 59 1056 -9 1081 -9C1094 -9 1118 4 1162 35L1208 67L1200 86L1157 62C1143 54 1136 52 1128 52C1118 52 1111 58 1102 75C1067 139 1045 193 1006 316L1020 330C1081 391 1127 416 1177 416C1185 416 1196 414 1213 410L1230 473C1212 479 1194 482 1182 482C1116 482 1033 405 908 230ZM1571 111L1547 94C1494 56 1446 36 1410 36C1363 36 1334 73 1334 133C1334 158 1337 185 1342 214C1359 218 1468 248 1493 259C1578 296 1617 342 1617 404C1617 451 1583 482 1533 482C1465 496 1355 423 1318 349C1288 299 1258 180 1258 113C1258 35 1302 -11 1374 -11C1431 -11 1487 17 1579 92ZM1356 274C1373 343 1393 386 1422 412C1440 428 1471 440 1495 440C1524 440 1543 420 1543 388C1543 344 1508 297 1456 272C1428 258 1392 247 1347 237ZM1655 388L1662 368L1694 389C1731 412 1734 414 1741 414C1752 414 1759 404 1759 389C1759 338 1718 145 1677 2L1684 -9C1709 -2 1732 4 1754 8C1773 134 1794 199 1840 268C1894 352 1969 414 2014 414C2025 414 2031 405 2031 390C2031 372 2028 351 2020 319L1968 107C1959 70 1955 47 1955 31C1955 6 1966 -9 1985 -9C2011 -9 2047 12 2145 85L2135 103L2109 86C2080 67 2058 56 2048 56C2041 56 2035 65 2035 76C2035 81 2036 92 2037 96L2103 372C2110 401 2114 429 2114 446C2114 469 2103 482 2083 482C2041 482 1972 444 1913 389C1875 354 1847 320 1795 247L1833 408C1837 426 1839 438 1839 449C1839 470 1831 482 1816 482C1795 482 1756 460 1683 408Z" stroke="rgb(0, 0, 0)" stroke-width="8" fill="rgb(0, 0, 0)" style="transform:matrix(0.024480000000000002,0,0,-0.024480000000000002,0,0);"></path></g><g style="transform:matrix(1,0,0,1,492.6458740234375,221.64668701171874);"><path d="M146 266C146 526 243 632 301 700L282 726C225 675 60 542 60 266C60 159 85 58 133 -32C168 -99 200 -138 282 -215L301 -194C255 -137 146 -15 146 266Z" stroke="rgb(0, 0, 0)" stroke-width="8" fill="rgb(0, 0, 0)" style="transform:matrix(0.024480000000000002,0,0,-0.024480000000000002,0,0);"></path></g><g style="transform:matrix(1,0,0,1,500.78125,221.64668701171874);"><path d="M24 388L31 368L63 389C100 412 103 414 110 414C121 414 128 404 128 389C128 338 87 145 46 2L53 -9C78 -2 101 4 123 8C142 134 163 199 209 268C263 352 338 414 383 414C394 414 400 405 400 390C400 372 397 351 389 319L337 107C328 70 324 47 324 31C324 6 335 -9 354 -9C380 -9 416 12 514 85L504 103L478 86C449 67 427 56 417 56C410 56 404 65 404 76C404 81 405 92 406 96L472 372C479 401 483 429 483 446C483 469 472 482 452 482C410 482 341 444 282 389C244 354 216 320 164 247L202 408C206 426 208 438 208 449C208 470 200 482 185 482C164 482 125 460 52 408Z" stroke="rgb(0, 0, 0)" stroke-width="8" fill="rgb(0, 0, 0)" style="transform:matrix(0.024480000000000002,0,0,-0.024480000000000002,0,0);"></path></g><g><g><g><g style="transform:matrix(1,0,0,1,515.1041870117188,225.96934350585937);"><path d="M462 224C462 345 355 366 308 374C388 436 418 482 418 541C418 630 344 689 233 689C165 689 120 670 72 622L43 498L74 498L92 554C103 588 166 622 218 622C283 622 336 569 336 506C336 431 277 368 206 368C198 368 187 369 174 370L159 371L147 318L154 312C192 329 211 334 238 334C321 334 369 281 369 190C369 88 308 21 215 21C169 21 128 36 98 64C74 86 61 109 42 163L15 153C36 92 44 56 50 6C103 -12 147 -20 184 -20C307 -20 462 87 462 224Z" stroke="rgb(0, 0, 0)" stroke-width="8" fill="rgb(0, 0, 0)" style="transform:matrix(0.017136,0,0,-0.017136,0,0);"></path></g></g></g></g><g style="transform:matrix(1,0,0,1,525.125,221.64668701171874);"><path d="M51 726L32 700C87 636 187 526 187 266C187 -10 83 -131 32 -194L51 -215C104 -165 273 -23 273 265C273 542 108 675 51 726Z" stroke="rgb(0, 0, 0)" stroke-width="8" fill="rgb(0, 0, 0)" style="transform:matrix(0.024480000000000002,0,0,-0.024480000000000002,0,0);"></path></g><g style="transform:matrix(1,0,0,1,540.6041870117188,221.64668701171874);"><path d="M604 347L604 406L65 406L65 347ZM604 134L604 193L65 193L65 134Z" stroke="rgb(0, 0, 0)" stroke-width="8" fill="rgb(0, 0, 0)" style="transform:matrix(0.024480000000000002,0,0,-0.024480000000000002,0,0);"></path></g><g style="transform:matrix(1,0,0,1,564.3021240234375,221.64668701171874);"><path d="M289 -175C226 -161 206 -117 206 -45L206 128C206 207 197 253 125 272L125 274C194 292 206 335 206 409L206 595C206 667 224 707 289 726C189 726 134 703 134 578L134 392C134 327 120 292 58 273C124 254 134 223 134 151L134 -17C134 -149 176 -175 289 -175Z" stroke="rgb(0, 0, 0)" stroke-width="8" fill="rgb(0, 0, 0)" style="transform:matrix(0.024480000000000002,0,0,-0.024480000000000002,0,0);"></path></g><g style="transform:matrix(1,0,0,1,573.65625,221.64668701171874);"><path d="M125 390L69 107C68 99 56 61 56 31C56 6 67 -9 86 -9C121 -9 156 11 234 74L265 99L255 117L210 86C181 66 161 56 150 56C141 56 136 64 136 76C136 102 150 183 179 328L192 390L299 390L310 440C272 436 238 434 200 434C216 528 227 577 245 631L234 646C214 634 187 622 156 610L131 440C87 419 61 408 43 403L41 390Z" stroke="rgb(0, 0, 0)" stroke-width="8" fill="rgb(0, 0, 0)" style="transform:matrix(0.024480000000000002,0,0,-0.024480000000000002,0,0);"></path></g><g><g><g><g style="transform:matrix(1,0,0,1,582.5208740234375,225.96934350585937);"><path d="M16 23L16 -3C203 -3 203 0 239 0C275 0 275 -3 468 -3L468 82C353 77 307 81 122 77L304 270C401 373 431 428 431 503C431 618 353 689 226 689C154 689 105 669 56 619L39 483L68 483L81 529C97 587 133 612 200 612C286 612 341 558 341 473C341 398 299 324 186 204Z" stroke="rgb(0, 0, 0)" stroke-width="8" fill="rgb(0, 0, 0)" style="transform:matrix(0.017136,0,0,-0.017136,0,0);"></path></g></g></g></g><g style="transform:matrix(1,0,0,1,592.5416870117188,221.64668701171874);"><path d="M204 123C177 114 159 108 106 93C99 17 74 -48 16 -144L30 -155L71 -136C152 -31 190 32 218 109Z" stroke="rgb(0, 0, 0)" stroke-width="8" fill="rgb(0, 0, 0)" style="transform:matrix(0.024480000000000002,0,0,-0.024480000000000002,0,0);"></path></g><g style="transform:matrix(1,0,0,1,603.541748046875,221.64668701171874);"><path d="M374 390L318 107C317 99 305 61 305 31C305 6 316 -9 335 -9C370 -9 405 11 483 74L514 99L504 117L459 86C430 66 410 56 399 56C390 56 385 64 385 76C385 102 399 183 428 328L441 390L548 390L559 440C521 436 487 434 449 434C465 528 476 577 494 631L483 646C463 634 436 622 405 610L380 440C336 419 310 408 292 403L290 390Z" stroke="rgb(0, 0, 0)" stroke-width="8" fill="rgb(0, 0, 0)" style="transform:matrix(0.024480000000000002,0,0,-0.024480000000000002,0,0);"></path></g><g><g><g><g style="transform:matrix(1,0,0,1,618.5,225.96934350585937);"><path d="M131 331C152 512 241 611 421 665L379 689C283 657 242 637 191 593C88 506 32 384 32 247C32 82 112 -20 241 -20C371 -20 468 83 468 219C468 334 399 409 293 409C216 409 184 370 131 331ZM255 349C331 349 382 283 382 184C382 80 331 13 254 13C169 13 123 86 123 220C123 255 127 274 138 291C160 325 207 349 255 349Z" stroke="rgb(0, 0, 0)" stroke-width="8" fill="rgb(0, 0, 0)" style="transform:matrix(0.017136,0,0,-0.017136,0,0);"></path></g></g></g></g><g style="transform:matrix(1,0,0,1,629.7396240234375,221.64668701171874);"><path d="M275 273C213 292 199 327 199 392L199 578C199 703 144 726 44 726C109 707 127 667 127 595L127 409C127 335 139 292 208 274L208 272C136 253 127 207 127 128L127 -45C127 -117 107 -161 44 -175C157 -175 199 -149 199 -17L199 151C199 223 209 254 275 273Z" stroke="rgb(0, 0, 0)" stroke-width="8" fill="rgb(0, 0, 0)" style="transform:matrix(0.024480000000000002,0,0,-0.024480000000000002,0,0);"></path></g></g></g></g></g></g><g><g><g><g><g><g style="transform:matrix(1,0,0,1,439.125,281.64668701171877);"><path d="M125 390L69 107C68 99 56 61 56 31C56 6 67 -9 86 -9C121 -9 156 11 234 74L265 99L255 117L210 86C181 66 161 56 150 56C141 56 136 64 136 76C136 102 150 183 179 328L192 390L299 390L310 440C272 436 238 434 200 434C216 528 227 577 245 631L234 646C214 634 187 622 156 610L131 440C87 419 61 408 43 403L41 390ZM349 152C349 46 394 -11 477 -11C532 -11 592 15 637 57C699 116 743 230 743 331C743 425 693 482 610 482C506 482 349 382 349 152ZM573 444C634 444 667 399 667 315C667 219 636 113 592 60C574 39 548 27 517 27C459 27 425 72 425 151C425 264 464 387 513 427C526 438 549 444 573 444ZM1015 722L1003 733C951 707 915 698 843 691L839 670L887 670C911 670 921 663 921 646C921 638 920 629 919 622L871 354C857 279 841 210 789 1L798 -9L865 8L888 132C897 180 921 225 955 259C1024 59 1056 -9 1081 -9C1094 -9 1118 4 1162 35L1208 67L1200 86L1157 62C1143 54 1136 52 1128 52C1118 52 1111 58 1102 75C1067 139 1045 193 1006 316L1020 330C1081 391 1127 416 1177 416C1185 416 1196 414 1213 410L1230 473C1212 479 1194 482 1182 482C1116 482 1033 405 908 230ZM1571 111L1547 94C1494 56 1446 36 1410 36C1363 36 1334 73 1334 133C1334 158 1337 185 1342 214C1359 218 1468 248 1493 259C1578 296 1617 342 1617 404C1617 451 1583 482 1533 482C1465 496 1355 423 1318 349C1288 299 1258 180 1258 113C1258 35 1302 -11 1374 -11C1431 -11 1487 17 1579 92ZM1356 274C1373 343 1393 386 1422 412C1440 428 1471 440 1495 440C1524 440 1543 420 1543 388C1543 344 1508 297 1456 272C1428 258 1392 247 1347 237ZM1655 388L1662 368L1694 389C1731 412 1734 414 1741 414C1752 414 1759 404 1759 389C1759 338 1718 145 1677 2L1684 -9C1709 -2 1732 4 1754 8C1773 134 1794 199 1840 268C1894 352 1969 414 2014 414C2025 414 2031 405 2031 390C2031 372 2028 351 2020 319L1968 107C1959 70 1955 47 1955 31C1955 6 1966 -9 1985 -9C2011 -9 2047 12 2145 85L2135 103L2109 86C2080 67 2058 56 2048 56C2041 56 2035 65 2035 76C2035 81 2036 92 2037 96L2103 372C2110 401 2114 429 2114 446C2114 469 2103 482 2083 482C2041 482 1972 444 1913 389C1875 354 1847 320 1795 247L1833 408C1837 426 1839 438 1839 449C1839 470 1831 482 1816 482C1795 482 1756 460 1683 408Z" stroke="rgb(0, 0, 0)" stroke-width="8" fill="rgb(0, 0, 0)" style="transform:matrix(0.024480000000000002,0,0,-0.024480000000000002,0,0);"></path></g><g style="transform:matrix(1,0,0,1,492.6458740234375,281.64668701171877);"><path d="M146 266C146 526 243 632 301 700L282 726C225 675 60 542 60 266C60 159 85 58 133 -32C168 -99 200 -138 282 -215L301 -194C255 -137 146 -15 146 266Z" stroke="rgb(0, 0, 0)" stroke-width="8" fill="rgb(0, 0, 0)" style="transform:matrix(0.024480000000000002,0,0,-0.024480000000000002,0,0);"></path></g><g style="transform:matrix(1,0,0,1,500.78125,281.64668701171877);"><path d="M24 388L31 368L63 389C100 412 103 414 110 414C121 414 128 404 128 389C128 338 87 145 46 2L53 -9C78 -2 101 4 123 8C142 134 163 199 209 268C263 352 338 414 383 414C394 414 400 405 400 390C400 372 397 351 389 319L337 107C328 70 324 47 324 31C324 6 335 -9 354 -9C380 -9 416 12 514 85L504 103L478 86C449 67 427 56 417 56C410 56 404 65 404 76C404 81 405 92 406 96L472 372C479 401 483 429 483 446C483 469 472 482 452 482C410 482 341 444 282 389C244 354 216 320 164 247L202 408C206 426 208 438 208 449C208 470 200 482 185 482C164 482 125 460 52 408Z" stroke="rgb(0, 0, 0)" stroke-width="8" fill="rgb(0, 0, 0)" style="transform:matrix(0.024480000000000002,0,0,-0.024480000000000002,0,0);"></path></g><g><g><g><g style="transform:matrix(1,0,0,1,515.1041870117188,285.9693435058594);"><path d="M280 181L280 106C280 46 269 32 220 30L158 27L158 -3C291 0 291 0 315 0C339 0 339 0 472 -3L472 27L424 30C375 33 364 46 364 106L364 181C423 181 444 180 472 177L472 248L364 245L365 697L285 667L2 204L2 181ZM280 245L65 245L280 597Z" stroke="rgb(0, 0, 0)" stroke-width="8" fill="rgb(0, 0, 0)" style="transform:matrix(0.017136,0,0,-0.017136,0,0);"></path></g></g></g></g><g style="transform:matrix(1,0,0,1,525.125,281.64668701171877);"><path d="M51 726L32 700C87 636 187 526 187 266C187 -10 83 -131 32 -194L51 -215C104 -165 273 -23 273 265C273 542 108 675 51 726Z" stroke="rgb(0, 0, 0)" stroke-width="8" fill="rgb(0, 0, 0)" style="transform:matrix(0.024480000000000002,0,0,-0.024480000000000002,0,0);"></path></g><g style="transform:matrix(1,0,0,1,540.6041870117188,281.64668701171877);"><path d="M604 347L604 406L65 406L65 347ZM604 134L604 193L65 193L65 134Z" stroke="rgb(0, 0, 0)" stroke-width="8" fill="rgb(0, 0, 0)" style="transform:matrix(0.024480000000000002,0,0,-0.024480000000000002,0,0);"></path></g><g style="transform:matrix(1,0,0,1,564.3021240234375,281.64668701171877);"><path d="M289 -175C226 -161 206 -117 206 -45L206 128C206 207 197 253 125 272L125 274C194 292 206 335 206 409L206 595C206 667 224 707 289 726C189 726 134 703 134 578L134 392C134 327 120 292 58 273C124 254 134 223 134 151L134 -17C134 -149 176 -175 289 -175Z" stroke="rgb(0, 0, 0)" stroke-width="8" fill="rgb(0, 0, 0)" style="transform:matrix(0.024480000000000002,0,0,-0.024480000000000002,0,0);"></path></g><g style="transform:matrix(1,0,0,1,573.65625,281.64668701171877);"><path d="M125 390L69 107C68 99 56 61 56 31C56 6 67 -9 86 -9C121 -9 156 11 234 74L265 99L255 117L210 86C181 66 161 56 150 56C141 56 136 64 136 76C136 102 150 183 179 328L192 390L299 390L310 440C272 436 238 434 200 434C216 528 227 577 245 631L234 646C214 634 187 622 156 610L131 440C87 419 61 408 43 403L41 390Z" stroke="rgb(0, 0, 0)" stroke-width="8" fill="rgb(0, 0, 0)" style="transform:matrix(0.024480000000000002,0,0,-0.024480000000000002,0,0);"></path></g><g><g><g><g style="transform:matrix(1,0,0,1,582.5208740234375,285.9693435058594);"><path d="M280 181L280 106C280 46 269 32 220 30L158 27L158 -3C291 0 291 0 315 0C339 0 339 0 472 -3L472 27L424 30C375 33 364 46 364 106L364 181C423 181 444 180 472 177L472 248L364 245L365 697L285 667L2 204L2 181ZM280 245L65 245L280 597Z" stroke="rgb(0, 0, 0)" stroke-width="8" fill="rgb(0, 0, 0)" style="transform:matrix(0.017136,0,0,-0.017136,0,0);"></path></g></g></g></g><g style="transform:matrix(1,0,0,1,592.5416870117188,281.64668701171877);"><path d="M204 123C177 114 159 108 106 93C99 17 74 -48 16 -144L30 -155L71 -136C152 -31 190 32 218 109Z" stroke="rgb(0, 0, 0)" stroke-width="8" fill="rgb(0, 0, 0)" style="transform:matrix(0.024480000000000002,0,0,-0.024480000000000002,0,0);"></path></g><g style="transform:matrix(1,0,0,1,603.541748046875,281.64668701171877);"><path d="M374 390L318 107C317 99 305 61 305 31C305 6 316 -9 335 -9C370 -9 405 11 483 74L514 99L504 117L459 86C430 66 410 56 399 56C390 56 385 64 385 76C385 102 399 183 428 328L441 390L548 390L559 440C521 436 487 434 449 434C465 528 476 577 494 631L483 646C463 634 436 622 405 610L380 440C336 419 310 408 292 403L290 390Z" stroke="rgb(0, 0, 0)" stroke-width="8" fill="rgb(0, 0, 0)" style="transform:matrix(0.024480000000000002,0,0,-0.024480000000000002,0,0);"></path></g><g><g><g><g style="transform:matrix(1,0,0,1,618.5,285.9693435058594);"><path d="M168 345C127 326 110 315 88 294C50 256 30 211 30 159C30 56 113 -20 226 -20C356 -20 464 82 464 206C464 286 427 329 313 381C404 443 436 485 436 545C436 631 365 689 259 689C140 689 53 613 53 508C53 440 80 402 168 345ZM284 295C347 267 385 218 385 164C385 80 322 14 241 14C156 14 101 74 101 167C101 240 130 286 204 331ZM223 423C160 454 128 494 128 544C128 610 176 655 247 655C320 655 368 607 368 534C368 477 343 438 278 396Z" stroke="rgb(0, 0, 0)" stroke-width="8" fill="rgb(0, 0, 0)" style="transform:matrix(0.017136,0,0,-0.017136,0,0);"></path></g></g></g></g><g style="transform:matrix(1,0,0,1,629.7396240234375,281.64668701171877);"><path d="M275 273C213 292 199 327 199 392L199 578C199 703 144 726 44 726C109 707 127 667 127 595L127 409C127 335 139 292 208 274L208 272C136 253 127 207 127 128L127 -45C127 -117 107 -161 44 -175C157 -175 199 -149 199 -17L199 151C199 223 209 254 275 273Z" stroke="rgb(0, 0, 0)" stroke-width="8" fill="rgb(0, 0, 0)" style="transform:matrix(0.024480000000000002,0,0,-0.024480000000000002,0,0);"></path></g></g></g></g></g></g><g><g><g style="transform:matrix(1,0,0,1,471.734375,61.95);"><path d="M35 623L177 623L295 624L295 0L384 0L384 624L501 623L643 623L643 689L35 689ZM627 221C627 85 732 -11 846 -11C960 -11 1066 84 1066 220C1066 345 974 461 846 461C728 461 627 357 627 221ZM705 231C705 352 782 399 846 399C910 399 987 353 987 231C987 106 913 53 846 53C780 53 705 105 705 231ZM1180 0L1250 0L1250 142L1330 224L1486 0L1568 0L1378 273L1546 445L1456 445L1252 236L1252 722L1180 722ZM1592 226C1592 102 1679 -11 1810 -11C1873 -11 1925 11 1968 40L1962 106C1918 74 1873 51 1810 51C1734 51 1666 117 1662 220L1972 220L1972 249C1963 420 1865 461 1794 461C1688 461 1592 360 1592 226ZM1667 275C1678 324 1718 399 1794 399C1823 399 1898 386 1915 275ZM2082 0L2160 0L2160 240C2160 314 2185 394 2262 394C2360 394 2360 319 2360 281L2360 0L2438 0L2438 288C2438 358 2429 455 2301 455C2213 455 2169 398 2155 380L2155 450L2082 450ZM2952 0L3030 0L3030 624C3039 580 3063 517 3102 411L3252 22L3324 22L3478 423L3538 587L3548 624L3549 592L3549 0L3627 0L3627 694L3512 694L3358 292C3309 164 3293 114 3290 92L3289 92C3285 115 3261 182 3220 293L3066 694L2952 694ZM3771 113C3771 67 3801 -11 3885 -11C3995 -11 4050 34 4051 35L4051 0L4127 0L4127 305C4122 389 4056 461 3961 461C3898 461 3852 445 3804 417L3810 350C3843 373 3885 401 3960 401C3973 401 3999 400 4023 371C4048 341 4048 307 4049 279L4049 245C3946 244 3771 219 3771 113ZM3844 114C3844 177 3977 192 4049 193L4049 130C4049 65 3980 51 3937 51C3883 51 3844 78 3844 114ZM4288 -195L4366 -195L4366 46C4399 15 4442 -11 4501 -11C4598 -11 4687 83 4687 224C4687 343 4624 455 4529 455C4495 455 4427 448 4363 396L4363 445L4288 445ZM4366 126L4366 334C4372 341 4406 391 4472 391C4554 391 4608 310 4608 222C4608 116 4533 50 4463 50C4404 50 4366 102 4366 126Z" stroke="rgb(0, 0, 0)" stroke-width="8" fill="rgb(0, 0, 0)" style="transform:matrix(0.02595,0,0,-0.02595,0,0);"></path></g></g></g></svg>
</svg>
